<?xml version="1.0" encoding="UTF-8" standalone="no"?>
<svg xmlns:rdf="http://www.w3.org/1999/02/22-rdf-syntax-ns#" xmlns="http://www.w3.org/2000/svg" xml:space="preserve" height="192.21" viewBox="0 0 202 192.20724" width="202" version="1.1" xmlns:cc="http://creativecommons.org/ns#" xmlns:xlink="http://www.w3.org/1999/xlink" xmlns:dc="http://purl.org/dc/elements/1.1/"><g transform="matrix(1.25 0 0 -1.25 27.359 1016.2)"><g style="" transform="matrix(4.4037 0 0 4.4037 -196.43 -2501)"><path d="m76.151 733.93v6.741h-9.844v4.951h2.05v6.741h-12.675v-6.741h1.912v-4.951h-7.014v4.951h1.913v6.741h-12.675v-6.741h2.051v-12.305l3.943-3.395h3.989v-5.376h-2.051v-6.737h12.675v6.737h-1.913v1.242h6.876v-1.242h-1.912v-6.737h12.675v6.737h-2.05v9.384h2.05z" fill="#c92a39"/><path d="m63.291 731.85 2.995 2.656v-2.656h-2.995zm11.901 3.034v4.823h-9.844v6.869h2.05v4.822h-10.757v-4.822h1.912v-6.869h-8.931v6.869h1.913v4.822h-10.758v-4.822h2.051v-12.824l3.34-2.876h4.592v-7.294h-2.051v-4.82h10.758v4.82h-1.913v3.16h8.793v-3.16h-1.912v-4.82h10.757v4.82h-2.05v11.302h2.05z" fill="#fff"/><path d="m2.3379 4.3379v3.75h2.5645v16.648l3.459 2.9766h5.3184v-3.873h-2.5645v-15.752h2.3906v-3.75h-11.168zm19.83 0v3.75h2.3906v15.752h-2.3906v3.873h5.252l3.3535-2.9766v-16.648h2.5625v-3.75h-11.168zm-9.916 14.613v3.752h2.5645v16.404h-2.5645v3.748h11.17v-3.748h-2.3926v-6.2266h13.27v6.2266h-2.3887v3.748h11.168v-3.748h-2.5625v-16.404h2.5625v-3.752h-11.168v3.752h2.3887v6.1465h-13.27v-6.1465h2.3926v-3.752h-11.17z" transform="matrix(.8 0 0 -.8 39.818 753.96)" fill="#c92a39"/><path d="m2.3379 4.3379v3.75h2.5645v16.648l3.459 2.9766h5.3184v-1.9355h-3.6934l-1.9785-1.7031v-17.861h-3.7949l-1.875-1.875zm19.83 0v3.75h2.3906v15.752l1.6895 1.4551 1.418-1.2227v-17.859h-3.623l-1.875-1.875zm-12.928 1.875 1.875 1.875h2.3906l-1.875-1.875h-2.3906zm19.658 0 1.875 1.875h2.5625l-1.875-1.875h-2.5625zm-16.646 12.74v3.75h2.5645v16.406l1.8828 1.873h-2.5742l-1.873-1.873v3.7461h11.17l-1.873-1.873h-3.627v-20.154h-3.7949l-1.875-1.875zm19.658 0v3.75h2.3906v6.1465l2.0156 2.0156h-17.301l2.0137 2.0156h13.271v6.2285l1.8828 1.873h-2.4004l-1.873-1.873v3.7461h11.168l-1.873-1.873h-3.7969v-20.154h-3.623l-1.875-1.875zm-12.756 1.875 1.877 1.875h2.3906l-1.875-1.875h-2.3926zm19.486 0 1.875 1.875h2.5625l-1.875-1.875h-2.5625zm-16.473 4.9492v1.9355h5.2539l-2.2461-1.9355h-3.0078z" transform="matrix(.8 0 0 -.8 39.818 753.96)" fill="#7d2935"/></g></g></svg>
