<?xml version="1.0" encoding="UTF-8" standalone="no"?>
<svg xmlns:rdf="http://www.w3.org/1999/02/22-rdf-syntax-ns#" xmlns="http://www.w3.org/2000/svg" xml:space="preserve" height="133.3" viewBox="0 0 150 133.30203" width="150" version="1.1" xmlns:cc="http://creativecommons.org/ns#" xmlns:dc="http://purl.org/dc/elements/1.1/"><g transform="matrix(1.25 0 0 -1.25 -138.87 485.48)"><g transform="matrix(1.5997 0 0 1.5997 -101.36 -199.7)"><path d="m204.04 359.54c-4.509 4.839-11.291 5.552-15.941 4.187-0.659 0.582-2.004 1.679-3.101 1.984-1.679 0.465-2.725 0.217-3.337-0.104-0.907 0.563-2.794 1.568-4.61 1.481-1.993-0.096-3.32-1.372-3.928-2.111-2.331 0.747-4.799 0.733-6.995-0.066-3.462-1.26-4.581-3.326-5.014-4.173-0.449-0.077-1.179-0.272-1.847-0.88-0.272-0.247-0.671-0.796-1.354-1.745-0.646-0.897-1.45-2.014-1.885-2.426-1.301-1.229-1.878-1.422-2.612-1.373-0.467 0.031-0.876-0.279-0.975-0.737-0.012-0.058-0.018-0.118-0.018-0.181 0-0.831 1.034-2.068 1.869-2.377 0.378-0.141 0.729-0.224 1.046-0.273-0.069-0.216-0.131-0.441-0.171-0.658-0.054-0.296-0.231-0.924-0.388-1.479-0.259-0.92-0.405-1.437-0.405-1.787 0-0.283 0.095-0.457 0.304-0.645 0.202-0.182 0.421-0.245 0.634-0.243-0.058-0.232-0.125-0.478-0.209-0.74-0.133-0.411-0.405-0.951-0.624-1.385-0.227-0.453-0.437-0.869-0.437-1.235 0-0.255 0.103-0.487 0.374-0.688 0.119-0.087 0.344-0.241 0.995-0.217-0.021-0.035-0.063-0.103-0.063-0.103-0.289-0.457-0.506-0.799-0.506-1.151 0-0.121 0.026-0.244 0.083-0.374 0.094-0.212 0.259-0.362 0.465-0.467-0.243-0.187-0.456-0.417-0.591-0.697-0.104-0.215-0.156-0.443-0.156-0.673 0-0.21 0.044-0.422 0.132-0.625 0.101-0.235 0.225-0.415 0.364-0.564-0.133-0.057-0.262-0.113-0.385-0.169-0.627 2.188-1.433 3.293-2.403 3.278-0.187-0.002-0.422-0.036-0.659-0.135-0.067 0.195-0.131 0.384-0.185 0.544l-0.388 1.114c-1.317 3.532-2.512 3.447-2.905 3.42-1.227-0.087-1.55-1.295-1.616-2.459-0.232 0.235-0.51 0.374-0.872 0.348-0.198-0.014-0.358-0.075-0.503-0.153-0.211 0.447-0.445 0.892-0.682 1.23l-0.143 0.206c-0.705 1.014-1.67 2.404-2.966 1.863-1.061-0.444-1.342-1.452-1.342-2.571 0-0.682 0.104-1.405 0.199-2.066 0.055-0.383 0.128-0.794 0.209-1.207-0.085 0.028-0.17 0.062-0.256 0.074-0.417 0.055-0.809-0.081-1.106-0.38-0.435-0.439-0.579-0.924-0.579-1.392 0-0.589 0.229-1.151 0.396-1.559 0 0 0.088-0.224 0.1-0.254-0.015-0.008-0.029-0.014-0.045-0.023-0.82 0.762-2.011 1.606-3.068 1.035-0.367-0.198-0.623-0.527-0.738-0.951-0.046-0.17-0.067-0.354-0.067-0.545 0-1.295 0.945-2.934 1.159-3.288 0.107-0.176 0.313-0.54 0.522-0.912-0.254-0.09-0.516-0.271-0.665-0.644-0.062-0.155-0.089-0.31-0.089-0.463 0-0.431 0.216-0.851 0.489-1.22-0.333-0.066-0.607-0.248-0.787-0.583-0.547 0.172-1.995 0.52-2.406-0.474-0.047-0.113-0.068-0.229-0.068-0.348 0-0.867 1.156-1.8 1.667-2.17-0.064-0.134-0.109-0.275-0.109-0.423 0-0.067 0.007-0.134 0.02-0.2 0.132-0.651 0.805-1.132 2.265-1.966 0 0 0.078-0.045 0.153-0.089-0.009-0.03-0.022-0.053-0.029-0.085-0.017-0.078-0.025-0.154-0.025-0.228 0-0.934 1.225-1.56 1.649-1.776 0 0 0.076-0.036 0.183-0.087-0.298-0.449-0.485-0.93-0.528-1.446-0.005-0.061-0.007-0.123-0.007-0.183 0-1.196 0.98-2.094 1.959-2.2 0.002 0 0.059-0.006 0.146-0.012 0.026-0.129 0.061-0.264 0.126-0.474 0.001-0.006 0.096-0.268 0.265-0.565-0.294-0.039-0.65-0.104-1.104-0.215-0.96-0.235-2.337-0.733-3.077-1.001l-0.366-0.131c-1.337-0.469-1.427-1.025-1.457-1.209-0.008-0.05-0.013-0.1-0.013-0.149 0-0.283 0.131-0.554 0.358-0.731 0.069-0.053 0.139-0.092 0.208-0.123-1.212-0.726-1.71-1.954-1.71-2.8 0-0.098 0.006-0.191 0.019-0.278 0.061-0.409 0.14-0.72 0.207-0.938-0.074-0.257-0.128-0.561-0.128-0.904 0-0.666 0.193-1.457 0.791-2.22 1.209-1.546 3.691-2.191 5.613-2.145 1.459 0.035 2.28 0.264 2.692 0.385 2.259-0.744 4.778-0.97 7.491-0.668 2.892 0.322 5.563 1.354 6.73 1.855 0.388-0.33 0.937-0.627 1.635-0.657 1.694-0.072 2.711 1.591 3.481 3.229 0.299 0.634 0.525 1.138 0.704 1.554 0.096-0.091 0.195-0.178 0.298-0.252l0.192-0.143c0.505-0.378 1.078-0.807 1.873-0.664 0.32 0.058 0.559 0.21 0.738 0.393 0.191-0.136 0.408-0.285 0.686-0.453l0.117-0.071c0.406-0.247 0.803-0.488 1.187-0.669-0.072-0.093-0.143-0.185-0.213-0.29-0.907-1.356-1.194-2.56-1.194-3.482 0-0.679 0.156-1.206 0.335-1.524 0.351-0.625 0.852-0.672 1.052-0.664 0.088 0.004 0.861 0.064 0.921 0.976 0.035 0.53 0.734 1.292 1.313 1.837 0.398 0.375 0.752 0.611 1.031 0.763 0.186-0.337 0.424-0.721 0.692-1.035 0.371-0.435 0.98-0.739 1.426-0.961 0 0 0.145-0.075 0.219-0.113 0.029-0.038 0.066-0.083 0.066-0.083 0.348-0.454 1.073-1.399 2.635-1.414 1.566-0.016 3.526 1.539 4.418 2.647 1.082 1.345 1.652 2.616 1.89 3.231 0.631 0.341 1.945 1.206 3.811 3.235 3.067 3.334 4.414 7.242 4.653 7.992 0.49 1.534 0.732 2.773 0.732 3.769 0 0.69-0.116 1.264-0.348 1.738-0.484 0.99-1.169 1.418-1.734 1.565-0.518 0.794-1.836 2.463-4.002 2.904-0.576 0.118-1.113 0.175-1.622 0.187 0.84 0.464 1.47 0.817 1.845 1.086 0.362 0.258 3.215 2.376 3.215 4.737 0 0.278-0.04 0.56-0.128 0.843-0.458 1.47-1.72 2.097-2.754 2.366 0.032 0.141 0.054 0.286 0.054 0.441 0 0.126-0.012 0.258-0.037 0.393-0.076 0.389-0.241 0.695-0.472 0.939 1.903 0.096 4.125 0.322 6.266 0.817 2.993 0.694 4.736 1.311 6.137 1.807 0.639 0.225 1.19 0.421 1.771 0.594 1.358 0.405 2.429 0.68 3.005 0.828 0.569 0.146 0.629 0.161 0.774 0.259 0.287 0.19 0.458 0.512 0.458 0.85 0 0.021 0 0.042-0.002 0.062-0.022 0.355-0.227 0.662-0.548 0.824l-0.139 0.061c-1.84 0.79-3.504 1.738-4.576 2.394-1.14 0.697-2.237 1.527-3.045 2.18 0.975 0.227 2.146 0.472 2.862 0.52 2.732 0.185 4.489-0.346 5.117-0.583 0.872-0.329 1.421-0.847 1.427-0.852l0.999-0.953 0.468 1.297c0.071 0.201 1.696 4.968-2.928 9.93" fill="#fff"/><path d="m55.826 1.9023c-2.894 0.1388-4.486 2.7539-4.486 2.7539s-0.14039 0.055156-0.36914-0.027344c-1.093-0.3937-4.53-1.5041-8.471-0.0703-5.0112 1.8237-5.6098 4.9825-5.9648 5.1875-0.115 0.0675-1.2527 0.0068-2.2402 0.9043-0.615 0.56-2.9289 4.1542-4.0352 5.1992-1.6425 1.5525-2.6862 2.1145-4.1074 2.0195-0.28-0.01875 0.64555 1.6124 1.5605 1.9512 1.4838 0.5525 2.5781 0.2832 2.5781 0.2832s-0.59719 1.1835-0.77344 2.1348c-0.17625 0.95125-1.0784 3.7466-0.96094 3.8516 0.1175 0.10625 0.73242-0.28109 0.91992-0.33984s0.55469-0.19727 0.55469-0.19727-0.09891 1.3009-0.62891 2.9434c-0.37375 1.1562-1.3928 2.7887-1.2578 2.8887 0.15625 0.115 0.88367 0.03875 1.2949-0.03125 0.41125-0.07 1.0645-0.23828 1.0645-0.23828s-0.2618 1.0046-0.49805 1.4746c-0.23375 0.47-0.92969 1.4113-0.86719 1.5488 0.035 0.0825 0.73414 0.29305 1.9316 0.12305 1.0413-0.14625 1.8887-0.60938 1.8887-0.60938s-0.22789 0.42117-0.33789 0.70117c-0.10375 0.26375-0.16617 0.83789-0.29492 0.93164-0.13 0.09375-1.5409 0.2-2.0684 0.34375-0.6875 0.18625-1.6515 0.79016-1.3027 1.5977 0.3725 0.865 1.0699 0.74578 2.7012 0.95703 1.6325 0.21125 2.0195 0.41211 2.0195 0.41211s-0.007-0.002-0.01953-0.002c-0.03 0.025-0.71719 0.64523-0.36719 1.1777 0.35875 0.545 1.5169 0.58227 2.0781 0.60352 0.54375 0.02125 0.74492-0.09359 0.79492 0.0039 0.05875 0.11125-0.18445 0.2107-0.31445 0.4707-0.1275 0.25625-0.04227 0.84789 1.084 1.0566 1.9062 0.3525 3.5784 0.36977 3.8984 0.38477 0.32 0.01625 0.47656 0.09141 0.47656 0.12891 0 0.1125-0.06797 0.03156-1.2305 0.13281-0.9925 0.085-2.7733 0.1025-3.6133-0.0625-1.105-0.21875-1.2991-0.63031-1.3203-0.91406-0.01625-0.225 0.07047-0.64648 0.04297-0.67773-0.02625-0.0325-1.8442 0.39031-2.418-0.46094-0.72875-1.0788 0.10352-1.8162 0.13477-1.8438-0.62625 0.015-1.5409 0.06984-2.3984 0.24609-1.3638 0.28-3.3457 1.3652-3.3457 1.3652s-1.0416-4.6152-2.2441-4.5977c-1.1275 0.0175-0.97305 1.3705-1.0918 1.3555-0.22875-0.02875-1.0831-2.8251-1.5156-3.9863-0.42875-1.145-1.5045-3.6188-2.502-3.5488s-1.0439 1.8634-0.97266 3.6484c0.07 1.785 0.03578 3.6406-0.01172 3.6406-0.04625 0-0.52836-0.86492-0.97461-2.3262-0.3775-1.2325-0.75164-2.3517-1.1504-2.3242-0.71875 0.05125-0.69516 1.8194-0.75391 1.7969-0.0575-0.02375-0.92586-2.4784-1.7246-3.6172-0.79875-1.1388-1.6896-2.5503-2.5371-2.1953-1.2862 0.5375-1.0557 2.4953-0.75195 4.6016 0.32375 2.2462 1.1641 5.4043 1.1641 5.4043s-1.9992-3.492-2.918-2.5645c-0.815 0.8225-0.1825 1.9482 0.15625 2.8457 0.35375 0.935 0.90016 1.8 0.84766 1.8438-0.21375 0.17125-0.91-0.67367-1.375-0.48242-0.5025 0.205-0.24289 0.87258-0.33789 0.86133-0.09375-0.0125-2.3463-2.7789-3.5488-2.1289-1.2088 0.6525 0.52914 3.8503 0.86914 4.4141 0.34 0.56375 1.4443 2.5604 1.4668 2.6191 0.02375 0.05875-0.44586 0.08297-0.78711 0.10547-0.3412 0.019-0.666-0.07-0.7785 0.21-0.09 0.225-0.00883 0.71156 0.91992 1.6641 0.9275 0.95125 1.5343 1.4411 1.4668 1.5273-0.1475 0.19125-2.6852-0.87289-2.959-0.21289-0.17625 0.42 0.41016 0.94141 0.41016 0.94141s-0.94508-0.1857-1.6113-0.4082c-0.785-0.26125-1.6314-0.29422-1.7227-0.07422-0.1075 0.26125 1.0459 1.4519 1.8672 1.9844 1.7775 1.1525 2.1017 0.99906 2.1367 1.0703 0.035 0.07-2.1459-0.22484-2.0547 0.22266 0.10875 0.5325 2.0372 1.5491 2.6484 1.9141 0.61 0.36375 1.9666 0.95227 1.9316 1.0098-0.035 0.05875-0.36398 0-0.74023 0-0.375 0-0.80797-0.01938-0.85547 0.20312-0.0475 0.22375 0.26086 0.67164 1.4434 1.2754 1.0712 0.5475 1.5616 0.69516 1.5391 0.75391-0.02375 0.0575-1.2458 0.84766-1.3633 2.2539-0.08375 1.0062 0.79906 1.7022 1.4453 1.7734 0.645 0.07 1.1035-0.04883 1.1035-0.04883 0.02625 0.9125 0.0043 0.84891 0.18555 1.4414 0.17625 0.575 0.63719 1.002 0.64844 1.002s-0.09297 0.29383-0.19922 0.51758c-0.105 0.2225-0.1875 0.61133-0.1875 0.61133s-0.34773-0.17148-2.1152 0.25977c-1.38 0.3375-3.5305 1.1498-4.1992 1.3848-0.66875 0.235-1.1785 0.58672-1.0723 0.66797 0.105 0.0825 0.44492 0.02461 0.95117 0.13086 0.505 0.105 1.8064 0.46859 2.4414 0.52734 0.63375 0.05875 1.1504 0.11719 1.1504 0.11719s-0.015156 0.14164-0.00391 0.30664c0.01125 0.16375 0.027344 0.375 0.027344 0.375s-0.26938 0.15156-0.51562 0.35156c-0.2475 0.2-0.44531 0.4707-0.44531 0.4707s-1.6094-1.1935-3.1719-0.44727c-1.6025 0.76625-1.9509 2.3262-1.8672 2.8887 0.135 0.90375 0.33984 1.332 0.33984 1.332s-0.76977 1.572 0.52148 3.2207c1.2238 1.5662 3.9549 2.3045 6.1074 2.252 2.3163-0.05625 3.2251-0.53078 3.4238-0.51953 0.2 0.01125 3.5595 1.5096 9.207 0.88086 4.595-0.5125 8.8203-2.5625 8.8203-2.5625s0.58289 1.0061 1.8066 1.0586c0.98125 0.04125 1.976-0.59953 3.291-3.3945s1.5508-3.668 1.5508-3.668 0.67391 1.099 1.3789 1.6152c0.70375 0.5175 1.1332 0.91359 1.7207 0.80859 0.5875-0.10625 0.67695-1.0559 0.7832-1.0684 0.10625-0.01125 0.43539 0.47656 1.7754 1.2891 1.0125 0.6125 2.1674 1.3433 2.7012 1.082 0.1975-0.0975-0.375-1.2793-0.375-1.2793l0.0039 0.002c-0.0775-0.17625-0.1875-0.4407-0.28125-0.7207-0.12375-0.3725-0.0625-1.1055-0.0625-1.1055s0.90656 0.36586 1.8828 0.81836c1.1475 0.53375 1.8041 0.61281 2.1191 0.41406 0.31375-0.2-0.45414-1.0514-0.77539-1.7852-0.27-0.6175-0.49914-1.6891-0.36914-1.7266 0.17375-0.04875 0.45266 0.44375 2.4102 1.4062 0.67 0.33 2.2573 0.97922 2.4785 0.91797 0.21125-0.06 0.04875-1.5991-0.6875-3.5391-0.3175-0.835-1.5451-1.9653-1.4551-2.1328 0.0037-0.0075 0.73242 0.0032 0.73242 0.06445 0-0.01125-0.0048 0.21609 0.09766 0.30859 0.0725 0.06625 0.44461 0.23024 0.69336 0.14648 0.4-0.135 1.2013-0.23547 3.5176 0.08203 2.17 0.29875 3.9791 1.731 4.0078 1.4785 0.09875-0.88875 0.40141-2.3222 1.0977-3.7109 1.0575-2.11 1.6871-2.5886 1.6309-2.7148-0.1725-0.37625-1.673-1.4101-3.3105-1.8301-1.9138-0.4925-3.0036-0.29547-3.0898-0.44922-0.0725-0.12875 1.0769-1.836 2.6719-2.1035 1.27-0.2125 1.8663 0.38453 2.0801 0.30078 0.0725-0.02875-0.06906-0.46797-0.41406-0.73047-0.565-0.43-1.3223-0.38281-1.3223-0.38281s-0.10781-2.6127 1.8672-4.5215c1.1462-1.1075 3.9821-1.7282 6.3184-0.3457 3.1588 1.8712 3.0916 4.2816 2.5391 7.1953-0.435 2.29-1.9589 3.8314-2.6914 4.4414-0.1725 0.14375-0.02828-0.50961-0.05078-0.88086-0.02125-0.3725-0.13242-0.94219-0.29492-0.92969-0.2725 0.02-0.08867 1.2857-0.41992 2.4707-0.70875 2.53-1.1898 3.5891-2.541 5.2129-2.4162 2.9-4.9554 3.5688-4.9004 3.7188 0.075 0.20875 0.5957 0.45117 0.5957 0.45117s0.03399 0.9175-1.041 2.4688c-2.035 2.9362-4.5619 3.8385-5.3281 3.9785-0.365 0.065-1.4223-0.15524-2.3398-0.86524-0.58125-0.45-1.0695-1.4088-1.0645-1.9863 0.0025-0.23875 0.75547-0.57742 1.3555-0.98242 0.57-0.385 0.81414-1.058 0.55664-1.2617-0.29875-0.2375-0.62797 0.50383-1.043 0.76758-0.41625 0.2625-1.0698 0.59727-1.1035 0.47852-0.0525-0.18875-0.03594-0.38148-0.36719-0.70898-0.26375-0.26125-0.50586-0.45898-0.50586-0.45898s0.60234-0.14336 1.1836-0.78711c0.4575-0.505 0.5075-1.6089 0-2.5039-0.4425-0.7825-1.4341-1.3672-1.5879-1.3672-0.15375 0-0.09047 0.31524 0.01953 0.49024s0.26992 0.21609 0.54492 0.43359c0.27125 0.21375 0.94391 1.0976 0.72266 1.9863-0.145 0.58-0.66148 1.0118-1.709 0.9668-0.8325-0.035-1.2539-0.25086-2.0039-0.72461-0.08375-0.05375-0.21328 0.0325-0.08203 0.34375 0.07125 0.16875 0.32094 0.42695 0.42969 0.5332 0.02625 0.02375 0.05203 0.04586 0.08203 0.06836 0.365 0.285 0.83398 0.36656 0.83398 0.41406s-1.2141 0.42219-2.2441 1.9609c-2.0638 3.085-1.1683 5.3625-0.73828 5.3438 0.27875-0.01125-0.48453-0.80219 2.0742-3.2109 1.4525-1.3675 2.5996-1.5566 2.5996-1.5566s0.53633 1.2394 1.1738 1.9844c0.44125 0.51875 1.5264 0.94031 1.8789 1.1641 0.3525 0.2225 0.86219 1.6382 2.7109 1.6582 1.4475 0.01375 3.6374-1.6476 4.6387-2.8926 1.73-2.15 2.3379-4.1445 2.3379-4.1445s1.7641-0.65094 4.8379-3.9922c3.2012-3.48 4.9567-7.636 5.5742-9.5723 0.95125-2.9837 1.0803-4.9452 0.53906-6.0527-0.76-1.5538-1.8379-1.4043-1.8379-1.4043s-1.5219-2.958-4.5469-3.5742c-2.7537-0.56125-5.0588-0.2025-6.5625 2.2812-1.2625 2.0875-0.96422 3.8036-1.293 3.9336-0.32875 0.1275-0.86742 0.32883-1.7012 1.0801-0.83375 0.75125-1.3038 1.751-1.375 1.8223-0.07 0.07-1.133 0.18-1.373 0.46875-0.1175 0.14-0.2718 1.2751-0.7168 2.2676-0.87375 1.9438-1.0449 1.9609-1.0449 1.9609s-0.9375-1.3046-1.9375-2.2246c-1.0188-0.93625-2.7015-1.9663-2.7715-2.0488s-0.03531-0.04734 0.02344-0.15234c0.05875-0.10625 4.4319-4.0477 7.5156-6.2715 4.7362-3.4162 9.7272-5.7462 11.086-6.7188 1.3637-0.975 4.1145-3.5655 3.4395-5.7305-0.575-1.85-2.6553-2.2888-3.6641-2.3926-0.0125 0.01-0.32859 0.2782-0.58984 0.43945-0.1525 0.095-0.47024 0.18227-0.42774 0.25977 0.02625 0.0475 0.37172 0.005 1.3242 0.25 0.9525 0.245 1.6174 1.0174 1.1699 1.9199-0.56125 1.1275-2.3538 1.9895-3.6426 2.2832-2.1625 0.49375-3.8731 0.39883-3.8594 0.45508 0.015 0.05625 0.30938 0.19719 0.48438 0.74219 0.2 0.625-0.49336 1.372-1.2246 1.5957-0.50375 0.15375-2.3473-0.04906-2.3398 0.14844 0.0025 0.06875 0.94508 1.2384-0.76367 2.0234-1.1075 0.5075-3.9552 0.80625-5.6289 0.6875-1.8388-0.13125-2.2555-0.07867-2.248-0.23242 0.0063-0.1575 1.3233-0.19039 5.4258-0.61914 2.6437-0.27625 2.8237-0.87906 2.7812-1.2578-0.04125-0.3775-0.64469-0.84047-0.67969-0.91797-0.035-0.07625-0.03555-0.2032 0.25195-0.18945 0.28625 0.01375 1.743-0.01953 2.7168-0.30078 0.85-0.24375 1.1303-0.70016 1.1016-0.97266-0.0275-0.27375-0.78594-0.84641-0.89844-0.91016-0.11125-0.0625-0.20367-0.27094 0.11133-0.27344 0.82-0.0075 3.6076-0.56867 5.2676-0.98242 1.6587-0.4125 2.6394-1.3423 2.7031-1.9023 0.04125-0.37625-0.66172-0.85656-1.7305-1.0078-1.0925-0.15375-1.5055-0.14148-1.5117-0.30273-0.0037-0.0725 0.46844-0.35461 0.74219-0.47461 0.255-0.11125 0.84102-0.44969 0.91602-0.49219h-0.01172s0.97219-0.66352 0.77344-1.6973c-0.16375-0.85-0.89188-1.3559-4.0156-1.4746-2.34-0.0875-3.688-0.04148-3.6992-0.05273-0.0125-0.01125 0.09234-0.29203 0.15234-0.55078 0.05875-0.2575 0.09422-0.56523 0.10547-0.55273 0.01125 0.01125 8.2426 0.82461 15.549-0.86914 5.35-1.2388 7.4052-2.2624 9.8164-2.9824 2.61-0.7775 4.3526-1.1705 4.4238-1.2168 0.07-0.04625 0.11945-0.17758 0.002-0.23633-0.1175-0.05875-2.6191-1.0615-5.9766-3.1152-2.9375-1.7975-5.6133-4.2383-5.6133-4.2383s4.024-1.0815 5.8965-1.209c3.3738-0.22875 5.7265 0.36688 6.8652 0.79688 1.3462 0.5075 2.166 1.3066 2.166 1.3066s1.9587-5.4959-3.4238-11.273c-5.263-5.647-13.553-6.7237-19.398-4.7437 0 0-2.3166-2.2166-3.8828-2.6504-2.9688-0.82375-3.8477 0.4082-3.8477 0.4082s-3.0249-2.223-5.7324-2.0918zm-1.793 68.012c-0.20922-0.01516-0.36148 0.08875-0.39648 0.21875-0.07625 0.28375 0.51117 0.34984 0.70117 0.87109 0.1975 0.53875 0.11562 0.85016 0.10938 0.91016-0.01875 0.19-0.41047 0.95164 0.01953 0.96289 0.465 0.01125 0.88203-1.7114 0.30078-2.4727-0.26062-0.34062-0.52516-0.47508-0.73438-0.49024z" transform="matrix(.8 0 0 -.8 132.43 367.72)" fill="#0051ba"/><path d="m56.338 2.7168c-0.35779 0.0004687-0.73852 0.035938-1.1504 0.10938-2.0125 0.35875-3.2051 2.3848-3.2051 2.3848s1.2865 0.79781 2.084 1.2266c0.74375 0.4 1.0619 0.52648 1.6406 0.58398 0.58125 0.05875 1.1438 0.056016 1.1875 0.22852 0.03875 0.14625-0.26492 0.50797-0.70117 0.51172-1.125 0.00875-0.83359 0.11242-4.5898-1.8301-3.3338-1.725-6.111-1.2158-6.166-1.207-0.3725 0.0575-3.9606 0.42312-6.2969 2.6406-1.2575 1.195-1.7186 2.5402-1.6836 2.7715 0.0625 0.42375 0.27141 0.52219 0.41016 0.89844 0.12125 0.33125 0.11523 0.95898-0.07227 0.92774-0.23625-0.04-0.61609-1.2638-1.5898-1.2812-0.52625-0.01-1.2675-0.03367-2.7188 2.2676-0.94875 1.505-2.2198 3.0009-2.7285 3.5234-0.50625 0.5225-1.9184 1.6841-2.3672 1.8516-0.85625 0.32125-1.0284 0.1182-1.0859 0.2207-0.05875 0.10125 0.41961 0.8068 1.6934 0.9043 1.66 0.12625 2.9888-0.91961 3.0625-0.88086 0.0275 0.015-1.1172 1.9455-1.4297 2.793-0.34625 0.94125-0.46734 1.5584-0.65234 2.1172-0.17375 0.525-0.27547 1.0741-0.38672 1.2578-0.05625 0.0925 1.4041-0.32398 2.3828-1.0527 1.1438-0.85125 1.6641-1.6055 1.6641-1.6055s-0.07828 1.2278-1.0508 1.9766c-0.9175 0.70625-1.5677 0.93539-1.8027 1.2754-0.0425 0.0625-0.05914 1.3476-0.40039 2.4551-0.60625 1.9688-1.2012 2.8652-1.2012 2.8652s0.98188-0.01125 2.3594-0.90625c1.34-0.87125 1.9102-1.4844 1.9102-1.4844s0.11281 0.75078-0.83594 1.582c-0.795 0.69625-1.1563 0.81953-1.2363 0.92578-0.04375 0.05875-0.22734 0.98758-0.40234 1.4863-0.255 0.73375-0.70688 1.3164-0.64062 1.4102 0.0725 0.10125 1.3527-0.15531 2.8164-1.1641 0.97875-0.675 2.0723-1.3789 2.0723-1.3789s-0.72078 0.97711-1.2383 2.0996c-0.6375 1.3825-0.95891 2.1483-0.87891 3.0508 0.005 0.0525 0.90023-0.44976 1.709-0.72852 0.62375-0.21375 1.367-0.41383 2.207-1.3613 0.60875-0.68375 1.3066-1.5078 1.3066-1.5078s-0.37188 0.92883-0.51562 1.7988c-0.145 0.87-0.16609 2.1552-0.05859 2.2715 0.055 0.06125 2.117-1.1944 2.752-1.9219 0.99875-1.1438 1.8535-2.7344 1.8535-2.7344s0.05852 0.08625 0.07227 0.1875c0.015 0.1025-0.17898 2.1088-0.11524 2.8438 0.07625 0.885 0.1218 1.1199 0.18555 2.2637 0.01625 0.30375-0.01976 0.52656 0.05273 0.57031 0.07125 0.0425 0.17875-0.11414 0.46875-0.24414 0.28875-0.13125 2.1973-0.83961 3.2598-1.7871 1.8638-1.6588 2.2676-2.6953 2.2676-2.6953s-0.39898 2.0968-0.42774 2.8418c-0.04875 1.2325 0.105 3.2288 0.25 3.3301 0.14375 0.1025 0.77742-0.50148 1.5762-0.95898 0.39-0.22375 1.1468-0.62226 2.4043-2.3223 0.79125-1.0675 1.3704-1.8214 1.4629-1.8477 0.09625-0.02625-0.51453 1.6083-0.51953 2.1445-0.0038 0.59875 0.28695 1.5539 0.43945 1.9727 0.1225 0.33125 0.15055 0.51016 0.24805 0.97266 0 0 1.3964-1.358 2.2539-2.2617 1.9325-2.0412 1.8125-3.1953 1.8125-3.1953-2.8725-0.31625-5.5945-1.252-7.2832-1.8633-4.435-1.6075-6.9007-3.6427-9.4707-6.0527-1.4888-1.3975-1.9803-2.8177-1.6641-3.5527 0.185-0.42875 0.61914-0.60352 0.61914-0.60352s-2.1563-2.527-1.8301-4.8008c0.19-1.3338 2.0988-1.8531 5.6426-1.1719 4.535 0.87125 9.1367 3.4414 9.1367 3.4414s-1.7484-1.2144-2.4297-2.1719c-0.6825-0.95625-1.0293-1.7109-1.0293-1.7109s-1.1831 0.19289-2.4219-0.13086c-1.2438-0.325-2.4158-0.56414-3.3008-2.1191-0.26875-0.4725 0.07953-0.2968 0.45703 0.18945 0.0275 0.03625 0.30672 0.28344 0.69922 0.30469 0.4925 0.0275 1.9873-0.21016 4.2148-2.1602 2.3162-2.0288 4.2963-3.5538 5.6738-3.0176 1.3775 0.53625 1.8711 1.828 1.0586 2.8867-0.81125 1.0588-1.002 1.4941-1.002 1.4941s0.30586 0.18734 0.75586 0.65234c0.45 0.46375 0.94141 0.91406 0.94141 0.91406s1.5823-1.9879 5.5273-4.5254c3.9438-2.5375 5.8867-3.25 5.8867-3.25s-0.65195-1.0899-2.377-1.8887c-1.1888-0.55-2.1024-0.66547-2.6074-0.60547-0.39375 0.045-0.86477 0.23641-0.88476 0.50391-0.01125 0.15875 0.23726 0.31305 0.60352 0.49805 0.44375 0.22375 0.74398 0.27828 0.80274 0.39453 0.0575 0.11625 0.16461 0.38133 0.06836 0.39258-0.4875 0.05875-1.0299-0.14352-1.2949-0.29102-0.68125-0.38-2.2686-1.5008-3.4023-2.1445-0.867-0.4913-1.733-0.7974-2.806-0.796zm16.17 20.103c-0.06416-0.00082-0.13422 0.0082-0.20703 0.0332-1.0125 0.34625-2.9849 1.0373-4.0762 1.4336-1.1125 0.4075-3.9565 1.6732-4.5215 1.877-0.565 0.20375-0.75891 0.34406-0.94141 0.35156-0.4825 0.01625-0.89274 0.14883-0.64648 0.29883 0.04 0.025 3.1048 0.04445 5.1523 0.002 2.465-0.05 5.8225-0.06414 6.0938-0.08789 0.3375-0.0275 0.86727-0.25469 2.0098-0.83594 1.1738-0.595 1.4232-0.63156 1.627-0.69531 0.3125-0.09875 0.13086-0.16211 0.13086-0.16211-0.0675-0.045-1.1352-0.41031-2.0664-0.88281-0.7575-0.385-2.2227-1.2402-2.2227-1.2402s-0.13955-0.08934-0.33203-0.0918zm-15.301 37.178c-1.3448-0.0573-2.1412 0.21938-2.25 0.28125-0.14375 0.0825-0.6082 1.3612-0.7832 1.8887-0.175 0.52625-1.0073 2.2715-1.0273 2.3652-0.02125 0.0925-0.04125 0.27711-0.03125 0.34961s0.03078 0.13406 0.05078 0.16406c0.02 0.03125 0.09352 0.15727 0.13476 0.22852 0.04 0.0725 0.07031 0.14305 0.13281 0.1543 0.0625 0.01 1.8764 0.06906 3.2227 0.35156 1.7238 0.36125 2.8957 1.054 3.002 1.0215 0.2375-0.0725 0.34195-1.3209 1.0645-2.7559 0.42375-0.84125 1.1052-2.126 1.1777-2.2285 0.07125-0.10375 0.07031-0.15625 0.07031-0.15625-0.165-0.28875-1.6172-1.1503-3.2422-1.4766-0.565-0.11375-1.0732-0.1684-1.5215-0.1875zm-0.30664 1.2617c0.24934 0.0071 0.48961 0.02625 0.69336 0.0625 0.85875 0.15125 2.23 0.75344 2.3125 0.83594 0 0 0.000234 0.07227-0.04102 0.13477-0.04125 0.06125-0.37938 0.81883-0.60938 1.3613-0.28875 0.68-0.51688 1.4651-0.57812 1.4551-0.0625-0.01-0.98922-0.47492-2.1992-0.79492-1.4038-0.37125-2.1575-0.02883-2.25-0.17383-0.03375-0.0525 0.37281-1.002 0.50781-1.3945 0.13375-0.3925 0.47367-1.3501 0.54492-1.3926 0.05438-0.03 0.87113-0.11508 1.6191-0.09375zm-36.465 4.498c-0.13875-0.03625-0.28117 0.29453-0.57617 0.58203-0.22375 0.21875-0.89781 0.42219-1.1016 0.39844-0.35-0.04-0.51758-0.14453-0.51758-0.14453s-0.35523 0.14281-1.0527 0.57031c-0.6975 0.42625-1.1188 0.81367-1.0938 0.95117 0.10125 0.57625 0.17555 0.38828 1.0293 1.332 0.85375 0.945 1.3287 1.7571 1.3887 1.7871 0.06125 0.03125 1.3803-0.69312 2.4766-1.0469 1.51-0.4875 2.9956-0.65414 3.1094-0.74414 0.0475-0.0375-0.64328-1.1309-1.2695-1.7559-0.4125-0.41125-0.82672-0.70898-0.91797-0.74023-0.29-0.09625-0.46938-0.02617-0.60938-0.10742-0.32375-0.1925-0.78476-0.71117-0.79102-0.82617-0.0062-0.11375 0.0033-0.23586-0.07422-0.25586zm-0.32422 1.0039c0.0725 0.0125 0.5218 0.47461 0.8418 0.81836 0.3125 0.33625 0.89484 1.1891 0.87109 1.1953s-0.88953 0.34523-1.2383 0.45898c-0.34875 0.115-1.2021 0.49172-1.2559 0.48047-0.055-0.0125-0.55344-0.54453-0.86719-0.92578-0.3375-0.40875-0.86594-0.98055-0.83594-1.0293 0.03-0.0475 0.96258-0.48711 1.2988-0.63086 0.3375-0.14375 1.113-0.37844 1.1855-0.36719z" transform="matrix(.8 0 0 -.8 132.43 367.72)" fill="#e8000d"/><path d="m74.836 6.1348c-1.5789 0.055078-3.2333 0.33844-4.9492 0.90625-6.4012 2.1175-11.475 6.5217-12.461 8.2617-0.17 0.30125 1.8748 2.2462 0.37109 4.0312-1.2162 1.4425-3.6016 0.49414-3.6016 0.49414 2.0725 1.32 3.2234 2.5612 3.3496 2.7949 0.08875 0.165 0.14453 0.39453 0.14453 0.39453-1.9175-1.3288-3.6633-2.4555-5.5508-3.3555-0.7175-0.3425-9.8364-4.4562-12.441-2.8887-1.48 0.89125 0.78406 4.1803 1.2891 4.7891 0.74375 0.8975 2.6044 2.4786 4.2031 3.3398 1.1375 0.6125 1.1824 0.55617 1.2012 0.82617 0.0087 0.1125-0.36117 0.25008-0.82617 0.14258-0.41-0.095-2.0638-1.0397-2.6738-1.5234-0.61-0.48375-1.8301-1.4355-1.8301-1.4355s-0.39719-0.1468-0.55469 0.0957c-0.485 0.74625 3.5338 5.4663 9.3301 7.7988 6.24 2.5125 11.215 3.1042 20.195 2.2617 4.7162-0.44375 9.5009-2.2968 11.961-3.123 1.6662-0.56 3.084-0.96852 3.084-1.041 0-0.07125-2.8901-0.63906-5.9551-0.91406-5.2225-0.4675-8.0396-0.23547-12.131-0.32422-5.7788-0.12625-9.0995 0.44945-14.877-0.5918-1.797-0.326-3.802-1.132-5.113-2.174-2.0262-1.61-4.3188-4.3962-3.5176-4.8438 0.77125-0.43 1.7146 0.5825 2.0996 0.96875 1.5775 1.58 1.4551 2.6191 1.4551 2.6191s1.9839 2.9094 10.191 3.1406c4.45 0.12625 6.886-1.9791 10.729-3.2441 5.67-1.8662 6.0651-2.5659 13.018-3.8809 7.1162-1.345 10.473 1.2031 10.473 1.2031s1.3204-5.476-4.7559-10.479c-3.056-2.5165-7.119-4.4165-11.856-4.2512zm-20.262 2.9785c-0.2875-0.03625-1.4195 0.14359-3.6445 2.0273-2.225 1.8838-2.9056 2.4226-3.5156 2.6738-0.61 0.25125-1.2568 0.37477-1.1855 0.44727 0.0725 0.07125 1.1323 0.35656 1.6348 0.41406 1.0938 0.125 1.7207-0.07031 1.7207-0.07031s-0.05273-1.6699 0.79102-2.3887c1.4588-1.2425 4.0547 0.16016 4.0547 0.16016s0.95234-1.0712 1.1836-1.5762c0.2875-0.62875 0.14453-0.9707 0.14453-0.9707-0.215-0.57375-0.89734-0.68055-1.1836-0.7168zm13.445 0.35742c0.59692-0.035828 0.93555 0.22461 1.0762 0.44336 0.16125 0.24875 0.61047 0.93102-0.95703 1.916-1.5675 0.985-2.2936 0.23945-2.4648 0.0957-0.17-0.14375-0.56148-1.1505 0.97852-1.998 0.55688-0.30703 1.009-0.43553 1.3672-0.45703zm-0.19531 0.75c-0.25125 0.01391-0.53719 0.10688-0.77344 0.28125-0.4725 0.34875-0.97266 0.7257-0.69141 1.0332 0.28125 0.30875 0.99914-0.0063 1.3066-0.15625 0.30875-0.15125 0.92625-0.6518 0.71875-0.9668-0.0925-0.14-0.3093-0.20531-0.56055-0.19141zm8.2148 11.447s-0.5907 0.17242-1.0332 0.29492c-0.44125 0.1225-1.3245 0.32039-1.3008 0.36914 0.025 0.04875 1.8671 1.3026 2.5059 1.5488 0.63875 0.24625 1.7716 0.7118 2.1641 0.81055 0.39375 0.0975 0.93359 0.17274 0.93359 0.27148 0 0.09875-0.73695 0.3918-1.7207 0.81055-0.9825 0.4175-1.9668 0.95945-1.9668 1.0332s3.1716 0.36781 4.6953 0.53906c1.5238 0.1725 3.4658 0.41844 3.957 0.49219 0.49125 0.07375 1.0074 0.22219 0.98242 0.14844-0.02375-0.07375-0.19469-0.14789-0.71094-0.36914s-2.4832-1.4263-3.5645-2.1875c-1.0812-0.7625-2.8995-2.2123-3.6133-2.7285-0.7125-0.51625-1.3281-1.0332-1.3281-1.0332zm-10.949 28.971c-1.5016-0.05855-2.8762 0.44258-3.5918 1.1348-1.975 1.9087-1.8691 4.5215-1.8691 4.5215s0.75797-0.04719 1.3242 0.38281c0.345 0.2625 0.48586 0.70172 0.41211 0.73047-0.2125 0.08375-0.81133-0.51453-2.0801-0.30078-1.5962 0.2675-2.7444 1.9735-2.6719 2.1035 0.08625 0.15375 1.1761-0.04328 3.0898 0.44922 1.6388 0.42 3.1361 1.4538 3.3086 1.8301 0.0575 0.12625-0.57336 0.60484-1.6309 2.7148-0.695 1.3888-0.99891 2.8222-1.0977 3.7109-0.0275 0.2525-1.8346-1.1798-4.0059-1.4785-2.315-0.3175-3.1163-0.21703-3.5176-0.08203-0.24875 0.08375-0.61961-0.08149-0.69336-0.14648-0.1025-0.0925-0.09766-0.32109-0.09766-0.30859 0-0.06125-0.72938-0.07195-0.73438-0.06445-0.09 0.1675 1.1395 1.2978 1.457 2.1328 0.73625 1.94 0.8968 3.4803 0.68555 3.5391-0.22125 0.0625-1.8066-0.58797-2.4766-0.91797-1.9588-0.9625-2.2345-1.455-2.4082-1.4062-0.13125 0.0375 0.09594 1.1091 0.36719 1.7266 0.32 0.73375 1.0891 1.5852 0.77539 1.7852-0.31375 0.19875-0.97164 0.11969-2.1191-0.41406-0.9775-0.4525-1.8848-0.81836-1.8848-0.81836s-0.06055 0.73226 0.06445 1.1035c0.0925 0.28125 0.20375 0.54641 0.28125 0.72266 0.0575 0.1275 0.09766 0.21094 0.09766 0.21094s0.07945 0.07367 0.18945 0.13867c0.10875 0.06625 0.47656 0.32031 0.47656 0.32031s-0.02148-0.02078-0.05273-0.05078c-0.10875-0.10625-0.35844-0.36445-0.42969-0.5332-0.13125-0.31125-0.000468-0.3975 0.08203-0.34375 0.75 0.4725 1.1714 0.68961 2.0039 0.72461 1.0488 0.045 1.5633-0.38555 1.707-0.9668 0.22125-0.8875-0.4482-1.7726-0.7207-1.9863-0.27375-0.2175-0.43422-0.25859-0.54297-0.43359-0.11-0.175-0.17398-0.49219-0.02148-0.49219 0.15375 0 1.1473 0.58664 1.5898 1.3691 0.50625 0.895 0.4575 1.9989 0 2.5039-0.58125 0.64375-1.1836 0.78711-1.1836 0.78711s0.23891 0.19774 0.50391 0.45898c0.33125 0.3275 0.31344 0.52023 0.36719 0.70898 0.03375 0.11875 0.68656-0.21672 1.1016-0.48047 0.415-0.2625 0.74617-1.0031 1.0449-0.76562 0.25625 0.205 0.01336 0.87672-0.55664 1.2617-0.6 0.405-1.3542 0.74367-1.3555 0.98242-0.005 0.5775 0.48195 1.5363 1.0645 1.9863 0.91625 0.71 1.9736 0.92953 2.3398 0.86328 0.76625-0.13875 3.2919-1.0403 5.3281-3.9766 1.0738-1.5512 1.041-2.4688 1.041-2.4688s-0.5207-0.24242-0.5957-0.45117c-0.05375-0.15 2.4854-0.82 4.9004-3.7188 1.3525-1.6238 1.8303-2.6829 2.5391-5.2129 0.33125-1.185 0.14742-2.4507 0.41992-2.4707 0.16375-0.0125 0.27633 0.55844 0.29883 0.92969 0.0225 0.3725-0.12242 1.0246 0.04883 0.88086 0.7325-0.61 2.2564-2.1514 2.6914-4.4414 0.55375-2.915 0.61969-5.3241-2.5391-7.1953-0.87609-0.51844-1.8237-0.75394-2.7246-0.78906zm6.4082 4.0332c-0.25411 0.16697 0.36703 1.4993-0.26953 3.9395-1.0088 3.8638-3.318 5.2577-3.543 5.6152-0.1775 0.27875-1.3798 3.4009-2.5898 4.9121-1.1975 1.4938-2.298 2.4314-4.2617 3.5977-0.3475 0.20625-0.03828 0.47594-0.05078 0.64844-0.01375 0.1725-0.45922 2.4038-2.418 4.2188-2.9988 2.775-4.4984 2.6039-4.7109 2.8164-0.0925 0.0925 0.62234 0.60852 1.3398 0.54102 0.695-0.065 2.9091-1.1108 4.7266-3.6758 1.4462-2.0425 1.7145-3.6036 1.7383-3.7148 0.0525-0.25125 0.13234-0.33203 0.37109-0.17578 0.09625 0.06375 0.20711 0.40133 0.31836 0.36133 0.99625-0.37 3.7481-2.7134 6.2344-6.3184 1.81-2.625 3.4618-6.8653 3.8418-8.6016 0.53125-2.4262 0.01141-3.9903-0.55859-4.1641-0.07828-0.02391-0.13167-0.02385-0.16797 0zm-57.4 8.5957c-0.045 0.0125-0.23976 0.48797-0.47852 0.63672-0.23875 0.14625-0.26008 0.03273-0.48633 0.27148-0.2275 0.24-0.95609 1.3076-0.05859 2.0801 0.48875 0.42 1.4227 0.29492 1.7852 0.16992 0.3625-0.12375 0.65125-0.6057 0.5-0.9082-0.13625-0.2725-0.43172-0.15961-0.63672-0.44336-0.20375-0.285-0.25047-0.62688-0.38672-0.92188s-0.22812-0.37477-0.20313-0.50977c0.045-0.26125-0.03516-0.375-0.03516-0.375zm-2.9648 2.7051c-0.375 0.03375-0.99945 0.07945-2.1582 0.4082-1.16 0.33-2.8184 0.79414-2.8184 0.93164 0 0.11125 2.3944 0.32289 3.2031 0.30664 1.0788-0.0225 2.33-0.52156 2.5-0.97656 0.17-0.45375-0.35281-0.70367-0.72656-0.66992zm13.929 0.658s-0.46586-0.0016-0.94336 0.05469c-0.47625 0.0575-1.0684 0.17188-1.0684 0.17188s0.72789 0.73828 1.1816 1.3633c0.455 0.62375 1.0445 1.5638 0.98828 1.75-0.03375 0.1125-0.64688-0.13656-3.5781 0.74219-2.3062 0.69125-3.4434 1.4853-3.5234 1.5078s-0.14734-0.47758-0.46484-0.95508c-0.31875-0.4775-0.63664-0.93164-0.68164-0.93164s-0.10266 1.1216-0.47266 1.8516c-0.39125 0.7725-0.81031 1.3402-1.0391 1.1602-0.31875-0.25 0.33-1.1598 0.625-1.9785 0.20875-0.5775 0.14844-1.8047 0.14844-1.8047s-0.28555-0.31836-0.3418-0.31836c-0.0575 0-0.43109 1.0102-0.83984 1.3965-0.40875 0.38625-0.95367 0.97891-1.1699 0.66016-0.21625-0.3175 0.78281-0.87508 1.1016-1.5801 0.3175-0.705 0.54586-1.1696 0.56836-1.9434 0.0225-0.7725 0.04359-0.72633-0.03516-0.73633-0.08-0.01125-0.69195 0.28078-1.5332 0.26953-1.1375-0.015-1.1592-0.33883-1.2617-0.36133s-0.21594 0.55609-1.2734 0.96484c-0.8275 0.32-1.4653 0.27289-1.6016 0.43164-0.13625 0.15875-0.13531 0.98836 0.14844 1.8184 0.1975 0.575 0.82883 1.5671 0.45508 1.6934-0.3925 0.13125-0.50094-0.17297-0.89844-1.1367-0.26875-0.6525-0.28508-0.83-0.33008-0.875s-0.2032-0.06773-0.2832-0.02148c-0.08 0.045-0.49914 0.54547-0.55664 0.63672-0.05625 0.09 0.28367 0.53375 0.41992 0.75 0.13625 0.215 0.44289 0.77055 0.30664 0.99805s-0.22789 0.25094-0.30664 0.14844c-0.08-0.1025-0.51414-1.4017-1.8066-2.1367-1.4763-0.84125-3.1773 0.13367-3.3398 1.5449-0.1875 1.625 1.4407 3.3683 4.4082 4.332 3.2487 1.0538 5.1699-0.25195 5.1699-0.25195s3.0215 1.6459 8.7715 1.0547c5.8838-0.605 7.8955-2.0659 8.543-2.5547 0.62625-0.4725 0.705-0.76273 0.625-0.74023s-0.94328 0.51125-1.6133-0.125c-1.2025-1.1425-0.51055-3.6236-0.62305-3.7148-0.115-0.09125-0.42344 0.09094-0.77344 0.02344-0.59125-0.11375-0.79516-0.68242-0.91016-0.66992-0.205 0.0225-0.38617 1.0099-1.2949 0.91992-0.73875-0.07375-1.0791-0.77203-1.0391-1.9883 0.0325-1.0275 0.14258-1.4199 0.14258-1.4199zm28.971 3.2832c0.20891 0.01516 0.47375 0.14766 0.73438 0.48828 0.5825 0.76125 0.16297 2.4839-0.30078 2.4727-0.43125-0.01-0.03953-0.77094-0.01953-0.96094 0.0063-0.06 0.08687-0.37141-0.10938-0.91016-0.19-0.52-0.77742-0.58734-0.70117-0.87109 0.035-0.13 0.18758-0.23391 0.39648-0.21875zm-50.254 4.658c-0.10125-0.04875-0.69141 2.3588 3.9961 3.5938 1.2838 0.34 3.7192 0.09383 4.6992-0.20117 0.795-0.24 0.93836-0.41062 1.0059-0.42188 0.115-0.01875 0.26758 0.000625 0.26758 0.07813 0 0.07625 0.0098 0.20898 0.0098 0.20898s2.398 1.0763 5.8867 1.0176c3.49-0.0575 7.1916-0.75726 9.9141-2.041 1.3575-0.64125 1.4473-0.76805 1.4961-0.87305 0.0475-0.105 0.11547-0.41188 0.10547-0.54688-0.01-0.13375-0.03906-0.41211-0.03906-0.41211s-0.93789 0.69945-4.7441 1.9082c-1.9988 0.63375-4.3918 1.0355-8.2168 0.82422-3.415-0.18875-4.4661-0.98391-4.7461-1.0352-0.25875-0.04875-1.7841 1.2141-5.5703 0.18164-3.0588-0.83375-3.6432-2.08-4.0645-2.2812zm44.678 0.50391c-0.43805 0.0015-1.2249 0.21726-2.1699 1.3066-1.2612 1.4538-1.7155 3.3138-1.623 3.4375 0.0925 0.12375 0.23117-0.93883 2.1074-2.3613s2.2619-1.1156 2.4844-1.5156c0.10875-0.19375-0.11562-0.68352-0.48438-0.82226-0.06125-0.02281-0.16844-0.04541-0.31445-0.04492z" transform="matrix(.8 0 0 -.8 132.43 367.72)" fill="#ffc82d"/><path d="m51.732 12.434c-0.20349 0.03116-0.39969 0.09789-0.58203 0.20898-1.5238 0.93-0.53477 3.3826 0.95898 4.8613 1.4638 1.4475 3.443 2.2525 4.4805 1.7812 1.205-0.5475 0.94531-1.6133 0.94531-1.6133s-0.6625 1.157-1.8125 1.127c-1.7838-0.045-3.2168-2.1016-3.2168-2.1016s0.27852-0.10297 0.88477-0.19922c0.48625-0.0775 0.89844-0.21289 0.89844-0.21289s-0.67375-0.24898-1.2188-0.39648c-0.56375-0.1525-1.1426-0.33594-1.1426-0.33594s-0.53852-1.12 0.33398-1.8438c0.975-0.8075 2.6836 0.01563 2.6836 0.01563s-1.7885-1.5091-3.2129-1.291zm-25.013 32.484c-0.61 0-0.60938 0.3043-0.60938 0.4043 0 0.12125 0.0518 0.40625 0.5293 0.40625 0.2275 0 0.46539 0.01461 0.55664 0.03711 0.37375 0.08 0.45688 0.19922 0.48438 0.66797 0.0325 0.50125 0.0332 0.93516 0.0332 3.3477v2.793c0 1.4488-0.0013 2.6977-0.08008 3.3477-0.0625 0.4525-0.1282 0.62344-0.25195 0.64844-0.18 0.04125-0.34258 0.05859-0.51758 0.05859-0.47875 0-0.51562 0.29547-0.51562 0.38672 0 0.12625 0.05562 0.41992 0.57812 0.41992 0.365 0 0.84047-0.01359 1.2617-0.02734l0.73828-0.01953 0.71094 0.01758c0.46125 0.0125 1.036 0.0293 1.5723 0.0293 0.535 0 0.5625-0.34992 0.5625-0.41992 0-0.18625-0.14625-0.38672-0.46875-0.38672-0.19375 0-0.53203-0.03055-0.73828-0.06055-0.0875-0.01375-0.30766-0.05164-0.34766-0.61914-0.0475-0.67125-0.04687-1.9238-0.04687-3.375v-0.80859c0.37625 0.415 6.0449 6.6758 6.0449 6.6758l0.01172 0.0098c0.7025 0.6225 1.1813 1.0082 2.1113 1.0957 0.345 0.03125 0.63664 0.03125 1.1191 0.03125h1.3809c0.17625 0 0.64258 0.000781 0.64258-0.41797 0-0.19375-0.14305-0.38867-0.4668-0.38867-0.11375 0-0.42453-0.07656-0.95703-0.28906-0.76125-0.2975-1.485-0.93117-2.0938-1.5137-0.0125-0.01375-1.8359-1.9941-1.8359-1.9941-0.0012-0.0012-3.5653-3.8348-4.3828-4.7148 0.74-0.765 2.7709-2.8026 3.2422-3.2363 0.675-0.6175 1.4204-1.25 1.8379-1.25 0.2 0 0.38297 0.05125 0.41797 0.65625 0.03125 0.5 0.03125 0.93359 0.03125 3.3398v2.3105c0 2.075 0.47609 3.4692 1.4961 4.3867 1.2812 1.16 2.9675 1.1602 3.6875 1.1602 0.96 0 2.2216-0.13492 3.4629-1.2012 1.4012-1.2012 1.5938-3.0954 1.5938-4.9629v-1.6934c0-2.4062 0-2.8411 0.03125-3.3398 0.03125-0.53875 0.14305-0.61766 0.37305-0.66016 0.18-0.03 0.26016-0.04492 0.41016-0.04492 0.47625 0 0.54688-0.25109 0.54688-0.40234 0-0.2675-0.1993-0.4043-0.5918-0.4043-0.40375 0-0.95367 0.02141-1.3574 0.03516 0 0-0.44031 0.01172-0.44531 0.01172h-0.04102c-0.885-0.0375-1.4575-0.04687-1.7812-0.04687-0.39375 0-0.59375 0.1368-0.59375 0.4043 0 0.12125 0.0525 0.40234 0.53125 0.40234 0.18625 0 0.41836 0.01977 0.50586 0.04102 0.375 0.08 0.45492 0.19156 0.48242 0.66406 0.03125 0.5 0.03125 0.93359 0.03125 3.3398v1.9785c0 1.6438-0.06305 2.9615-0.8418 3.7402-0.70375 0.7025-1.6325 0.77734-2 0.77734-0.5425 0-1.1805-0.07039-1.8105-0.58789-0.685-0.56-1.1426-1.4021-1.1426-3.6934v-2.2148c0-2.4062 0-2.8411 0.03125-3.3398 0.0325-0.53875 0.14375-0.61766 0.375-0.66016 0.17875-0.03 0.26016-0.04492 0.41016-0.04492 0.4775 0 0.51562-0.30734 0.51562-0.40234 0-0.40375-0.45938-0.4043-0.60938-0.4043l-1.1641 0.0293-0.7832 0.01953h-3.0391l-0.90234-0.02734-0.73047-0.02148c-0.44875 0-0.51562 0.25305-0.51562 0.4043 0 0.3225 0.29766 0.38906 0.41016 0.41406 0.0025 0.0012 0.0087 0.002 0.01367 0.002 0.0025 0.0087 0.0059 0.02625 0.0059 0.0625 0 0.16-0.35352 0.57391-0.66602 0.94141l-0.06641 0.07812c-0.27125 0.3175-1.213 1.2957-2.043 2.1582-0.34 0.3525-0.65133 0.67523-0.89258 0.92773v-0.125c0-2.4125 0-2.8477 0.03125-3.3477 0.03125-0.54125 0.14305-0.62156 0.37305-0.66406 0.175-0.03 0.25773-0.04102 0.39648-0.04102 0.46 0 0.48438-0.33875 0.48438-0.40625 0-0.2675-0.2-0.4043-0.59375-0.4043l-1.123 0.0293-0.79883 0.01953-0.69922-0.01758c-0.4525-0.015-1.014-0.03125-1.5215-0.03125zm-9.1055 3.7207c-0.22125 0.0625-0.26555 0.74195-0.24805 1.627 0.01875 0.88625 0.07148 1.1611-0.0098 1.2148-0.08 0.0525-1.0659-0.41656-1.8672-0.78906-1.0088-0.46875-2.3282-1.3183-2.4082-1.3008-0.09625 0.02125 0.90305 1.3188 1.248 2.0625 0.4075 0.8775 0.7693 1.6816 0.6543 1.7266s-0.65344-0.20266-1.3359-0.44141c-0.68125-0.24-1.4084-0.51438-1.4609-0.45312-0.05375 0.0625 0.82102 1.0285 1.2285 1.666 0.4075 0.6375 0.54688 0.76086 0.54688 0.84961s-0.11172 0.20414-0.19922 0.21289c-0.08875 0.0087-0.64641 0.04328-1.0977 0.05078-0.4525 0.01-0.96484-0.03492-1.0273 0.01758-0.0625 0.05375 0.83875 1.1012 1.5312 1.7812 0.9825 0.965 1.7889 1.3456 1.8164 1.3906 0.025 0.04375-0.47961 0.31406-1.0996 0.60156-1.355 0.62875-1.6112 0.52266-1.6387 0.62891-0.0175 0.0725 1.1456 0.425 1.9844 0.71875 1.0888 0.38 1.9839 0.44055 2.2227 0.4668 0.23875 0.0275-0.2218 0.24719-0.37305 0.33594-0.15 0.08875-0.44141 0.21289-0.44141 0.27539 0 0.125 1.9974 1.1102 3.6699 1.2539 1.7538 0.15125 3.3135-0.07984 4.166-0.52734 0.16875-0.08875 0.15898-0.22195-0.0098-0.2832-0.2125-0.07875-0.49477 0.31586-3.0098 0.25586-2.24-0.05375-3.8428-0.65438-3.9141-0.73438-0.06125-0.0675 0.61305-0.30117 0.9043-0.45117 0.2925-0.15 0.65414-0.26703 0.61914-0.42578-0.041-0.181-0.653-0.146-1.284-0.215-0.806-0.088-2.878-0.611-2.922-0.664-0.045-0.05375 0.62102-0.37234 0.94727-0.55859 0.3275-0.185 0.64469-0.38875 0.74219-0.40625s0.26539-0.09649 0.27539-0.17774c0.02625-0.2125-0.17789-0.24609-0.27539-0.30859-0.0975-0.06125-0.43422-0.37641-1.5117-1.2227-0.665-0.5225-1.2931-1.1614-1.3281-1.2227-0.03625-0.0625 0.55758-0.0782 1.0176-0.0957 0.46125-0.0175 0.69852-0.04492 0.82227-0.10742 0.125-0.06125 0.2575-0.11562 0.25-0.26562-0.0088-0.15-0.23234-0.46867-0.62109-0.98242-0.28625-0.3775-0.83195-0.94625-0.81445-1 0.0175-0.0525 0.41602 0.10492 0.94727 0.26367 0.53125 0.16 1.1664 0.4607 1.3164 0.3457s0.08469-0.61953-0.28906-1.3633c-0.5225-1.0362-1.0996-1.7597-1.0371-1.8047 0.06125-0.04375 0.98445 0.54976 1.5957 0.88476 0.61125 0.3375 1.646 0.8925 1.7598 0.875 0.115-0.0175 0.32047-0.44891 0.29297-0.84766-0.02625-0.39875-0.09648-1.1261-0.05273-1.1523 0.04375-0.02625 1.116 1.2388 1.6035 1.6738 0.48625 0.43375 0.98977 0.83234 1.2285 1.0273 0.24 0.195 0.62023 0.56648 0.70898 0.64648 0.08875 0.07875 0.28438 0.06109 0.32812-0.09766 0.04375-0.16 0.0087-0.94664 0-1.2129-0.0087-0.265 0.0168-1.0087 0.06055-1.0449 0.045-0.035 0.50578 0.88602 0.95703 1.541 0.31125 0.45125 0.9925 1.5416 1.1875 1.8691s0.50812 0.7532 0.60938 0.68945c0.28375-0.1775-0.5843-1.4994-1.0605-2.3594-0.49625-0.89375-1.9835-3.8194-2.0723-3.8281-0.08875-0.0087-0.15016 1.4252-0.16016 2.0352-0.0088 0.61125-0.02531 1.4432-0.07031 1.4707-0.045 0.02625-0.9132-0.80672-1.5332-1.418-0.62-0.61-1.3979-1.4331-1.5566-1.7969-0.16-0.3625-0.35492-0.94734-0.51367-0.90234zm41.232 3.5859c-0.93125 0.59-1.8799 1.2198-2.8262 1.9023-2.1875 1.5775-5.0574 4.0544-6.4824 5.3281 0.57875 0.40125 1.2709 0.90641 1.8184 1.4102 0.36 0.33 0.70547 0.70148 1.0117 1.0527 0.05875-0.12875 0.12141-0.26688 0.19141-0.42188 0.22875-0.5125 0.37617-1.0979 0.48242-1.5254 0.12-0.4825 0.18328-0.7475 0.39453-1 0.3475-0.4175 0.89047-0.58391 1.5117-0.72266 0.2575-0.42625 0.6957-1.0986 1.3457-1.6836 0.64375-0.58125 1.1627-0.89133 1.5527-1.0801l0.0059-0.03711c0.09625-0.67125 0.27414-1.8689 0.99414-3.2227zm-33.867 3.9863c-0.09125 0.01125-0.24125 0.56602-0.375 1.0098-0.1325 0.43625-0.58086 1.9212-0.69336 2.7012s0.28859 1.5818 0.43359 1.6543c0 0 0.30547-2.1548 0.41797-2.6973s0.60742-1.9103 0.60742-2.1016c0-0.145-0.30062-0.57766-0.39062-0.56641zm22.191 4.039c-0.33908 0.13619-1.6621 1.5334-2.5918 3.3359-1.1675 2.2612-1.4395 3.8205-1.457 3.9043-0.02 0.1025-0.53539-0.62305-0.58789-1.7168-0.0825-1.7125 0.36125-3.3528 0-3.4766-0.34375-0.1175-1.7755 2.6833-2.168 3.457-0.3925 0.775-2.0644 3.7686-1.7969 3.9961 0.30625 0.26 1.5699-2.1576 1.9199-2.7363 0.33625-0.5525 1.2812-2.2402 1.2812-2.2402s-0.0307 1.8483 0.2793 2.457c0.30875 0.61 0.7325 1.393 1.1562 1.3105 0.4225-0.0825 0.14359-0.35977 0.37109-1.041 0.22625-0.68125 1.3944-3.2941 1.7969-3.9766 0.4025-0.68125 1.9202-2.9107 1.8789-3.252-0.0042-0.03453-0.03359-0.04094-0.08203-0.02148zm9.1074 1.7168c-0.26844 0.0012-0.44484 0.02594-0.49609 0.05469-0.10375 0.055-0.25445 0.31984-0.37695 0.62109-0.1225 0.3-0.24414 0.80774-0.24414 0.86523 0 0.05625 0.29094-0.1032 1.4297 0.2168 1.14 0.32 1.5461 0.33906 1.6211 0.32031s0.27305-0.4425 0.4043-0.78125c0.1325-0.34 0.2832-0.73438 0.2832-0.73438-0.03625-0.09375-0.73352-0.35797-1.5723-0.48047-0.41875-0.06125-0.78039-0.08328-1.0488-0.08203zm-32.234 0.33594s-0.43672 0.43602-0.51172 0.94727c-0.09375 0.64375 0.11484 1.1733 0.05859 1.457-0.0575 0.28375-0.3418 1.2305-0.3418 1.2305s0.18969-0.05805 0.49219-0.0918c0.315-0.0375 0.39727-0.07805 0.41602-0.1543s-0.08789-0.6432-0.08789-0.9082 0.12609-0.87102 0.18359-1.5723c0.05625-0.7-0.20898-0.9082-0.20898-0.9082zm-6.8516 1.8359s-0.2268 0.285-0.5293 0.53125c-0.30375 0.245-0.53125 0.47141-0.53125 0.56641s-0.01867 0.45375-0.07617 0.625c-0.05625 0.17 0.05781 0.64406 0.13281 0.66406 0.07625 0.01875 0.39906-0.13312 0.75781-0.26562s0.79492-0.35938 0.79492-0.35938-0.15148-0.37875-0.20898-0.625c-0.05625-0.245-0.15117-0.75617-0.16992-0.88867s-0.16992-0.24805-0.16992-0.24805zm2.6973 3.2793c-0.0475-0.03-0.42234 0.1618-0.58984 0.2168-0.16875 0.05375-0.67273 0.23414-0.70898 0.27539-0.035 0.04125 0.27602 0.35625 0.38476 0.5 0.1075 0.14375 0.45719 0.53477 0.52344 0.54102 0.02625 0.0025 0.44438-0.17945 0.67188-0.25195 0.22875-0.0725 0.43961-0.17008 0.50586-0.23633 0.03125-0.03125-0.23976-0.42508-0.38476-0.61133-0.14375-0.1875-0.35484-0.40359-0.40234-0.43359z" transform="matrix(.8 0 0 -.8 132.43 367.72)" fill="#fff"/></g></g></svg>
