<svg xmlns="http://www.w3.org/2000/svg" height="265.36" viewBox="0 0 215.35065 265.36328" width="215.35"><g transform="matrix(1.25 0 0 -1.25 -314.73 792.14)"><g transform="matrix(.5 0 0 .5 169.71 264.53)"><path d="m463.09 727.33-8.5672-24.969h-27.267l22.358-16.506-8.1484-26.43 22.045 15.88 22.145-15.67-8.3562 26.22 20.892 16.506h-26.534l-8.5672 24.969zm-279.56-93.917v-41.372h20.059v-141.66h-20.059v-43.25h91.514v43.25h-19.43v99.662l84.619-142.91h63.308v184.91h18.806v41.372h-90.888v-41.372h20.683v-87.753l-77.098 129.12h-91.514z" stroke="#000048" stroke-width="5.0152" fill="#b4a87e"/><path d="m167.3 387.14v-15.264h5.3672v-39.689h-5.4188v-15.319h32.277v15.319h-5.3938v16.147l18.097-31.466h22.289v55.008h5.4203v15.264h-32.225v-15.264h5.4203v-16.203l-18.208 31.467h-27.625zm92.659 0-16.502-54.953h-5.3016v-15.319h32.225v15.319h-4.9125l0.77031 2.6062h15.78l0.78282-2.6062h-4.7969v-15.319h32.225v15.319h-5.4359l-16.475 54.953h-28.359zm37.045 0v-15.264h6.5453l18.461-55.008h21.15l18.381 55.008h6.5422v15.264h-32.197v-15.264h3.5031l-0.75-2.2469c-0.777-2.317-1.6397-4.9002-2.5687-7.7312-1.325-3.869-2.4798-7.2896-3.5328-10.491-0.486 1.449-0.95168 2.851-1.4047 4.214-0.748 2.252-1.4566 4.3887-2.1406 6.4047l-0.38593 1.1469c-1.064 3.153-2.0406 6.0481-2.9156 8.7031h3.5109v15.264h-32.198zm74.319 0v-15.264h7.6469l15.242-28.983v-10.706h-5.2328v-15.319h32.225v15.319h-5.1812v10.645l15.664 29.044h6.6359v15.264h-31.498v-15.264h2.3719l-4.0234-8.0828-4.1109 8.0828h2.5109v15.264h-32.25zm-97.164-26.13 3.2547-10.953h-6.5438l3.2891 10.953z" fill="#000048"/><path d="m170.14 384.3v-9.5812h5.3656v-45.372h-5.4172v-9.6359h26.594v9.6359h-5.3938v29.627l22.583-39.262h17.802v55.008h5.4203v9.5812h-26.542v-9.5812h5.4203v-29.628l-22.686 39.209h-23.145zm91.933 0-16.505-54.953h-4.5719v-9.6359h26.542v9.6359h-5.875l2.4516 8.2875h20.012l2.4922-8.2875h-5.775v-9.6359h26.541v9.6359h-4.7078l-16.475 54.953h-24.13zm37.77 0v-9.5812h5.7469l18.461-55.008h17.062l18.381 55.008h5.7469v9.5812h-26.516v-9.5812h4.5984l-1.9922-5.9906c-0.774-2.313-1.6358-4.8894-2.5688-7.7344-1.904-5.556-3.4451-10.167-4.8531-14.536l-1.3156-4.0797-1.3828 4.0578c-0.993 2.925-1.9096 5.6871-2.7766 8.2891-0.745 2.249-1.4519 4.3751-2.1359 6.3891l-0.38751 1.1531c-1.32 3.915-2.5054 7.4306-3.5344 10.591l-0.60625 1.8609h4.5891v9.5812h-26.517zm74.32 0v-9.5812h6.5203l16.367-31.122v-14.25h-5.2328v-9.6359h26.544v9.6359h-5.1797v14.203l16.806 31.169h5.4922v9.5812h-25.819v-9.5812h4.1219l-8.5859-17.247-8.7703 17.247h4.3031v9.5812h-26.567zm-99.992-13.366 7.05-23.717h-14.173l7.1234 23.717z" fill="#b4a87e"/></g></g></svg>