<?xml version="1.0" encoding="UTF-8" standalone="no"?>
<svg xmlns:rdf="http://www.w3.org/1999/02/22-rdf-syntax-ns#" xmlns="http://www.w3.org/2000/svg" xml:space="preserve" height="133" viewBox="0 0 346.4375 132.58818" width="346" version="1.1" xmlns:cc="http://creativecommons.org/ns#" xmlns:dc="http://purl.org/dc/elements/1.1/"><g transform="matrix(1.25 0 0 -1.25 -209 561)"><g style=""><g style="" fill="#130c0e" transform="translate(-.485 -8.01)"><path d="m294 425v-5.94h2.9v3.03h3.24v-11.8h-1.79v-2.9h7.07v2.9h-1.79v11.8h3.24v-3.03h2.9v5.94h-15.8"/><path d="m294 410-5.37 14.7h-3.43l-5.39-14.7h-1.45v-2.9h6.43v2.9h-1.68c0.203 0.605 0.437 1.3 0.686 2.05h6.04c0.247-0.746 0.479-1.44 0.682-2.05h-1.68v-2.9h6.42v2.9h-1.26zm-9.27 4.81c1.07 3.19 2.09 6.3 2.11 6.46 0.0154-0.162 1.03-3.26 2.08-6.46h-4.19"/><path d="m367 410-5.37 14.7h-3.43l-5.39-14.7h-1.45v-2.9h6.42v2.9h-1.68c0.204 0.605 0.438 1.3 0.689 2.05h6.04c0.246-0.746 0.478-1.44 0.681-2.05h-1.68v-2.9h6.42v2.9h-1.26zm-9.28 4.81c1.07 3.19 2.09 6.3 2.12 6.46 0.0123-0.162 1.03-3.26 2.08-6.46h-4.2"/><path d="m262 425v-2.9h1.79v-11.8h-1.79v-2.9h7.08v2.9h-1.79v9.23l7.04-12.1h3.5v14.7h1.79v2.9h-7.07v-2.9h1.78v-8.33l-6.15 11.2-6.18-0.005"/><path d="m335 425v-2.9h1.79v-11.8h-1.79v-2.9h7.08v2.9h-1.79v9.23l7.04-12.1h3.5v14.7h1.79v2.9h-7.07v-2.9h1.79v-8.33l-6.15 11.2-6.18-0.005"/><path d="m311 425v-2.9h1.79v-11.8h-1.79v-2.9h7.08v2.9h-1.79v11.8h1.79v2.9h-7.08"/><path d="m370 425v-2.91h1.79v-11.8h-1.79v-2.9h13.9v6.02h-2.9v-3.11h-5.69v11.8h1.79v2.91h-7.07"/><path d="m326 407h1.16c4.69 0 6.3 2.04 6.3 4.22v9.58c0 2.18-1.6 4.23-6.3 4.23h-1.16c-4.69 0-6.3-2.05-6.3-4.23v-9.58c0-2.18 1.61-4.22 6.3-4.22m-2.77 13.2c0 1.3 1.04 1.95 2.77 1.95h1.16c1.74 0 2.77-0.651 2.77-1.95v-8.34c0-1.3-1.04-1.95-2.77-1.95h-1.16c-1.74 0-2.77 0.648-2.77 1.95v8.34"/><path d="m269 401v0.002h-0.967c-4.69 0-6.3-2.05-6.3-4.23v-9.58c0-2.18 1.6-4.22 6.3-4.22h0.967c4.64 0.0173 6.04 2.05 6.04 4.22v2.26h-3.39v-1.64c0-1.29-0.905-1.94-2.64-1.94h-0.967c-1.74 0-2.77 0.65-2.77 1.94v8.34c0 1.3 1.04 1.95 2.77 1.95h0.967v-0.002c1.74 0 2.64-0.646 2.64-1.94v-1.27h3.39v1.89c0 2.17-1.39 4.21-6.04 4.22"/><path d="m414 401v-2.9h1.79v-4.52h-6.34v4.52h1.79v2.9h-7.07v-2.9h1.79v-11.8h-1.79v-2.9h7.07v2.9h-1.79v4.37h6.34v-4.37h-1.79v-2.9h7.07v2.9h-1.79v11.8h1.79v2.9h-7.07"/><path d="m286 401v-2.9h1.79v-4.52h-6.34v4.52h1.79v2.9h-7.08v-2.9h1.79v-11.8h-1.79v-2.9h7.08v2.9h-1.79v4.37h6.34v-4.37h-1.79v-2.9h7.07v2.9h-1.79v11.8h1.79v2.9h-7.07"/><path d="m348 401v-2.9h1.79v-11.8h-1.79v-2.9h7.08v2.9h-1.78v11.8h1.78v2.9h-7.08"/><path d="m422 401v-2.9h1.79v-11.8h-1.79v-2.9h7.08v2.9h-1.79v11.8h1.79v2.9h-7.08"/><path d="m322 392-3.85 8.72h-6.18v-2.9h1.79v-11.8h-1.79v-2.9h7.08v2.9h-1.79v8.9l2.99-6.85h3.49l2.99 6.85v-8.9h-1.79v-2.9h7.07v2.9h-1.79v11.8h1.79v2.9h-6.18l-3.85-8.72"/><path d="m363 383h1.16c4.69 0 6.29 2.04 6.29 4.22v9.58c0 2.18-1.6 4.22-6.29 4.22h-1.16c-4.69 0-6.3-2.05-6.3-4.22v-9.58c0-2.18 1.61-4.22 6.3-4.22m-2.78 13.2c0 1.3 1.04 1.94 2.78 1.94h1.16c1.74 0 2.77-0.649 2.77-1.94v-8.34c0-1.3-1.04-1.95-2.77-1.95h-1.16c-1.74 0-2.78 0.65-2.78 1.95v8.34"/><path d="m372 401v-2.9h1.79v-11.8h-1.79v-2.9h7.07v2.9h-1.79v9.24l7.04-12.1v-0.006h3.5v14.7h1.78v2.9h-7.07v-2.9h1.79v-8.34l-6.15 11.2-6.18-0.002"/><path d="m403 388v1.78c0 1.98-1.34 3.22-3.16 3.86l-5.15 1.66c-0.428 0.159-1.1 0.508-1.1 1.45v0.112c0 1.3 0.869 1.92 2.57 1.93h0.544c1.72 0 2.6-0.614 2.6-1.93v-0.998h3.54v1.48c0 2.25-1.5 4.37-6.19 4.37h-0.494c-4.69 0-6.09-2.12-6.09-4.37v-1.29c0-1.61 1.15-2.97 2.44-3.46l4.3-1.55c1.21-0.457 2.63-0.883 2.63-1.98v-0.57c0-1.31-1.04-1.93-2.84-1.93h-0.492c-1.82 0-2.84 0.615-2.84 1.93v1.6h-3.54v-2.08c0-2.25 1.63-4.37 6.4-4.37h0.495c4.8 0 6.38 2.12 6.38 4.37"/><path d="m438 401h-7.85v-2.9h1.79v-11.8h-1.79v-2.9h7.07v2.9h-1.79v2.77h2.57c4.69 0 6.27 2.04 6.27 4.23v3.49c0 2.18-1.58 4.23-6.27 4.23m2.8-7.13c0-1.27-1.06-1.92-2.8-1.92h-2.57v6.14h2.57c1.74 0 2.8-0.647 2.8-1.95v-2.28"/><path d="m310 386-5.37 14.7h-3.43l-5.39-14.7h-1.45v-2.91h6.42v2.91h-1.68c0.201 0.604 0.436 1.3 0.685 2.05h6.04c0.247-0.746 0.478-1.44 0.681-2.05h-1.68v-2.91h6.43v2.91h-1.26zm-9.28 4.81c1.07 3.2 2.09 6.29 2.11 6.46 0.0148-0.162 1.03-3.26 2.08-6.46h-4.2"/><path d="m341 401h-7.85v-2.9h1.79v-11.8h-1.79v-2.9h7.07v2.9h-1.79v2.77h2.57c4.69 0 6.27 2.04 6.27 4.23v3.49c0 2.18-1.58 4.23-6.27 4.23m2.8-7.13c0-1.27-1.06-1.92-2.8-1.92h-2.57v6.14h2.57c1.74 0 2.8-0.647 2.8-1.95v-2.28"/></g><g style="" fill="#130c0e"><path d="m214 408v3.8h-15.4v-3.8h15.4z"/><path d="m214 399v3.8h-15.4v-3.8h15.4z"/><path d="m214 390v3.81h-15.4v-3.81h15.4z"/><path d="m214 381v3.8h-15.4v-3.8h15.4z"/></g><g style="" fill="#c28c19"><path d="m233 368h-0.284c3.71 8.35 6.11 17.9 6.11 28.2s-2.39 19.9-6.11 28.2h0.284c5.44-8.2 9-17.9 9-28.2s-3.56-20-9-28.2zm1.73 28.2c0-23.8-13.2-42.5-24.8-52l0.871-1.02c17.9 8.38 35.3 29.4 35.3 53 0 23.7-17.4 44.7-35.3 53l-0.871-1.02c11.5-9.54 24.8-28.3 24.8-52"/><path d="m171 396c0 10.3 3.56 20 9 28.2h0.282c-3.71-8.35-6.1-17.9-6.1-28.2s2.39-19.9 6.1-28.2h-0.282c-5.44 8.2-9 17.9-9 28.2zm32 52-0.87 1.02c-17.9-8.38-35.3-29.4-35.3-53 0-23.7 17.4-44.7 35.3-53l0.87 1.02c-11.5 9.54-24.8 28.3-24.8 52 0 23.8 13.3 42.5 24.8 52"/></g></g></g></svg>
