<?xml version="1.0" encoding="UTF-8" standalone="no"?>
<svg xmlns:rdf="http://www.w3.org/1999/02/22-rdf-syntax-ns#" xmlns="http://www.w3.org/2000/svg" xml:space="preserve" height="86.612" viewBox="0 0 102.00019 86.611672" width="102" version="1.1" xmlns:cc="http://creativecommons.org/ns#" xmlns:dc="http://purl.org/dc/elements/1.1/"><g transform="matrix(1.25 0 0 -1.25 -496.5 288.19)"><g transform="matrix(2.0325 0 0 2.0325 -450.54 -200.7)"><path d="m434.94 190.94c-2.238 1.415-6.053 4.025-6.642 5.816 1.033 0.028 2.758-0.455 3.675-0.874 0.752-0.344 2.298-1.332 3.119-2.98 0 0 0.47-0.176 0.963-0.09-0.007-0.276-0.07-0.551-0.358-0.713 0.309-0.155 1.028-0.05 1.355 0.081 0.115-0.122 0.038-0.792-0.095-0.959 0.36-0.039 1.079 0.173 1.543 0.454 0.107-0.366 0.043-0.852-0.113-1.205 0.482 0.132 0.922 0.368 1.279 0.753 0.21-0.041 0.802-0.083 1.053 0.032 0.252 0.114 1.073 0.958 1.657 0.999 0.049 0.258-0.034 0.567-0.099 0.832 0.247 0.153 0.417 0.403 0.647 0.621 1.46 2.751 1.997 6.846 2.01 7.899 0.061 0.013 0.402 0.198 0.445 0.268 0.055 0.258 0.074 0.515 0.111 0.799-0.221 0.214-0.395 0.546-0.466 0.876 0.014 0.464 0.047 1.005 0.115 1.449-0.095 0.491-0.201 0.988-0.337 1.453-0.078 0.181-0.359 0.295-0.633 0.268-0.566-0.145-1.181-0.238-1.717-0.485-0.208 0.279-0.4 1.106-1.602 1.704-1.463-0.014-2.433-1.002-2.676-1.167-0.252 0.169-0.654 1.054-0.864 1.307-0.421 0.144-0.648 0.19-0.853 0.065-0.223-0.179-0.446-0.287-0.682-0.434-0.34 0.609-1.189 1.586-1.524 1.828-0.381 0.275-1.036 0.571-1.373 0.647-0.132 0.039-0.277-0.102-0.289-0.231-0.284 0.042-0.735 0.028-1.021 0.005-0.531 0.311-1.049 0.843-1.954 0.879-0.325-0.63 0.027-1.596 0.251-2.049-0.154-0.146-0.435-0.47-0.581-0.673 0 0 0.196 0.844-0.272 1.433-0.467 0.589-2.657 2.257-3.893 2.209-0.416-0.017-0.659-1.268-0.505-2.105 0.148-0.807 0.811-2.123 0.811-2.123l-0.001-0.001c-0.751 0.273-1.531 0.407-2.081 0.263 0.262-0.184 0.495-0.485 0.563-0.767-0.854 0.224-2.893 0.229-3.728-0.213 0.291-0.272 0.621-0.447 0.835-0.787-0.59 0.148-1.839-0.124-2.35-0.65 0.405-0.087 0.807-0.299 1.02-0.612-0.742-0.258-1.253-0.806-1.748-1.33 0.33-0.039 0.668-0.147 0.893-0.32-0.507-0.264-1.092-0.955-1.31-1.495 0.302 0.033 0.62 0.011 0.844-0.088-0.32-0.437-0.592-0.903-0.796-1.427 0.254 0.025 0.418-0.029 0.563-0.087-0.181-2.007 0.483-4.252 1.398-5.67 1.535-2.376 3.152-4.227 6.344-6.168 6.858-4.17 13.641-4.824 16.203-9.722 0.075 4.145-1.808 9.119-7.134 12.485"/><path d="m440.75 201.66c-0.183-0.154-0.637-1.042-0.641-1.398-0.864 0.515-1.108 1.307-1.323 1.965-0.471-0.393-1.504-0.948-1.784-0.895 0.15 0.174 0.214 0.883 0.08 1.115-0.375-0.411-1.029-1.12-1.703-1.147 0.11 0.164 0.198 0.915 0.008 1.152-0.233-0.385-0.87-0.866-1.469-0.926 0.031 0.181 0.062 0.456-0.129 0.644-0.359-0.579-1.025-1.076-1.629-1.079 0.07 0.43-0.032 0.808-0.333 1.055-0.3-0.449-0.659-0.971-1.61-1.018-0.008 0.343-0.318 1.076-0.646 1.191-0.275-0.274-0.559-1.381-0.588-1.666-0.043-0.408 0.127-0.999 0.616-0.95 0.423 0.042 0.848 0.558 1.009 0.896 0.442-0.138 0.76-0.85 0.867-1.235 0.243 0.165 0.694 0.585 0.801 1.006 0.536-0.353 0.753-1.013 0.751-1.512 0.312 0.259 0.678 0.738 0.781 1.089 0.444-0.28 0.842-1.14 0.769-1.811 0.263 0.09 0.594 0.29 0.817 0.57 0.398-0.336 0.637-1.041 0.536-1.572 0.214 0.037 0.834 0.46 0.988 0.753 0.199-0.307 0.354-1.378 0.28-1.794 0.426 0.261 1.089 1.008 1.339 1.48 0.131-0.232 0.286-0.726 0.3-1.079 0.801-0.211 1.818-0.621 2.461-0.931 0.864-0.417 2.416-1.296 3.164-2.022 0.461-0.448 0.588-1.032 0.694-1.467 0.423 0.414 0.374 1.558 0.255 1.803 0.4-0.269 0.721-0.583 1.101-0.696 0.643-0.253 1.617-0.374 2.305-0.336 0.927 0.211 2.405 0.753 3.158 0.964 0.328 0.138 0.889 0.328 1.265 0.335 0.649 0.067 1.241 0.141 1.876-0.07 0.434-0.068 1.07-0.261 1.448-0.476 0 0-0.24 0.772-0.645 1.29-0.074 0.105-0.571 1.015-2.3 0.78 0.365 0.15 0.937 0.904 1.007 1.259 0.07 0.513-0.053 1.076-0.318 1.397-0.299-1.699-1.78-2.569-2.715-2.558-0.8 0.009-1.335 0.146-2.107 0.566-0.953 0.519-1.021 1.347-2.131 1.832 0.151-0.302 0.18-0.908-0.07-1.192-0.371 0.538-2.023 2.175-2.682 2.61-0.705 0.465-2.453 1.748-3.853 2.078" fill="#d73647"/><path d="m9.5273 0.81445c0.4113 0.40125 0.9227 0.96465 0.8707 1.3984-0.10625 0.095-0.33758 0.16781-0.61133 0.16406 0.4 0.3025 0.87477 0.97172 0.94727 1.2305 0.07375 0.25875-0.14492 0.28797-0.41992 0.44922 0.0825 0.0725 1.4397 0.21039 1.5859 0.86914 0.24125 0.07 0.43523 0.11328 0.67773 0.20703 0.03125-0.17375-0.0027-0.40492-0.0039-0.60742-0.13375-0.33125-1.1562-0.56461-1.4688-0.59961 0.2775-0.2075 0.54266-0.36539 0.87891-0.36914-0.23-0.26-0.63758-0.52578-1.1738-0.70703 0.11375-0.11875 0.78766-0.12188 1.1914 0.046875-0.17875-0.39375-0.95289-1.0819-1.5879-1.6094 1.1638 0.37 2.6088 1.6035 3.1562 2.2285-0.425 0.50375-0.3693 1.5547-0.12305 1.9297 0-0.65 0.10266-1.5153 0.41016-1.9453-0.658-0.9974-2.667-2.4954-4.3297-2.6854zm9.5527 2.496c-0.83994-0.032988-2.1044 0.18164-2.4766 0.27539-0.91375 0.6475-0.54516 2.1173-1.3164 2.8535 0.43125-0.0075 0.64234 0.32773 0.90234 0.24023-0.02625-0.5175 0.62844-1.639 1.1484-1.9902 0.3925-0.1825 0.93383-0.19461 1.5176-0.13086-0.0025-0.22375-0.23242-0.50977-0.23242-0.50977 0.865 0.04 2.435 1.292 2.875 1.627 0.435 0.33 0.80859 0.52344 0.80859 0.52344-0.165-0.2825-0.20391-0.93758-0.47266-1.1738-0.48-0.365-1.5248-1.3647-2.1035-1.5859-0.136-0.0796-0.37-0.1179-0.65-0.1289zm-10.258 2.254c0.0975 0.255 0.2868 0.50836 0.31055 0.78711 0.19625-0.32 0.32031-0.55859 0.32031-0.55859-0.08-0.06625-0.41461-0.20727-0.63086-0.22852zm15.082 0.2539c-0.1725 0.02375-0.39273 0.175-0.52148 0.34375 0.3 0.0825 0.61797 0.085391 0.94922 0.11914l0.01367-0.023437-0.44141-0.43945zm4.9375 0.011719c-0.43295-0.013184-0.9375 0.11914-0.9375 0.11914-0.36875 0.04625-0.83508 0.62539-1.1738 0.74414 0.0063 0.16875 0.37234 0.58117 0.40234 0.66992-0.02375 0.05625-0.06828 0.12891-0.11328 0.16016-0.4725-0.1875-1.4479-0.39617-1.9004-0.45117-0.9075-0.11-3.1391 0.056172-3.8379 0.076172-1.3238-0.14625-3.114 0.11359-3.959 0.30859-0.77125 0.17625-1.7447 0.56242-2.2734 0.82617 0.15875-0.2625 0.21062-0.54555 0.20312-0.7793-0.66125-0.6125-2.5817-1.4224-4.0117-1.1699-0.26125 0.1525-0.57203 0.4518-0.73828 0.7168-0.265 0.44125-0.44258 0.89609-0.54883 1.4023-0.155 1.47 0.93625 2.6498 1.625 3.1836-0.1075 0.0475-0.28312 0.13656-0.57812 0.07031-0.145 0.40125-0.19734 0.9993-0.08984 1.498-0.1425 0.17125-0.45961 0.3118-0.69336 0.37305 0 0 2.2152 2.8274 2.8965 3.6699 1.0362 0.0063 2.3512 0.21391 3.1699 0.41016 0.81875 0.195 2.9593 1.0226 4.5918 2.0488-1.8788-1.8188-4.5404-2.8428-5.1191-3.0078-0.57875-0.165-1.5774-0.31492-2.0137-0.35742-0.000291-0.000409 0.00029-0.0015 0-0.002 0 0-1.093-1.4844-1.2305-2.0781-0.1375-0.59375 0.56758-3.0616 0.76758-3.9004 1.0225 0.36125 2.4727 0.25305 3.8652 0.0293 1.4319-0.23248 7.749-1.7297 9.959-1.7539-0.19404-0.012663-0.38689-0.027552-0.58398-0.027344-0.93875 0-1.9038 0.21156-2.8301 0.38281-0.67 0.03625-2.3955 0.35555-2.6055 0.43555-1.4612 0.2325-2.7874 0.6907-4.2324 0.9707-1.0625 0.3-2.5773-0.05008-3.6523-0.29883-0.47625 0.86375-0.92422 3.1652-0.79297 4.334 0.26639 0.73195 0.88179 1.2725 1.3301 1.9004l-0.67969-0.63086s-0.69367-0.81289-0.95117-1.2129c-0.23625-0.365 0.10562-2.6639 0.60938-3.9727-0.56375 0.2475-1.2431 0.14524-1.9844-0.25977 1.8862-0.03625 3.1894-1.7098 3.1406-3.1523 0.6125 0.52625 0.36703 1.8652-0.07422 2.459 1.14 0.63125 4.7916 0.40266 6.6953-0.27734 2.0762-0.74125 6.3544-0.93852 7.2031-0.60352-0.13148-0.038962-0.34206-0.049614-0.5918-0.046875 0.96892 0.06323 1.8931 0.29258 2.6836 0.86328 0.73375 0.52875 2.4963 1.2517 3.9238 1.3555-0.15-0.14625-0.22563-0.48016-0.17188-0.69141 0.07875-0.31625 0.04539-0.84273 0.02539-0.99023s-0.0718-0.38422-0.12305-0.48047c-0.09125 0.02375-0.17312 0.055781-0.23438 0.14453 0.12125 0.2175 0.24703 0.4193 0.23828 0.68555-0.0087 0.04-0.04617 0.057266-0.07617 0.072266-0.28-0.38125-0.99367-1.0695-1.3262-1.3145 0.15125-0.21625 0.39164-0.33586 0.58789-0.56836 0.265-0.17625 0.55719-0.00367 0.83594-0.13867 0.04875-0.25875-0.32211-0.21578-0.44336-0.20703-0.46125 0.0325-1.9442 0.81602-1.8867 1.3848-0.0075 0.08-0.09727 0.070312-0.13477 0.070312-0.15-0.26625-0.11781-0.97594-0.32031-1.2109-0.473-0.5988-0.914-1.1265-1.453-1.709-0.107-0.0472-0.244-0.0679-0.388-0.0723zm-22.85 0.5488c-0.41094-0.00187-0.82312 0.042656-1.1875 0.097656 0.365 0.12125 0.55172 0.50195 0.66797 0.75195 0.57125-0.20625 1.1167-0.51438 1.6992-0.67188-0.3581-0.1275-0.7688-0.1758-1.1797-0.1777zm1.6601 0.9961c-0.2192 0.0075-0.3945 0.0273-0.3945 0.0273s-1.155 0.6518-1.6875 0.9668c-0.17 0.34-0.27977 0.69016-0.35352 1.0664h0.69336c0.4975-0.4125 1.2593-0.79242 1.8418-1.1074 0 0 0.41945-0.55766 0.56445-0.91016-0.1806-0.0462-0.4448-0.0504-0.6641-0.0429zm-3.3066 0.4355c-0.52125-0.0125-0.92398 0.013437-1.3965 0.085937l0.77734 0.52148c0.19375-0.18125 0.44914-0.43742 0.61914-0.60742zm0.41211 0.98242c-0.255 0.23-1.076 1.0576-1.3223 1.3926 0.22875-0.07125 0.47656-0.17578 0.47656-0.17578l0.7051-0.6174s0.088125-0.42336 0.14062-0.59961zm3.543 0.12109c-0.54625 0.255-1.2361 0.60891-1.7461 0.97266-0.06125 0.4375-0.07 0.82805-0.0625 1.248 0.255 0.085 0.46102 0.28016 0.72852 0.31641l1.6621-1.0195c0.085-0.315 0.29195-0.66828 0.37695-1.0195-0.3088-0.2666-0.5903-0.3722-0.959-0.4984zm-5.5332 0.584c-0.3275 0.0725-0.60719 0.30391-0.89844 0.47266l0.498 0.1703 0.4004-0.643zm2.8516 0.61914c-0.32875-0.03125-0.79102 0.06836-0.79102 0.06836s-1.1775 1.1791-1.5625 1.7266l-0.023437 0.9707 0.54492-0.06055c0.50875-0.52125 1.0802-1.0909 1.7227-1.4922 0.03625-0.085 0.059375-0.91414 0.10938-1.2129zm-3.7207 1.3281c-0.0975 0.10875-0.60133 0.54086-0.67383 0.66211l0.31836 0.11914c0.03625-0.14625 0.30672-0.63625 0.35547-0.78125zm4.0039 0.39648c-0.26 0.12625-1.127 0.93359-1.127 0.93359s-0.052656 0.28289-0.035156 0.49414c0.37-0.3875 1.3079-1.2164 1.7441-1.4102l-0.582-0.016zm-3.3652 0.60352c-0.43625 0.595-0.57031 1.3239-0.78906 2.0039 0.17-0.55875 0.80664-1.4082 0.80664-1.4082s0.027422-0.4007-0.017578-0.5957zm1.1289 1.1582c-0.18391 0.000312-0.37055 0.01969-0.5293 0.05469-0.37625 0.61875-0.84852 1.3415-1.1035 2.0215-0.03625 0.40125 0.080469 0.88547 0.23047 1.2617 0.4325-1.1162 0.88961-2.1557 1.9121-3.2832-0.14562-0.03625-0.32586-0.055-0.50977-0.05469zm4.7401 0.293c-0.235 0.38125-0.43805 1.4225-0.49805 1.8125 0.7375-0.02 1.872-0.11328 2.252 0.01172-0.3973-0.388-1.2088-0.99-1.7538-1.824zm0.80469 2.6328c-0.5875 0.03625-1.1018 0.15367-1.3105 0.3418 0.01125 0.52375 0.027813 1.0753 0.22656 1.5391 1.1038-0.4575 2.2639-0.85961 3.5039-0.50586-0.14125-0.335-0.28922-0.80656-0.66797-1.2266-0.50375-0.13938-1.1645-0.18469-1.752-0.14844zm1.8887 2.0859c-0.86361-0.005-2.052 0.22297-2.7129 0.69922 0.14125 0.98625 0.88867 2.252 0.88867 2.252s2.0465-0.97344 3.8652-0.99219c-0.495-0.58625-0.90141-1.2457-1.3164-1.877-0.18438-0.05312-0.43674-0.08035-0.72461-0.08203zm2.7383 2.7246c-1.415 0.07375-2.842 0.45336-4.0195 1.2559 0.37 0.885 1.0962 1.6934 1.7187 2.4609 1.1825-0.97375 2.7373-1.3058 4.0898-1.8945-0.6375-0.53625-1.2041-1.196-1.7891-1.8223zm9.4609 0.88476c0.21625 0.5 0.63727 0.86672 1.166 1.0742 0.845 0.2375 1.7955 0.66406 2.4805 0.78906s1.411 0.21078 1.7598 0.20703c0.35-0.0038 1.0229-0.13062 1.6504-0.51562-0.415 0.04375-0.98695-0.10547-1.3457-0.32422-0.33625 0.3175-1.2446 0.37852-1.5059 0.0098-0.77375 0.19625-1.4505-0.07141-1.8418-0.34766-0.56125 0.02875-1.5683-0.22633-2.3633-0.89258zm-7.0156 1.7891c-1.5738 0.2325-2.7705 0.89695-3.998 2.0332 0.37 0.7 1.2108 1.3401 1.832 1.9238 1.7038-1.1338 3.6123-1.5941 5.6035-1.6504-0.8325-0.73375-2.5225-1.7691-3.4375-2.3066zm3.8281 3.1719c-1.5976 0.02046-3.5459 0.66523-5.1953 1.584 0 0 1.0368 1.2254 2.873 1.8379 2.01-1.1312 4.4205-1.2809 5.793-1.1309-0.65875-0.8475-1.9298-1.8835-2.8086-2.2598-0.21203-0.02359-0.43388-0.03417-0.66211-0.03125zm3.7285 3.3223c-1.4597-0.01591-3.667 0.4582-4.7793 0.99414 0 0 2.9202 1.2255 4.5215 2.168 0.8775-0.0675 2.4712-0.20312 3.1562-0.17188 0 0-0.62797-1.8856-2.3242-2.9531-0.17266-0.02359-0.36568-0.03484-0.57422-0.03711zm2.9395 4.207c-0.54656-0.0025-1.2591 0.08406-1.7578 0.10938 1.4662 0.62 2.7221 1.4038 3.2871 1.9688-0.06375-0.62875-0.49898-1.6073-1.0527-2.041-0.13125-0.02594-0.29438-0.03629-0.47656-0.03711z" transform="matrix(.8 0 0 -.8 417.52 211.76)" fill="#1e6b52"/><path d="m18.479 5.2656c-0.1167 0.012832-0.21422 0.042266-0.29297 0.087891-0.335 0.19375-1.3289 1.0416-0.87891 1.7266 0 0 0.27172-0.11609 0.73047-0.24609 0.785-0.22375 1.787-0.17438 2.9258-0.29688-0.339-0.2437-0.673-0.677-1.018-0.8633-0.606-0.329-1.116-0.4467-1.466-0.4082zm5.6152 8.7227c-0.94318-0.02139-2.0688 0.05719-2.4531 0.1875-0.18125 0.03672-0.24838 0.05978-0.28711 0.08203-0.29611 0.08369-0.71394 0.20036-0.77539 0.24805 0.11233 0.01821 0.27999 0.0337 0.41211 0.05078 0.05251 0.07165 0.23056 0.03819 0.28906 0.10742 0.0825 0.01625 0.98977 0.19383 1.3223 0.26758 1.5863 0.24375 3.2648 0.50398 4.6836 1.3027 0.645 0.375 1.5084 1.0354 1.8359 1.4941 0.32875 0.45875 0.62367 0.96976 0.48242 1.7285 1.0225 0.0525 1.7974-0.74117 2.0449-1.3887 0.4925 0.19 0.68984 0.3825 1.0273 0.59375 1.1112 0.6925 2.1 1.902 3.1875 2.5508 1.5112 0.90375 3.7855-0.18898 4.1855-0.67774-1.2812-0.1275-3.1523-0.84883-4.041-1.4238 0.2925-0.09625 0.49531-0.26836 0.57031-0.50586-0.59625-0.04875-2.3645-1.4923-2.6758-1.6836-1.6025-0.99125-4.2051-2.0723-4.2051-2.0723 0.05375-0.16125 0.03055-0.55617-0.06445-0.66992-0.31 0.305-1.3888 0.37437-2.125 0.23437-0.7375-0.1375-2.0264-0.29914-2.5664-0.36914-0.23969-0.03063-0.53326-0.04951-0.84766-0.05664zm21.889 2.8105c0.14375 0.70375 0.23242 2.0391-0.86133 3.3203 0.000577 0.000112 0.0014-0.00011 0.002 0 0.000623-0.000207 0.0013 0.000206 0.002 0 2.7156-0.21871 3.1094 2.0078 3.1094 2.0078-1.31-0.75125-2.5027-0.69523-4.0215-0.36523-1.2062 0.26125-1.72 0.26789-2.6562-0.56836 0.20375 0.6775 0.68875 1.1208 1.2188 1.3008-1.93-0.52375-3.3684 1.5743-5.7871 0.9668 1.4788 0.7025 2.9151 0.15438 4.0488-0.26563 1.5412-0.57 4.3334 0.6725 5.4297-0.375-0.80625 0.0038-2.1395-0.2825-2.877-0.5 0 0 0.35312-0.17625 2.0156-0.21875 1.6612-0.0425 3.0425 1.0944 3.5938 1.7969 0.03421-2.1129-1.4588-4.3189-3.6738-3.8828 0.70595-0.37799 1.5233-1.8176 0.45703-3.2168z" transform="matrix(.8 0 0 -.8 417.52 211.76)" fill="#f4c300"/><path d="m19.43 5.6133c0.7475 0.24 0.48633 0.83008 0.48633 0.83008 0.68375-0.57-0.48633-0.83008-0.48633-0.83008zm6.5352 3.834c-0.17766-0.027969-0.3932-0.00656-0.5332 0.00781-0.6025 0.06125-4.7608 0.94141-5.5195 1.0664-0.75875 0.125-3.095 0.65891-4.5625 0.75391 0.5625 0.25 0.93359 0.83195 0.96484 1.3145 0.30125-0.15125 0.9018-0.55336 1.3418-1.4746 0.7225 0.3225 1.1644 0.85039 1.2344 1.3691 0.44125-0.165 0.94984-0.72992 1.3711-1.7949 0.32875 0.24125 0.79094 0.94414 0.74219 1.2129 0.52-0.17375 1.1145-0.85531 1.3633-1.5078 0.54 0.47125 0.69961 0.88453 0.72461 1.6758 0.43375-0.315 1.1385-1.1086 1.4785-1.9336 0.46875 0.5475 0.6275 1.3703 0.5625 2.0391 0.52375-0.35125 1.0703-1.7602 1.1328-2.4414 0.016-0.1814-0.124-0.2593-0.301-0.2872zm2.5859 0.3125c-0.11527-0.00982-0.22648-0.00445-0.32617 0.021484-0.39875 0.1025-0.61453 0.40172-0.70703 0.60547-0.255 0.96625-0.20805 2.1185 0.4082 2.8535 0.26-0.66 1.1412-2.4032 1.7637-2.752 0.0475 0.42375 0.37711 1.0534 0.59961 1.3047 0.23875-0.13625 0.45828-0.35359 0.58203-0.52734 0.105 0.2525 0.24062 0.58406 0.39062 0.78906 0.19-0.07625 0.46539-0.36438 0.58789-0.54688 0.215 0.215 0.3732 0.64133 0.4707 0.92383 0.1825-0.19875 0.49461-0.46242 0.75586-0.57617-0.1525 0.55625 0.13453 1.5354 0.48828 1.9941 0.2825-0.6125 0.41461-1.7586 0.06836-2.0898-0.7475-0.2025-1.8145-0.54524-2.252-0.70898-0.43875-0.1625-1.3005-0.60555-1.8867-0.9668-0.215-0.1313-0.597-0.2948-0.943-0.3242zm-12.102 5.1192c-0.2175 0.38875-1.0312 0.87688-1.4375 0.95312 0.5375 0.11125 1.1154 0.23094 1.6504 0.39844 0.33125-0.375 0.06961-1.0053-0.21289-1.3516zm2.084 0.4043c-0.19 0.44875-0.87391 0.95109-1.4414 1.0586 0 0 1.2732 0.40156 2.0957 0.82031 1.7425 0.85 3.7791 2.7213 4.3828 3.4551 0.60375 0.73375 0.6343 1.015 1.2168 1.1562 0.20375 0.04125 0.4293 0.06086 0.5918-0.05664 0.58875-0.65375 0.86398-1.6759 0.61524-2.5684-0.58625 0.7325-1.4957 1.4998-2.127 1.3535 0 0-0.20789-0.06258-0.21289-0.17383 0.33625-0.495 0.39875-1.2005 0.25-1.7617-0.3 0.2775-1.1487 0.57461-1.7012 0.38086 0.135-0.235 0.30656-1.2691 0.03906-1.6504-0.2475 0.2275-1.1052 0.63-1.7227 0.34375 0.23375-0.435 0.20719-1.4068-0.10156-1.7793 0 0-0.41508 0.75195-0.76758 0.9082-0.31 0.13875-0.59492 0.22774-0.98242 0.05273 0.06-0.3025 0.14898-1.1203-0.13477-1.5391zm8.8945 6.1562c-0.2275 0.14125-1.1848 0.75141-1.3535 1.1289 0.18875 0.16875 1.0578 0.37867 1.4453 0.10742 0.28 0.215 0.87219 0.29133 1.3984-0.07617 0.27125 0.16375 0.66758 0.39625 0.98633 0.40625 0.47875 0.015 1.022-0.41938 1.3457-0.79688-0.1575-0.17625-0.57078-0.46953-0.98828-0.51953-0.1525 0.2325-0.74242 0.57555-1.0762 0.49805-0.01375-0.19625-0.12609-0.40125-0.24609-0.5625-0.295 0.30375-0.86648 0.72844-1.1777 0.67969-0.12375-0.05875-0.31648-0.49524-0.33398-0.86524z" transform="matrix(.8 0 0 -.8 417.52 211.76)" fill="#fff"/><path d="m18.912 5.498c-0.35125 0.3275-0.6743 0.90508-0.87305 1.4551 0.28625-0.0075 0.98633-0.11719 0.98633-0.11719-0.1675-0.43125-0.20828-0.89039-0.11328-1.3379zm9.8184 1.2051c-0.42875 0.1025-0.72414 0.56898-1.0566 0.86523 0.3 0.0725 0.71055 0.18969 1.0293 0.33594 0.32 0.14625 0.51 0.35766 0.78125 0.50391 0.09-0.11125-0.21531-0.38531-0.16406-0.53906 0.1275 0.01625 0.21703 0.1375 0.26953 0.21875 0.2775 0.26 0.48648 0.5507 0.80273 0.68945 0.15125-0.1675-0.0657-0.4857-0.1582-0.5957-0.145-0.17125-0.88016-1.1435-1.5039-1.4785z" transform="matrix(.8 0 0 -.8 417.52 211.76)"/></g></g></svg>
