<?xml version="1.0" encoding="UTF-8" standalone="no"?>
<!-- Created with Inkscape (http://www.inkscape.org/) -->

<svg
   xmlns:dc="http://purl.org/dc/elements/1.1/"
   xmlns:cc="http://creativecommons.org/ns#"
   xmlns:rdf="http://www.w3.org/1999/02/22-rdf-syntax-ns#"
   xmlns:svg="http://www.w3.org/2000/svg"
   xmlns="http://www.w3.org/2000/svg"
   xmlns:sodipodi="http://sodipodi.sourceforge.net/DTD/sodipodi-0.dtd"
   xmlns:inkscape="http://www.inkscape.org/namespaces/inkscape"
   id="svg2"
   version="1.1"
   inkscape:version="0.47 r22583"
   width="764.25"
   height="300"
   xml:space="preserve"
   sodipodi:docname="84746.pdf"><metadata
     id="metadata8"><rdf:RDF><cc:Work
         rdf:about=""><dc:format>image/svg+xml</dc:format><dc:type
           rdf:resource="http://purl.org/dc/dcmitype/StillImage" /><dc:title></dc:title></cc:Work></rdf:RDF></metadata><defs
     id="defs6"><inkscape:perspective
       sodipodi:type="inkscape:persp3d"
       inkscape:vp_x="0 : 0.5 : 1"
       inkscape:vp_y="0 : 1000 : 0"
       inkscape:vp_z="1 : 0.5 : 1"
       inkscape:persp3d-origin="0.5 : 0.33333333 : 1"
       id="perspective10" /></defs><sodipodi:namedview
     pagecolor="#ffffff"
     bordercolor="#666666"
     borderopacity="1"
     objecttolerance="10"
     gridtolerance="10"
     guidetolerance="10"
     inkscape:pageopacity="0"
     inkscape:pageshadow="2"
     inkscape:window-width="824"
     inkscape:window-height="709"
     id="namedview4"
     showgrid="false"
     inkscape:zoom="1.1549594"
     inkscape:cx="395.65883"
     inkscape:cy="197.80201"
     inkscape:window-x="0"
     inkscape:window-y="0"
     inkscape:window-maximized="0"
     inkscape:current-layer="g12" /><g
     id="g12"
     inkscape:groupmode="layer"
     inkscape:label="84746"
     transform="matrix(1.25,0,0,-1.25,0,299.99999)"><path
       id="path16"
       style="fill:#A7A9AC;fill-opacity:1;fill-rule:nonzero;stroke:none"
       d="M 604.45742,215.96906 C 478.37501,253.23689 298.39641,240.15625 212.04561,223.41739 150.41634,214.11755 92.783294,202.21799 65.395445,193.71653 l -10.710511,-3.32414 c 0,0 45.546686,-18.43353 58.947916,-23.78998 L 62.841356,59.865147 0,0 c 100.21361,3.1683723 159.07628,37.268287 175.58314,48.522656 36.68385,25.012163 125.06082,72.284544 266.12041,83.703154 18.48155,1.49591 35.15265,1.19769 49.86921,0.83752 19.43961,-0.47639 34.79488,-0.85361 44.88206,3.88119 13.29749,6.10129 17.1081,15.14782 22.31136,27.63373 7.50355,18.00853 13.47278,35.48616 40.73049,45.14882 l 12.19777,4.323 -7.23702,1.91899"
       sodipodi:nodetypes="ccccccccccccccc" /><path
       id="path46"
       style="fill:#000000;fill-opacity:1;fill-rule:evenodd;stroke:none"
       d="m 575.60535,218.85235 c -6.75439,0.61541 -13.7369,1.25027 -20.11192,2.38889 -62.57363,11.30791 -136.32455,15.46116 -213.27619,12.00761 -90.16029,-4.0452 -226.66252,-28.15141 -275.636353,-43.35445 0,0 44.523323,-18.01982 52.502303,-21.15258 L 66.126111,57.453685 9.0952427,4.4721176 C 103.04911,11.004891 155.91447,42.136112 173.58251,53.525665 c 17.66709,11.388593 99.2971,68.031895 267.77528,82.687235 42.96114,3.73593 77.05488,-3.31645 93.39702,4.35398 28.34542,13.00552 13.43436,55.21871 63.40442,72.93261 0,0 -13.62405,4.54055 -22.55388,5.35286" /><path
       id="path48"
       style="fill:#A7A9AC;fill-opacity:1;fill-rule:nonzero;stroke:none"
       d="m 258.30711,211.68087 c 1.21258,0.26269 2.37473,0.50544 3.5897,0.76717 0.24011,-3.0324 0.4202,-5.87991 0.51625,-9.0362 2.63884,3.77242 4.8575,7.13978 7.20821,10.65696 0.81638,0.17072 1.59916,0.3292 2.41314,0.498 0.39619,-2.92531 0.72995,-5.69502 1.02048,-8.76487 2.37713,3.66173 4.40369,6.92008 6.56231,10.30592 1.03489,0.2065 2.02416,0.40051 3.05185,0.61061 -3.30877,-5.03375 -6.44946,-10.00506 -10.32729,-15.57162 -0.81639,-0.18584 -1.60156,-0.36305 -2.41315,-0.54865 -0.14647,3.21416 -0.37938,6.14354 -0.70113,9.27991 -2.5308,-3.75274 -4.95835,-7.30738 -7.88773,-11.24597 -0.8476,-0.19305 -1.65919,-0.38178 -2.51159,-0.57963 0.06,4.7264 -0.17048,9.07005 -0.52105,13.62837" /><path
       id="path50"
       style="fill:#A7A9AC;fill-opacity:1;fill-rule:nonzero;stroke:none"
       d="m 288.35494,217.51492 c 5.0616,0.7249 9.65977,1.38161 14.69256,2.0813 -0.27373,-0.7626 -0.53066,-1.49327 -0.80438,-2.25491 -3.90185,-0.56186 -7.46514,-1.07955 -11.391,-1.66206 -0.38178,-1.05242 -0.75396,-2.05586 -1.14054,-3.10635 2.30269,0.35536 4.39168,0.67159 6.68957,1.0224 -0.29294,-0.81327 -0.57868,-1.58427 -0.87161,-2.39658 -2.27628,-0.3544 -4.44691,-0.69969 -6.72079,-1.05505 -0.46101,-1.22603 -0.88602,-2.35432 -1.37105,-3.59907 4.04352,0.66127 7.71246,1.25123 11.73436,1.8993 -0.34576,-0.92012 -0.67712,-1.79509 -1.02048,-2.70968 -5.21527,-0.85337 -9.99353,-1.64502 -15.26163,-2.5332 2.09139,5.10241 3.73857,9.66722 5.46499,14.3139" /><path
       id="path52"
       style="fill:#A7A9AC;fill-opacity:1;fill-rule:nonzero;stroke:none"
       d="m 312.01574,218.44536 c -0.38898,-0.97727 -0.76356,-1.91251 -1.15735,-2.88881 3.04705,0.33952 5.82276,0.64999 8.865,0.98014 2.7469,0.27469 3.30637,-0.14911 2.29309,-2.80933 -0.25452,-0.64326 -0.49464,-1.25483 -0.74916,-1.89738 -1.09972,-2.67414 -2.14181,-3.3832 -4.92473,-3.74793 -3.04944,-0.37242 -5.83716,-0.7177 -8.90101,-1.09372 -2.79493,-0.31983 -3.29676,0.1772 -2.18504,2.94788 0.0528,0.13038 0.24012,0.47086 0.29534,0.60124 0,0 1.93772,0.31239 2.97021,0.46894 0,0 -0.37218,-0.84135 -0.60269,-1.4049 3.48645,0.41924 6.66556,0.79429 10.14,1.20897 0.42741,1.07307 0.8332,2.09451 1.263,3.16926 -3.05184,-0.35177 -5.83716,-0.66391 -8.89861,-1.01856 -2.76611,-0.2963 -3.26075,0.20458 -2.22345,2.85423 0.19929,0.50352 0.39618,0.98663 0.60268,1.49399 1.07571,2.58314 2.02896,3.17502 4.75905,3.47708 2.70609,0.27566 5.29451,0.5393 8.00059,0.81783 2.58603,0.23916 3.3736,-0.2185 2.39154,-2.45276 -0.0384,-0.0936 -0.36258,-0.73523 -0.36258,-0.73523 l -2.81413,-0.21946 c 0,0 0.30495,0.71938 0.50184,1.22962 -3.17671,-0.33016 -6.07968,-0.6435 -9.26359,-0.9811" /><path
       id="path54"
       style="fill:#A7A9AC;fill-opacity:1;fill-rule:nonzero;stroke:none"
       d="m 333.32103,209.79286 c -1.11653,-0.10133 -2.18023,-0.19809 -3.28956,-0.29846 1.72402,3.95083 3.19592,7.45025 4.72544,11.07068 -2.16582,-0.1688 -4.24041,-0.32728 -6.40863,-0.498 0.33135,0.76717 0.6483,1.50167 0.97726,2.27172 5.50821,0.41251 10.52658,0.78877 16.03479,1.20153 -0.31215,-0.7542 -0.61229,-1.47358 -0.92684,-2.22682 -2.20904,-0.17072 -4.2212,-0.32631 -6.43264,-0.49607 -1.51512,-3.60651 -2.97261,-7.09272 -4.67982,-11.02458" /><path
       id="path56"
       style="fill:#A7A9AC;fill-opacity:1;fill-rule:nonzero;stroke:none"
       d="m 349.728,223.80661 c 4.84069,0.25885 9.25638,0.49704 14.09948,0.76068 -0.30735,-0.71481 -0.60029,-1.39193 -0.91244,-2.10387 -3.75057,-0.20722 -7.17459,-0.40147 -10.92517,-0.60485 -0.4226,-0.96525 -0.83319,-1.88537 -1.2654,-2.84871 2.16343,0.12486 4.2284,0.243 6.39183,0.36786 -0.32896,-0.75516 -0.64591,-1.46902 -0.97967,-2.22201 -2.16822,-0.12847 -4.2404,-0.25236 -6.40623,-0.38082 -0.50424,-1.12566 -0.98927,-2.19945 -1.49591,-3.32414 3.77219,0.23171 7.3811,0.46534 11.15328,0.69585 -0.38418,-0.85624 -0.75155,-1.68248 -1.14294,-2.53896 -4.95114,-0.32079 -9.47488,-0.61325 -14.42843,-0.93789 2.18023,4.73745 4.0219,8.90774 5.9116,13.13686" /><path
       id="path58"
       style="fill:#A7A9AC;fill-opacity:1;fill-rule:nonzero;stroke:none"
       d="m 370.29374,224.84126 c 4.0219,0.13111 7.69324,0.25404 11.71755,0.39763 2.16582,0.0449 2.78531,-0.47734 2.00014,-2.27555 -0.45141,-1.00176 -0.89562,-1.95453 -1.35904,-2.95532 -0.88122,-1.82247 -2.09139,-2.50247 -4.25962,-2.61316 -0.61469,-0.0216 -1.20297,-0.0413 -1.81526,-0.0674 1.38546,-1.60877 2.63645,-3.10179 3.99069,-4.75257 -1.56074,-0.0629 -3.04944,-0.12006 -4.60538,-0.18585 -1.07571,1.66855 -2.06257,3.17214 -3.1743,4.79771 -1.02769,-0.0358 -2.01215,-0.0732 -3.03984,-0.11261 -0.80438,-1.69497 -1.55354,-3.279 -2.40594,-5.03399 -1.0661,-0.0442 -2.08899,-0.0845 -3.1599,-0.12846 2.25227,4.65124 4.17078,8.74638 6.1109,12.92964 z m 2.14421,-2.01671 c -0.55226,-1.19673 -1.08291,-2.34111 -1.64718,-3.53519 2.47077,0.0854 4.71824,0.16423 7.19141,0.25812 1.01568,0.0374 1.50071,0.2101 1.9113,1.06538 0.23772,0.5112 0.46342,1.00176 0.69873,1.5168 0.37698,0.85144 0.0336,0.9715 -0.98206,0.94149 -2.42995,-0.0852 -4.74945,-0.16592 -7.1722,-0.2466" /><path
       id="path60"
       style="fill:#A7A9AC;fill-opacity:1;fill-rule:nonzero;stroke:none"
       d="m 391.93759,225.51262 c 0.73234,0.008 1.42867,0.0235 2.16102,0.031 2.10099,-2.41411 6.62234,-8.09712 6.84804,-8.63569 0.47303,1.11725 3.11428,6.60048 4.15637,8.79992 0.96526,0.0158 1.8897,0.029 2.85735,0.0442 -1.97853,-4.18999 -3.96908,-8.21934 -6.29578,-12.76637 -0.73475,-0.0132 -1.43828,-0.0216 -2.17303,-0.0386 -2.01215,2.75291 -6.45185,8.49138 -6.63914,8.88901 -0.38658,-1.00631 -3.14309,-6.60601 -4.41329,-9.08206 -0.96286,-0.0151 -1.8945,-0.031 -2.85975,-0.0497 2.35071,4.58737 4.34845,8.63377 6.35821,12.80838" /><path
       id="path62"
       style="fill:#A7A9AC;fill-opacity:1;fill-rule:nonzero;stroke:none"
       d="m 426.99899,225.67686 c 0.85961,-0.0168 1.67359,-0.0384 2.5284,-0.0552 0.90282,-2.60955 1.66638,-5.04911 2.42274,-7.78136 3.53928,2.62444 6.71118,4.97492 10.1352,7.50547 0.85,-0.0178 1.66399,-0.0355 2.51159,-0.0535 -2.13461,-4.26658 -4.25962,-8.29593 -6.72078,-12.79806 -0.97967,0.0233 -1.91131,0.0458 -2.88857,0.0646 1.52232,2.78772 4.639,8.6657 5.0664,9.34762 -0.59548,-0.57411 -6.98731,-5.43353 -9.9287,-7.64041 -0.2113,0.007 -0.4154,0.011 -0.6267,0.0139 -0.51384,2.29525 -1.03009,4.36047 -1.63277,6.59473 -0.11285,0.40891 -0.17528,0.81038 -0.14167,1.3187 -0.2113,-0.53089 -3.32797,-6.55895 -4.84069,-9.35507 -0.85,0.0226 -1.66639,0.0413 -2.51879,0.059 2.44676,4.52566 4.54055,8.55309 6.63434,12.77957" /><path
       id="path64"
       style="fill:#A7A9AC;fill-opacity:1;fill-rule:nonzero;stroke:none"
       d="m 451.48818,225.04368 c 1.06131,-0.0384 2.06738,-0.0703 3.12869,-0.10877 -2.26668,-4.28915 -4.49733,-8.31586 -7.07856,-12.81223 -1.04689,0.0422 -2.05057,0.0768 -3.09746,0.1143 2.57402,4.49853 4.80227,8.52307 7.04733,12.8067" /><path
       id="path66"
       style="fill:#A7A9AC;fill-opacity:1;fill-rule:nonzero;stroke:none"
       d="m 463.36661,222.29174 c -1.55114,-2.75267 -3.03024,-5.30027 -4.70383,-8.12617 2.86456,-0.13807 5.47219,-0.26749 8.33195,-0.40987 0.56186,0.9434 1.22698,2.13845 1.22698,2.13845 l 3.15509,-0.13327 c -0.30734,-0.5148 -0.60268,-1.01015 -0.91723,-1.5288 -1.52953,-2.4931 -2.58123,-3.00886 -5.14564,-2.91138 -2.67727,0.12942 -5.22968,0.25596 -7.90454,0.38731 -2.55961,0.15679 -2.91498,0.7177 -1.45989,3.23793 1.34463,2.28852 2.60763,4.47212 3.89464,6.75776 1.40467,2.43763 2.38433,2.91882 4.98236,2.82326 2.7493,-0.12198 5.25609,-0.24396 8.01259,-0.37146 2.60044,-0.14431 3.01583,-0.67448 1.61837,-3.15053 -0.23771,-0.41276 -0.66271,-1.11797 -0.90043,-1.52592 l -3.12628,0.0833 c 0.47543,0.81711 0.87162,1.50912 1.33744,2.32887 -2.84295,0.13326 -5.56104,0.26364 -8.40158,0.40051" /><path
       id="path68"
       style="fill:#A7A9AC;fill-opacity:1;fill-rule:nonzero;stroke:none"
       d="m 482.96949,223.63974 c 1.0469,-0.0667 2.05057,-0.12943 3.10227,-0.19618 -1.01088,-1.66951 -1.99294,-3.27059 -3.03504,-4.93722 3.25354,-0.21586 6.36782,-0.41827 9.62376,-0.62837 1.0637,1.67215 2.07698,3.27611 3.11427,4.95138 1.05891,-0.0667 2.07459,-0.13134 3.13349,-0.19809 -2.7349,-4.37439 -5.34733,-8.41046 -8.29113,-12.86745 -1.04209,0.0665 -2.03136,0.13206 -3.07345,0.20241 1.25579,1.91731 2.39633,3.6627 3.61851,5.56872 -3.24634,0.2101 -6.34861,0.41636 -9.59254,0.63126 -1.19097,-1.8873 -2.34111,-3.68911 -3.55368,-5.56872 -1.03009,0.0667 -2.01456,0.1323 -3.04945,0.20266 2.78772,4.34173 5.39055,8.49306 8.00299,12.8396" /><path
       id="path70"
       style="fill:#A7A9AC;fill-opacity:1;fill-rule:nonzero;stroke:none"
       d="m 506.04202,222.03386 c 1.03969,-0.0872 2.03376,-0.17073 3.07105,-0.25693 -2.9534,-4.38399 -5.74352,-8.40782 -8.8626,-12.85352 -1.01568,0.0871 -1.99054,0.17144 -3.00862,0.26244 3.09987,4.44403 5.87318,8.47529 8.80017,12.84801" /><path
       id="path72"
       style="fill:#A7A9AC;fill-opacity:1;fill-rule:nonzero;stroke:none"
       d="m 517.27694,218.68355 c -1.99295,-2.77451 -3.91866,-5.42321 -5.93802,-8.19388 3.12148,-0.334 6.10129,-0.64999 9.22517,-0.98303 0.72274,0.97823 1.41667,1.91059 2.14662,2.88905 -1.66399,0.17432 -3.17911,0.33088 -4.84309,0.51288 0.54745,0.74772 1.0709,1.45773 1.61596,2.20617 2.62684,-0.27685 5.13843,-0.54122 7.76288,-0.81807 -1.12854,-1.51368 -2.20665,-2.95628 -3.33758,-4.46635 -1.9017,-2.49959 -2.98222,-2.97141 -5.43138,-2.73514 -2.9558,0.31431 -5.77233,0.61829 -8.72813,0.9314 -2.44676,0.29174 -2.71088,0.87882 -0.91003,3.40674 1.67359,2.30173 3.25834,4.50765 4.90792,6.81418 1.80326,2.47894 2.86936,2.9414 5.37855,2.70872 3.07106,-0.31526 5.86598,-0.60316 8.93223,-0.92299 2.42515,-0.27853 2.79492,-0.84688 1.03489,-3.25738 l -0.71794,-0.89203 -2.80693,0.37146 c 0.36017,0.48863 0.70834,0.95757 1.07331,1.45101 -3.21032,0.3376 -6.14451,0.6387 -9.36443,0.97726" /><path
       id="path74"
       style="fill:#A7A9AC;fill-opacity:1;fill-rule:nonzero;stroke:none"
       d="m 541.59085,218.24462 c 0.96285,-0.13686 1.88249,-0.26725 2.84775,-0.39859 -0.86441,-4.76097 -1.71682,-9.11399 -2.67727,-13.89202 -1.09252,0.15488 -2.13701,0.30495 -3.23193,0.46342 0.2233,1.02601 0.43701,2.00807 0.66031,3.03696 -2.66046,0.38274 -5.20806,0.74579 -7.87333,1.12662 -1.20777,-0.88458 -2.35071,-1.73531 -3.55128,-2.61868 -0.97726,0.14046 -1.9065,0.27372 -2.88376,0.41347 5.7003,4.08674 10.91076,7.80274 16.70951,11.86882 z m -1.84167,-8.29521 c 0.4394,1.90026 0.8548,3.71696 1.2798,5.61914 -2.3195,-1.66278 -4.4349,-3.1767 -6.73999,-4.84069 1.87529,-0.26821 3.5921,-0.51576 5.46019,-0.77845" /><path
       id="path76"
       style="fill:#A7A9AC;fill-opacity:1;fill-rule:nonzero;stroke:none"
       d="m 555.66631,216.06295 c 0.66032,-0.1239 1.29182,-0.24108 1.95453,-0.3657 0.92204,-3.13564 2.38193,-10.48624 2.39393,-11.10069 0.79958,1.10956 5.66428,6.97914 7.51316,9.24342 0.86441,-0.15944 1.6928,-0.31599 2.55721,-0.48119 -3.5897,-4.3792 -6.79282,-8.3682 -10.25526,-12.75028 -0.6435,0.12462 -1.25579,0.24011 -1.9041,0.36377 -0.88362,3.28668 -2.38913,10.90549 -2.41314,11.37827 -0.70593,-1.03537 -5.47219,-7.18828 -7.28265,-9.52387 -0.85,0.16496 -1.66639,0.31695 -2.51639,0.48119 3.3832,4.38664 6.48787,8.38141 9.95271,12.75508" /><path
       id="path78"
       style="fill:#BC9B6A;fill-opacity:1;fill-rule:nonzero;stroke:none"
       d="m 244.15241,216.0094 -2.98461,-0.39859 C 159.98415,204.93416 93.769201,187.46229 93.769201,187.46229 c 0,0 30.498999,-9.27344 39.148859,-12.63239 L 74.560105,50.163113 35.768537,16.983362 c 0,0 62.3011,9.362633 105.561903,29.434457 46.81281,21.719245 72.75349,86.010411 75.13494,100.526961 l 0.6022,3.66942 -9.59254,-2.1836 c 36.89347,33.72853 36.67737,67.5788 36.67737,67.5788 z m -80.7644,-44.44264 c 4.90456,1.65366 17.96914,5.18405 25.42852,7.17075 -8.9075,-14.95548 -28.91113,-29.94025 -39.79213,-37.38834 l 14.36361,30.21759 z m -31.94929,-69.2632 c 5.7159,1.93484 19.97169,6.51213 27.79508,9.01531 C 148.74947,90.350222 129.30771,80.679162 119.98553,77.094265 l 11.45319,25.209295" /><path
       id="path80"
       style="fill:#BC9B6A;fill-opacity:1;fill-rule:nonzero;stroke:none"
       d="m 362.75417,201.63356 -7.25384,-0.31311 c -15.80668,-0.68289 -27.69951,-2.20064 -38.13966,-7.64522 -11.34537,-5.91664 -20.26559,-16.35127 -28.07169,-32.83939 -6.46146,-13.65095 -6.83363,-27.63925 -0.94605,-35.6372 3.23674,-4.39528 8.0246,-6.39014 13.48479,-5.61722 22.58029,3.19544 34.8477,26.31478 44.74278,50.82247 l 0.15608,0.38922 0.0216,0.41924 c 0.0192,0.39307 -0.65551,8.08967 -2.7517,15.37568 l 18.75768,15.04553 z m -41.99349,-29.77867 c -3.32557,-11.56387 -12.19777,-22.20019 -17.64355,-26.62932 0.27613,3.36255 1.72642,8.73701 4.04351,13.41371 3.19592,6.45569 9.16995,13.82046 12.97095,17.30211 0.31454,-1.33839 0.53305,-2.88977 0.62909,-4.0865" /><path
       id="path82"
       style="fill:#BC9B6A;fill-opacity:1;fill-rule:nonzero;stroke:none"
       d="m 434.17839,203.26177 c 0,0 -25.53129,0.41659 -37.48415,-2.97045 l -9.66218,-20.08503 -0.32415,13.0946 8.48082,9.09431 c 0,0 -19.98947,-1.30286 -29.50998,-3.88961 l -32.59303,-69.19116 c 12.99735,3.08378 41.16269,8.62801 41.16269,8.62801 l -7.53717,9.20043 6.1133,13.21658 5.86597,-21.49113 c 7.6044,1.27836 28.33342,4.0584 28.33342,4.0584 l -7.01132,12.79446 16.30612,35.29575 c 5.30651,4.95066 17.85966,12.24484 17.85966,12.24484" /><path
       id="path84"
       style="fill:#FFFFFF;fill-opacity:1;fill-rule:nonzero;stroke:none"
       d="M 213.99653,147.35009 C 211.96421,134.95614 187.20344,70.290403 140.28451,48.689535 97.600695,29.03887 44.070228,20.793294 44.070228,20.793294 L 76.596269,48.613659 136.28901,176.1318 c -6.31331,2.94716 -32.99786,11.05195 -32.99786,11.05195 25.09644,6.04775 69.02596,16.70471 138.208,25.94717 0,0 -4.38688,-36.54699 -43.44857,-69.40967 l 15.94595,3.62884 z m -20.40486,35.23669 c 0,0 -26.35248,-6.89199 -32.01484,-9.00427 l -18.63691,-39.20888 c 0,0 40.73865,24.75524 50.65175,48.21315 z m -29.7789,-67.17925 c 0,0 -27.42819,-8.74182 -34.20396,-11.08653 L 115.33525,72.905481 c 0,0 35.0895,8.668345 48.47752,42.502049" /><path
       id="path86"
       style="fill:#BC9B6A;fill-opacity:1;fill-rule:nonzero;stroke:none"
       d="m 290.36709,177.45339 c 2.02896,3.05688 10.12079,12.0489 13.17744,15.37664 l 4.74705,5.16436 -6.73759,-0.96237 c -34.74205,-4.95883 -60.55668,-15.63453 -60.8136,-15.74234 l -0.86297,-0.36017 -0.3969,-0.8901 -38.15455,-85.55371 -0.21946,-0.113574 c 0.003,9.61e-4 -0.34793,-0.816867 -0.34793,-0.816867 l -3.68622,-8.608556 -2.85424,-6.665796 6.09121,3.440349 c 19.92463,11.253408 41.83573,20.162824 42.05663,20.251184 l 3.1623,1.28125 -2.24266,2.69168 -6.17525,7.40606 5.73104,13.38442 6.43504,2.59539 4.51654,-20.38445 0.61229,-2.76875 2.50679,1.01304 c 9.36924,3.79019 25.92508,9.67202 26.09316,9.73012 l 3.55128,1.2606 -2.61964,2.84031 c -4.13236,4.48052 -7.25384,7.19308 -8.53124,8.25102 l -3.35679,13.74939 c 12.52193,9.14569 17.47787,30.8743 18.31827,34.43087 z m -35.37595,-9.72917 8.75455,3.62788 c -1.2654,-2.56346 -2.80693,-5.40352 -4.17318,-7.14435 l -0.0792,-0.10036 -0.0672,-0.1107 c -2.48037,-3.94122 -5.53942,-6.4276 -10.68506,-9.55292 l 6.25016,13.28045" /><path
       id="path88"
       style="fill:#FFFFFF;fill-opacity:1;fill-rule:nonzero;stroke:none"
       d="M 199.20817,83.916855 241.6,178.97475 c 0,0 25.40403,10.61566 60.26614,15.59154 0,0 -11.65512,-12.38098 -13.76572,-15.88328 0,0 -5.0616,-25.76996 -18.83212,-34.5867 l 4.12515,-16.32389 c 0,0 3.60171,-2.781 8.8674,-8.49114 0,0 -16.65908,-5.91208 -26.1844,-9.76494 l -5.12882,23.14936 -9.83986,-3.96764 -6.7616,-15.78652 7.1818,-8.61503 c 0,0 -22.02659,-8.916867 -42.3198,-20.379655 z m 62.16759,78.699185 c 3.20552,4.08385 7.11457,13.37313 7.11457,13.37313 l -15.17758,-6.28882 -9.94791,-20.87956 c 6.90567,3.19927 13.60004,6.78609 18.01092,13.79525" /><path
       id="path90"
       style="fill:#663300;fill-opacity:1;fill-rule:nonzero;stroke:none"
       d="m 241.10777,128.69806 9.83986,3.96764 -1.13814,5.09017 -13.67352,-5.69718 -8.40782,-19.40599 4.49277,-5.91568 c 0,0 -13.83559,-6.21942 -29.32677,-14.210648 l -3.68598,-8.609517 c 20.29321,11.462788 42.3198,20.379655 42.3198,20.379655 l -7.1818,8.61503 6.7616,15.78652" /><path
       id="path92"
       style="fill:#FFFFFF;fill-opacity:1;fill-rule:nonzero;stroke:none"
       d="m 355.60838,198.82158 c -29.45955,-1.27284 -48.09957,-5.34517 -64.05993,-39.05593 -9.87347,-20.85603 -3.77459,-39.64781 9.9311,-37.70817 19.03382,2.69383 31.11634,20.41158 42.77146,49.28333 0,0 -0.61469,8.54085 -3.25595,15.7481 l 14.61332,11.73267 z m -32.3217,-27.24354 c -4.13716,-15.02583 -16.39016,-28.00974 -21.97761,-30.67812 -2.01935,3.13924 0.58108,12.73443 3.60891,18.84892 4.05792,8.19196 12.63238,18.16508 16.31333,20.16283 1.71201,-2.3728 2.05537,-8.33363 2.05537,-8.33363" /><path
       id="path94"
       style="fill:#663300;fill-opacity:1;fill-rule:nonzero;stroke:none"
       d="m 355.60838,198.82158 c -2.55,-0.11069 -16.43098,-7.66106 -20.61616,-10.39884 2.64125,-7.20725 3.64013,-15.94139 3.64013,-15.94139 -3.96908,-11.90532 -10.5578,-24.98311 -19.34837,-33.88052 -11.07884,-11.21499 -26.31165,-16.4598 -31.39726,-6.94433 4.09634,-12.88186 15.78747,-11.4431 26.76307,-4.93001 10.9924,6.52533 22.34258,22.67777 29.60122,44.61432 0,0 -0.61469,8.54085 -3.25595,15.7481 l 14.61332,11.73267" /><path
       id="path96"
       style="fill:#FFFFFF;fill-opacity:1;fill-rule:nonzero;stroke:none"
       d="m 337.43418,132.93775 29.96139,63.55497 c 0,0 7.15538,1.52881 21.73989,2.9582 l -4.86951,-5.22055 0.93885,-23.37363 13.19665,27.43299 c 0,0 12.01529,2.17135 27.01999,2.35336 -5.64747,-2.71905 -11.08365,-8.17612 -11.08365,-8.17612 l -17.00005,-36.80006 5.85398,-10.68242 c 0,0 -14.09948,-1.35712 -22.81801,-3.26963 l -6.98731,25.59564 -9.47729,-20.49418 5.87078,-7.16403 c 0,0 -17.76601,-2.95076 -32.34571,-6.71454" /><path
       id="path98"
       style="fill:#663300;fill-opacity:1;fill-rule:nonzero;stroke:none"
       d="m 373.3864,167.3105 -2.24746,7.9396 -12.94693,-27.26587 3.45523,-4.94874 c 0,0 -9.63576,-1.71922 -21.67746,-4.58185 l -2.5356,-5.51589 c 14.5797,3.76378 32.34571,6.71454 32.34571,6.71454 l -5.87078,7.16403 9.47729,20.49418" /><path
       id="path100"
       style="fill:#663300;fill-opacity:1;fill-rule:nonzero;stroke:none"
       d="m 379.04588,194.92454 6.15892,-24.0678 -0.93885,23.37363 4.86951,5.22055 c -3.93546,-1.50071 -10.08958,-4.52638 -10.08958,-4.52638" /><path
       id="path102"
       style="fill:#663300;fill-opacity:1;fill-rule:nonzero;stroke:none"
       d="m 409.43467,194.73965 -18.32548,-38.96397 3.97389,-6.55438 c 0,0 -7.83732,-1.3516 -16.06361,-2.7445 l 1.35424,-4.76194 c 8.71853,1.91251 22.81801,3.26963 22.81801,3.26963 l -5.85398,10.68338 17.00005,36.7991 c 0,0 5.43618,5.45707 11.08365,8.17612 -3.18151,0.1323 -15.98677,-5.90344 -15.98677,-5.90344" /><path
       id="path104"
       style="fill:#BC9B6A;fill-opacity:1;fill-rule:nonzero;stroke:none"
       d="m 561.25856,193.50811 -4.62939,1.20825 c -17.46347,4.55736 -33.95928,8.86164 -43.48939,-6.51981 -2.17063,-3.50326 -2.85496,-6.53637 -2.09139,-9.27343 1.18376,-4.23104 5.57784,-6.40239 9.10991,-8.14778 3.46964,-1.71273 4.26202,-2.63476 4.00029,-4.05864 -0.86921,-4.75161 -13.38874,-4.63155 -18.62802,-3.58297 l -1.2726,0.19233 c 0,0 -0.68672,-1.11149 -0.68672,-1.11149 l -5.94762,-9.63552 c -0.01,-0.0158 -2.44436,-4.04256 -2.44436,-4.04256 l -1.57754,-2.60739 2.9582,-0.47735 c 0.38658,-0.0629 9.60454,-1.51583 21.49497,-0.2927 8.35116,0.85721 18.55359,3.22281 23.40148,13.99047 2.92939,6.50636 0.0216,12.95197 -4.16117,16.45331 l -0.0192,-0.0178 c -2.12501,2.29333 -5.10242,3.66174 -7.52517,4.7629 -0.89082,0.40411 -1.79365,0.81686 -2.51639,1.21833 3.23673,2.32598 11.42941,-0.37241 16.73833,-3.33806 l 1.76723,-0.98782 5.00397,9.82593 10.51458,6.44177" /><path
       id="path106"
       style="fill:#663300;fill-opacity:1;fill-rule:nonzero;stroke:none"
       d="m 536.04902,174.02888 c 1.27741,-2.13269 3.02304,-6.16035 1.09492,-10.07997 -4.18038,-8.49882 -11.52545,-10.74052 -20.13353,-11.54611 -6.58152,-0.61613 -13.36713,-0.91627 -17.71319,-0.91627 l -2.43475,-4.02671 c 0,0 9.21796,-1.48942 20.99074,-0.27853 8.61048,0.8853 17.50669,3.27443 21.80472,12.82543 2.75171,6.11162 -0.65311,11.54419 -3.60891,14.02216" /><path
       id="path108"
       style="fill:#663300;fill-opacity:1;fill-rule:nonzero;stroke:none"
       d="m 269.2683,144.09631 c 13.79934,8.43784 18.91856,34.50602 18.91856,34.50602 2.1106,3.50134 13.67928,15.96396 13.67928,15.96396 0,0 -13.52321,-8.95648 -18.52478,-13.60124 0,0 -3.55848,-25.27941 -20.46729,-36.39692 l 5.24889,-18.84604 5.13603,-3.80724 c 0,0 -14.62052,-5.20183 -18.45754,-6.64347 l 1.275,-5.75504 c 9.52532,3.85286 26.1844,9.76494 26.1844,9.76494 -5.26569,5.71014 -8.8674,8.49114 -8.8674,8.49114 l -4.12515,16.32389" /><path
       id="path110"
       style="fill:#663300;fill-opacity:1;fill-rule:nonzero;stroke:none"
       d="m 545.74241,191.08728 -3.1791,-5.24768 c -5.62346,3.14116 -14.7886,2.73321 -17.74921,-0.51121 -2.87416,-3.14693 -0.47062,-5.50196 -0.4226,-5.21502 -0.14166,0.52536 -0.0384,1.10956 0.413,1.79148 3.52967,5.31156 14.48606,1.24932 20.10952,-1.89185 l 4.33405,8.50723 6.89847,4.22552 c -2.42755,0.6339 -10.40413,-1.65847 -10.40413,-1.65847" /><path
       id="path112"
       style="fill:#663300;fill-opacity:1;fill-rule:nonzero;stroke:none"
       d="m 241.49915,213.13092 c -3.48357,-0.4651 -4.18326,-0.24948 -7.53453,-0.74003 -0.42308,-3.99669 -12.02537,-47.81264 -58.49409,-80.14179 8.17515,1.88345 17.85005,3.93018 27.98549,5.92145 C 194.72476,115.28939 169.80168,70.958399 134.00217,54.475795 106.15186,41.654204 73.687772,33.689152 54.485159,29.700864 l -10.414931,-8.90757 c 0,0 53.530467,8.245576 96.214282,27.896241 46.91893,21.600868 71.6797,86.266605 73.71202,98.660555 l -15.94595,-3.62884 c 38.56178,30.36118 43.44857,69.40967 43.44857,69.40967" /><path
       id="path128"
       style="fill:#BC9B6A;fill-opacity:1;fill-rule:nonzero;stroke:none"
       d="m 519.1042,200.04184 c 0,0 -25.26236,2.44052 -34.76846,-1.83351 -8.49042,-3.8166 -16.51982,-12.15119 -22.21772,-24.01425 -4.71584,-9.82113 -4.99197,-19.88813 -0.70354,-25.64726 2.35552,-3.1635 6.31259,-4.73192 10.32729,-4.54247 21.7351,1.02624 33.76239,38.22322 33.76239,38.22322 0,0 -0.56667,4.11482 -1.84887,8.58694 l 15.44891,9.22733 z m -33.97609,-18.48107 c -2.26427,-7.75591 -8.29593,-14.88801 -11.99848,-17.85677 0.18969,2.25586 1.17656,5.86045 2.7517,8.99682 2.17543,4.32949 6.23576,9.2679 8.82178,11.60157 0.2137,-0.89779 0.36017,-1.93892 0.425,-2.74162" /><path
       id="path130"
       style="fill:#FFFFFF;fill-opacity:1;fill-rule:nonzero;stroke:none"
       d="m 512.47466,198.4727 c -22.30176,0.88458 -36.55971,-0.79526 -48.21003,-25.04962 -7.20581,-15.00615 -2.76851,-28.53223 7.22502,-27.14221 13.87618,1.93027 22.69075,14.67695 31.19798,35.45038 0,0 -0.30975,5.14852 -2.23066,10.33618 l 12.01769,6.40527 z m -25.06787,-16.56136 c -3.02303,-10.81256 -11.96006,-20.15155 -16.03239,-22.06981 -1.4743,2.26043 0.4274,9.16466 2.63645,13.56474 2.963,5.89383 9.21556,13.06651 11.90003,14.50335 1.24859,-1.70889 1.49591,-5.99828 1.49591,-5.99828" /><path
       id="path132"
       style="fill:#663300;fill-opacity:1;fill-rule:nonzero;stroke:none"
       d="m 512.47466,198.4727 c -1.85848,-0.0787 -13.47518,-2.47509 -16.52943,-4.44403 1.92332,-5.18765 2.64846,-11.47383 2.64846,-11.47383 -2.90057,-8.56629 -7.70765,-17.97563 -14.11869,-24.37514 -8.07982,-8.06638 -19.18748,-11.8352 -22.89004,-4.98524 2.97982,-9.27151 11.50385,-8.24166 19.50684,-3.55849 8.015,4.69063 16.29652,16.31069 21.59583,32.09528 0,0 -0.30975,5.14852 -2.23066,10.33618 l 12.01769,6.40527" /><path
       id="path134"
       style="fill:#BC9B6A;fill-opacity:1;fill-rule:nonzero;stroke:none"
       d="m 433.96709,169.64969 c -2.13221,-2.87392 -5.36174,-5.22703 -7.12177,-6.69413 0.11285,2.44796 1.0661,6.39207 2.70368,9.85499 2.25947,4.78066 7.26103,10.4046 10.07517,13.04393 0.28093,-0.96213 0.86681,-2.17038 0.97486,-3.03599 -0.51144,-1.96774 -1.2606,-3.90569 -2.14662,-5.7685 l 21.82394,0.87042 c 1.52472,3.91313 2.28348,6.50852 2.28348,6.50852 0,0 -1.18136,5.2412 -2.59803,10.34914 l 18.167,10.05404 c 0,0 -29.64204,0.99503 -40.18303,-4.0512 -9.41246,-4.50477 -18.10457,-13.87689 -24.00176,-26.96381 -4.88392,-10.83513 -4.74225,-21.73989 0.35777,-27.77923 2.80212,-3.32029 7.33787,-4.84069 11.86401,-4.45795 14.95188,1.26516 25.21194,16.95803 30.93625,28.98989 l -23.13495,-0.92012" /><path
       id="path136"
       style="fill:#FFFFFF;fill-opacity:1;fill-rule:nonzero;stroke:none"
       d="m 434.85311,166.9729 c -3.24634,-4.15612 -7.63802,-7.18564 -9.81825,-8.27455 -1.76244,2.37952 0.0744,9.9347 2.36992,14.7922 3.07826,6.50756 10.45455,14.64693 13.42236,16.31933 1.4839,-1.79245 2.3291,-6.51117 2.3291,-6.51117 -0.28334,-1.1463 -0.6315,-2.28012 -1.03249,-3.3964 l 16.02759,0.64638 c 0.4202,1.05506 0.838,2.12333 1.25339,3.21897 0,0 -0.77797,6.63122 -3.1791,12.15863 l 13.47518,6.38727 c -25.21674,-0.031 -41.23953,-2.47894 -53.29804,-29.23577 -7.46033,-16.55463 -1.84407,-30.99339 9.37404,-29.04607 11.50385,1.99583 19.62689,10.25814 26.58059,23.64352 l -17.50429,-0.70234" /><path
       id="path138"
       style="fill:#663300;fill-opacity:1;fill-rule:nonzero;stroke:none"
       d="m 453.36107,180.36284 5.00877,0.19426 c 0.35777,1.05241 0.70354,2.1226 1.03489,3.21056 0,0 -0.77797,6.63122 -3.1791,12.15863 l 13.47518,6.38727 c -2.09379,-0.16688 -15.10075,-3.27419 -18.45994,-5.53943 2.40354,-5.52741 3.50566,-12.29742 3.50566,-12.29742 -0.4178,-1.35352 -0.88362,-2.73033 -1.38546,-4.11387" /><path
       id="path140"
       style="fill:#663300;fill-opacity:1;fill-rule:nonzero;stroke:none"
       d="m 447.34382,167.48218 c -2.15862,-3.66845 -4.63899,-7.09656 -7.44112,-10.00313 -8.76175,-9.08398 -21.13001,-13.65287 -25.62013,-6.40624 3.78179,-9.89916 13.35992,-8.40782 22.1841,-2.98653 5.82276,3.57649 11.63831,10.41325 16.43818,19.61057 l -5.56103,-0.21467" /><path
       id="path142"
       style="fill:#FFFFFF;fill-opacity:1;fill-rule:nonzero;stroke:none"
       d="m 524.3795,184.1588 c 3.13348,5.56656 12.22659,3.90281 17.85005,0.76068 l 3.48405,6.11714 10.43294,1.70913 c -18.3807,4.79651 -32.77072,8.18067 -41.33557,-5.64267 -9.03788,-14.58691 13.5112,-13.81038 11.47503,-20.78593 -2.58842,-8.86259 -21.04116,-5.19438 -21.04116,-5.19438 l -5.94762,-9.63624 c 21.25247,-2.13101 34.89573,2.83622 38.0124,12.47079 5.12883,15.87103 -16.86799,13.21369 -12.93012,20.20148" /></g></svg>