<?xml version="1.0" encoding="UTF-8" standalone="no"?>
<svg xmlns:rdf="http://www.w3.org/1999/02/22-rdf-syntax-ns#" xmlns="http://www.w3.org/2000/svg" xml:space="preserve" version="1.1" xmlns:cc="http://creativecommons.org/ns#" xmlns:dc="http://purl.org/dc/elements/1.1/" viewBox="0 0 500 85"><g fill="#024"><path d="m105.29 52.571c0 3.1421-2.5324 5.6807-5.6683 5.6807h-9.5632c-3.1483 0-5.6993-2.5386-5.6993-5.6807v-19.537c0-3.1421 2.551-5.6744 5.6993-5.6744h9.5632c3.1359 0 5.6683 2.5324 5.6683 5.6744v19.537zm-6.9-51.667-8.363 0.04987c-13.626 0.51645-24.558 11.429-25.043 25.049l0.056 35.204c1.225 12.923 11.859 23.078 24.987 23.576v0.04988h8.3624c14.429 0 26.095-11.691 26.095-26.095v-31.745c0-14.41-11.666-26.089-26.095-26.089"/><path d="m348.46 52.571c0 3.1421-2.5386 5.6807-5.6744 5.6807h-9.5694c-3.1359 0-5.6807-2.5386-5.6807-5.6807v-19.537c0-3.1421 2.5448-5.6744 5.6807-5.6744h9.5694c3.1359 0 5.6744 2.5324 5.6744 5.6744v19.537zm-6.9-51.667-8.37 0.04987c-13.62 0.51642-24.546 11.43-25.056 25.05l0.0809 35.204c1.2133 12.923 11.859 23.077 24.975 23.575v0.04988h8.3624c14.435 0 26.114-11.691 26.114-26.095v-31.745c0-14.41-11.679-26.089-26.114-26.089"/><path d="m24.571 0.95418c-13.365 0.51642-24.086 11.43-24.571 25.05l0.0685 35.204c1.1822 12.917 11.636 23.071 24.502 23.575v0.04988h8.213c14.124 0 25.572-11.691 25.572-26.101v-12.948l-16.855-0.17428v6.7882c0 3.2417-2.5884 5.8549-5.7865 5.8549h-9.7747c-3.1794 0-5.7678-2.6132-5.7678-5.8549v-20.172c0-3.2354 2.5884-5.8673 5.7678-5.8673h9.7747c3.1981 0 5.7865 2.6319 5.7865 5.8673v7.6531l16.855 0.14934v-13.041-24.857h-12.22c-1.971 1.649-3.284 2.4703-6.731 1.4872-3.447-1.0017-6.714-2.663-14.833-2.663"/><path d="m277.59 33.391h-11.585v-8.3624h11.585v0.01125c2.2897 0 4.1625 1.8479 4.1625 4.1625s-1.8728 4.1874-4.1625 4.1874zm0 24.116v0.01125h-11.585v-8.3748h11.585c2.2897 0 4.1625 1.8666 4.1625 4.1812s-1.8728 4.1812-4.1625 4.1812zm24.69-31.875c0-13.651-11.05-24.714-24.695-24.714l-5.2638 0.0685h-67.272v23.289c3.8452 0 5.8487 1.9102 4.8594 5.2638l-7.9206 23.824-7.5846-22.94c-0.44799-3.2105 1.7048-6.1473 6.2842-6.1473v-23.289h-32.547v23.289c2.607 0.9893 6.3838 1.2755 4.6167 6.6638l-8.1446 24.652-8.1073-24.421c-1.0018-3.6772 2.7501-6.894 6.7944-6.894v-23.289h-36.766v23.289c4.8407 0.49775 10.714 3.6336 11.84 7.8584l16.874 50.971h0.2551 15.735 0.24267l10.185-30.706 10.011 30.706h16.495l17.59-51.891c1.8355-5.3696 5.0585-6.9375 10.957-6.9375 6.6389 0 9.3579 1.9724 9.3579 8.4992v17.72c0 6.8878-3.4594 7.7588-8.6112 7.7588h-2.9554v24.956h43.075c13.645 0 24.695-11.069 24.695-24.72 0-6.3029-3.0737-12.077-6.9873-16.457 3.9012-4.3678 6.9873-10.098 6.9873-16.401"/><path d="m425.39 58.253v24.857h-41.855v-24.857h4.0754c9.2148 0 9.2148-6.6451 6.6326-10.465l-15.38-19.445c-3.08-3.677-4.19-3.814-7.39-3.814h-1.8542v-23.625h36.928v23.625h-3.2043c-2.719-0.12438-4.9092 0.61598-2.4639 3.447l7.1428 8.3686h1.0951l7.0184-8.493c1.9786-2.5884 0.99553-3.3226-1.4746-3.3226h-2.215-2.215v-23.625h32.609v23.625h-4.3056c-1.8417 0-3.3163 0.7342-5.0398 2.831-1.7173 2.0968-16.862 21.055-16.862 21.055-2.831 3.4345-1.5928 9.837 8.7481 9.837"/><path d="m486.71 31.42h11.399v-30.513h-13.533c0 1.711-1.1386 2.047-3.9448 2.047-2.7812 0-3.9572-0.88974-5.5811-1.6426-1.8417-0.87109-5.4069-1.1449-7.2175-1.1449-1.7982 0-22.138 1.9599-22.138 23.625s17.403 24.77 22.81 26.089c5.4007 1.3128 10.988 3.783 9.3454 7.3855-1.6426 3.615-12.133 0.1618-14.609-1.4808-2.4701-1.6302-4.9963-4.0692-4.9963-4.0692h-13.67v31.39h10.944c0.65952-2.047 2.8061-3.5216 4.9402-3.5216 2.1217 0 4.7474 1.3128 6.4024 1.9599 1.6426 0.65952 6.0789 2.3021 11.156 2.3021 5.0834 0 21.982-3.4532 21.982-25.759 0-22.312-23.295-24.446-25.106-24.944-1.8168-0.49154-9.1774-1.9599-8.3561-5.9109 0.80887-3.9323 9.5196-4.2807 15.748 0.66574 2.7812 2.2213 4.4238 3.5217 4.4238 3.5217"/></g></svg>
