<?xml version="1.0" encoding="UTF-8" standalone="no"?>
<svg xmlns:rdf="http://www.w3.org/1999/02/22-rdf-syntax-ns#" xmlns="http://www.w3.org/2000/svg" xml:space="preserve" height="150.36" viewBox="0 0 147.99998 150.35582" width="148" version="1.1" xmlns:cc="http://creativecommons.org/ns#" xmlns:dc="http://purl.org/dc/elements/1.1/"><g transform="matrix(1.25 0 0 -1.25 -106.12 356.19)"><g transform="matrix(3.1087 0 0 3.1087 -301.51 -471.49)"><path d="m19.973 0.82422-1.819 5.6836c-0.275 0.09375-0.54836 0.19578-0.81836 0.30078-4.7625 1.8738-7.4922 4.8266-7.4922 8.1016 0 2.5662 1.0284 4.7799 3.0547 6.5762 0.11625 0.105 0.23828 0.20539 0.36328 0.30664l-2.148 6.706c-0.1575-0.41875-0.25148-0.83047-0.27148-1.2305l-0.125-2.6738-1.7715 2.0059-7.7695 8.7871 2.0252 2.361 0.8672-0.744c0.27875-0.23625 2.1761-1.3218 4.5898-0.8418l-0.28516 0.89453c0.01875-0.05-0.54688 1.7715-0.54688 1.7715-0.585 2.1188-1.192 4.308-5.2207 7.8105l-0.61914 0.53711v1.3691h16.943v-1.2676l-0.72656-0.63477c-1.0325-0.90625-3.4141-3.4968-3.4141-5.623 0-0.18875 0.01859-0.37594 0.05859-0.55469 1.6188 1.2275 3.3772 2.1588 5.3672 2.8301 2.5012 0.84375 5.3656 1.2695 8.5156 1.2695 0.83 0 1.6527-0.05234 2.459-0.15234-0.7625 1.1213-1.626 2.1679-2.1035 2.3379v1.6797h16.564v-0.05078c0.155 0.035 0.31562 0.05664 0.48438 0.05664 0.55625 0 1.0299-0.19484 1.4199-0.58984 0.39125-0.3925 0.58594-0.86953 0.58594-1.4258 0-0.5525-0.19469-1.0253-0.58594-1.4141-0.39-0.39-0.86367-0.58398-1.4199-0.58398-0.55125 0-1.0221 0.19398-1.4121 0.58398-0.34375 0.34375-0.53688 0.75125-0.57812 1.2188l-0.05859-0.04102c-0.92125-0.65125-2.4946-1.7642-4.1309-5.5742 0.10625-0.09375 0.2132-0.18766 0.31445-0.28516 1.0225-0.96875 1.8546-2.0483 2.4746-3.207 0.90125-1.6775 1.3555-3.4362 1.3555-5.2324 0-5.0625-3.6459-9.1414-10.006-11.191l-0.74023-0.23633-1.2637-3.9375 0.03711 0.0332 1.8828 1.8984 0.70117-1.2578 4.1484-7.3906-1.502-1.5078-0.71289 0.38477c-1.42 0.76375-2.5076 0.90648-3.4238 0.45898-0.145-0.0975-1.1094-0.74609-1.1094-0.74609l-2.255-1.4359c-0.328-0.1775-0.652-0.3341-0.979-0.4766l-1.8125-5.6582h-0.79297-6.2969zm3.498 12.168c0.52375 1.63 1.2787 3.9879 2.0449 6.3691l-1.4648-0.19336-2.3652-0.49219c0.6725-2.1425 1.3227-4.2086 1.7852-5.6836zm-3.791 12.068 2.9277 0.85352c0.0038 0.0025 1.6973 0.28906 1.6973 0.28906 0.0012 0 2.1323 0.22484 3.5273 0.37109 0.1975 0.6125 0.35383 1.101 0.45508 1.416h-9.5273c0.17-0.54375 0.50242-1.5984 0.91992-2.9297zm16.35 3.7539c0.63625 0.85125 1.0279 2.0408 1.0879 3.3945l-1.0879-3.3945zm-19.059 4.8633h13.143c0.19125 0.595 0.77133 2.3942 1.3301 4.1367-0.9825 0.24125-2.0139 0.36328-3.0664 0.36328-1.9775 0-4.2684-0.48484-6.6309-1.4023-1.625-0.632-3.246-1.46-4.686-2.4l-0.25586-0.16406c0.0675-0.21875 0.12602-0.4007 0.16602-0.5332z" transform="matrix(.8 0 0 -.8 123.57 243.76)" fill="#ffc72c"/><path d="m20.766 1.9102-1.3457 4.2031c0.19875-0.055 0.39695-0.1075 0.5957-0.15625 1.14-0.27625 2.2362-0.42781 3.1699-0.44531h0.03906l0.09375-0.00391 0.40039 0.00781c1.2325 0.02 2.2985 0.13352 3.2598 0.35352 0.20875 0.0475 0.40938 0.099453 0.60938 0.1582l-1.3184-4.1172h-5.5039zm2.576 4.6836c-0.045 0-0.09242 0.00195-0.13867 0.00195-0.84625 0.01375-1.8547 0.15672-2.9297 0.41797-0.825 0.2-1.6873 0.46914-2.541 0.80664-3.4788 1.3688-6.8027 3.8286-6.8027 7.0898 0 2.345 0.9575 4.2267 2.6875 5.7617 0.5425 0.485 1.1628 0.9275 1.8516 1.3438 0.7525 0.45 1.5818 0.86945 2.498 1.252 0.64 0.2675 1.3221 0.51906 2.0371 0.75781 0.90375 0.3 1.8573 0.57844 2.8711 0.83594 0.385 0.095 0.93281 0.18117 1.5703 0.26367 0.86625 0.11125 1.9204 0.21336 3.0254 0.31836-0.4475-1.3912-1.0084-3.138-1.5859-4.9355-0.60125-0.07125-1.2796-0.15203-2.0059-0.26953-0.81375-0.1275-1.6752-0.29773-2.5215-0.52148-0.71125-0.18875-1.4104-0.41992-2.0566-0.70117-0.94-0.40625-1.7631-0.93141-2.3594-1.5977-0.6025-0.675-0.97656-1.4966-0.97656-2.5078 0-1.4375 1.2765-2.5277 2.834-3.2852 1.0262-0.50375 2.1707-0.8582 3.1582-1.0645 0.69-0.1425 1.3038-0.21875 1.7363-0.21875 0.43125 0 0.84094 0.04086 1.2422 0.09961 1.2238 0.19 2.318 0.64992 3.3418 1.2949 1.0775 0.67875 2.0836 1.5543 3.0898 2.5293 0.785 0.75875 1.5715 1.5747 2.3965 2.3984l3.746-6.6738-0.352-0.3535c-1.5225 0.82125-3.043 1.1732-4.4492 0.4707-1.2875-0.84375-2.2857-1.6003-3.377-2.1953-0.76875-0.42-1.592-0.75617-2.5957-0.98242-0.85-0.19375-1.8364-0.30812-3.0352-0.32812-0.12-0.00125-0.23438-0.00781-0.35938-0.00781zm0.7793 4.8691 4.4082 13.732 0.49414 1.5059s-0.0048-0.000703-0.0098-0.002l0.76367 2.3789h-12.498l1.3789-4.3945-1.1113-0.41406c-0.94125-0.395-1.8287-0.83867-2.6387-1.3262-0.25125-0.15-0.49281-0.30484-0.72656-0.46484l-3.805 11.885-0.6504 2.032-0.3204 0.998c-1.0525 2.8088-0.70164 5.3841-6.0879 10.07h14.17s-4.6859-4.0998-3.6309-7.4961l1.127-3.5898 0.875-2.7812 0.31641-1.0059h14.729l1.5781 4.9141c0.305-0.1075 0.60188-0.22633 0.89062-0.36133 0.8225-0.37625 1.5395-0.83945 2.127-1.377 0.49625-0.45375 0.88234-0.93852 1.1523-1.4473l-2.152-6.722h-0.002l-1.6582-5.1797-2.4199-7.5547c-1.0462-1-1.8945-1.687-2.7207-2.207-0.975-0.6125-1.9334-0.98492-2.9297-1.1387l-0.64844-0.05273zm-1.3242 0.04687c-0.19625 0.03125-0.40344 0.07148-0.61719 0.11523-1.0238 0.215-2.0563 0.55961-2.9062 0.97461-0.83 0.4075-2.2227 1.243-2.2227 2.3105 0 0.67125 0.23062 1.2557 0.70312 1.7832 0.44875 0.5025 1.1162 0.94992 1.9824 1.3262 0 0 0.45367 0.15375 0.91992 0.3125l2.1406-6.8223zm10.965 10.221 1.6387 5.1172c1.6338 0.87625 2.8125 2.9584 2.8125 5.7422 0 0.37875-0.05859 0.75094-0.15234 1.1172-0.06 0.23625-0.14523 0.46391-0.24024 0.69141-0.33125 0.7825-0.87344 1.516-1.5859 2.166-0.6625 0.60875-1.4757 1.1402-2.4082 1.5664-0.6325 0.29125-1.3183 0.535-2.0508 0.71875-1.0475 0.265-2.1897 0.41602-3.3984 0.41602-2.2762 0-4.7229-0.58156-7.0254-1.4766-1.7637-0.6875-3.4348-1.5602-4.8848-2.5039-0.41375 1.3212-0.9518 3.0342-1.2793 4.0742 1.3175 1.0475 3.038 2.1195 5.373 2.9082 2.1512 0.725 4.8162 1.2129 8.1699 1.2129 1.15 0 2.245-0.10016 3.2812-0.28516 0.94375-0.17125 1.8338-0.4182 2.6738-0.7207 1.12-0.4075 2.145-0.92039 3.0625-1.5254 0.6475-0.42875 1.2391-0.90281 1.7754-1.4141 0.93-0.88125 1.6962-1.8697 2.2637-2.9297 0.79125-1.475 1.2285-3.08 1.2285-4.7188 0-5.3275-4.4314-8.6038-9.2539-10.156zm-24.002 5.5918-7.1445 8.0801 0.70117 0.81836c0.34375-0.3425 2.6977-1.7452 5.6777-1.0977l1.6445-5.1406c-0.48-0.79125-0.83391-1.6977-0.87891-2.6602zm29.324 14.003c-0.24 0.1825-0.48508 0.36055-0.73633 0.5293-0.995 0.6575-2.101 1.208-3.291 1.6367-0.76125 0.2775-1.55 0.49922-2.3438 0.66797-0.81 1.3975-1.93 2.8691-2.8125 3.1816h13.934c-0.8725-0.67625-2.7875-1.5994-4.75-6.0156zm7.0508 3.6074c-0.41 0-0.76008 0.14625-1.0488 0.4375-0.2925 0.29-0.44141 0.64273-0.44141 1.0527 0 0.4175 0.1468 0.77 0.43555 1.0625 0.29 0.2925 0.64094 0.44141 1.0547 0.44141 0.41625 0 0.76859-0.14891 1.0586-0.44141 0.2925-0.295 0.43945-0.64625 0.43945-1.0625 0-0.41125-0.14695-0.76273-0.43945-1.0527-0.29-0.29125-0.64234-0.4375-1.0586-0.4375zm0.002 0.20312c0.35625 0 0.65766 0.12641 0.91016 0.37891 0.24875 0.2525 0.37305 0.55461 0.37305 0.91211s-0.1243 0.66477-0.37305 0.91602c-0.25 0.2525-0.55266 0.37891-0.91016 0.37891-0.35625 0-0.66016-0.12641-0.91016-0.37891-0.2475-0.25125-0.37109-0.55852-0.37109-0.91602s0.12555-0.65961 0.37305-0.91211c0.2525-0.2525 0.55445-0.37891 0.9082-0.37891zm-0.60352 0.46484v1.6387h0.29297v-0.64648h0.22461c0.15125 0 0.25906 0.01844 0.32031 0.05469 0.10125 0.06 0.15234 0.1875 0.15234 0.375v0.13086l0.0059 0.05469c0.0025 0.0063 0.0027 0.01133 0.0039 0.01758 0.0025 0.0037 0.0046 0.01117 0.0059 0.01367h0.27344l-0.01172-0.01758c-0.0075-0.01375-0.0099-0.04539-0.01367-0.08789-0.0038-0.04375-0.0039-0.08234-0.0039-0.12109v-0.11719c0-0.085-0.03109-0.16836-0.08984-0.25586-0.06-0.0875-0.1525-0.14086-0.28125-0.16211 0.1025-0.01625 0.18133-0.04258 0.23633-0.08008 0.1075-0.07 0.16016-0.17547 0.16016-0.32422 0-0.20625-0.08516-0.34406-0.25391-0.41406-0.09375-0.04125-0.24352-0.05859-0.44727-0.05859h-0.57422zm0.29297 0.19531h0.24414c0.15875 0 0.27711 0.02 0.34961 0.0625 0.0725 0.04 0.10742 0.11898 0.10742 0.24023 0 0.12625-0.05547 0.21156-0.16797 0.25781-0.06125 0.02375-0.15219 0.03516-0.27344 0.03516h-0.25977v-0.5957z" transform="matrix(.8 0 0 -.8 123.57 243.76)" fill="#8e0c3a"/></g></g></svg>
