<?xml version="1.0" encoding="UTF-8" standalone="no"?>
<svg xmlns:rdf="http://www.w3.org/1999/02/22-rdf-syntax-ns#" xmlns="http://www.w3.org/2000/svg" height="74.562pt" width="150.14pt" version="1.1" xmlns:cc="http://creativecommons.org/ns#" xmlns:dc="http://purl.org/dc/elements/1.1/" viewBox="0 0 150.14613 74.561714">
 <g transform="matrix(.75 0 0 .75 1.1364 1.0568)">
  <path d="m132.75-0.00057679-0.80001 7.997c-2.664-2.1367-5.0721-4.3997-7.2481-6.7766l0.54401 7.3518c-2.336-2.0723-4.9201-4.1563-8.1121-5.8955l0.29601 2.2375c-1.944-1.5019-4.008-2.6268-6.1761-3.4344l0.53601 2.4141c-2.224-1.0918-4.144-1.6915-5.9681-2.211l0.65601 2.0219c-2.17-0.7823-4.24-1.3131-6.25-1.7048l0.92801 2.3828c-2.207-0.6317-4.407-0.9044-6.591-0.8124l1.024 1.9422c-2.224-0.3633-4.416-0.282-6.592-0.0125l1.176 1.7735c-2.096-0.2012-4.1921-0.046481-6.2961 0.47497l1.04 1.4796c-2.016 0.0048-4.072 0.2736-6.1673 0.70001l1.4472 1.6264c-2.1208 0.0504-4.2225 0.4592-6.3169 1.052l1.0464 1.2184c-2.0368 0.2616-3.9536 0.66001-5.7481 1.1936l0.97761 1.044c-1.8344 0.1336-3.8432 0.52161-6.0545 1.1968l0.96561 0.94881c-1.9912 0.1424-3.932 0.48561-5.8161 1.0496l1.1672 1.2096c-11.503 0.78-20.566 6.145-26.701 16.082-5.574-6.573-13.449-3.482-14.728 5.512-3.69-2.997-8.628-3.199-11.671 0.996-1.9752-0.637-4.539 2.032-7.3199 5.912 2.4251-0.149 5.0512-0.319 6.3626 0.7 3.1496 2.4448 5.2001 2.9168 7.2049 3.0392 2.6776 0.16 6.1809-2.2856 8.7641-3.0128 1.6896 2.1312 5.9361 2.612 7.3641 4.1561 0.0432 2.9544 1.0232 4.8441 2.736 7.2753 0.3672 3.956 2.3648 6.2793 3.6472 7.9345 1.7936 2.3176 3.1864 5.9185 2.1888 12.082-0.96081 5.9281 0.45681 13.16 5.8753 13.464 6.3273 0.352 18.054-9.1921 27.684-13.104l5.5281 3.808c2.2192 1.04 3.0184 2.608 5.2585 4.3201 1.272 1.088 3.592 0.54401 5.3921 0.81601 5.3201 4.8961 8.4161 6.2241 10.736 6.2961 3.144 0.096 5.2081-1.224 7.3121-4.1921 5.7361 0.99201 9.1601 0.76001 10.92-0.65601 1.8-1.504 2.624-3.208 3.664-5.4481 0.504-1.08 4.9041-2.568 6.9601-4.9441 3.056-3.5216 3.312-6.9777 4.056-7.9105 3.648 0.3128 3.584 0.3016 8.6961-1.3968 3.24-1.08 5.2721 0.2712 7.2081 0.052 4.2161-0.47841 9.8401-3.1568 14.248-2.944 4.2561 0.2072 6.0881 2.092 11.184 4.6097 4.4561 2.1992 8.8321-1.7408 8.5361-7.0473 1.936 0.69841 4.432-2.1976 7.8081-6.0545 2.096-2.3976 6.2161-3.8648 7.2721-5.3049 1.272-1.7416 1.248-4.8873-0.29601-6.3521-1.608-1.532-3.632-1.6704-5.9921-0.72321-0.72001-0.72641-1.84-1.4168-4.6641-1.392-10.73-8.835-14.98-7.835-20.73-15.686-5.16-7.038-9.89-13.29-20.78-20.782l-0.04 1.1064-3.424-2.7784-0.072 0.94961c-2.808-2.7604-5.5761-6.0665-7.8561-9.8497z"/>
  <path d="m167.02 4.2891 0.0176 5.084c1.0034 0.5908 3.0035 1.7761 3.4707 2.0898l0.0234-1.6953s0.45507 0.23217 0.875 0.50195c-1.372-1.8896-2.7497-3.8321-4.3867-5.9805zm-9.14 1.1015c0.12325 5.2343 0.61401 9.1026 1.543 11.324 0 0 3.4492 17.078 12.453 15.723 0 0-2.012 2.6547-5.332 0.11328-3.319-2.5402-8.3-10.448-19.768-15.191l0.6543 2.6543s-3.3187-2.0335-7.4434-3.502l0.70313 2.2031s-3.3195-1.9771-7.9473-3.332l1.1074 2.0898s-4.126-1.1863-7.2949-1.4121l1.4082 2.0332s-5.9341-0.90426-7.8457-0.62109l1.8106 2.0332s-10.262 0.11202-14.639 1.6367l2.5664 2.7129s-6.6067-0.07472-18.875 4.9824c0 0 7.9971-4.857 14.736-6.3828l-2.8144-2.7656s8.7517-2.1477 14.838-2.4297l-2.0117-2.541s4.9787 0.22656 7.6445 0.22656l-1.4062-2.2031s6.2354 0.79051 7.3926 1.0176l-1.3086-2.3164s5.4338 1.4697 7.0937 2.0898l-0.7539-2.4297s6.1854 2.7119 6.8398 3.1074c0 0-0.16382-1.5103-0.54101-2.6113 0 0 4.2001 2.0884 6.7148 3.6973 0 0-0.40115-3.3877-0.80273-3.7539 0 0 3.419 1.6359 6.5625 4.6289 0 0-0.20119-2.1728-0.72852-3.0762 0 0 4.9794 4.2642 5.5078 4.9414 0 0-0.29443-1.8781-0.58984-3.1562l-2.293-2.0352c-1.8017-1.5991-3.6202-3.0926-5.5293-4.4414l0.47461 3.5098-4.5859-3.5352c-0.92-0.7117-1.88-1.3535-2.86-1.931l0.68359 3.1074-4.4844-2.2031c-0.8618-0.42359-1.7224-0.79665-2.5879-1.1348l0.87109 2.6875-4.6894-1.6914c-0.99-0.3564-1.98-0.678-2.98-0.9648l1.2539 3.2246-4.7812-1.3672c-1.0575-0.31587-2.1534-0.55372-3.2559-0.71484l1.5801 2.9902-5.002-0.81445c-1.0887-0.177-2.1802-0.26006-3.2715-0.27344l1.998 3.0098-5.3516-0.51563c-1.0571-0.10132-2.1131-0.12305-3.1641-0.06445l1.7559 2.5059-4.959 0.01172c-0.85205 0.0025-1.7045 0.04347-2.5566 0.11914l2.3652 2.6562-5.6602 0.13281c-1.0547 0.0244-2.1029 0.12794-3.1465 0.28906l1.6328 1.9062-4.8496 0.625c-0.82396 0.1062-1.6466 0.23386-2.4668 0.38281l1.899 2.021-5.514 0.404c-0.84105 0.06104-1.6813 0.16626-2.5176 0.30664l1.9922 1.9551-5.8398 0.41992c-0.76293 0.05615-1.5263 0.13476-2.2832 0.24219l2.1211 2.1973-5.6562 0.38476c-13.047 0.88621-23.992 6.7248-31.537 18.943l-1.6895 2.7363-0.03125-0.03516c-1.3404 1.7016-2.5871 6.9703-6.127 6.1328-3.6962-0.87524-3.9479-3.0775-3.8477-3.6426 0.1001-0.56397 0.64236-1.3418 1.5469-1.3418 0.90574 0 1.2759 0.42092 1.459 1.1875 0.1831 0.76536-0.30078 1.4688-0.30078 1.4688 2.904 3.346 5.8227-4.1663 5.8984-4.7598 0.0708-0.55539-1.1707-1.9932-1.3281-2.1738-5.5787-5.6824-12.389-2.2546-13.59 6.2012l-0.17578 1.1035c0.32472 0.50293 0.54371 1.0523 0.62305 1.6504 0.07935 0.59937 0.62186 1.8107 0.98438 2.2734l1.1328 1.0723 0.03906-0.01172 0.1543 0.19336 1.334 1.2617-0.1875 0.11328c0.77271 0.68602 2.0762 1.2388 2.877 1.5684 1.8885 0.7788 4.4099 1.5571 5.8711 3.1367l0.72461 0.7832 0.01563 1.127c0.04518 3.1385 1.2098 5.0534 2.9004 7.4531l0.43555 0.61914 0.07227 0.7832c0.343 3.6877 1.9194 5.7616 3.9785 8.4199 3.8087 4.9206 4.2937 11.156 3.2891 17.365-0.7373 4.5434-0.43556 13.326 5.0879 13.635 2.6855 0.15015 6.5185-1.6297 8.9355-2.8418 4.2039-2.1081 8.2943-4.6361 12.385-7.0117 3.9939-2.3205 8.1148-4.644 12.346-6.3652l1.0938-0.44336s6.2378-1.6252 10.313 0.80273c0 0-1.3064-1.8636 0.5039-4.3477 1.8115-2.4853 4.3003-5.4797 4.3516-6.8359 0.05-1.355 0.0254-2.4844 0.0254-2.4844s2.186-0.677 2.2617-0.98828c0 0-0.87989-3.6696-0.90429-4.0371 0 0 0.57839-0.47984 2.3398-1.2988 0 0-0.00098-0.96072-0.32812-1.8652 0 0 1.1577-0.73512 2.7422-1.2148 0 0-3.7471-4.8545-15.971 1.2441-12.223 6.0999-14.184 9.713-25.35 9.0918 0 0-2.6048-1.8208-3.082-2.4141-0.47849-0.59202-0.37695-1.6934-0.37695-1.6934s1.157 0.62109 2.5156 0.62109c0 0-5.8356-4.4898-3.0195-10.928 0 0 0.000149 9.5443 10.312 11.916 0 0 4.3766-1.1307 7.4453-4.2363l-1.5605-0.45312s2.9197-2.7659 3.1699-3.7812l-1.8105-0.05664s3.0689-2.938 2.666-5.875c-0.40284-2.937-1.3084-6.4925-5.5332-9.9375 0 0 13.378 4.2908 5.3809 19.482 0 0 3.3461-1.2985 4.4277-2.457 0 0 3.2694-8.2152-4.0742-15.84-7.3436-7.6243-9.3576-8.7547-8.0664-12.086 0 0-0.10036 2.0331 6.0371 6.5508 6.1364 4.5177 8.3491 10.165 9.6562 11.521 1.3086 1.355 4.6289 0.9043 4.6289 0.9043 0-8.1321 3.4199-11.182 3.4199-11.182-2.9175 11.069 0.80469 15.473 0.80469 15.473 12.977-0.79099 10.664 5.5352 10.664 5.5352 1.3074 1.6944 9.6565 4.8576 18.207 6.6641 8.5521 1.8078 9.0547 4.291 9.0547 4.291-16.197 13.667-32.342 13.668-32.342 13.668 1.56 2.3157 3.6211 2.7676 3.6211 2.7676 4.1746 1.355 6.0361 5.929 9.2051 6.7188 3.169 0.79099 3.4708 1.1311 7.5957-4.1777 4.1247-5.3087 6.0352-5.0274 6.0352-5.0273 0 0-3.176 3.2754-5.2891 7.1719-2.113 3.8977-4.0237 6.1006-6.3379 5.8184-2.3145-0.2832-5.5342-2.5996-9.4062-5.7051-3.8743-3.1054-3.5224-2.2031-8.5527-2.2031 0 0-3.1676-4.0649-7.5938-6.3242 0 0-2.6083-0.70924-4.4258-0.47852l4.3906 3.0332c2.9052 1.4257 4.3204 3.662 6.8203 5.582l0.0488 0.0371 0.0469 0.0391c0.45774 0.38939 2.323 0.35351 2.8906 0.35351 0.90574 0 1.8133 0.002 2.7129 0.13672l0.67774 0.10157 0.53125 0.48828c2.8698 2.6403 8.013 7.1311 11.957 7.2559 3.3093 0.10376 5.1629-1.3636 7.1816-4.2188l0.87109-1.2344s2.4219-5.1398 6.0938-8.8106c3.6731-3.6706 9.1544-5.3664 11.82-7.7383 2.666-2.3717 4.1252-2.993 7.2441-9.2051 0 0-5.0309-5.9297-4.4766-16.717 0 0 1.8313 16.434 11.328 18.891l1.1914 0.10156c1.1743 0.1001 2.5021 0.26268 3.6777 0.16016 0.73242-0.0647 1.4536-0.25076 2.1641-0.45703 1.3916-0.40406 2.78-0.88668 4.1582-1.3457 2.0776-0.69089 4.0004-0.78053 6.1328-0.45703 0.95823 0.14526 2.3874 0.53001 3.3262 0.42383 2.8076-0.31981 5.8191-1.3479 8.5644-2.123 3.0652-0.86424 6.4174-1.7203 9.5898-1.5664 1.9165 0.09277 3.7107 0.4507 5.5234 1.1562 1.4831 0.57737 2.8969 1.3471 4.3008 2.1309 1.6687 0.93139 3.3214 1.8569 5.0293 2.6992 3.0957 1.5282 6.0229-0.3719 6.9727-3.498-0.0398 0.09656-0.78201 1.8657 0.0195-0.14062 0.0668-0.41976 0.46984-3.1979-0.60156-4.0352 0 0-0.30208 2.486-2.5664 2.3164-2.2632-0.16967-7.6444-2.3726-15.289-8.8105 0 0-5.1326 0.33932-7.043-0.50781-1.9116-0.84714-4.879-5.1388-6.9922-5.3086-2.113-0.16845-6.3867-0.73366-6.4883-3.8965-0.10012-3.1627 6.84-4.7437 11.693-3.1348 0 0-0.23028-5.3301-2.9414-9.0078 0 0-1.0812-1.8353 0.62891-2.625 1.7102-0.79099 6.639 5.4196 7.7461 9.2598 0 0 3.7785-5.7638 8.1484-7.9062 0 0-1.207 5.6472-1.207 8.9238 0 3.275-1.1074 5.7598-1.1074 5.7598s3.2339 1.295 9.6582 6.8906l6.4258 5.5957 3.3711 1.2168c0.44435 0.09034 1.8435-1.0796 2.1621-1.3652 1.8017-1.6101 3.5192-3.6746 5.1367-5.5215 0.73852-0.84349 1.5924-1.5743 2.4824-2.2285-0.96923 0.177-2.4398 0.64068-4.1855 1.8223-0.52368 2.4987-6.5389 6.9218-6.8418 3.9531-0.19043-1.8737 6.0543-5.9807 12.814-6.9805 0.98508-0.61647 1.9905-1.1863 2.9805-1.793 0.3894-0.23803 1.4192-0.86084 1.7012-1.2246 0.72752-0.99486 0.8652-3.2679-0.0625-4.1504-1.5087-1.4355-3.3773-1.1182-5.123-0.41992l-1.3574 0.54492s-3.1564 1.2609-8.1367 6.2305c0 0 0.96032-4.0474 5.4414-8.1406-0.63843-0.1538-1.3242-0.20068-1.9297-0.21289-1.9628 0.48339-5.0544 1.8715-8.5918 5.7559 0 0 0.52942-4.2595 4.4648-7.918-2.7466-2.1325-5.562-4.0615-8.5332-5.8438-2.6342-1.5796-5.3776-3.0221-7.9141-4.7871-3.0945-2.1532-5.5475-4.6502-7.8594-7.8066-0.91065-1.2439-1.8255-2.4855-2.752-3.7148-2.8531-3.7718-5.7844-7.3099-9.0781-10.59-3.1593-3.1493-6.536-5.9792-10.055-8.5879l-0.0625 1.7285-4.8301-4.2402-0.15625 2.3398s-2.1167-2.2429-4.5312-3.543v1.3828s6.2637 3.3902 6.8164 8.6426c0 0-3.0429-5.9028-12.613-11.127-4.5459-2.1045-5.2655-3.8352-9.1582-7.8242zm66.336 80.889c-0.004 0.02644-0.0166 0.12884-0.0176 0.13476 0.0306-0.10254 0.0603-0.20557 0.0859-0.31055-0.0795 0.19794-0.009 0.02619-0.0684 0.17578zm-208.38-33.741c-2.8209 0.11213-4.5 2.1211-4.5 2.1211 5.8084 1.1864 5.707 2.3164 5.707 2.3164-1.4087 0.93139-4.5259-0.45312-7.4434-0.70703-2.9175-0.2539-4.5273 2.2871-4.5273 2.2871 3.269 0.25512 5.3811 1.8355 6.8398 3.0781 2.3315 1.9848 6.0982 1.969 8.7031 0.76172-7.6699-1.2412-7.5245-2.6584-9.3359-3.5059-1.8101-0.847-3.1893-0.984-3.1893-0.984 3.6718-0.76171 3.7227 0.87719 9.0293 2.5703 5.3062 1.6944 8.8281-0.42188 8.8281-0.42187-0.47727-0.45287-1.5595-2.373-1.7598-3.8965-0.20141-1.5259-4.6024-3.4456-7.7715-3.6152-0.19804-0.01055-0.39202-0.01138-0.58008-0.0039zm145.1 37.766s-2.1516 6.8448-5.7734 9.0469c-3.6206 2.2033-7.7963 4.2935-8.5508 7.1172-0.7544 2.8247-2.7314 6.7214-11.355 4.3789l-1.3574 2.3262c3.07 0.48949 8.797 1.1767 10.861-0.47852 1.9092-1.5942 2.8005-3.5718 3.8809-5.8887 0.60425-1.2927 1.9592-2.092 3.0762-2.7402 1.1706-0.68114 2.3595-1.3101 3.5059-2.0449 0.86058-0.5493 1.836-1.2317 2.5293-2.0312 1.3696-1.5807 2.3584-3.3053 3.125-5.3281 0.41993-1.106 0.8116-2.6276 1.4024-3.748l-1.3438-0.60937z" fill="#9d2235" transform="matrix(.80001 0 0 .80001 0 -.00057679)"/>
  <path d="m164.53 14.41c0.83998 2.555 2.4004 4.1641 2.4004 4.1641 0.21999 2.553 0.51921 2.9087 0.94922 3.4727 0.42999 0.565 0.32031 1.1172 0.32031 1.1172-0.84 5.126 3.2695 7.0586 3.2695 7.0586-0.22-2.239 0.20117-1.6367 0.20117-1.6367 1.26 0.056 2.8106 1.6934 2.8106 1.6934-0.3-2.428 0.0586-2.1445 0.0586-2.1445 0.79999-0.114 3.0606 1.5234 3.0606 1.5234-4.17-9.487-13.07-15.248-13.07-15.248zm24.301 12.986c1.73 2.4 5.6094 6.8633 5.6094 6.8633-1.26-0.564-3.6992-1.1016-3.6992-1.1016 5.23 5.417 10.549 6.7724 10.559 6.7754-6.34-10.165-12.469-12.537-12.469-12.537zm-57.381 4.1934c1.03 1.299 1.1797 2.2598 1.1797 2.2598-5.01-0.508-11.5 2.1719-11.5 2.1719 10.01-1.157 13.91 0.90625 13.91 0.90625-0.31999-0.777-0.45898-1.4258-0.45898-1.4258 6.54 2.259 10.26 7.0586 10.26 7.0586 0.3-1.242 0.30079-2.541 0.30078-2.541 1.41 2.146 3.5586 7.2148 3.5586 7.2148l0.92969-2.541 0.85156 3.3047c-2.06 6.664 0.45898 11.576 0.45898 11.576-0.61-9.093 3.4707-12.932 3.4707-12.932-1.36-4.97-5.6602-10.9-5.6602-10.9v2.7949c-1.91-3.332-5.5098-6.1836-5.5098-6.1836 0.53001 1.834 0.44922 3.8965 0.44922 3.8965-6.23-4.49-12.24-4.6602-12.24-4.6602zm48.131 0.47656c-0.67 0.013-1.0606 0.07617-1.0606 0.07617 7.11 1.778 8.5703 6.0156 8.5703 6.0156h-1.25c-1.92-1.864-5.2305-2.6562-5.2305-2.6562 1.65 0.735 3.7207 3.6152 3.7207 3.6152 0.75 13.781 8.1992 10.844 8.1992 10.844-0.66001-0.169-1.2598-0.84766-1.2598-0.84766 3.47-0.282 5.1309-1.6934 5.1309-1.6934 2.06 1.355 6.5586 0.64844 6.5586 0.64844-5.73-0.903-9.05-6.323-13.58-11.63v-0.002c-3.39-3.982-7.8088-4.4061-9.7988-4.3691zm-113.64 0.229c-14.266 4.315-20.623 15.983-22.736 20.557s-3.4708 5.0275-6.5898 5.4785c-3.119 0.452-5.7828-2.2611-7.0918-3.9551-1.307-1.694-0.55078-5.082-0.55078-5.082-2.716 6.438 1.1062 9.4878 6.0352 11.465 4.929 1.976 5.6833 2.766 6.4883 7.002 0.804 4.236 3.4961 6.8047 3.4961 6.8047-0.604 5.082 3.318 7.9072 5.834 12.199 2.515 4.291 1.5104 14.346 1.1094 16.826-0.403 2.49-0.91381 8.5896 3.1172 9.5996 4.032 1.02 15.693-6.77 27.061-13.211 11.367-6.439 15.695-3.3887 15.695-3.3887-1.082-3.587-6.3145-4.6016-6.3145-4.6016l1.5625 1.9199c-3.924-0.735-7.3965 0.45117-7.3965 0.45117 1.006 0.452 1.6094 1.2441 1.6094 1.2441-4.275-0.114-7.2441 1.4648-7.2441 1.4648 1.259 0.34 1.8125 0.96289 1.8125 0.96289-4.755 0.28-7.1953 2.3672-7.1953 2.3672 1.208 0.34 1.1602 0.74023 1.1602 0.74023-3.421 0.05-6.2871 2.541-6.2871 2.541 1.107 0 0.95508 0.44922 0.95508 0.44922-0.352 0.17-12.274 7.1701-14.789 6.8301-2.515-0.32999-1.6113-7.0605-1.6113-7.0605 0.302 0 0.95703 1.0801 0.95703 1.0801 1.006-3.73-0.30078-8.0215-0.30078-8.0215l1.5078 1.752c0.402-3.84-1.9629-8.6445-1.9629-8.6445l2.1641 1.0195c-1.409-4.52-5.784-8.928-6.84-11.186-1.056-2.259-0.354-4.289-0.354-4.289-3.522-2.937-3.22-7.398-3.22-7.398-1.91-3.275-0.502-6.777-0.502-6.777-0.854-1.807-0.706-6.27-0.706-6.27l2.1621 3.3887c-0.351-2.204-0.25-8.4707-0.25-8.4707l1.3086 1.4121c0.151-3.332 1.2559-5.9316 1.2559-5.9316l0.90625 1.6953c0.603-2.429 3.2715-6.6641 3.2715-6.6641l0.40039 1.3555c2.917-5.422 12.072-9.6562 12.072-9.6562zm-31.818 14.1c-0.22406-0.008-0.43838-0.006-0.64062 0.0039-0.971 0.048-1.6504 0.26367-1.6504 0.26367 5.13-0.282 6.6406 4.1797 6.6406 4.1797l0.50195-1.5273c-1.266-2.286-3.283-2.864-4.852-2.92zm-17.588 7.7266c-0.441-0.012-0.90096 0.0074-1.377 0.06641 0 0 2.7647 1.0155 3.7207 2.1445 0 0 1.1812 0.05589 2.8672-0.53711 0 0-2.1269-1.5898-5.2109-1.6738zm4.959 3.4648c-2.888 0.064-6.4883 1.2285-6.4883 1.2285 4.98 1.751 8.4238 0.5957 8.4238 0.5957-0.451-0.565-0.75195-1.7793-0.75195-1.7793-0.371-0.043-0.77059-0.05392-1.1836-0.04492zm136.36 0.06641c-3.99 6.622 0.1289 12.664 0.1289 12.664-0.03 6.626 5.9395 10.281 5.9395 10.281-2.21 1.75-5.6797-0.56641-5.6797-0.56641 2.91 8.132 12.09 6.4082 12.09 6.4082s7.0302-3.4301 11.16-2.4141c4.12 1.017 9.8096-1.0156 16.35-2.7656 6.53-1.751 13.98 1.8047 13.98 1.8047-8.87-7.18-20.27-2.0869-25.1-1.2969-4.83 0.791-8.6504-3.332-8.6504-3.332-0.1 1.241 1.0996 3.1621 1.0996 3.1621-5.83 0.733-7.3398-2.6562-7.3398-2.6562-3.52 0.79-5.3301-2.8203-5.3301-2.8203-2.87-0.904-3.4688-4.2363-3.4688-4.2363-3.17-1.187-3.0703-5.3086-3.0703-5.3086-3.77-3.444-2.1094-8.9238-2.1094-8.9238zm31.834 1.6875c-3.3625 0.0515-6.552 1.2827-5.877 5.9902-0.02-0.165-0.78092-6.2672 12.789-4.9062v-0.002c-0.015-0.0055-3.5496-1.1335-6.9121-1.082zm-189.7 1.873 0.0039062 0.0059c0.0014091-0.002 0.0024974-0.0039 0.0039062-0.0059h-0.0078125zm105.72 15.996c-4.4 0.102-10.664 3.6728-19.672 8.3848-9.607 5.027-16.096 3.9531-16.096 3.9531 6.817 2.344 13.859-0.19702 19.996-3.416s12.352-5.7344 12.352-5.7344c-0.05 1.582 0.24922 1.2434 0.44922 2.3164s-0.54961 1.5797-0.59961 2.4277c-0.05 0.847 1.0508 1.9199 1.0508 1.9199-0.75-2.712 1.7598-3.2188 1.7598-3.2188-1.71-5.365 1.6602-5.3652 1.6602-5.3652l-0.0508-1.2441c-0.27-0.024-0.55961-0.03044-0.84961-0.02344z" transform="matrix(.80001 0 0 .80001 0 -.00057679)"/>
  <path fill="#fff" d="m151.31 33.478c-0.96001-0.0688-0.98401 0.2032-0.98401 0.2032 0.86401 7.5897 5.6321 3.7496 5.6321 3.7496l-0.68001-0.76881c-0.304 1.1984-2.84 1.56-3.344-0.2032-0.50401-1.7616 0.78401-2.0776 0.74401-2.484-0.04-0.4072-0.40001-0.4296-1.368-0.49681zm4.9201 8.9657c2.72 3.0016 2.736 10.209 2.656 11.836-0.08 1.6256-0.72801 4.3817 1.848 4.3369 2.576-0.0456 1.288-4.9233 1.288-4.9233-1.688-8.8105-5.7921-11.25-5.7921-11.25zm10.504 2.528s-4.432 3.2072-4.312 6.8673c0.12 3.6592 3.144 2.7552 3.424 0.81201 0.28001-1.9416 0-3.704 0.88801-7.6793zm-13.072 5.8857c-0.68801 1.4016-2.056 2.2592-2.056 2.688 0 0.4296 0 0.2264 0.584 0.79201 0.58401 0.56401 1.752 1.3552 2.192-0.54241 0.44801-1.8976-0.57601-2.8912-0.72001-2.9376zm2.856 0.72241c-1.432 1.4056-2.152 2.28-2.128 2.8856 0.024 0.60561 0.90401 1.0224 1.44 1.1128 0.544 0.0904 1.152-0.4064 1.336-1.5816 0.17601-1.1744-0.648-2.4168-0.648-2.4168zm10.824 4.5905c-0.74401 0.83601-2.056 1.5584-2.456 1.784-0.408 0.2272-0.264 0.60961-0.264 0.60961 0.62401 2.2816 2.136 1.4456 2.136 1.4456 0.60001 2.7552 2.032 1.3328 2.032 1.3328 0.65601 2.332 1.488 2.1472 2.496 1.22 1-0.92561 0.52001-3.0496 0.52001-3.0496-0.42401 0.61041-2.336 1.1744-2.336 1.1744 0.78401-1.1064 0.32-2.62 0.32-2.62-1.064 0.94801-2.592 1.1968-2.592 1.1968 0.66401-1.5808 0.144-3.0936 0.144-3.0936zm-77.489 7.8457 0.2 1.3088-1.816 0.99521c2.216 2.5304 14.688 3.0272 14.688 3.0272-9.6561-2.3496-13.072-5.3313-13.072-5.3313z"/>
 </g>
</svg>
