<?xml version="1.0" encoding="UTF-8" standalone="no"?>
<svg xmlns:rdf="http://www.w3.org/1999/02/22-rdf-syntax-ns#" xmlns="http://www.w3.org/2000/svg" xml:space="preserve" height="147.46" width="127" version="1.1" xmlns:cc="http://creativecommons.org/ns#" xmlns:dc="http://purl.org/dc/elements/1.1/" viewBox="0 0 126.99836 147.45404"><g><path d="m6.107 1.1972c-1.344 0-2.6073 0.52466-3.5592 1.4753-1.4215 1.4201-1.8135 3.4863-1.1751 5.2663l-0.3003 0.29828v5.0849l3.519 3.5169 0.00806-0.01012v45.033c0 10.681 1.7947 21.023 5.1071 30.629l-5.2462 5.2481 1.8219 1.4511c1.2164 0.96998 2.4764 1.8845 3.7829 2.7409 0.0038 0.002 0.01024 0.008 0.01411 0.0101 0.50305 0.32892 1.013 0.64921 1.5277 0.96136 0.01419 0.008 0.02612 0.0185 0.04031 0.0262 0.50692 0.3057 1.0185 0.60318 1.5358 0.89082 0.01935 0.0103 0.0391 0.0206 0.05845 0.0322 0.51208 0.28378 1.0302 0.55859 1.5539 0.8243l0.06449 0.0363c0.03482 0.0181 0.06925 0.0344 0.10279 0.0524 10.244 19.772 27.402 35.019 48.411 41.333l1.7534 0.52804 0.13302-0.0322 0.21565 0.0565 1.824-0.55022c15.904-4.7829 29.607-14.685 39.768-27.795h11.115v-11.21l-2.4266-2.4246c6.6016-12.779 10.318-27.442 10.315-42.807v-57.141h-109.36l-3.5291-3.5279h-5.0728l-0.29828 0.29627c-0.5506-0.1863-1.1259-0.2865-1.7192-0.2865z"/><path d="m6.1074 3.3398c-0.7401-0.0002-1.4818 0.2834-2.0469 0.8477-1.1299 1.1299-1.1299 2.9619 0 4.0918l-0.8457 0.8457v3.311l1.377 1.375 1.8184-1.821 13.096 13.096c-2.381 2.702-4.501 5.599-6.344 8.652l2.344 2.342c2.874-4.919 6.503-9.42 10.805-13.342 3.267-2.976 6.83-5.536 10.615-7.652l-2.356-2.354c-3.393 1.966-6.613 4.271-9.609 6.903l-13.096-13.102 1.817-1.8142-1.381-1.379h-3.299l-0.8477 0.8477-0.002-0.002c-0.5652-0.5649-1.3048-0.8456-2.0449-0.8457zm9.1136 3.5254l3.363 3.3638h101.99v51.634c0 13.844-3.2 27.076-8.91 38.717l2.51 2.5c6.25-12.335 9.76-26.443 9.76-41.217v-54.998l-108.71 0.0002zm-8.4769 8.4888v46.509c0 10.073 1.6309 19.837 4.6509 28.942l2.671-2.672c-2.576-8.304-3.959-17.155-3.959-26.27v-43.148l-3.3629-3.361zm59.432 1.91c-9.991-0.174-19.337 2.723-27.135 7.816l12.609 12.606c3.563-1.759 7.459-2.825 11.496-3.108 0.911-0.064 1.828-0.086 2.731-0.07 7.253 0.126 14.258 2.812 19.719 7.56 0.688 0.599 1.363 1.237 2 1.899 5.75 5.954 8.839 13.778 8.693 22.035-0.081 4.615-1.178 9.093-3.178 13.146l12.609 12.608c4.79-7.337 7.65-16.064 7.81-25.455 0.46-26.572-20.777-48.571-47.35-49.037h-0.004zm-26.881 0.193c-3.87 2.078-7.505 4.64-10.818 7.658-4.273 3.893-7.839 8.397-10.616 13.323l1.578 1.574c2.334-4.259 5.278-8.194 8.772-11.682v0.004l17.525 17.523 4.09-4.087-14.484-14.487-2.811-2.81c2.62-2.09 5.417-3.903 8.35-5.432l-1.586-1.584zm-11.086 16.877v2.18l13.437 13.435 1.088-1.09-14.525-14.525zm37.127 4.346c-4.312 0-8.387 1.021-11.996 2.834-0.158 0.078-0.315 0.159-0.473 0.242l-3.57 3.57-28.479 28.479h6.061l10.486-10.489h3.487 11.128 0.004 3.026v0.002 0.002l-0.016 0.049c-0.218 0.725-0.523 1.412-0.898 2.059-1.898 3.253-5.654 5.386-9.821 5.386h-9.861l-17.326 17.331-4.92 4.917c6.104 4.685 13.564 7.748 21.779 8.468 1.223 0.1 2.462 0.16 3.684 0.16 10.379 0 20.352-3.869 28.092-10.895 3.726 5.069 9.731 8.363 16.49 8.363 1.724 0 3.397-0.213 4.996-0.615l-9.387-9.389c8.501-4.488 14.297-13.412 14.297-23.693 0-14.791-11.99-26.781-26.781-26.781h-0.002zm25.598 44.197c-0.948 1.388-2.014 2.708-3.192 3.943-0.17 0.178-0.342 0.355-0.517 0.53l27.275 27.27h-6l-22.809-22.806v2.182l22.169 22.164h8.18v-8.18l-25.005-25.001-0.101-0.102zm-81.737 13.158l-1.5235 1.526c7.1422 5.679 15.97 9.399 25.724 10.259 11.695 1.02 22.794-2.25 31.739-8.494 4.637 3.844 10.586 6.154 17.078 6.154 3.537 0 6.911-0.69 10-1.93l-1.662-1.67c-2.606 0.94-5.413 1.46-8.338 1.46-6.553 0-12.514-2.57-16.932-6.76-7.966 6.01-17.634 9.28-27.648 9.28-1.342 0-2.703-0.06-4.047-0.17-9.233-0.81-17.6-4.31-24.391-9.655zm56.145 7.535l-3.404 10.48h-0.002-11.012l8.906 6.47h0.006l-3.406 10.47 8.91-6.47h0.002l8.912 6.47-3.404-10.47h-0.004l8.908-6.47h-11.008v-0.01l-3.404-10.47zm-47.145 2.68c10.099 18.07 26.235 31.92 45.793 37.8l1.211 0.36 0.088-0.02 0.141 0.04 1.256-0.38c15.536-4.67 28.912-14.37 38.824-27.21l-2.4-2.4c-9.512 12.47-22.402 21.88-37.391 26.39l-0.365 0.11-0.028-0.01h-0.012l-0.355-0.11c-17.462-5.25-32.079-17.15-41.818-32.79-0.227-0.07-0.455-0.14-0.682-0.22-0.034-0.01-0.069-0.01-0.102-0.02-0.26-0.09-0.519-0.17-0.777-0.26-0.013 0-0.027-0.01-0.041-0.01-0.279-0.1-0.558-0.2-0.834-0.29-0.017-0.01-0.034-0.02-0.051-0.02-0.265-0.1-0.526-0.19-0.791-0.29-0.014-0.01-0.031-0.01-0.047-0.02-0.278-0.11-0.557-0.21-0.832-0.32-0.004 0-0.005-0.01-0.009-0.01-0.261-0.1-0.519-0.21-0.776-0.32h-0.002z" fill="#d4bf91" transform="translate(0 -.001091)"/><path d="m65.322 24.506c-0.9 0-1.808 0.03-2.705 0.09l0.76 7.822c0.645-0.037 1.3-0.059 1.949-0.059 0.196 0 0.393 0.003 0.588 0.008 0.486 0.008 0.973 0.027 1.455 0.057l0.768-7.82c-0.692-0.048-1.387-0.079-2.082-0.092-0.244-0.004-0.488-0.006-0.733-0.006zm-5.174 0.328c-1.835 0.233-3.646 0.588-5.416 1.062l2.256 7.528c1.286-0.334 2.594-0.59 3.92-0.768l-0.76-7.822zm10.456 0.012l-0.77 7.826c1.322 0.182 2.631 0.439 3.914 0.777l2.264-7.523c-1.771-0.48-3.577-0.842-5.408-1.08zm-18.247 1.759c-2.113 0.707-4.164 1.584-6.132 2.624l5.88 5.882c0.823-0.36 1.659-0.684 2.51-0.974l-2.258-7.532zm26.03 0.04l-2.266 7.529c1.258 0.433 2.487 0.94 3.684 1.523l3.677-6.945c-1.648-0.815-3.353-1.521-5.095-2.107zm7.283 3.271l-3.678 6.947c1.146 0.668 2.251 1.404 3.313 2.209l4.951-6.101c-1.462-1.122-2.996-2.144-4.586-3.055zm6.506 4.623l-4.955 6.107c0.659 0.584 1.303 1.196 1.916 1.831 0.308 0.319 0.607 0.645 0.902 0.974l6.041-5.031c-0.419-0.475-0.852-0.941-1.295-1.399-0.832-0.861-1.709-1.698-2.609-2.482zm5.484 5.789l-6.039 5.033c0.813 1.058 1.556 2.156 2.227 3.289l6.902-3.771c-0.921-1.576-1.952-3.096-3.09-4.551zm4.27 6.731l-6.897 3.769c0.59 1.189 1.102 2.41 1.539 3.658l7.498-2.365c-0.59-1.732-1.31-3.424-2.14-5.062zm2.88 7.429l-7.503 2.367c0.341 1.274 0.604 2.568 0.793 3.883l7.81-0.871c-0.24-1.822-0.61-3.619-1.1-5.379zm1.36 7.846l-7.813 0.869c0.064 0.939 0.091 1.885 0.073 2.836-0.005 0.374-0.02 0.746-0.039 1.119l7.829 0.658c0.03-0.545 0.05-1.092 0.06-1.64 0.03-1.29-0.01-2.572-0.11-3.842zm-8 7.295c-0.166 1.312-0.406 2.608-0.725 3.881l7.555 2.16c0.46-1.763 0.79-3.562 1-5.385l-7.83-0.656zm-1.414 6.264c-0.314 0.948-0.673 1.881-1.072 2.796l5.876 5.881c1.11-2.089 2.03-4.271 2.75-6.519l-7.554-2.158z" transform="translate(0 -.001091)"/></g></svg>
