<svg xmlns="http://www.w3.org/2000/svg" height="232.26" width="205.22" viewBox="0 0 205.2207 232.26465">
 <g transform="matrix(4.5 0 0 4.5 .83850 1.1615)">
  <path fill="#1c3c34" d="m0 0v8.2793h2.5391v18.721h-2.5391v8.2793h13.211v10.201l5.6797 5.6895h18.689l5.6797-5.6895v-18.221h1.9004v-7.5195h-12.07v7.5195h1.9102v14.83l-0.83008 0.83984h-11.85l-0.83008-0.83984v-6.7695h4.7207l6.1387-6.1406v-11.811l-2.1387-2.1387 1.6191-1.9102v-7.1406l-5.25-6.178h-26.58zm10.82 8.2793h11.93l0.81055 0.95117v1.0488l-0.81055 0.95117h-11.93v-2.9512zm0 11.23h12l0.53906 0.55078h-12v7h-0.5l-0.03906-7.5508zm12.57 0.60938 0.68945 0.69141v4.9395l-0.68945 0.68945v-6.3203z"/>
  <path fill="#ffb819" d="m0.65039 0.65039v7h2.5293v20h-2.5293v7h13.209v10.6l5.3105 5.3105h18.15l5.2988-5.3105v-18.641h1.9004v-6.2285h-10.779v6.2285h1.8906v15.75l-1.2109 1.2109h-12.359l-1.2109-1.2109v-7.6895h5.0996l5.7715-5.7695v-11.26l-2.3809-2.3711 1.8594-2.1797v-6.6699l-4.9199-5.7695h-25.629zm9.5196 6.9805h12.83l1.199 1.3691v1.5293l-1.199 1.352h-12.83v-4.25zm0 11.229h12.83l1.6797 1.6699v5.4707l-1.68 1.679h-2.1992v-0.75977h1.8984v-6.2207h-10.699v6.2305h1.9004v0.75976h-3.7305v-8.8301z"/>
  <path fill="#1c3c34" d="m1.7598 1.7598v4.7598h2.541v22.281h-2.541v4.75h23.721l5.1094-5.1113v-10.34l-2.7793-2.7695 2.25-2.6504v-5.8496l-4.3008-5.0703h-24zm7.291 4.7598h14.51l1.75 2.0605v2.3496l-1.75 2.0703h-14.51v-6.4805zm0 11.23h14.459l2.3301 2.3301v6.4004l-2.3301 2.3203h-14.459v-11.051zm25.809 3.75v3.9902h1.8906v17.33l-1.8691 1.8691h-13.291l-1.8594-1.8691v-8.1504h-4.7598v10.119l4.6602 4.6504h17.219l4.6602-4.6504v-19.299h1.8906v-3.9902h-8.541zm-21.779 0.32031v3.9902h1.8906v1.8691h4.7598v-1.8691h1.8887v-3.9902h-8.5391z"/>
 </g>
</svg>