<?xml version="1.0" encoding="UTF-8" standalone="no"?>
<svg xmlns:rdf="http://www.w3.org/1999/02/22-rdf-syntax-ns#" xmlns="http://www.w3.org/2000/svg" xml:space="preserve" version="1.0" xmlns:cc="http://creativecommons.org/ns#" xmlns:dc="http://purl.org/dc/elements/1.1/" viewBox="0 0 232.95 119.92"><path fill="#005bbb" d="m213.12 77.026v-0.229c9.31-1.724 17.93-7.931 17.93-18.159 0-14.595-13.1-21.606-28.73-21.721l-36.3-0.328v-20.914c0-3.248 1.28-5.117 4.53-5.117h13.01v-10.642l-58.95 0.000257v10.641h14.74c3.25 0 4.52 1.87 4.52 5.117v20.915h-75.165v11.399h14.95c3.272 0 4.561 4.765 4.561 8.036v17.112c-28.008 0-31.608-13.988-31.608-25.882v-31.579c0-3.248 3.44-5.117 6.688-5.117h11.761v-10.642l-75.057 0.000257v10.642h14.348c3.247 0 4.526 1.869 4.526 5.117v31.074c0 25.608 26.524 35.625 69.341 35.625v21.396c0 3.37-1.983 5.16-5.155 5.16h-12.914v10.67l131.36 0.29c0.81 0 31.61 1.61 31.61-22.522 0-11.837-8.97-18.848-20-20.342zm-47.1-24.003v-4.438h20.01c9.96 0 16.78 2.558 16.78 11.675 0 8.096-8.71 12.49-16.78 11.529h-29.69c6.74-5.036 9.68-12.572 9.68-18.766zm-40.63-4.438h18.49v5.902c0 7.251-4.53 17.235-18.49 17.235v-23.137zm61.44 59.745h-61.44v-25.185l61.44 0.016c8.04 0 17 2.327 17 14.54 0 9.799-12.16 10.629-17 10.629z"/></svg>
