<?xml version="1.0" encoding="UTF-8" standalone="no"?>
<svg xmlns:rdf="http://www.w3.org/1999/02/22-rdf-syntax-ns#" xmlns="http://www.w3.org/2000/svg" xml:space="preserve" height="56.123" viewBox="0 0 230.3187 56.122601" width="230.32" version="1.1" xmlns:cc="http://creativecommons.org/ns#" xmlns:dc="http://purl.org/dc/elements/1.1/"><g transform="matrix(1.25 0 0 -1.25 -623.88 311.58)"><g transform="matrix(.75 0 0 .75 148.53 57.198)"><path d="m242.11 50.303c-6.155 0-11.348 5.5144-12.555 11.266-1.3888 6.6325 2.6613 10.68 7.2363 10.594 4.8975-0.095 7.2252-5.347 7.6289-6.4258l-0.0469-0.0039c-1.6775 2.7688-4.1811 3.7559-5.2773 3.7559-4.645 0-4.6864-4.608-3.6914-8.293 1.3738-5.0925 3.5297-8.2559 6.6797-8.2559 1.14 0 2.7815 0.80742 3.1465 4.4512l0.0664 0.0078c0.30125-0.84625 1.8047-5.7207 1.8047-5.7207-1.4925-0.825-3.0109-1.375-4.9922-1.375zm42.662 0.11328c-4.3538 0.0075-7.1581 2.4587-7.5469 6.3887-0.205 2.0838 0.37969 3.4511 2.4297 5.6211 2.1912 2.3162 2.5208 2.8841 2.3945 4.1641-0.15125 1.5188-1.583 3.6271-3.2305 3.6309-1.6262 0.0012-3.6144-0.99953-4.0156-4.1758l-0.0469-0.0078-1.0859 4.7324c1.34 0.77125 3.2506 1.1854 5.2344 1.1816 4.1975-0.0075 7.5662-3.0825 7.9824-7.2812 0.22375-2.2612-0.315-3.5712-2.2812-5.5625-2.4112-2.4362-2.7466-2.9403-2.6328-4.1016 0.11-1.1025 1.1913-2.8862 2.9863-2.7812 1.445 0.085 2.4684 1.3428 3.0234 4.3203l0.0547 0.0078 1.1055-5.0762c-1.3488-0.6825-2.7748-1.0643-4.3711-1.0605zm-20.82 0.334l-0.0371 0.0078-1.9766 3.2578 0.0586 0.02539c1.235-0.75375 2.2266-1.0671 3.5254-1.0684 0.46375-0.0012 1.7557 0.02773 2.4394 0.14648l-4.0059 14.01c-0.735 2.555-1.2302 3.4299-2.5352 4.5137l0.01 0.04492h7.3027l0.0195-0.0625c-0.44875-0.87625-0.55859-1.278-0.49609-1.918 0.0537-0.53625 0.28179-1.5473 0.59179-2.5898l4.0137-14.098 1.5215-0.002c1.0362-0.0025 1.6447 0.31195 2.3047 1.252l0.0664-0.002 1.9395-3.4414-0.0332-0.01758c-1.01 0.17375-1.2948 0.20398-3.5273 0.20898l-8.7148 0.01367c-1.015 0.0025-1.8943-0.08125-2.4668-0.28125zm-90.426 0.26758-0.0176 0.0625c0.46625 0.935 0.55984 1.2916 0.49609 1.9316-0.0563 0.56625-0.24359 1.398-0.58984 2.5605l-3.3633 11.617c-0.74 2.565-1.2063 3.3486-2.5488 4.4648l0.01 0.03125 6.8516 0.002c4.6088-0.01 5.1703-0.05258 6.6641-0.83008 1.7612-0.89625 3.0876-3.1017 3.3301-5.543 0.26625-2.71-0.64758-4.2551-2.9863-4.5488 1.3638-0.27 2.1201-0.6293 2.8926-1.4043 0.99875-0.985 1.7626-2.7121 1.9238-4.3496 0.17875-1.7862-0.80774-3.1838-2.1777-3.6562-0.9475-0.2975-1.1523-0.34289-4.0098-0.33789h-6.4746zm15.277 0-0.0195 0.0625c0.46625 0.93125 0.55859 1.2604 0.49609 1.9004-0.0588 0.595-0.24429 1.4293-0.59179 2.5918l-3.3594 11.586c-0.74 2.565-1.2351 3.4066-2.5488 4.4941l0.006 0.0332h15.979l0.0137-0.04687c-0.44375-0.615-0.52219-0.82383-0.49219-1.1426 0.0488-0.47625 0.40633-1.2206 1.3926-2.8594l1.2402-2.1172 5.9473-0.01172 0.0664 2.9766v0.50781c0.02 0.3275 0.0165 0.62383-0.01 0.89258-0.06 0.6125-0.32265 0.98226-1.2852 1.7598l0.0137 0.04102h12.742l0.0176-0.06055c-0.45-0.8525-0.55789-1.3002-0.49414-1.9414 0.0575-0.59375 0.2286-1.2805 0.58985-2.5918l1.4805-5.0625 0.92187 3.959c0.73 3.0338 1.0644 4.0453 1.6894 4.7578 0.67 0.7725 1.4727 1.0995 3.2227 1.0957 0.865-0.0025 1.0028-0.0033 2.5703-0.20703l0.0137-0.04687c-0.8925-0.9225-1.4998-2.4145-3.1523-7.7832l-0.7168-2.3789c1.5475-0.03375 2.4048-0.36352 3.2598-1.1973 0.99875-0.98375 1.8206-2.7993 1.9668-4.5293 0.1775-2.095-0.69149-3.3619-1.709-4.0156-0.82625-0.50375-1.9158-0.66977-4.207-0.66602h-6.6543l-0.0176 0.0625c0.4675 0.92875 0.55859 1.2057 0.49609 1.8457-0.0588 0.59375-0.24555 1.4298-0.5918 2.5898l-3.3613 11.588c-0.515 1.7925-0.90047 2.7439-1.543 3.5352-0.14751-0.46375-0.1961-1.0603-0.2461-2.1641l-0.94531-17.457h-6.3984l-0.008 0.03711c0.53375 0.52125 0.72805 1.0191 0.6543 1.7754-0.0712 0.71625-0.30688 1.2814-1.0469 2.5039l-7.2402 12.01c-0.1225 0.2075-0.23891 0.40219-0.34766 0.58594l0.0156-0.03906c-0.98501 1.13-1.8901 1.4467-3.9238 1.4492-1.34 0.005-2.0204-0.14414-2.9004-0.61914l1.8086-6.3672 1.5195-0.0039c1.51-0.0025 1.7503 0.14055 1.8828 1.3418l0.0312 0.0039 1.3438-4.6582-0.0312-0.01367c-0.57125 0.1975-1.0929 0.25656-2.1504 0.25781l-1.7012 0.0039 1.9277-6.3848c3.4875 0 4.8002 0.13742 5.0664 1.6074l0.0332 0.0078 0.94141-3.498h-11.656zm63.859 0-0.01 0.03711c0.53625 0.52125 0.72859 1.0204 0.65234 1.7754-0.07 0.71625-0.30617 1.2814-1.0449 2.5039l-7.2402 12.012c-1.9825 3.3262-2.1502 3.5312-3.2715 4.3125l0.006 0.0293h5.084l0.0137-0.04883c-0.4425-0.615-0.52149-0.82383-0.49023-1.1426 0.0475-0.47625 0.40312-1.2226 1.3906-2.8613l1.2402-2.1152 5.9473-0.0098 0.0664 2.9766 0.002 0.50586c0.0187 0.3275 0.0152 0.62383-0.01 0.89258-0.0637 0.61375-0.33562 0.98352-1.2969 1.7598l0.0137 0.04297h7.0547l0.0137-0.04883c-0.6-0.828-0.69-1.236-0.78-3.163l-0.94531-17.457h-6.3945zm-29.799 2.0645c1.5438-0.0025 2.0155 1.072 1.873 2.502-0.22751 2.2925-1.9371 5.101-3.6621 5.1035-0.155 0.0012-0.39914-0.02664-0.68165-0.05664l2.1875-7.5469 0.28321-0.002zm-43.93 0.002h0.28516c1.545-0.0025 2.0143 1.07 1.873 2.5-0.22875 2.2925-1.5999 3.8764-3.3262 3.8789-0.15375 0-0.38211-0.02914-0.66211-0.05664l1.8301-6.3223zm75.732 2.6309 0.17383 6.8164-4.1719 0.0059 3.998-6.8223zm-48.076 0.08984 0.17383 6.8164-4.1699 0.0078 3.9961-6.8242zm-29.777 6.2793c1.8525-0.0025 2.8651 1.2141 2.6738 3.1504-0.22126 2.2325-1.8741 4.256-3.8828 4.2598-0.51375 0.0012-0.81804-0.06008-1.3418-0.23633l2.0547-7.1113c0.21125-0.06125 0.31485-0.0625 0.4961-0.0625z" transform="matrix(.8 0 0 -.8 468.66 254.88)" fill="#e00122"/><path d="m116.69 0c-13.15 0-24.242 11.781-26.815 24.064-2.97 14.171 5.6819 22.814 15.453 22.629 10.46-0.20125 15.435-11.419 16.295-13.723l-0.10157-0.01367c-3.5825 5.9162-8.9295 8.0273-11.27 8.0273-9.9188 0-10.008-9.8422-7.8867-17.711 2.935-10.879 7.5447-17.641 14.273-17.641 2.4325 0 5.9425 1.721 6.7188 9.5098l0.13867 0.01563c0.65-1.808 3.87-12.216 3.87-12.216-3.19-1.7621-6.44-2.941-10.67-2.941zm-89.282 0.0019531c-13.151 0-24.239 11.779-26.814 24.064-2.969 14.169 5.6816 22.814 15.453 22.627 10.471-0.198 15.439-11.435 16.293-13.722l-0.10742-0.01367c-3.5812 5.9125-8.9217 8.0273-11.262 8.0273-9.92 0-10.009-9.8416-7.8867-17.713 2.935-10.878 7.5452-17.639 14.271-17.639 2.435 0 5.942 1.7217 6.7207 9.5117l0.13867 0.01563c0.645-1.8088 3.8574-12.217 3.8574-12.217-3.185-1.7625-6.4341-2.9414-10.664-2.9414zm226.3 0.54102-0.084 0.017578-4.0644 7.1309 0.13672 0.056641c2.6488-1.6162 4.782-2.2891 7.5644-2.2891 0.995 0 4.9498 0.066719 6.416 0.32422l-8.8398 30.176c-1.5975 5.525-2.6647 7.4112-5.4922 9.75l0.0215 0.07422h15.709l0.0371-0.13672c-0.95375-1.8875-1.1927-2.7248-1.0527-4.1035 0.1125-1.1525 0.60859-3.3365 1.2773-5.584l8.8633-30.371h3.2598c2.225 0 3.5284 0.68609 4.9434 2.7148l0.13867-0.00391 3.9844-7.5313-0.0684-0.037109c-2.17 0.371-2.79 0.4346-7.58 0.4346h-19.883c-2.1775 0-4.0623-0.18734-5.291-0.62109zm-212.15 0.62113-0.04 0.1367c0.99875 2.01 1.1954 2.7184 1.0566 4.0996-0.1275 1.2862-0.52859 3.0834-1.2773 5.5859l-7.2578 24.973c-1.5925 5.5275-2.6551 7.3455-5.4863 9.748l0.02148 0.07422h15.707l0.03711-0.13477c-1-1.9438-1.1922-2.7223-1.0547-4.1035 0.1225-1.2175 0.54359-3.209 1.2773-5.584l7.259-24.972c1.5938-5.5275 2.6076-7.4075 5.4863-9.75l-0.01953-0.072266h-15.709zm17.643 0-0.03125 0.11523c0.99875 1.4812 1.3121 2.6198 1.1621 4.1211-0.13 1.2862-0.53375 3.0834-1.2812 5.5859l-7.2539 24.973c-1.595 5.5275-2.6563 7.3455-5.4863 9.748l0.01953 0.07422h11.064l0.03711-0.13672c-0.95625-1.8875-1.1934-2.7216-1.0547-4.1016 0.12375-1.2175 0.50359-2.8215 1.2773-5.584l5.8945-20.221 4.6562 17.525c2.8012 10.656 4.8384 12.518 11.193 12.518h3.4727l-1.3926-4.3008 11.713-40.316h-8.4512l-0.03906 0.13477c1 1.9475 1.1941 2.7216 1.0566 4.1016-0.13 1.2862-0.51875 2.9547-1.2812 5.5859l-5.64 19.326-5.998-23.433c-0.54125-2.3125-0.98562-4.4948-1.1406-5.7148h-12.498zm71.396 0-0.0391 0.13672c0.9975 2.01 1.1941 2.7184 1.0566 4.0996-0.1275 1.2862-0.52985 3.0834-1.2774 5.5859l-7.2578 24.973c-1.5938 5.5275-2.6551 7.3455-5.4863 9.748l0.0215 0.07422h15.707l0.0391-0.13477c-1.0012-1.9438-1.1941-2.7223-1.0566-4.1035 0.1225-1.2175 0.54555-3.209 1.2793-5.584l7.2539-24.973c1.59-5.5087 2.6027-7.3946 5.459-9.7246l-0.0254-0.097656h-15.674zm18.123 0-0.0312 0.11523c0.9975 1.4812 1.3102 2.6198 1.1602 4.1211-0.13 1.2862-0.53054 3.0834-1.2793 5.5859l-7.2559 24.973c-1.5938 5.5275-2.6544 7.3455-5.4844 9.748l0.0195 0.07422h11.064l0.0391-0.13672c-0.95625-1.8875-1.1959-2.7216-1.0547-4.1016 0.1225-1.2175 0.50164-2.8215 1.2754-5.584l5.8945-20.221 4.6562 17.525c2.8012 10.656 4.8371 12.518 11.193 12.518h3.4727l-1.3945-4.3008 11.715-40.316h-8.4512l-0.0371 0.13477c0.99875 1.9475 1.1934 2.7216 1.0547 4.1016-0.13 1.2862-0.5168 2.9547-1.2793 5.5859l-5.63 19.326-6-23.433c-0.54125-2.3125-0.98813-4.4948-1.1406-5.7148h-12.498zm38.047 0-0.0312 0.11523c0.9975 1.4812 1.3082 2.6211 1.1582 4.1211-0.12625 1.2862-0.52914 3.0834-1.2754 5.5859l-7.2578 24.973c-1.5938 5.525-2.6563 7.3461-5.4863 9.7461l0.0215 0.07813h11.064l0.037-0.13672c-0.9575-1.89-1.1947-2.7248-1.0547-4.1035 0.1225-1.2188 0.5011-2.824 1.2774-5.584l5.8965-20.221 4.6523 17.523c2.7238 10.359 4.7256 12.406 10.672 12.514-0.001 0.0012-0.003 0.0066-0.006 0.0078h11.5l0.0312-0.10742c-0.94625-1.3212-1.1201-1.7766-1.0488-2.4629 0.10125-1.0275 0.87289-2.6321 2.9941-6.1621l2.668-4.5605h12.768l0.13281 6.4199v1.0938c0.0375 0.7075 0.0309 1.3463-0.0254 1.9238-0.13375 1.33-0.69711 2.1032-2.7871 3.7832l0.0195 0.07227h15.15l0.0293-0.10742c-1.2875-1.7838-1.4841-2.6119-1.6641-6.7656l-1.9688-37.746h-14.207l-0.0254 0.087891c1.1462 1.1262 1.5629 2.2658 1.4004 3.8945-0.15375 1.5412-0.66266 2.7581-2.2539 5.3906l-15.584 25.871c-2.0162 3.3888-3.1586 5.2712-4.0586 6.5l-0.46289-1.4277 11.713-40.316h-8.4512l-0.0371 0.13672c1.0012 1.9475 1.1947 2.7209 1.0547 4.0996-0.12625 1.2862-0.5168 2.9547-1.2793 5.5859l-5.6367 19.326-6-23.434c-0.5425-2.3112-0.98883-4.4961-1.1426-5.7148h-12.496zm101.96 0-0.0391 0.13672c0.99875 2.01 1.1954 2.7184 1.0566 4.0996-0.1275 1.2862-0.52859 3.0834-1.2773 5.5859l-7.2578 24.973c-1.5925 5.5275-2.6551 7.3455-5.4863 9.748l0.0215 0.07422h15.707l0.0371-0.13477c-1.0012-1.9438-1.1922-2.7223-1.0547-4.1035 0.1225-1.2175 0.5436-3.209 1.2774-5.584l7.2559-24.973c1.59-5.5087 2.604-7.3946 5.459-9.7246l-0.0273-0.097656h-15.672zm-53.959 10.371 0.3789 14.73h-8.9551l8.5762-14.73z" transform="matrix(.8 0 0 -.8 468.66 254.88)"/></g></g></svg>
