<?xml version="1.0" encoding="UTF-8" standalone="no"?>
<svg xmlns:rdf="http://www.w3.org/1999/02/22-rdf-syntax-ns#" xmlns="http://www.w3.org/2000/svg" enable-background="new 0 0 137.173 53.314" xml:space="preserve" height="54.314" viewBox="0 0 138.17373 54.314" width="138.17" version="1.1" y="0px" x="0px" xmlns:cc="http://creativecommons.org/ns#" xmlns:dc="http://purl.org/dc/elements/1.1/"><g transform="translate(.48730 .51394)"><path fill="#ccc" d="m136.58 50.114-10.773-9.471 6.691-4.162c1.57-0.979 0.832-3.074-0.654-3.354-0.033-0.006-3.227-0.555-8.383-1.3l-2.953-5.587-2.43-0.313-0.801-2.224c1.777 0.141 2.814-1.959 2.787-3.527 2.947-0.885 4.859-2.958 5.803-4.273 0.617-0.787 0.582-1.621 0.275-1.785 2.773-1.516 4.193-3.826 4.518-4.419 0.555-1.096 0.102-2.054-0.256-2.271 1.914-2.248 2.393-4.587 2.451-4.953 0.162-2.02-1.42-2.855-2.967-2.24-5.531 2.282-12.682 3.591-19.619 3.591h-33.66l-1.785-1.958h-16.471l-1.785 1.958h-25.787c-13.465 0-17.543-1.958-22.559-3.631-2.342-0.883-3.064 1.465-2.865 2.282 0.059 0.367 0.539 2.705 2.451 4.95-0.576 0.532-0.688 1.399-0.258 2.27 0.326 0.594 1.742 2.887 4.49 4.402-0.195 0.378-0.213 1.056 0.303 1.803 0.943 1.315 2.854 3.391 5.803 4.275-0.057 1.662 1.191 3.698 2.789 3.552-0.08 0.231-0.174 0.507-0.27 0.784l-2.051 0.294-3.846 6.87c-5.779 0.82-9.406 1.444-9.443 1.451-1.719 0.324-2.076 2.474-0.654 3.354l6.691 4.162-10.773 9.47c-1.137 1.068-0.641 3.504 1.559 3.168 0.385-0.076 38.918-7.548 66.436-7.548s66.047 7.495 66.438 7.548c2.102 0.28 2.749-2.024 1.556-3.168z"/><path fill="#036" d="m122.75 40.393 8.781-5.464s-3.5-0.605-9.25-1.424l-2.945-5.568-2.602-0.342-1.357-3.766c-0.543-1.51 0.238-2.184 1.063-2.184 0.594 0 0.986 0.287 0.986 0.287 1.424-1.072 0.537-3.182 0.537-3.182 4.031-0.361 6.211-3.633 6.461-3.973 0.107-0.146-0.045-0.228-0.045-0.228-1.668-0.161-2.266-0.991-2.266-0.991 4.645-0.632 6.711-4.313 6.941-4.737 0.143-0.259-0.109-0.194-0.109-0.194-1.387 0.275-3.023 0.016-3.023 0.016 4.189-2.048 5.041-5.917 5.127-6.459 0.09-0.542-0.438-0.271-0.438-0.271-5.055 2.091-12.359 3.74-20.342 3.74h-34.467l-1.785-1.958h-14.857l-1.783 1.958h-26.596c-13.283 0-18.184-1.978-23.18-3.74 0 0-0.525-0.271-0.438 0.271s0.938 4.412 5.13 6.46c0 0-1.639 0.259-3.023-0.016 0 0-0.252-0.064-0.111 0.194 0.232 0.424 2.299 4.105 6.943 4.737 0 0-0.598 0.83-2.266 0.991 0 0-0.154 0.082-0.047 0.228 0.252 0.34 2.434 3.611 6.463 3.973 0 0-0.887 2.109 0.537 3.182 0 0 0.455-0.287 0.986-0.287 1.094 0 1.479 0.971 1.061 2.184l-0.805 2.336-2.26 0.323-3.848 6.871c-6.365 0.89-10.285 1.569-10.285 1.569l8.781 5.464-12.623 11.094s38.768-7.582 66.787-7.582c28.021 0 66.787 7.582 66.787 7.582l-12.62-11.094z"/><path fill="#c00" d="m118.53 40.149 6.254-3.89s-28.096-4.859-56.203-4.859c-28.109 0-56.203 4.859-56.203 4.859l6.256 3.89-8.41 6.675s28.852-5.593 58.357-5.593 58.357 5.593 58.357 5.593l-8.408-6.675z"/><path fill="#fff" d="m14.35 6.3125c-0.03587 0.0075-0.06914 0.036141-0.05664 0.11914 0.025 0.167 3.4646 3.722 9.6836 4.75 0 0-3.396 0.19173-6.334-0.32227 0 0-0.191-0.05791-0.125 0.12109 0.074 0.197 2.2435 2.4269 7.8945 3.5039 0 0-0.99219 0.6253-3.9922 0.6543 0 0-0.2147 0.00039-0.0957 0.15039 0.135 0.174 2.4546 1.4608 5.6426 1.2188l-0.25977 1.207h-2.0391l1.9531 4.5254-2.0762 5.4727-2.7852 0.43555-2.2969 4.7285c5.35-0.709 11.918-1.4884 19.09-2.1484l1.6035-4.4355-4.8516 0.35742 1.4414-3.9492 9.043-0.39648 3.5957-4.9551-10.809 0.39453 1.2754-4.6328h6.7949l-0.50195 1.9473h8.4219l0.98633-6.2148h-25.742s-9.3477-0.10839-15.387-2.5254c0 0-0.03834-0.013359-0.07422-0.00586zm109.91 0.2051c-0.0359-0.00725-0.0762 0.00586-0.0762 0.00586-5.334 2.135-12.982 2.3223-14.961 2.3223h-13.5l1.3887 4.2676h1.8125l4.4219 12.654-7.0742-0.70508-3.4805-11.949h1.8594l-1.3105-4.2676h-13.617l1.0703 4.2676h2.2969l2.8652 11.719c0.973 3.987 5.0944 5.1482 11.943 5.8262l7.4102 0.73438c7.896 0.78 10.766 1.0625 8.5938-3.8535l-3.4688-7.8535c-0.375-0.86 0.13259-1.3555 0.93359-1.3555 0.793 0 1.2708 0.47861 1.4648 0.97461 0.033 0.088 0.11133 0.02539 0.11133 0.02539 0.881-1.449-1.2988-2.6172-1.2988-2.6172 3.186 0.242 5.5036-1.0448 5.6406-1.2188 0.117-0.151-0.0937-0.15234-0.0937-0.15234-3-0.029-3.9961-0.65234-3.9961-0.65234 5.652-1.078 7.8215-3.3069 7.8945-3.5039 0.066-0.179-0.125-0.12109-0.125-0.12109-2.936 0.515-6.332 0.32031-6.332 0.32031 6.219-1.028 9.6566-4.583 9.6816-4.75 0.0125-0.083-0.0188-0.10994-0.0547-0.11719zm-63.641 0.066406-12.172 19.145-2.6523 0.25-1.3887 4.252c3.85-0.299 7.8164-0.55147 11.816-0.73047l3.4961-6.2227h12.24l3.1895 6.0176c3.885 0.099 7.7815 0.27862 11.605 0.51562l-1.585-4.472-2.795-0.195-10.51-18.561h-11.246zm5.6621 3.9746 3.8379 7.1602h-8.0391l4.2012-7.1602zm4.8496 22.922-2.9883 0.01367-0.94336 4.3594-0.50781 0.002v1.1465l2.123-0.01172 0.23242-1.3398 1.1602-0.0078 0.24414 1.3398 2.1113-0.01172v-1.1445l-0.4668 0.0039-0.96484-4.3496zm1.2129 0.03906v2.0332l1.3262 0.04687v-0.88867l0.68945 0.02344v3.207l-0.44922-0.01367v1.1445l2.7656 0.09766v-1.1465l-0.44727-0.01367v-3.209l0.69141 0.02148v0.89062l1.3242 0.04492v-2.0312l-5.9004-0.20703zm-10.305 0.08984-2.9883 0.10547-0.94336 4.3848-0.50586 0.01758v1.1465l2.1211-0.07422 0.23242-1.3477 1.1582-0.03906 0.24414 1.3301 2.1113-0.07227v-1.1465l-0.468 0.016-0.963-4.321zm16.951 0.0957v1.1465l0.4375 0.02148v3.209l-0.4375-0.02148v1.1445l4.8984 0.25781v-2.1172l-1.7539-0.09375v0.97461l-0.83789-0.04492v-3.209l0.43945 0.02344v-1.1445l-2.7461-0.14648zm-23.17 0.20312c-0.1835-0.0071-0.37419 0.0022-0.55469 0.01172l-3.4844 0.18359v1.1445l0.43945-0.02148v3.209l-0.43945 0.02148v1.1465l3.5332-0.18555c0.555-0.029 1.197-0.07081 1.5-0.63281 0.154-0.281 0.16406-0.61422 0.16406-0.94922v-2.5723c0-0.448-0.0076-1.0356-0.64258-1.2676-0.1555-0.058-0.33212-0.08077-0.51562-0.08789zm30.232 0.19531-0.94336 4.2871-0.50781-0.03516v1.1465l2.1211 0.14648 0.23438-1.3223 1.1582 0.08008 0.24219 1.3574 2.1133 0.14648v-1.1445l-0.4668-0.03125-0.96484-4.4219-2.9863-0.20898zm-35.234 0.06641-2.7852 0.19336v1.1465l0.44922-0.03125v3.209l-0.44922 0.03125v1.1426l2.7852-0.19336v-1.1465l-0.45703 0.03516v-3.209l0.45703-0.0332v-1.1445zm18.814 0.2207 0.42969 2.3027-0.86914 0.0059 0.43945-2.3086zm21.471 0.06055v1.1465l0.44922 0.03711v3.209l-0.44922-0.03906v1.1426l2.1328 0.18945v-3.002l1.8789 3.166 2.1895 0.18945v-1.1426l-0.44726-0.03906v-3.1875-0.02148l0.44726 0.03906v-1.1465l-2.1035-0.18359v3.0742l-1.8965-3.2383-2.2012-0.19336zm-30.564 0.11523 0.42969 2.291-0.86719 0.0293 0.4375-2.3203zm-14.795 0.02344c-0.22288-0.0155-0.45211 0.0021-0.66211 0.01563l-3.582 0.31445v1.1445l0.43945-0.03906v3.209l-0.43945 0.03906v1.1465l2.3281-0.20312v-2.2363l1.0527-0.0918v1.666c0.01 0.514 0.27924 0.53447 0.99024 0.48047l1.2949-0.11133v-1.1465l-0.45703 0.04102v-0.5918c-0.01-0.249-0.02867-0.50184-0.26367-0.71484-0.205-0.178-0.44545-0.20447-0.68945-0.23047 0.975-0.342 0.98242-0.82178 0.98242-1.5508 0-0.358-0.000141-0.71508-0.36914-0.95508-0.1855-0.1205-0.40212-0.17005-0.625-0.18555zm9.3652 0.48242v3.209l-1.0195 0.05469v-3.209l1.0195-0.05469zm42.896 0.01563v2.0312l1.3262 0.14062v-0.88867l0.68945 0.07227v3.209l-0.44726-0.04687v1.1465l2.7656 0.28906v-1.1445l-0.44922-0.04687v-3.207l0.69141 0.07227v0.88672l1.3242 0.13867v-2.0332l-5.9004-0.61914zm-10.465 0.02539 0.42774 2.334-0.86719-0.06055 0.43945-2.2734zm-48.301 0.04687c-0.15434 0.007-0.31526 0.02181-0.47852 0.03906l-1.3418 0.14258c-0.518 0.055-1.1992 0.12347-1.4902 0.73047-0.146 0.289-0.147 0.608-0.147 0.928v2.6875c0 0.357-0.000359 0.77748 0.43164 1.0215 0.377 0.209 0.94114 0.15633 1.3691 0.11133l1.2461-0.13086c0.594-0.063 1.3947-0.15334 1.6387-0.90234 0.086-0.273 0.08594-0.60788 0.08594-0.92188v-2.2734c0-0.451-0.000125-0.81698-0.20312-1.084-0.24225-0.31425-0.6483-0.36866-1.1113-0.34766zm5.6387 0.60938v1.0918l-1.0508 0.08984v-1.0898l1.0508-0.0918zm59.709 0.0293v1.1445l0.44726 0.05469v3.209l-0.44726-0.05469v1.1445l2.7852 0.34375v-1.1465l-0.45703-0.05664v-3.207l0.45703 0.05469v-1.1445l-2.7852-0.3418zm-71.793 0.06055-2.7461 0.33594v1.1465l0.4375-0.05469v3.209l-0.4375 0.05469v1.1445l4.8965-0.59961v-2.1191l-1.752 0.21289v0.97461l-0.83594 0.10352v-3.209l0.4375-0.05273v-1.1465zm-3.5059 0.48047-5.0039 0.61328v1.1465l0.45898-0.05664v3.209l-0.45898 0.05469v1.1445l2.7852-0.3418v-1.1426l-0.4375 0.05273v-1.1758l1.4121-0.17383v-0.99609l-1.4121 0.17383v-1.0371l1.0215-0.125v0.59961l1.6348-0.20312v-1.7422zm9.3965 0.01367v3.209l-1.0234 0.10547v-0.0059-3.2012l1.0234-0.10742zm70.623 0.06055c-0.25775 0.01675-0.49605 0.08259-0.68555 0.24609-0.293 0.253-0.29297 0.58806-0.29297 0.91406v2.9141c0 0.382 0.0143 1.0055 0.9043 1.3125 0.273 0.087 0.54713 0.1193 0.82813 0.1543l0.0273 0.0039 2.7969 0.34375v-2.0254l-1.6641-0.20312v0.87891l-1.0234-0.12695v-3.209l1.0234 0.12695v0.62891l1.5859 0.19531v-1.7734l-2.6973-0.33203c-0.2675-0.0325-0.54499-0.06558-0.80274-0.04883z"/></g></svg>
