<?xml version="1.0" encoding="UTF-8" standalone="no"?>
<svg xmlns:rdf="http://www.w3.org/1999/02/22-rdf-syntax-ns#" xmlns="http://www.w3.org/2000/svg" enable-background="new 0 0 143.856 129.35" xml:space="preserve" height="129.35px" viewBox="0 0 143.856 129.35" width="143.86px" version="1.1" y="0px" x="0px" xmlns:cc="http://creativecommons.org/ns#" xmlns:dc="http://purl.org/dc/elements/1.1/"><g style=""><path fill="#fff" d="m35.439 3.1504v26.254h15.551v43.576l3.151-17.431v-29.295h-15.551v-19.953l67.35-0.0002v19.953h-15.549v24.006l0.853-4.729 2.299-2.191v-13.936h15.547v-26.254l-73.651 0.0004zm45.913 37.508l-3.577 19.799-1.92-19.693h-5.017l-7.225 39.978h5.449l3.452-19.097 2.039 19.195h4.961l7.259-40.182h-5.421zm50.708 0.041l-5.4 5.502-2.16 11.944 3.38 5.687 5.07 0.689-1.69 9.69h-3.89l0.95-5.315h-5.99l-1.13 6.252 3.09 5.719h7.26l5.4-5.469 2.19-12.128-3.32-5.69-5.05-0.75 1.73-9.596h3.86l-1 5.534h5.66l1.16-6.442-3.42-5.627h-6.7zm-109.18 0.024l-7.237 40.045h12.11l1.17-6.471h-6.028l6.069-33.574h-6.084zm-12.285 0.015l-7.2543 40.139h5.9121l7.2522-40.139h-5.91zm47.716 0l-7.254 40.139h5.913l7.252-40.139h-5.911zm57.224 0l-7.25 40.139h5.91l7.26-40.139h-5.92zm-17.155 0.022l-5.953 5.502-5.243 29.009 3.336 5.471h6.862l5.523-5.221 5.25-29.009-3.49-5.752h-6.285zm-57.506 0.025l-7.236 40.045h12.109l1.17-6.473h-6.027l6.068-33.572h-6.084zm57.416 6.461h3.685l-4.878 27.01h-3.69l4.883-27.01zm-7.904 35.252v1.893h3.15v-1.893h-3.15zm-39.401 0.02v1.873h3.151v-1.873h-3.151zm-48.472 3.359l-0.7559 3.873h133.11l0.75-3.873h-133.1zm48.472 5.357v8.711h-15.551v26.255h73.651v-26.255h-15.549c0.001-1.092 0.002-4.271 0.002-8.711h-3.15v11.866h15.547v19.95h-67.35v-19.95h15.551v-11.866h-3.151z"/><path fill="#ef9730" d="m38.59 6.3008v19.953h15.551v29.297l2.972-16.453h8.91l-7.847 43.42h-4.035v1.873h36.25v-1.893h-0.604l-4.047-6.508 4.651-25.73v-24.006h15.549v-19.953l-67.35-0.0002zm41.707 32.615h8.094l-7.87 43.535h-7.209l-1.152-13.303-2.4 13.286h-7.836l7.832-43.334h7.502l0.873 11.8 2.166-11.984zm-26.156 52.318v11.866h-15.551v19.95h67.35v-19.95h-15.549v-11.866h-36.25z"/><path fill="#213f77" d="m32.289 0v32.555h15.553v6.402h-8.131l-7.854 43.451h15.11l0.875-4.838v6.821h-46.782l-1.06 6.843h47.842v5.563h-15.553v32.553h79.951v-32.553h-15.549v-5.563h39.359l1.33-6.843h-40.689v-1.893h0.786l6.623-6.244 5.5-30.459-3.97-6.791h-7.548l-1.391 1.326v-7.775h15.549v-32.555h-79.951zm3.15 3.1504h73.651v26.254h-15.549v13.936l-2.297 2.191-5.504 30.459 4.047 6.508h3.754v1.893h-3.15-39.401v-1.873h7.186l7.847-43.42h-8.91l-6.123 33.882v-43.578h-15.551v-26.252zm44.858 35.768l-2.166 11.982-0.873-11.8h-7.502l-7.832 43.334h7.836l2.4-13.284 1.152 13.303h7.209l7.87-43.535h-8.094zm51.203 0.062l-6.28 6.659-2.4 13.256 4.04 6.376 4.3 0.625-1.21 6.69h-0.81l0.98-5.377-9.02-0.063-1.57 8.692 3.68 6.752h8.6l6.58-6.627 2.41-13.318-3.78-6.69-4.51-0.687 1.11-6.19h0.84l-0.94 5.221h8.76l1.58-8.723-4-6.596h-8.36zm-109.81 0.041l-7.851 43.452h15.107v-0.002l1.75-9.69h-6.025l6.101-33.76h-9.082zm-12.296 0.077l-7.8457 43.42h8.9102l7.846-43.42h-8.9105zm104.94 0l-7.84 43.42h8.91l7.84-43.42h-8.91zm-32.988 1.56h5.421l-7.259 40.182h-4.961l-2.039-19.195-3.452 19.097h-5.449l7.225-39.978h5.017l1.92 19.693 3.577-19.799zm50.718 0.041h6.69l3.42 5.627-1.16 6.44h-5.65l1-5.534h-3.87v0.002l-1.73 9.596 5.05 0.75 3.33 5.69-2.19 12.128-5.41 5.469h-7.26l-3.09-5.719 1.13-6.252h6l-0.96 5.315h3.89l1.69-9.691-5.06-0.688-3.39-5.689 2.16-11.942 5.41-5.502zm-109.18 0.024h6.084l-6.069 33.574h6.028l-1.17 6.471h-12.11l7.237-40.045zm-12.285 0.015h5.91l-7.2522 40.139h-5.9121l7.2543-40.139zm47.716 0h5.911l-7.252 40.139h-5.913l7.254-40.139zm57.224 0h5.92l-7.26 40.139h-5.91l7.25-40.139zm-17.155 0.022h6.285l3.49 5.752-5.25 29.009-5.523 5.221h-6.864l-3.335-5.471 5.242-29.009 5.955-5.502zm-57.506 0.025h6.084l-6.068 33.574h6.027l-1.17 6.471h-12.109l7.236-40.045zm6.963 3.438v28.496h-5.151l5.151-28.496zm50.453 3.023l-4.883 27.01h3.69l4.878-27.01h-3.685zm1.135 1.688h0.81l-3.549 19.623v-4.467l2.739-15.156zm-96.912 36.943h133.1l-0.75 3.873h-133.11l0.7576-3.873zm48.472 5.357h42.551v8.711h15.549v26.255h-73.651v-26.255h15.551v-8.711z"/></g></svg>
