<?xml version="1.0" encoding="UTF-8" standalone="no"?>
<svg xmlns:rdf="http://www.w3.org/1999/02/22-rdf-syntax-ns#" xmlns="http://www.w3.org/2000/svg" xml:space="preserve" height="221.95" viewBox="0 0 316.24331 221.95288" width="316.24" version="1.1" xmlns:cc="http://creativecommons.org/ns#" xmlns:dc="http://purl.org/dc/elements/1.1/"><g transform="matrix(1.25 0 0 -1.25 -189.25 539.93)"><g transform="translate(.65886 .98829)"><path d="m277.09 254.38c-66.569 0-125.7 37.055-125.7 87.98 0 50.926 59.127 87.982 125.7 87.982 66.568 0 125.7-37.056 125.7-87.982s-59.13-87.98-125.7-87.98z" fill="#fff"/><path d="m155.49 342.2c0-46.604 54.296-84.384 121.28-84.384 66.98 0 121.28 37.779 121.28 84.384 0 46.604-54.298 84.386-121.28 84.386-66.98 0-121.28-37.781-121.28-84.386z"/><path d="m150.06 35.658c-78.944 0.087-105.35 47.879-104.94 72.772 4.237-4.8 10.618-9.829 14.571-11.436-7.735 11.206-10.988 21.046-11.019 32.736 4.32-5.44 7.692-7.74 12.078-9.55-6.5448 12.459-6.6521 20.619-6.2773 31.881 4.1815-5.144 7.5145-8.2141 11.09-9.7285 0 0-5.978 14.752-2.8262 30.205 27.826-53.306 71.82-89.539 106.2-94.846-1.6278 2.8174-3.5361 7.1779-3.6953 10.656-0.52675 11.558 8.4089 21.353 19.973 21.881 11.556 0.52488 21.353-8.4176 21.881-19.975 0.19775-4.3414-0.94036-8.4378-3.0527-11.889 3.844 0.64325 8.103 3.4113 11.152 8.291 4.9132 7.868 8.6525 12.581 14.926 13.861 11.78 2.4055 19.996-7.497 19.227-16.916-0.63663-7.6154-4.8921-13.182-8.7207-16.887-20.29-19.62-44.34-28.771-78.54-30.713-4.1398-0.23491-8.1487-0.34605-12.031-0.3418zm109.58 58.992c-11.068 3.7884-39.322 28.409-48.834 46.232 17.697-10.859 60.168-1.9903 55.566 30.793 29.2-19.227 20.071-67.179-6.7324-77.025zm-107.16 0.03906s-5.5515 1.629-13.266 7.248c-8.6341 6.2811-9.6191 10.562-9.6191 10.562 11.417-5.0726 20.734-1.4845 23.643 4.8027 2.912 6.294-1.976 14.832-16.518 20.754-12.286 4.9962-21.83 12.582-22.518 23.855-0.6195 10.113 5.0901 21.495 21.695 24.414 31.401 5.5139 64.867-29.999 65.605-66.07-4.5734 1.9569-11.594 3.3583-16.896 3.1172-16.455-0.75075-29.631-13.034-32.127-28.684zm54.49 58.992c0.22712 12.587 10.206 22.994 22.957 23.574 5.8062 0.26425 11.226-1.6094 15.535-4.8418-13.79 2.4951-19.676-6.4023-17.027-14.273-7.4041-2.2558-18.403-4.1898-21.465-4.459zm-17.965 20.219c-4.3849 0-7.8574 3.5124-7.8574 7.8984 0 4.347 3.4726 7.8574 7.8574 7.8574 4.3664 0 7.8594-3.5104 7.8594-7.8574 0-4.386-3.493-7.8984-7.8594-7.8984zm0 1.8652c3.374 0 5.9941 2.5006 5.9941 6.0332 0 3.4936-2.6201 5.9922-5.9941 5.9922-3.4339 0-5.9922-2.4986-5.9922-5.9922 0-3.5326 2.5583-6.0332 5.9922-6.0332zm-3.1348 1.8457v8.1758h1.8242v-3.4531h1.2715l1.8262 3.4531h1.9844l-1.9844-3.4531c1.4484-0.1 2.2227-0.7139 2.2227-2.2226 0-2.1631-1.2899-2.5-3.1758-2.5h-3.9688zm1.8242 1.4297h1.7676c0.79338 0 1.8457-0.00047 1.8457 0.83203 0 1.0321-0.51657 1.2324-1.4297 1.2324h-2.1836v-2.0644z" transform="matrix(.8 0 0 -.8 147.11 435.57)" fill="#fcd116"/></g></g></svg>
