<svg xmlns="http://www.w3.org/2000/svg" height="211.72" viewBox="0 0 250 211.72499" width="250"><g transform="matrix(1.25 0 0 -1.25 -549.8 212.45)"><g><path d="m576.68 122.99-3.9961-17.833 5.6377-0.46143c1.7659-0.14494 7.7497-0.88441 10.557-4.2741 0.56791-0.68623 2.3012-2.7745 1.3665-7.6639l-7.6728-35.918c-1.8871-8.3146-3.6559-11.444-5.9069-13.804-2.0084-2.1149-5.055-3.2803-8.5779-3.2803-10.039 0-11.503 5.6703-11.722 9.9326-0.10649 1.9611 0.13606 4.5167 0.69806 7.3829l14.266 65.919h-63.76l-4.002-17.836 5.6436-0.45847c1.7511-0.14494 7.6757-0.87258 10.506-4.215 1.5204-1.8014 2.0114-4.1943 1.4878-7.3237l-0.79567-3.9488h-28.848l16.963 79.756h-63.145l-3.9931-17.806 8.2288-0.83413c2.8011-0.52354 6.5399-1.7274 8.3915-4.4664 0.46734-0.69806 1.893-2.81 0.85482-7.5958l-18.416-86.568h73.675l-0.27804-2.39c-0.0444-0.40227-0.0917-0.80454-0.13606-1.2098-0.70102-6.8948-0.10648-13.251 1.7718-18.901 0.31354-1.0412 0.67736-2.035 1.0826-2.9963 4.4546-10.506 13.864-18.442 25.819-21.776 7.4834-2.0853 15.36-3.2359 22.184-3.2359 19.176 0 32.661 4.7859 42.443 15.059 7.5692 7.9597 12.799 18.93 15.976 33.548l15.863 73.199h-62.166z" fill="#0a254e"/><path d="m15.445 11.873l-0.525 2.352c3.69 0.765 8.03 2.215 11.746 4.951 1.823 1.335 3.495 2.975 4.867 4.998 3.258 4.832 4.145 10.772 2.655 17.656l-19.334 90.88-0.954 4.47h101.45 5.03 2.78 4.78 0.25 0.5l14.68-67.838h-5.44-43.018-1.726l-0.536 2.361c3.694 0.762 7.99 2.211 11.68 4.906 1.31 0.954 2.54 2.06 3.64 3.362 3.97 4.688 5.42 10.9 4.2 17.955l-0.02 0.115-2.72 13.519h-7.81-50.097-7.812l0.951-4.48 20.254-95.207h-5.439-42.231-1.801zm164.12 57.467l-0.53 2.363c3.72 0.769 8.05 2.23 11.75 4.951 1.34 0.987 2.59 2.133 3.7 3.471 4 4.829 5.36 11.215 3.94 18.48l-9.63 45.115c-2.54 11.21-5.26 17.23-10.05 22.26-4.54 4.77-11.09 7.4-18.43 7.4-1.45 0-2.82-0.1-4.15-0.25-1.2 0.15-2.42 0.25-3.67 0.25-9.44 0-16.67-3.29-20.94-9.2-1.18-1.63-2.11-3.46-2.83-5.46l0.03 0.09s-1-0.22-2.84-0.28l-5.2-0.19c-0.19-0.01-0.52-0.02-0.94-0.03-0.31 0-0.67-0.01-1.09-0.01-0.73 0-1.51 0.07-2.32 0.16-4.22 0.54-9.19 2.4-11.09 4.91-2.65 3.48-0.87 9.13 0.42 12.18 1.32 3.09 3.09 5.96 5.26 8.54 4.92 5.88 11.88 10.29 20.08 12.58 7.23 2.02 14.74 3.25 21.51 3.57 18.47-0.67 31.55-5.62 40.89-15.44 8.09-8.49 13.74-20.55 17.29-36.85l17.03-78.61h-5.46-40.96-1.77z" transform="matrix(.8 0 0 -.8 439.84 169.96)" fill="#900"/><path d="m64.916 11.873l-20.258 95.207-0.949 4.49h7.816l0.95-4.49 20.254-95.207h-5.438-2.375zm78.464 57.465l-14.69 67.852s-1.11 5.45-1.03 12.08c-0.08-6.65 1.03-12.15 1.03-12.15l-0.38 1.78c-0.9 4.53-1.27 8.55-1.09 11.94 0.15 2.8 0.66 5.36 1.47 7.69l0.04 0.18c0.72 2.01 1.65 3.84 2.83 5.47 4.27 5.91 11.5 9.2 20.94 9.2 1.25 0 2.47-0.11 3.66-0.25-7.4-0.84-13.17-3.94-16.79-8.95-2.56-3.54-4.05-8.02-4.33-13.28-0.18-3.39 0.18-7.4 1.08-11.94l15.07-69.622h-5.45-2.36zm84.38 0.002l-17.04 78.61c-3.54 16.3-9.19 28.36-17.28 36.85-9.34 9.82-22.41 14.77-40.89 15.44 1.15 0.05 2.27 0.09 3.36 0.09 20.86 0 35.27-4.94 45.35-15.53 8.08-8.49 13.74-20.55 17.28-36.85l17.03-78.61h-5.45-2.36z" transform="matrix(.8 0 0 -.8 439.84 169.96)" fill="#fff"/></g></g></svg>
