<?xml version="1.0" encoding="UTF-8" standalone="no"?>
<svg xmlns:rdf="http://www.w3.org/1999/02/22-rdf-syntax-ns#" xmlns="http://www.w3.org/2000/svg" height="112.67pt" width="94.426pt" version="1.1" xmlns:cc="http://creativecommons.org/ns#" xmlns:dc="http://purl.org/dc/elements/1.1/" viewBox="0 0 94.42578 112.67188">
 <g>
  <path d="m24.789 4.8301l-19.974 20.85-0.0005 41 18.696 19.049h-18.696l0.0005 30.051 20.042 20.25h68.308l20.056-20.25v-43.167l-17.282-17.49h17.282v-29.443l-19.988-20.85-68.443 0.0001zm2.031 4.7558h64.381l17.259 18.008v22.767h-25.481v7.168h8.74l16.741 17.168v39.123l-17.274 17.45h-64.34l-17.272-17.45 0.0002-23.341h24.473v-8.155h-7.211l-17.262-17.588 0.0002-37.142 17.246-18.008zm27.526 24.799l15.687 12.275v-12.275h-15.687zm-7.282 10.84v12.304h15.987l-15.987-12.304zm0.02 42.402v12.793h22.949v-4.463h9.225v-4.086h-9.225v-4.244h-22.949z" transform="matrix(.8 0 0 0.8 0 -.0000061035)"/>
  <path d="m27.836 11.969l-15.883 16.582v35.209l15.883 16.187h7.096l7.357-5.244h32.535l8.168 5.918v11.25h-1.361v4.086h1.361v11.853l-8.056 5.8h-32.514l-8.375-6.1v-14.649h-22.094v19.979l15.883 16.05h62.35l15.894-16.05v-37.18l-15.435-15.752h-7.666v3.744h-11.963l-4.873-3.744h-19.079v3.686l-13.017-0.018v-35.234h12.574l4.682 3.666h18.73v-3.666h12.946v19.642h23.101v-19.433l-15.894-16.582h-62.35zm8.59 18.75v30.502h8.262v-20.825l27.132 20.879h8.776v-30.556h-8.18v20.834l-26.615-20.834h-9.375zm6.625 46.367l-6.625 4.717v24.497l6.693 4.94h31.055l6.451-4.64v-8.26h-8.209v4.46h-27.709v-17.55h27.709v4.242h8.209v-7.666l-6.572-4.74h-31.002z" transform="matrix(.8 0 0 0.8 0 -.0000061035)" fill="#c00"/>
  <path d="m23.266 1.2559l-22.022 22.988 0.0001 43.897 13.76 14.017h-13.76l0.0001 35.092 22.129 22.35h71.285l3.49-3.53c0.826 1.11 2.152 1.83 3.642 1.83 2.51 0 4.54-2.03 4.54-4.53 0-1.52-0.75-2.85-1.87-3.68l12.32-12.44v-45.975l-12.17-12.584h12.17v-34.447l-22.024-22.988-71.49-0.0001zm1.523 3.5742h68.443l19.988 20.85v29.443h-17.282l17.282 17.49v43.167l-20.056 20.25h-68.307l-20.042-20.25-0.0005-30.051h18.696l-18.696-19.049 0.0005-41 19.974-20.85zm2.031 4.7558l-17.246 18.008 0.0002 37.142 17.262 17.588h7.211v8.155h-24.473l0.0002 23.341 17.272 17.45h64.34l17.274-17.45v-39.123l-16.741-17.168h-8.74v-7.168h25.481v-22.767l-17.259-18.008-64.381-0.0001zm1.016 2.3831h62.35l15.894 16.582v19.433h-23.101v-19.644h-12.946v3.668h-18.73l-4.682-3.668h-12.574v35.234l13.017 0.02v-3.686h19.079l4.873 3.744h11.963v-3.744h7.666l15.435 15.752v37.18l-15.894 16.05h-62.35l-15.883-16.05v-19.979h22.094v14.649l8.375 6.1h32.514l8.056-5.8v-11.853h-1.361v-4.086h1.361v-11.25l-8.168-5.918h-32.535l-7.357 5.244h-7.096l-15.883-16.187v-35.209l15.883-16.582zm8.59 18.75h9.375l26.615 20.834v-20.834h8.18v30.556h-8.776l-27.132-20.879v20.825h-8.262v-30.502zm17.92 3.666h15.687v12.275l-15.687-12.275zm-7.282 10.84l15.987 12.304h-15.987v-12.304zm-4.013 31.861h31.002l6.572 4.74v7.666h-8.209v-4.242h-27.709v17.55h27.709v-4.46h8.209v8.26l-6.451 4.64h-31.055l-6.693-4.94v-24.497l6.625-4.717zm4.033 10.541h22.949v4.244h9.225v4.086h-9.225v4.463h-22.949v-12.793z" transform="matrix(.8 0 0 0.8 0 -.0000061035)" fill="#fff"/>
 </g>
</svg>
