<?xml version="1.0" encoding="UTF-8" standalone="no"?>
<svg xmlns:rdf="http://www.w3.org/1999/02/22-rdf-syntax-ns#" xmlns="http://www.w3.org/2000/svg" xml:space="preserve" height="101.03" width="136.66" version="1.1" xmlns:cc="http://creativecommons.org/ns#" xmlns:dc="http://purl.org/dc/elements/1.1/" viewBox="0 0 136.66001 101.02875"><g><path d="m133.37 87.054h-3.34l0.28625-1.43 3.245-0.01875 2.1962-12.641h-2.5225c0.4525-0.39125 0.82-0.89625 1.075-1.4875 0.46375-1.0788 0.4775-2.285 0.0525-3.3088-0.17-1.5162-1.1938-2.85-2.565-3.3738-0.8925-0.895-2.1612-1.4138-3.5075-1.4138-0.26 0-0.5225 0.02-0.7725 0.05875-0.33 0.0525-0.725 0.16875-1.1038 0.36125l-4.5238-0.8175c-0.78875-0.595-1.6462-0.73875-2.1088-0.815l-6.1638-1.0025-0.1075-0.01125c-0.38625-0.0425-0.745-0.02875-1.1 0.0325-0.775-0.415-1.5662-0.5325-2.3225-0.58375l-0.2825-0.01875-0.27375 0.0675c-0.4225 0.105-0.94875 0.32625-1.8388 0.7775-1.7875-0.4425-3.58-0.88625-5.2662-1.2988 0.2-2.4038 0.17125-5.65-0.61875-9.4238 0.38375-2.68 0.1575-4.7288-0.1475-6.5475-0.42-2.47-1.9475-4.9088-4.0888-6.52-1.09-0.8225-2.4662-1.56-4.1875-2.2412-0.28625-0.3625-0.68875-0.64125-1.1788-0.8025-0.68625-0.23125-1.37-0.4475-2.0375-0.6475-0.4975-1.0475-1.3962-2.0962-3.2688-2.0112h-0.0038c-0.2025 0-0.2375-0.0038-0.82625-0.76375-0.0375-0.0475-0.07625-0.09625-0.11625-0.1475 0.1825-1.6038 0.44875-4.4 0.58875-7.2725 5.2762-3.3425 8.1062-7.7062 8.4412-9.855 0.07375-0.4825 0.30375-1.95-0.625-3.0338-0.37375-0.435-1.0625-0.95375-2.235-0.95375-0.425 0-0.89125 0.0675-1.4262 0.2075-0.89875 0.23375-2.0088 0.9025-3.2925 1.6738-0.56 0.3375-1.1525 0.69375-1.7225 1.01-0.17625-0.61625-0.31625-1.1162-0.44125-1.5588-0.15-0.54375-0.27875-0.9975-0.41375-1.465-0.02625-0.085-4.2162-8.6875-7.0538-8.705-1.0862 0-1.7425 0.63375-2.1338 1.01-0.31375 0.3025-0.42 0.40625-0.84875 0.4475-0.15625 0-0.45875-0.14375-0.8075-0.31-0.8525-0.405-2.02-0.96125-3.9088-0.96125l-0.17375 0.00125c-2.9362 0.05125-9.5988 7.7775-9.9888 8.8l-0.1575 0.40875c-0.26875 0.70375-0.6075 1.585-1.0062 2.6575-1.655-0.86125-3.3875-1.62-4.945-1.9112-2.815-0.53-6.3588 1.2225-6.405 4.4762-0.05125 3.6638 3.4038 8.4088 10.116 10.66l0.20125 0.39625c0.03125 0.08625 0.045 0.18125 0.065 0.28 0.0675 0.31875 0.1575 0.7525 0.38 1.2225-0.0075 0.435 0.005 0.9625 0.025 1.5175-2.185-0.12-4.5038-0.22375-6.9562-0.19-0.57375 0.005-0.9975 0.1725-1.3 0.37-2.2725 0.1475-5.1688 0.55375-8.1925 2.0638-0.43875 0.11625-0.85625 0.22125-1.26 0.325-2.2362 0.57125-4.1675 1.0638-6.6912 2.2762-3.2625 1.5675-5.24 3.14-6.985 4.5262-0.745 0.59375-1.4475 1.1525-2.1675 1.6375-2.3625 1.585-4.835 3.8388-5.2738 8.52-0.255 2.7075 0.3825 5.335 1.8462 7.5988 0.94625 1.46 2.53 3.3375 4.0625 5.1525 0.76 0.9 1.4838 1.76 2.1138 2.5438l0.03625 0.6075 1.5375 1.6188c1.0962 1.1512 2.2288 2.3412 2.905 3.0975 0.145 0.165 0.30625 0.29625 0.46875 0.39875 0.07375 0.12125 0.1475 0.24625 0.22375 0.37 0.10125 0.33625 0.27375 0.90625 0.45 1.485 0.0825 0.27 0.165 0.5425 0.24125 0.795h-27.242l-2.1775 12.05h1.2412l-0.5475 3.0375h-1.2412l-2.1788 12.05h61.326c1.3388 0 2.545-0.11375 3.6225-0.46125l-0.09875 0.46125h65.123l2.3-13.048z" fill="#fff"/><path d="m77.782 2.876c-0.8525-0.005-1.017 1.2659-2.752 1.4434-1.5112 0.16625-2.2725-1.3059-5.0938-1.2559-1.7938 0.0325-8.0393 6.8515-8.3418 7.6465-0.4225 1.1012-1.0593 2.74-1.873 5-1.9388-1.1-4.3511-2.3702-6.2461-2.7227-1.8788-0.3525-4.2498 0.74383-4.2773 2.7363-0.04 2.8375 2.9934 7.1954 9.5859 9.1504 0.18375 0.37625 0.38898 0.76641 0.55273 1.0977 0.26 0.50875 0.17828 1.1975 0.64453 1.8438-0.06875 0.72875 0.04297 2.7245 0.04297 2.8633-0.31 0.29-0.58211 0.59797-0.81836 0.94922-2.5238-0.13875-5.0881-0.2893-7.9531-0.24805-0.24875 0.0025-0.45547 0.06617-0.44922 0.32617-0.1131 0.0038-0.22604 0.0094-0.33789 0.01563-2.3388 0.1275-5.1515 0.47938-8.084 1.9844-2.9225 0.775-4.952 1.157-7.8145 2.5332-4.5062 2.165-6.4627 4.3764-8.9277 6.0352-2.2688 1.5225-4.1308 3.391-4.4883 7.1973-0.26125 2.7812 0.59211 4.9444 1.5684 6.4531 1.4112 2.1788 4.4923 5.5317 6.4336 8.0117 0.005 0.1475 0.01344 0.34281 0.02344 0.50781 1.3025 1.3775 3.0864 3.2278 4.0352 4.2891 0.0875 0.1 0.26086 0.16445 0.38086 0.18945 0.19625 0.34 0.40414 0.67805 0.61914 1.0293 0.1375 0.47 0.92836 3.0582 1.0684 3.5332 0.15125 0.46375 0.40078 0.88375 0.70703 1.2812h-17.143l-0.59766 3.5957-1.1016-3.5957h-9.6387l-1.5273 8.457h1.2422l-1.1992 6.6309h-1.2402l-1.5293 8.459h10.512l0.5625-3.4863 1.0801 3.4863h17.006l0.71289-4.0625 1.6465 4.4336 2.5781-3.5664-0.57812 3.1953h25.656c3.615 0 5.3898-0.92242 6.7461-4.6387l-0.99805 4.6387h61.4l1.6973-9.2812h-3.5176l0.95508-5.2266h3.2168l1.6738-9.0391h-16.664c0.1475-0.23 0.28539-0.47953 0.40039-0.76953 1.2325-0.08 1.9844-0.59695 2.4082-1.4395 0.44625-0.46625 0.84914-1.0514 1.1816-1.6914 0.325-0.06 0.67485-0.2075 0.9336-0.40625l5.2871 0.96289 0.28124 1.0957 2.5-0.1543 1.373-0.35742c1.3538-0.33375 1.9805-2.1662 1.293-3.375 0.006-1.0738-0.79383-2.0945-1.7988-2.252-0.6475-0.8875-1.8662-1.3357-3-1.1582-0.3175 0.04875-0.75554 0.22688-0.96679 0.48438l-5.7578-1.0391c-0.4275-0.4825-0.96742-0.6182-1.5762-0.7207l-6.1641-1c-0.46375-0.0475-0.85805 0.03461-1.2168 0.22461-0.62125-0.5675-1.2802-0.71273-2.1465-0.77148-0.4175 0.105-1.2369 0.51586-2.0469 0.94336-2.555-0.635-5.1499-1.2765-7.4512-1.834 0.4125-2.9038 0.42188-6.614-0.48438-10.74 0.4325-2.7225 0.17625-4.694-0.09375-6.3027-0.409-2.409-1.978-4.314-3.398-5.383-1.085-0.8175-2.5124-1.5521-4.4199-2.2559 0.0012-0.21375-0.1107-0.41078-0.43945-0.51953-1.875-0.63-3.7658-1.1554-5.5195-1.6191 0.58875-0.18875 1.1896-0.60883 1.6934-1.0488-2.1925 0.44875-2.4896-0.61625-3.7246-2.0625 0.0088-0.07375 0.01664-0.14453 0.02539-0.20703 0.22375-1.8262 0.55914-5.3713 0.68164-8.6426 5.4712-3.1912 8.1749-7.5189 8.4199-9.0977 0.295-1.8962-0.61914-2.1412-2.0566-1.7637-1.375 0.36-4.4872 2.7523-6.6172 3.4473-0.7925-2.7175-1.0879-3.8377-1.4316-5.0215-0.1875-0.6425-4.2155-7.4046-5.3242-7.4121z"/><path d="m53.469 33.307c0.666 0.791 0.305 3.302 0 5.771-0.198 1.605-0.455 3.66-0.795 5.863l4.408 2.68 2.793-0.652c-0.343-4.845-1.794-9.234-1.709-12.26 0.058-0.423 0.127-0.806 0.215-1.154-1.473-0.058-3.499-0.198-4.912-0.248zm30.068 2.757c-0.24 1.574-0.519 2.779-0.869 3.541-0.366 0.883-1.098 1.189-1.563 1.354-0.026 0.134-0.068 0.331-0.097 0.461-0.68 3.111-1.772 5.66-3.119 7.764l2.07 0.814 4.807-2.041c0.235-1.32 0.484-2.586 0.713-3.75 0.62-3.152 2.068-5.887 3.341-6.715-1.218-0.36-3.767-1.065-5.283-1.428zm-31.148 10.631c-0.965 5.609-2.516 11.678-5.135 13.739l2.947 2.23c0.464 0.368 0.813 0.844 1.026 1.398l1.841 1.581c0.752 0.217 1.496 0.947 1.819 1.572l1.31 1.166c0.648 0.786 1.077 2.295 0.549 3.324-0.032 0.954-0.612 1.767-1.58 2.092l-0.061 1.74-0.001 0.027c0.881-0.487 1.934-0.798 3.15-0.798h0.453c0.988-4.585 2.704-11.65 3.775-15.911-1.843 0.348-3.872 0.59-6.086 0.707 2.172-2.962 3.315-6.129 3.506-9.167 0.059-0.973 0.056-1.938 0.006-2.887l-3.051 1.791-4.468-2.604zm25.125 3.051c-1.802 2.618-4.007 4.513-6.276 5.938-1.796 1.13-4.096 2.08-6.896 2.767-1.178 4.274-2.983 11.647-4.363 16.315h19.07c1.444-3.697 3.417-7.319 6.096-11.358-1.899-2.931-1.515-8.418-0.702-13.539l-4.502 1.82-2.427-1.943zm-27.674 21.037c0.282 1.143-0.49 2.293-1.258 3.096-0.139 0.122-0.337 0.563-0.439 0.887h5.759l-2.14-1.729-0.002-0.555-1.92-1.699zm54.04 2.629c-0.61 1.073-1.13 2.245-1.67 3.477 0.44 0.721 1.41 0.964 3.07 1.365 0.4 0.099 0.83 0.182 1.23 0.221-0.63-0.57-1.17-1.42-0.74-2.217-0.74-0.813-1.21-1.364-1.64-2.201-0.1-0.203-0.18-0.421-0.25-0.645zm-49.015 2.131l-0.017 0.094h0.121c0.002-0.003 0.005-0.003 0.008-0.004l-0.075-0.063h-0.002l-0.035-0.027z" fill="#891216" transform="translate(0 -.00062561)"/><path d="m70.283 5.6016c3.038 2.3538-1.487 5.3954-6.396 5.8204 4.055 0.771 11.743-3.5279 6.396-5.8204zm8.076 0.1152c-0.69 0.575-0.555 1.6873 0.219 2.8223 0.67 0.9862 1.746 1.9059 2.969 2.3109-1.575-1.4392-3.37-3.2895-3.188-5.1332zm13.198 7.7502c-3.293 2.936-7.33 5.301-15.205 6.51 4.417 0.007 11.415-1.146 15.205-6.51zm-38.696 1.099c-1.19-0.003-2.035 0.517-2.011 1.338 1.093-1.226 2.741-0.669 5.097 0.491 1.891 0.927 4.224 1.906 6.504 2.476-2.231-0.952-4.938-2.517-6.181-3.131-1.138-0.562-2.696-1.17-3.409-1.174zm30.151 1.395c-2.318 0.587-6.615 0.88-9.451 0.945-5.593 0.129-8.999-0.076-12.356-0.463 2.975 1.095 7.718 1.571 12.578 1.698 3.404 0.088 7.007-0.08 9.588-0.684-0.152-0.675-0.249-1.036-0.357-1.496h-0.002zm-20.557 3.506c-1.385-0.038-2.602 0.318-3.314 1.377 0.433-0.299 1.575-0.958 2.002-1.014-0.042 0.321 0.066 0.575 0.316 0.844 0.179-0.441 0.426-0.738 0.75-0.967 0.002 0.323 0.082 1.011 0.404 1.578 0.283-0.525 0.527-1.186 0.961-1.473-0.045 0.228-0.03 0.571 0.211 1.049 0.393-0.776 0.625-0.965 1.272-0.968-0.881-0.239-1.771-0.403-2.602-0.426zm12.588 9.951c-0.506-0.041-1.141 0.145-1.57 0.211-2.005 0.307-3.257 2.362-5.289 3.144 1.743-0.325 2.283-1.008 2.929-1.64 0.07 0.175 0.309 0.385 0.449 0.549 0.166-0.525 0.324-0.808 0.754-1.352 0.043 0.391 0.149 0.673 0.372 1.053 0.183-0.544 0.317-0.828 0.798-1.346 0.027 0.298 0.2 0.62 0.514 1.129 0.151-0.5 0.314-0.815 0.641-1.232 0.088 0.365 0.274 0.746 0.582 1.046 0.115-0.351 0.22-0.676 0.343-0.853 0.433 0.124 0.855 0.354 1.856 0.092-0.939-0.054-1.388-0.338-1.928-0.67-0.127-0.078-0.282-0.117-0.451-0.131zm4.791 0.018c-0.199 0.045-0.324 0.182-0.494 0.369-0.339 0.368-0.844 0.443-1.399 0.425 0.652 0.163 0.723 0.684 0.403 1.834 0.292-0.243 0.7-0.71 0.806-1.64 0.195 0.134 0.336 0.466 0.434 0.664 0.265-0.413 0.276-0.708 0.252-1.035 0.225 0.012 0.392 0.18 0.609 0.467 0.11-0.21 0.134-0.394 0.098-0.59 0.302-0.028 0.534 0.02 1.012 0.097-0.184-0.152-0.677-0.37-0.78-0.41-0.468-0.18-0.742-0.227-0.941-0.181zm-36.438 30.228c-0.183 0.023-0.372 0.079-0.521 0.186-0.033 0.101-0.015 0.42 0.094 0.529 0.657 0.654 0.845 1.057 0.822 1.685l2.648 2.096c0.495 0.393 0.454 0.698 0.397 0.914l-1.676-1.324c-1.229 0.109-1.807 1.105-1.719 2.146-0.48-0.917-0.062-2.256 1.274-2.498l-1-0.791c-0.391 0.718-0.645 1.216-0.742 1.899-0.089 0.619 0.101 1.311 0.257 1.969l1.508 1.57c-0.042-0.189 0.014-0.348 0.043-0.473-0.473-0.423-0.626-0.942-0.398-1.56 0.099-0.269 0.44-0.777 1.168-1.037-0.089-0.253-0.119-0.402-0.035-0.727 0.141 0.39 0.341 0.691 0.656 0.895-0.868 0.228-1.235 0.631-1.363 1.031-0.285 0.882 0.349 1.016 0.421 1.303 0.088 0.345-0.363 0.849 0.389 1.56 0.454 0.429 1.537 0.364 1.789-0.582 0.14 1.303-1.368 1.467-2.019 0.908l-1.825-1.906c0.477 0.904 0.937 1.83 1.659 2.557l-0.004 0.004c0.847 0.826 1.013 2.383 1.14 3.457 0.278 0.09 0.704 0.067 1.006-0.118 0.204-0.793 0.326-3.144 0.313-4.074v-0.023c1.066 0.107 1.529-0.265 1.705-0.721-0.766-0.726-1.036-1.104-1.34-1.762l5.09 4.506 0.004 1.096 0.683 0.553 0.018-0.532c0.609 0.439 1.818-0.075 1.467-1.066 0.628-0.404 0.132-1.722-0.123-2.016l-1.024-0.91v0.362c-0.025 0.55-1.404-0.411-1.681-1.172 0.57 0.446 1 0.895 1.203 0.812l0.023-0.406c0.019-0.355-0.966-1.226-1.174-1.01l-2.504-2.15c-0.071-0.43-0.388-0.88-0.668-1.094l-3.359-2.541c-0.361-0.274-1.036-0.023-1.348 0.047-0.407-0.666-0.195-1.225-0.769-1.572-0.124-0.03-0.301-0.043-0.485-0.02zm66.734 4.137c-0.19 0.061-0.4 0.168-0.62 0.283 1.08 0.291 1.47 1.011 1.38 1.625 0.36 0.217 0.63 0.53 0.68 0.973 0.05 0.435 0.02 0.879 0.03 1.318 0.02 0.746 0.24 1.328 0.45 1.994 0.03 0.086 0.07 0.193 0.09 0.27 0.07 0.228 0.12 0.454 0.15 0.672 0.39 0.178 0.89 0.428 1.32 0.716 0.44 0.288 0.78 0.596 1.02 0.959 0.29 0.445 0.41 1.089 0.14 1.612-0.17 0.353-0.67 0.73-1.28 0.941 0.89 0.098 1.77-0.33 2.24-0.976 0.25-0.357 0.35-0.752 0.44-1.122-0.44-0.112-0.95-0.288-1.55-0.73 0.56 0.079 1.17 0.177 1.65 0.248 1.28 0.166 2.11-0.066 2.3-0.801 0.7-0.639 1.11-1.476 1.52-2.312 0.78 0.195 1.09-0.171 1.26-0.502-0.18-0.129-0.36-0.189-0.54-0.219l-0.88-0.16c-0.4 0.006-0.45 0.447-0.1 0.752-0.52-0.009-0.84-0.512-0.67-0.897l-1.37-0.265c0.01 0.042 0.03 0.085 0.05 0.129 0.07 0.208 0.16 0.639 0.15 0.882 0 0.868-0.46 1.984-1.19 1.871l-4.02-0.611c-0.01-0.194 0.04-0.363-0.02-0.498l4 0.629c0.49 0.076 0.73-1.017 0.73-1.43 0-0.435-0.19-0.951-0.33-1.504-0.01 0.132-0.03 0.288-0.05 0.469-0.04 0.27-0.26 0.547-0.5 0.61-0.03 0.151-0.05 0.304-0.08 0.507 0.59-0.653 0.74-0.108 0.69 0.162-0.09 0.603-0.68 0.977-0.83 0.348-1.51-0.152-2.03-0.33-2.18-0.953-0.13-0.557 1.12-0.218 2.25-0.061-0.11-0.382-0.19-0.829 0.11-1.23-0.85-0.124-1.93-0.31-1.79-1.041 0.09-0.435 1.37-0.094 2.26 0.059 0-0.064 0.01-0.127 0.02-0.192l-3.48-0.592c-0.59 0.679-1.11 2.029-1.31 3.444-0.54-1.421 0.07-2.809 0.74-3.539l-0.94-0.188c0.3-0.209 0.82-0.305 1.21-0.246l5.62 0.949-1.37 0.235c0 0.71 0.05 1.071 0.14 1.392l1.37 0.266c-0.56-0.783-0.1-2.182 0.92-2.129-0.95 0.387-0.82 1.742-0.33 2.227l1.19 0.251c0.32 0.065 0.49 0.315 0.53 0.573l6.91 1.261 0.22 0.846 1.23-0.076-0.14-0.551 1.26 0.235c0.56 0.09 1.03-1.252 0.29-1.653 0.31-0.586-0.16-1.183-0.47-1.275l-0.8-0.164c-0.02-0.894-2.31-1.634-2.26-0.352l-7.37-1.33c-0.13-0.425-0.34-0.508-0.95-0.605l-6.1-0.993c-0.46-0.072-0.91 0.469-1.19 0.61-0.7-0.35-0.61-1.047-1.85-1.121z" fill="#8a8a8a" transform="translate(0 -.00062561)"/><g><path d="m65.541 19.957c-0.071 0.131-0.137 0.263-0.199 0.4h0.002c-1.014 2.209-0.95 5.051-0.782 6.401-0.714-0.386-1.486-0.812-2.035-1.115-0.826-2.599-1.515-4.292-2.339-4.373-0.729-0.084-1.004 0.687-1.032 1.304-0.096 1.431 0.949 2.848 1.086 3.674 0.289 1.676 1.293 2.188 1.803 2.174 0.316-0.029 0.397-0.538 0.371-1.17 0.399 0.689 0.399 1.624-0.166 1.857-0.279 0.115-0.646-0.008-0.996-0.252-0.095 1.093 0.018 3.922 0.256 4.78 1.141 4.148 5.483 7.644 11.039 8.595v0.002c0.014 0.003 0.026 0.004 0.041 0.008 0.084 0.014 0.169 0.025 0.256 0.037 0.111 0.018 0.222 0.035 0.334 0.049 0.087 0.013 0.174 0.025 0.261 0.035 0.124 0.014 0.247 0.025 0.37 0.037 0.075 0.009 0.151 0.016 0.226 0.024 0.194 0.016 0.384 0.029 0.578 0.039 0.063 0.002 0.123 0.004 0.184 0.008 0.146 0.005 0.294 0.01 0.441 0.013 0.074 0 0.146 0.004 0.221 0.004 0.141 0 0.288-0.001 0.432-0.004 0.066-0.001 0.133-0.002 0.201-0.004 0.208-0.005 0.416-0.014 0.629-0.027 0.293-0.02 1.013-0.21 1.324-0.369 0.229-0.453 0.333-0.652 0.414-0.809-0.194 0.017-0.842 0.038-1.065 0.049-0.172 0.009-0.348 0.013-0.521 0.02-0.074 0-0.152 0.002-0.227 0.002-0.1 0.001-0.198 0.004-0.298 0.004-0.085 0-0.168-0.002-0.25-0.004-0.093-0.001-0.187-0.002-0.282-0.004-0.08-0.002-0.161-0.005-0.242-0.006-0.105-0.004-0.205-0.007-0.308-0.012-0.065-0.001-0.132-0.006-0.196-0.01-0.165-0.007-0.329-0.016-0.486-0.027-0.04-0.001-0.075-0.006-0.113-0.01-0.13-0.008-0.259-0.019-0.385-0.029-0.04-0.004-0.079-0.006-0.119-0.01-0.128-0.01-0.251-0.022-0.369-0.035-0.029-0.004-0.06-0.008-0.088-0.01-0.14-0.016-0.276-0.03-0.408-0.047-0.002-0.001-0.007-0.001-0.01-0.001-0.748-0.095-1.325-0.203-1.6-0.288-0.701-0.207-2.393-0.852-4.621-2.271-1.885-1.209-3.534-2.546-4.414-3.592-0.441-0.509-0.718-3.71-0.498-5.623 0.111 0.591 0.759 4.704 1.281 5.184 1.554 1.432 2.957 2.285 4.442 3.123 1.331 0.763 2.745 1.329 3.691 1.642 0.053 0.018 0.101 0.033 0.152 0.049 0.253 0.08 0.469 0.143 0.627 0.182 0.853 0.192 3.304 0.268 5.026 0.197 0.123-0.006 0.246-0.01 0.369-0.014 0.386-0.015 0.761-0.027 1.117-0.045 0.01-0.002 0.025-0.002 0.035-0.003 0.14-0.007 0.273-0.015 0.404-0.024 0.014-0.002 0.03-0.004 0.043-0.004 0.917-0.069 1.631-0.201 1.924-0.553 0.487-0.848 0.759-2.578 1.043-4.843-0.653-0.17-1.309-0.364-1.953-0.551-0.085-0.024-0.167-0.047-0.252-0.07-0.154-0.047-0.308-0.091-0.459-0.133-0.279-0.079-0.555-0.157-0.826-0.225-0.174 0.005-0.343 0.014-0.504 0.024-0.031 0.002-0.062 0.004-0.094 0.007-0.126 0.009-0.25 0.02-0.369 0.032-0.022 0.004-0.049 0.004-0.074 0.006v0.002c-3.423 0.352-3.875 1.767-5.361 1.63-0.277-0.021-1.01-0.105-1.543-0.826-0.244 0.026-0.513 0.047-0.809 0.053-1.457 0.044-3.576-0.161-5.406-1.813 4.746 1.128 5.6-2.809 8.928-3.302 0.065-0.017 0.13-0.029 0.191-0.041-0.043-0.159-0.065-0.351-0.059-0.584 0.045-1.023 0.996-1.872 1.502-1.852 0.173-0.395 0.398-0.879 0.789-1.435-0.081 0.565-0.132 1.115-0.107 1.504 0.33 0.128 0.584 0.507 0.57 0.886-1.641-1.625-2.734 2.054-0.896 1.174 0.069-0.009 0.144 0.024 0.238 0.076 0.006 0.004 0.011 0.007 0.018 0.01 0.073 0.046 0.161 0.104 0.259 0.172 0.02 0.012 0.04 0.025 0.061 0.039 0.02 0.012 0.039 0.024 0.061 0.039 0.026 0.017 0.053 0.033 0.08 0.049 0.02 0.012 0.041 0.025 0.062 0.039 0.03 0.016 0.059 0.033 0.092 0.051 0.021 0.01 0.042 0.022 0.064 0.035 0.035 0.019 0.073 0.035 0.11 0.053 0.021 0.011 0.042 0.021 0.064 0.031 0.059 0.027 0.123 0.051 0.188 0.076 0.007 0.002 0.014 0.007 0.021 0.008 0.06 0.021 0.12 0.041 0.184 0.058 0.025 0.009 0.051 0.014 0.076 0.022 0.049 0.012 0.101 0.025 0.152 0.035 0.032 0.008 0.062 0.013 0.092 0.018 0.051 0.008 0.104 0.017 0.156 0.023 0.034 0.004 0.07 0.006 0.106 0.01 0.055 0.005 0.109 0.01 0.168 0.012 0.035 0.002 0.072 0.001 0.109 0.001 0.065 0 0.131-0.002 0.199-0.003 0.034-0.003 0.067-0.002 0.102-0.006 0.102-0.007 0.212-0.019 0.322-0.035 0.644-0.098 0.853-0.553 0.834-0.93 1.35 0.424 0.129-2.373-0.072-1.328-0.449-1.296-0.789-2.122-1.623-3.571 0.105-0.101 0.2-0.199 0.297-0.289 0.002-0.003 0.006-0.008 0.009-0.011 0.044-0.043 0.088-0.083 0.133-0.125 0.004-0.003 0.009-0.008 0.014-0.01 0.096-0.09 0.196-0.178 0.301-0.266 0.003-0.003 0.008-0.005 0.011-0.008 0.048-0.038 0.094-0.076 0.143-0.115 0.016-0.011 0.031-0.024 0.047-0.037 0.039-0.03 0.081-0.06 0.125-0.092 0.02-0.015 0.039-0.031 0.06-0.045 0.043-0.031 0.088-0.062 0.131-0.093 0.377-0.26 0.872-0.556 1.594-0.948-0.735 0.609-1.13 0.969-1.43 1.299-0.001 0.001-0.001 0.005-0.003 0.006-0.054 0.06-0.106 0.119-0.155 0.178-0.007 0.009-0.015 0.015-0.021 0.023-0.048 0.059-0.095 0.117-0.143 0.18-0.006 0.009-0.014 0.018-0.019 0.025-0.048 0.063-0.094 0.124-0.143 0.192-0.006 0.008-0.013 0.017-0.018 0.023-0.051 0.07-0.103 0.143-0.158 0.219 0.551 0.934 0.896 1.539 1.373 2.539 0.024-0.014 0.047-0.022 0.071-0.027 0.363-0.074 0.955 0.893 1.021 1.617 0.043 0.475 0.039 0.865-0.197 1.066 0.195 0.034 0.404 0.107 0.631 0.227 0.547 0.295 1.008 0.596 1.406 0.898 0.241-2.123 0.48-5.726 0.545-7.174 0.01-0.252 0.019-0.535 0.027-0.826-0.454 0.029-0.913 0.12-1.363 0.252 0.325 0.183 0.573 0.465 1.033 1.141-0.391-0.063-0.503-0.05-0.822-0.028l-0.563 1.17-2.56-0.941c-0.02 0.012-0.038 0.023-0.057 0.035 0.073-0.1 0.149-0.2 0.231-0.299 1.085-1.347 2.919-2.694 4.127-2.644 0.002-0.092 0.004-0.177 0.004-0.256-1.892 0.661-3.966 0.994-6.219 1.035-0.055 0.001-0.112 0.001-0.168 0.002-0.599 0.007-1.211-0.005-1.836-0.037-0.056-0.004-0.112-0.009-0.168-0.01-0.628-0.037-1.27-0.093-1.924-0.168-0.056-0.005-0.117-0.012-0.176-0.019-0.654-0.079-1.32-0.174-2-0.289-0.063-0.012-0.127-0.021-0.191-0.034-0.675-0.116-1.365-0.252-2.065-0.402-0.077-0.017-0.153-0.033-0.232-0.051-0.348-0.077-0.697-0.156-1.051-0.24-0.645-0.16-1.167-0.294-1.617-0.418zm-13.902 13.707c-0.573 0.014-1.15 0.037-1.731 0.078-3.627 0.246-7.525 1.418-9.892 4.383 0.2-0.866 0.325-1.4 0.802-1.957-7.875 1.827-11.296 5.992-14.097 7.766-2.785 1.761-3.392 3.821-3.575 5.486-0.265 2.431 0.381 4.368 1.909 6.426 0.128-0.62 0.285-1.263 0.695-2.061-0.012 1.385 0.096 2.512 0.625 3.738-0.021-2.207 0.168-4.064 0.924-6.146-0.024 3.379 0.266 5.729 1.219 8.672 0.581 0.705 1.229 1.48 1.796 2.181 0.35-3.936 3.686-5.356 6.717-5.011 0.017 0 0.034 0.002 0.049 0.006 0.108 0.011 0.214 0.025 0.32 0.043 0.018 0.002 0.038 0.006 0.057 0.009 0.093 0.017 0.184 0.033 0.275 0.053 0.018 0.004 0.036 0.007 0.055 0.01 0.104 0.024 0.208 0.048 0.311 0.074 0.001 0 0.001-0.001 0.004 0 0.319 0.084 0.65 0.188 0.978 0.326-0.139-0.02-0.317-0.04-0.512-0.06h-0.006c-0.143-0.017-0.299-0.028-0.462-0.039-0.02-0.003-0.041-0.003-0.061-0.004-0.145-0.009-0.29-0.016-0.441-0.02h-0.014c-0.133-0.002-0.267-0.001-0.4 0-0.032 0-0.059-0.001-0.09 0h-0.041c-4.17 0.105-6.138 2.623-5.928 5.985 0.373 0.375 0.713 0.734 1.227 1.388 0.03-0.866 0.227-1.927 0.584-2.734 0.795-1.793 1.823-2.944 3.236-3.326 0.522-0.143 1.059-0.149 1.568-0.098 0.088 0.009 0.175 0.019 0.26 0.031 0.019 0.003 0.038 0.007 0.057 0.008 0.108 0.015 0.214 0.033 0.318 0.051 0.01 0.002 0.019 0.003 0.027 0.006 0.094 0.017 0.187 0.035 0.276 0.052 0.031 0.005 0.06 0.012 0.09 0.018 0.07 0.015 0.137 0.03 0.205 0.041 0.201 0.045 0.39 0.083 0.56 0.111 0.019 0.003 0.037 0.006 0.053 0.008 0.06 0.01 0.118 0.018 0.172 0.026 0.019 0.001 0.036 0.004 0.053 0.005 0.068 0.008 0.134 0.01 0.193 0.01 0.476-0.006 0.829-0.044 1.264-0.088-2.14-1.79-2.947-4.057-4.2-6.613-0.03-0.026-0.062-0.05-0.093-0.076-0.142-0.119-0.286-0.232-0.43-0.346-0.058-0.044-0.113-0.085-0.17-0.129-0.137-0.103-0.276-0.206-0.416-0.306-0.046-0.032-0.092-0.066-0.137-0.098-0.183-0.128-0.371-0.255-0.558-0.375-0.034-0.02-0.066-0.039-0.1-0.061-0.155-0.097-0.313-0.192-0.473-0.285-0.027-0.017-0.056-0.035-0.086-0.052v0.003c-1.638-0.938-3.412-1.548-5.318-1.718 0.594-0.199 1.144-0.316 1.674-0.366 0.027-0.003 0.054-0.008 0.082-0.009 0.141-0.013 0.282-0.017 0.422-0.02 0.05-0.001 0.098-0.002 0.146-0.002 0.129 0 0.258 0.005 0.387 0.014 0.049 0.004 0.099 0.008 0.147 0.012 0.14 0.011 0.281 0.027 0.421 0.048 0.032 0.005 0.064 0.009 0.094 0.014 0.165 0.026 0.331 0.06 0.498 0.096 0.006 0.001 0.011 0.001 0.018 0.004 0.18 0.04 0.364 0.086 0.549 0.138 0.045-0.142 0.057-0.359 0.041-0.613-0.014-0.27-0.059-0.573-0.131-0.891-0.036-0.166-0.077-0.335-0.127-0.494 0.901 0.638 1.51 1.812 1.808 2.598 1.033 0.484 2.063 1.149 3.071 1.967 1.253-0.462 3.01-1.226 4.045-2.131-0.04-0.188-0.073-0.381-0.102-0.574-0.007-0.055-0.015-0.109-0.021-0.162-0.022-0.153-0.039-0.309-0.055-0.465-0.004-0.05-0.009-0.097-0.014-0.147-0.016-0.2-0.031-0.4-0.041-0.601-0.001-0.039-0.002-0.075-0.004-0.114-0.006-0.168-0.01-0.337-0.011-0.507-0.018-1.765 0.223-3.519 0.496-4.588 0.683 5.304 2.261 10.288 5.039 14.152 1.957-4.18 3.166-12.018 3.927-18.728 0.115-1.017 0.293-2.179 0.18-3.241-0.014-0.133-0.085-0.43-0.187-0.781zm8.293 0.512c-0.328 0.943 0.077 3.177 0.332 4.453 0.576 2.887 1.189 6.404 1.3 8.904 0.053 1.226 0.071 2.517-0.168 4.395-0.211 1.661-0.934 3.909-1.871 5.711 2.37-0.267 6.087-0.959 8.995-2.358 3.74-1.797 6.241-4.391 7.761-6.662-2.751 1.735-5.558 2.775-9.07 3.471 2.871-1.219 5.797-2.449 8.279-4.526 1.801-1.505 2.813-2.783 3.215-3.968-0.914 0.406-1.321 0.429-2.803 0.509-0.153 0.009-0.307 0.014-0.461 0.018-0.067 0.001-0.135 0.002-0.201 0.002-0.087 0-0.173 0.003-0.26 0-0.076-0.001-0.151-0.005-0.226-0.006-0.078-0.001-0.156-0.003-0.234-0.006-0.077-0.003-0.153-0.006-0.231-0.011-0.076-0.004-0.153-0.009-0.23-0.014-0.074-0.006-0.149-0.011-0.221-0.018-0.081-0.007-0.164-0.014-0.246-0.023-0.066-0.008-0.131-0.013-0.196-0.02-0.098-0.012-0.199-0.024-0.296-0.037-0.048-0.005-0.095-0.01-0.141-0.017-0.301-0.04-0.595-0.088-0.883-0.141 0 0-0.001-0.004-0.004-0.004-0.895-0.166-1.718-0.386-2.418-0.613-5.124-1.669-8.582-5.129-9.722-9.039zm30.547 4.25c-0.075 0.077-0.151 0.154-0.231 0.238-0.231 0.234-0.622 0.76-0.738 0.902-1.556 1.858-2.159 5.262-2.541 7.36-0.643 3.546-1.332 7.441-1.196 11.008 2.095-1.893 3.802-4.163 4.942-6.913 0.345 1.983-0.118 4.164-1.768 7.112-0.405 3.267-1.701 6.699-3.039 8.269 0.128 3.023 0.662 5.575 1.838 6.737 0.055 0.056 0.12 0.11 0.192 0.16 0.011 0.009 0.022 0.017 0.035 0.025 0.071 0.049 0.147 0.093 0.232 0.139 0.014 0.007 0.026 0.015 0.041 0.021 0.091 0.045 0.189 0.093 0.295 0.135 0.004 0.001 0.009 0.002 0.012 0.004 0.097 0.039 0.2 0.076 0.31 0.111 0.074 0.024 0.153 0.046 0.233 0.069 0.036 0.01 0.071 0.021 0.107 0.031 0.098 0.026 0.198 0.052 0.301 0.074 0.022 0.006 0.046 0.011 0.068 0.016 0.117 0.026 0.237 0.05 0.364 0.074 0.008 0.003 0.016 0.005 0.025 0.008 0.102 0.019 0.207 0.037 0.314 0.055 0.099 0.016 0.2 0.031 0.301 0.046 0.004 0 0.008 0 0.012 0.002h0.002c0.016 0.002 0.03 0.004 0.049 0.008h0.002 0.002c0.222 0.034 0.452 0.063 0.693 0.09 0.007 0 0.014 0.004 0.019 0.004 0.01 0.001 0.021-0.001 0.03 0.002 0.125 0.014 0.257 0.028 0.388 0.041 0.079 0.008 0.153 0.018 0.235 0.025h0.006 0.004c0.033 0.002 0.068 0.006 0.103 0.01h0.004c0.033 0.003 0.068 0.005 0.102 0.008 0.027 0.004 0.061 0.006 0.089 0.01 0.012 0 0.02-0.002 0.03 0 0.109 0.008 0.221 0.021 0.334 0.029h0.004c0.062 0.006 0.116 0.011 0.181 0.016h0.002c0.045 0.003 0.094 0.004 0.139 0.007 0.011 0.003 0.022 0.003 0.033 0.004 0.031 0.003 0.063 0.004 0.096 0.006 0.005 0.001 0.008 0.002 0.011 0.002h0.01c0.065 0.005 0.133 0.007 0.198 0.014 0.181 0.012 0.361 0.025 0.548 0.035 0.22 0.012 0.444 0.026 0.674 0.039h0.014c0.296 0.015 0.599 0.03 0.91 0.043 0.02 0.001 0.043 0.004 0.064 0.004 0.297 0.012 0.601 0.026 0.911 0.037h0.037c0.31 0.012 0.626 0.021 0.947 0.035 0.064 0.001 0.128 0.004 0.193 0.008 0.31 0.01 0.623 0.021 0.946 0.031-0.14-0.431-0.252-0.79-0.33-1.076-0.009-0.032-0.019-0.064-0.028-0.096-0.021-0.078-0.039-0.155-0.052-0.22h-0.004c-1.075-4.314-0.157-8.481 2.896-8.606-1.535 0.474-3.639 2.946-2.101 8.66h-0.006c0.082 0.3 0.188 0.656 0.312 1.041 0.01 0.032 0.021 0.062 0.029 0.094 0.065 0.193 0.132 0.392 0.207 0.602 0.809 0.075 1.189 0.075 1.949 0.107 0.03-0.061 0.07-0.15 0.12-0.246 0.09-0.186 0.2-0.402 0.25-0.514-0.06-0.13-0.13-0.265-0.2-0.4-0.02-0.043-0.04-0.087-0.06-0.131-0.05-0.09-0.09-0.177-0.13-0.266-0.86-1.777-1.619-3.842-1.05-5.66 0.45-1.437 1.34-3.243 3.44-3.539-0.1-0.022-0.35-0.082-0.58-0.142-2.04-0.509-4.074-0.972-5.051-1.241-3.234-0.238-5.069 0.175-7.75 2.573 0.06-0.177 0.127-0.345 0.197-0.506 0.005-0.01 0.008-0.021 0.012-0.031 0.069-0.155 0.142-0.305 0.217-0.448 0.01-0.018 0.02-0.038 0.029-0.056 0.075-0.135 0.151-0.265 0.232-0.389 0.015-0.025 0.031-0.046 0.047-0.068 0.07-0.105 0.143-0.205 0.219-0.301 0.028-0.038 0.055-0.072 0.084-0.11 0.066-0.077 0.136-0.157 0.205-0.232 0.035-0.039 0.07-0.08 0.108-0.117 0.072-0.075 0.149-0.147 0.226-0.217 0.046-0.041 0.092-0.082 0.137-0.121 0.075-0.063 0.152-0.128 0.232-0.188 0.048-0.036 0.095-0.071 0.145-0.105 0.081-0.058 0.166-0.114 0.25-0.166 0.044-0.029 0.089-0.054 0.133-0.08 0.092-0.058 0.188-0.11 0.287-0.16 0.031-0.018 0.062-0.035 0.097-0.051 0.11-0.054 0.223-0.106 0.334-0.156 0.022-0.009 0.042-0.015 0.061-0.024 0.129-0.053 0.256-0.104 0.389-0.15 0.006-0.001 0.016-0.005 0.025-0.006 0.141-0.05 0.282-0.094 0.43-0.135 0.003-0.002 0.008-0.002 0.013-0.004 0.147-0.04 0.294-0.077 0.446-0.111 0.006-0.001 0.016-0.003 0.025-0.006 0.145-0.034 0.292-0.061 0.44-0.086 0.013-0.001 0.025-0.004 0.039-0.006 0.147-0.025 0.297-0.047 0.447-0.066 0.019-0.003 0.035-0.003 0.053-0.006 0.153-0.019 0.308-0.035 0.464-0.049h0.002c-0.026-0.066-0.052-0.132-0.082-0.193-0.018-0.04-0.04-0.077-0.062-0.115-0.024-0.043-0.048-0.086-0.074-0.123-0.014-0.024-0.028-0.047-0.043-0.071-0.057-0.078-0.114-0.153-0.176-0.224l-0.006-0.008c-0.151-0.174-0.322-0.324-0.498-0.451-0.016-0.013-0.032-0.022-0.047-0.032-0.081-0.057-0.164-0.11-0.246-0.16-0.035-0.02-0.072-0.038-0.109-0.058-0.08-0.043-0.163-0.084-0.243-0.119-0.041-0.019-0.082-0.038-0.125-0.057-0.125-0.05-0.246-0.094-0.359-0.129 0.181-0.035 0.354-0.056 0.522-0.064 0.501-0.03 0.943 0.044 1.312 0.15 0 0 0.001-0.001 0.004 0.002 0.057 0.015 0.111 0.034 0.166 0.053 0.032 0.011 0.065 0.022 0.098 0.035 0.041 0.014 0.079 0.029 0.115 0.043 0.042 0.017 0.081 0.033 0.119 0.051 0.054 0.02 0.102 0.045 0.152 0.068 0.042 0.02 0.083 0.039 0.121 0.06 0.042 0.022 0.084 0.042 0.125 0.065 0.045 0.025 0.088 0.047 0.131 0.072 0.035 0.021 0.071 0.043 0.106 0.063 0.044 0.026 0.088 0.053 0.133 0.082 0.032 0.021 0.065 0.041 0.097 0.062 0.043 0.029 0.085 0.057 0.125 0.086 0.035 0.023 0.069 0.048 0.102 0.07 0.037 0.028 0.073 0.052 0.109 0.079 0.045 0.032 0.087 0.063 0.129 0.095 0.025 0.019 0.047 0.037 0.072 0.055 0.132 0.102 0.26 0.202 0.379 0.297 0.137-0.856 0.218-2.059 0.223-3.342 0.007-1.65-0.109-3.427-0.389-4.764-0.284 0.392-0.572 0.682-1.705 1.412 1.155-2.032 1.615-4.375 1.576-6.685-0.013-0.841-0.095-1.679-0.23-2.492-0.033-0.204-0.069-0.408-0.111-0.608-0.235-1.171-0.782-2.161-1.842-3.306-0.955-1.03-3.054-2.014-5.574-2.879zm-47.565 13.111c-0.999 0.663-2.009 1.161-3.314 1.672 1.013 2.066 1.441 3.222 3.711 5.082 0.262-0.025 0.527-0.015 0.773 0.025-0.054-1.532-0.129-3.051-0.217-4.56-0.145-0.3-0.702-1.52-0.953-2.219zm3.104 5.559c0.011 0.205 0.017 0.418 0.027 0.627 0.014 0.347 0.027 0.713 0.041 1.103 0.001-0.004 0.005-0.006 0.008-0.01 0.04-0.033 0.077-0.07 0.117-0.105 0.024-0.024 0.05-0.045 0.074-0.068 0.051-0.049 0.1-0.099 0.149-0.153 0.011-0.011 0.025-0.024 0.035-0.035 0.119-0.132 0.23-0.271 0.34-0.424-0.285-0.291-0.55-0.602-0.791-0.935zm40.666 2.525c-0.217 0.176-0.444 0.348-0.674 0.514 0.059 0.28 0.121 0.55 0.195 0.814 0.029 0.1 0.059 0.199 0.094 0.299 0.201-0.549 0.313-1.051 0.385-1.627zm-49.473 0.555c-0.588-0.005-1.113 0.143-1.631 0.592-1.427 1.23-1.958 3.608-1.93 4.123 0.112 1.945 1.226 3.505 1.756 4.379 0.349 0.575 0.87 3.645 1.608 4.597 1.035 1.335 4.037 3.742 5.023 3.789 0.065 0.004 0.315-0.023 0.658-0.086 0.517-0.092 1.249-0.27 1.909-0.558 0.619-0.273 1.176-0.641 1.427-1.133-1.184 0.126-2.497 0.084-3.334-0.041-0.97-0.146-2.097-0.767-2.896-1.582 1.171 0.419 1.699 0.736 3.039 0.992 0.806 0.156 2.05 0.172 3.291 0.074 0.281-0.243 0.48-0.488 0.619-0.734-1.458-0.006-5.07-0.343-6.367-1.699 1.296 0.398 3.717 0.93 5.385 1.056-0.015-0.123-0.029-0.253-0.045-0.377-0.289-0.016-0.555-0.059-0.787-0.132-0.704-0.222-1.227-0.513-1.651-0.741-1.442-0.777-2.399-1.62-2.803-2.5 1.22 0.91 2.972 2.103 4.565 2.698 0.169 0.061 0.376 0.103 0.607 0.125-0.03-0.22-0.061-0.439-0.099-0.657-0.12-0.641-0.291-1.33-0.733-1.83h0.004c-0.999-0.971-1.623-2.429-2.082-3.242-0.256-1.161-0.562-2.149-0.369-3.094 0.071-0.36 0.307-1.103 0.77-1.886 0.063-0.84-0.196-0.962-0.385-1.219-0.103-0.139-0.393-0.325-0.477-0.664-0.75-0.03-1.965 0.293-3.058 0.07-0.775-0.159-1.426-0.316-2.014-0.32zm69.899 5.494c-0.77 0.014-1.53 0.139-2.31 0.053-1.64-0.183-2.54 0.746-3.14 2.779-0.33 1.11 0.42 3.164 0.78 3.957 0.2 0.441 0.39 0.832 0.59 1.189 0.14-0.26 0.63-1.107 0.63-1.107-0.12-0.745 0.06-1.384 0.87-1.719 0.12-0.051 0.25-0.065 0.39-0.074-0.01-0.081-0.02-0.157-0.02-0.227s0.01-0.136 0.01-0.203c-0.07 0.02-0.15 0.037-0.23 0.051-0.01 0.001-0.03 0.004-0.04 0.008-0.02 0.002-0.04 0.007-0.07 0.008-0.02 0.005-0.05 0.008-0.09 0.011 0 0-0.01 0-0.01 0.002-0.13 0.012-0.27 0.02-0.41 0.012-0.01 0-0.02-0.004-0.02-0.004-0.04-0.001-0.08-0.004-0.12-0.008-0.01-0.002-0.03-0.004-0.04-0.005-0.04-0.004-0.06-0.009-0.09-0.014-0.03-0.003-0.05-0.009-0.07-0.014s-0.04-0.008-0.07-0.013c-0.02-0.008-0.05-0.013-0.07-0.022-0.02-0.006-0.04-0.012-0.05-0.018-0.03-0.011-0.06-0.021-0.08-0.031s-0.04-0.014-0.06-0.023c-0.02-0.01-0.04-0.023-0.06-0.035-0.02-0.013-0.04-0.024-0.06-0.039-0.02-0.01-0.03-0.022-0.05-0.034-0.02-0.018-0.04-0.037-0.07-0.058-0.01-0.009-0.02-0.018-0.03-0.028-0.02-0.028-0.05-0.058-0.07-0.089 0-0.005 0-0.009-0.01-0.014-0.03-0.039-0.05-0.081-0.07-0.125 1.3 0.406 2.25-0.862 3.68-1.326 0.11-0.028 0.21-0.032 0.32-0.033 0.96 0.013 1.31 0.995 1.55 1.677 0.44 1.233 1.07 2.568 2.13 2.334 0.15-0.035 0.29-0.075 0.4-0.121 0.01-0.004 0.01-0.008 0.02-0.012 0.03-0.011 0.06-0.022 0.09-0.037 0.29-0.141 0.42-0.333 0.48-0.593 0.02-0.109 0.03-0.227 0.04-0.36 0-0.056 0-0.115-0.01-0.174 0-0.033 0-0.065-0.01-0.099 0-0.028 0-0.056-0.01-0.086 0-0.014 0-0.029-0.01-0.043-0.01-0.101-0.03-0.208-0.06-0.317-0.05-0.037-0.1-0.07-0.15-0.101-0.01-0.008-0.03-0.014-0.04-0.024-0.04-0.018-0.07-0.036-0.11-0.052-0.02-0.009-0.05-0.018-0.07-0.026-0.02-0.012-0.05-0.02-0.08-0.031-0.03-0.007-0.05-0.014-0.08-0.021-0.02-0.008-0.05-0.013-0.08-0.018-0.02-0.004-0.04-0.012-0.06-0.014v0.004c-0.55-0.085-1.13 0.111-1.5 0.336 0.26-0.589 0.83-0.809 1.4-0.781 0.02 0 0.03-0.001 0.04 0.002 0.04 0.001 0.08 0.005 0.11 0.008 0.02 0.003 0.05 0.008 0.07 0.011 0.02 0.004 0.05 0.007 0.07 0.012 0.05 0.009 0.09 0.019 0.14 0.031 0 0.002 0 0 0.01 0 0.05 0.014 0.1 0.03 0.14 0.045-0.04-0.126-0.08-0.245-0.11-0.357-0.02-0.046-0.03-0.093-0.04-0.141-0.04-0.128-0.08-0.249-0.11-0.363-0.01-0.051-0.02-0.101-0.03-0.152-0.02-0.054-0.03-0.107-0.04-0.16-0.01-0.068-0.02-0.138-0.03-0.206l-0.02-0.105c-0.06-0.429-0.06-0.799-0.05-1.109 0-0.172 0-0.368-0.02-0.539 0-0.034-0.01-0.066-0.02-0.096 0-0.02 0-0.037-0.01-0.055-0.01-0.027-0.02-0.054-0.03-0.078-0.01-0.041-0.03-0.079-0.06-0.107-0.91-0.507-2.06-0.75-2.94-0.854-0.26-0.032-0.51-0.038-0.77-0.033v-0.002zm-22.987 3.144c-0.395 0.689-0.754 1.352-1.094 2l-2.164 3.952h5.742c-1.211-1-1.875-2.758-2.23-4.43-0.113-0.525-0.196-1.04-0.254-1.522zm22.457 0.735c-0.12-0.01-0.23 0.001-0.33 0.029-0.75 0.204-0.79 0.859-0.63 1.404 0.31-0.002 0.53 0.241 0.69 0.551 0.22 0.128 0.39 0.155 0.72 0.194-0.13 0.117-0.35 0.234-0.52 0.259 0.11 0.294 0.19 0.579 0.28 0.737 0.16 0.301 1.18 1.303 2.05 1.951 0 0.006 0.01 0.014 0.03 0.021 0.01 0.014 0.03 0.029 0.05 0.041 0.04 0.032 0.09 0.064 0.13 0.094 0.02 0.014 0.04 0.028 0.06 0.043 0.04 0.026 0.08 0.049 0.12 0.074 0.02 0.014 0.04 0.027 0.06 0.039 0.06 0.035 0.11 0.067 0.16 0.096 0.49 0.264 1.19 0.142 1.57 0.106-0.51 0.352-1.21 0.461-1.69 0.4-0.51-0.141-2.65-1.917-2.99-2.664-0.18-0.395-0.34-0.894-0.42-1.076-0.21-0.487-0.92-0.509-1.17-0.42-0.69 0.24-0.49 0.99-0.3 1.592 0.26 0.15 0.7 0.243 1.06 0.265-0.14 0.109-0.62 0.232-0.93 0.19 0.33 0.803 0.92 1.543 1.44 2.103 0.73-0.311 1.47 0.037 2.18 0.443 0.03 0.019 0.06 0.04 0.1 0.059 0.15 0.091 0.31 0.184 0.46 0.272 0.02 0.013 0.04 0.022 0.06 0.035 0.05 0.03 0.11 0.057 0.16 0.084 0.02 0.016 0.05 0.03 0.08 0.047 0.04 0.02 0.09 0.042 0.13 0.062 0.03 0.016 0.07 0.031 0.1 0.045 0.04 0.019 0.07 0.035 0.11 0.049 0.04 0.016 0.08 0.03 0.12 0.041 0.03 0.011 0.05 0.025 0.08 0.031 0.07 0.021 0.14 0.036 0.2 0.045 0.2 0.033 0.56-0.127 0.76-0.332-0.02 0.064-0.04 0.125-0.06 0.184-0.02 0.045-0.05 0.088-0.07 0.13 0 0.01-0.01 0.023-0.02 0.032-0.04 0.08-0.1 0.144-0.17 0.207-0.08 0.08-0.17 0.148-0.28 0.185-0.01 0.008-0.03 0.018-0.05 0.022-0.09 0.03-0.19 0.037-0.29 0.021-0.2-0.032-0.42-0.122-0.64-0.228-0.83-0.402-1.75-1.127-2.24-0.846-0.77 0.455-0.52 1.133 0.12 1.744 0.31 0.054 0.61 0.011 1.07-0.193-0.14 0.259-0.29 0.441-0.63 0.564 0.13 0.094 0.27 0.173 0.4 0.26 0.75 0.475 1.61 0.824 2.11 0.813 0.91-0.017 1.41-0.955 1.22-1.758-0.06-0.213-0.09-0.403-0.12-0.584-0.14-0.895 0.03-1.476 0.86-2.102-0.09-0.035-0.18-0.08-0.27-0.125-0.02-0.015-0.05-0.03-0.08-0.045-0.06-0.036-0.13-0.078-0.19-0.119-0.03-0.016-0.05-0.034-0.08-0.049-0.08-0.057-0.17-0.116-0.25-0.179-0.03-0.022-0.06-0.046-0.09-0.067-0.05-0.047-0.11-0.094-0.18-0.142-0.03-0.03-0.06-0.061-0.1-0.092-0.05-0.048-0.11-0.095-0.16-0.147-0.05-0.04-0.1-0.084-0.14-0.127-0.27-0.252-0.52-0.522-0.76-0.791-0.19-0.101-0.36-0.239-0.53-0.418-0.53-0.577-0.9-1.504-1.23-2.224-0.03-0.054-0.05-0.11-0.08-0.166-0.33-0.433-0.71-0.641-1.05-0.67zm5.72 2.099c-0.07 0.419-0.28 0.796-0.73 1.102-0.25 0.172-0.6 0.305-0.92 0.398-0.11 0.033-0.22 0.054-0.33 0.063 0.11 0.13 0.23 0.254 0.36 0.377-0.01-0.001-0.01-0.002-0.01-0.002 0.03 0.022 0.05 0.044 0.07 0.066 0.04 0.03 0.07 0.062 0.1 0.094 0.05 0.04 0.1 0.081 0.14 0.121 0.03 0.03 0.07 0.058 0.1 0.084 0.07 0.061 0.15 0.12 0.22 0.176 0.03 0.025 0.06 0.048 0.09 0.07 0.05 0.033 0.09 0.065 0.13 0.092 0.04 0.025 0.07 0.047 0.1 0.068 0.04 0.027 0.08 0.048 0.12 0.073 0.03 0.017 0.06 0.035 0.09 0.052 0.04 0.022 0.07 0.041 0.11 0.061 0.02 0.012 0.05 0.022 0.07 0.033 0.05 0.024 0.11 0.045 0.15 0.059 0.76 0.212 1.95-0.314 2.08-0.805 0.02-0.051 0.03-0.1 0.03-0.148 0-0.017 0-0.032 0.01-0.047v-0.1-0.053c-0.01-0.03-0.01-0.063-0.01-0.091-0.01-0.019-0.01-0.036-0.01-0.053-0.01-0.03-0.02-0.063-0.03-0.092-0.01-0.016-0.01-0.032-0.02-0.047-0.01-0.039-0.03-0.079-0.05-0.115 0-0.008 0-0.015-0.01-0.02-0.02-0.045-0.05-0.089-0.07-0.134-0.01-0.013-0.02-0.025-0.03-0.037-0.02-0.032-0.05-0.062-0.07-0.092-0.01-0.015-0.03-0.032-0.04-0.047-0.03-0.028-0.05-0.055-0.08-0.084-0.01-0.016-0.03-0.029-0.04-0.043-0.03-0.03-0.06-0.06-0.09-0.088-0.02-0.012-0.03-0.025-0.05-0.039-0.04-0.035-0.08-0.069-0.13-0.104 0-0.005-0.01-0.012-0.01-0.017-0.06-0.04-0.11-0.081-0.17-0.121-0.01-0.008-0.02-0.014-0.03-0.022-0.05-0.031-0.1-0.065-0.15-0.095-0.02-0.014-0.03-0.026-0.06-0.037-0.04-0.027-0.08-0.052-0.12-0.079-0.03-0.013-0.05-0.029-0.08-0.043-0.01-0.009-0.03-0.019-0.04-0.027-0.19-0.106-0.39-0.209-0.59-0.307zm-54.044 5.545c-2.131 0-3.378 1.45-3.551 2.43l-0.672 3.807c-0.057 0.326 0.017 0.667 0.221 1.015l0.019 0.035c0.058 0.089 0.111 0.164 0.168 0.235 0.094 0.114 0.166 0.193 0.245 0.269 0.11 0.105 0.195 0.179 0.285 0.246 0.115 0.089 0.218 0.159 0.32 0.219l6.156 3.682-0.619 3.496h-3.213l0.205-1.166h-5.203l-0.781 4.426h9.941c1.72 0 3.927-1.402 4.143-2.629l0.805-4.233c0.18-0.906-0.243-1.721-1.26-2.339l-6.156-3.682 0.49-2.77h3.217l-0.204 1.147h5.206l0.804-4.188h-10.566zm12.224 0l-0.775 4.188h3.313l0.113-0.623h2.289l-2.106 11.51h-1.244l-0.66 3.619h7.317l0.662-3.619h-1.244l2.105-11.51h2.289l-0.113 0.623h3.312l0.774-4.188h-16.03-0.002zm42.23 0c0.15 0.344 0.23 1.09-0.61 2.487-0.27 0.398-0.62 0.707-1.05 0.925-0.11 0.06-0.23 0.11-0.35 0.153h1.16l-0.11 0.623h3.31l0.78-4.188h-3.13zm4.87 0l-0.66 3.565h1.24l-2.11 11.51h-1.24l-0.66 3.619h13.4l0.81-4.426h-4.28l-0.15 0.807h-3.13l0.8-4.366h3.9l0.57-3.156h-3.89l0.73-3.988h3.13l-0.12 0.623h3.99l0.77-4.188h-13.1zm-108.04 0.002l-0.6504 3.604h1.2423l-2.0763 11.48h-1.2402l-0.6523 3.606h5.5408l1.883-11.676 3.613 11.676h5.791l0.651-3.606h-1.243l2.075-11.48h1.242l0.652-3.604h-5.461l-1.953 11.756-3.597-11.756h-5.8169zm18.514 0l-0.653 3.604h1.27l-2.074 11.482h-1.27l-0.65 3.604h5.703l1.908-10.869 3.184 8.566 6.174-8.549-1.963 10.854h5.787l0.65-3.604h-1.24l2.074-11.484h1.242l0.651-3.604h-1.864c-2.16 1.775-3.914 2.149-5.009 2.149-0.102 0-0.2-0.004-0.295-0.01l-4.762 6.734-3.07-8.873h-5.793zm61.183 0l-5.392 15.073h-1.383l-0.662 3.617h5.553l1.5-4.656h3.539l-0.176 4.656h5.533l0.662-3.617h-1.263l0.087-15.073h-7.998zm11.506 0.09l-0.963 0.08-0.742 4.016h3.315l0.11-0.621h2.29l-2.11 11.508h-1.24l-0.66 3.619h7.31l0.67-3.619h-1.25l2.08-11.366c-0.22-0.016-0.45-0.055-0.69-0.119-0.73-0.195-1.28-0.465-1.76-0.732-0.38 0.01-0.77-0.02-1.28-0.104-0.6-0.097-1.2-0.249-1.78-0.396l-0.15-0.039c-0.4-0.104-0.77-0.221-1.12-0.36-1.42-0.676-1.89-1.526-2.03-1.867zm-8.148 2.447l-0.018 8.559h-2.836l2.854-8.559z" transform="translate(0 -.00062561)" fill="#fff"/><path fill="#fff" d="m75.924 32.878c0.62375-0.02375 1.3415 0.08422 2.1152 0.26172-2.0975-0.23-4.0744 0.50258-5.0156 0.76758-0.1875 0.05375-0.55648 0.08406-0.83398-0.08594 1.0462-0.36875 1.7119-0.87211 3.7344-0.94336z"/><path d="m67.84 20.852c-0.039 0.08-0.073 0.165-0.102 0.25-0.007 0.02-0.015 0.041-0.021 0.062-0.028 0.084-0.052 0.169-0.074 0.26-0.077 0.335-0.117 0.718-0.153 1.183 0.919-0.208 1.937-0.155 2.924 0.028-0.465 0.181-0.814 0.46-1.465 1.152 0.544-0.064 0.701-0.05 1.145-0.029l0.783 1.168 3.574-0.944c-0.07-0.082-0.148-0.163-0.226-0.246-0.04-0.043-0.085-0.085-0.127-0.129-0.052-0.05-0.101-0.099-0.155-0.15-0.043-0.042-0.091-0.083-0.138-0.127-0.055-0.049-0.111-0.098-0.168-0.148-0.05-0.042-0.099-0.083-0.151-0.123-0.061-0.052-0.123-0.103-0.187-0.153-0.05-0.038-0.104-0.078-0.156-0.117-0.067-0.05-0.135-0.1-0.205-0.15-0.056-0.039-0.11-0.076-0.165-0.114-0.071-0.048-0.145-0.095-0.218-0.144-0.057-0.035-0.113-0.072-0.172-0.11-0.075-0.045-0.153-0.091-0.231-0.136-0.057-0.035-0.118-0.07-0.179-0.104-0.078-0.043-0.157-0.088-0.237-0.131-0.062-0.031-0.125-0.064-0.187-0.095-0.081-0.04-0.165-0.079-0.246-0.117-0.067-0.032-0.131-0.063-0.198-0.094-0.081-0.036-0.163-0.069-0.246-0.106-0.066-0.025-0.137-0.054-0.203-0.08-0.085-0.034-0.17-0.063-0.254-0.092-0.068-0.025-0.139-0.051-0.207-0.072-0.086-0.03-0.173-0.055-0.257-0.08-0.07-0.021-0.139-0.043-0.209-0.06-0.088-0.024-0.176-0.045-0.266-0.065-0.069-0.017-0.138-0.033-0.207-0.049-0.091-0.017-0.18-0.03-0.272-0.047-0.067-0.01-0.137-0.024-0.203-0.033-0.1-0.014-0.199-0.02-0.301-0.031-0.057-0.004-0.113-0.014-0.169-0.018-0.158-0.01-0.316-0.012-0.471-0.009zm-7.795 1.193c-0.554 0.145-0.151 1.714-0.024 2.08 0.184 0.55 0.756 2.135 1.284 2.662-0.528-1.215-0.827-2.1-1.022-3.008-0.069-0.32-0.175-0.985-0.025-1.091 0.131-0.094 0.397-0.067 0.908 0.519-0.425-0.946-0.829-1.24-1.121-1.162zm1.625 2.773c-0.053 0.014-0.107 0.066-0.156 0.176-0.217 0.479-0.373 0.803-0.243 1.061 0.117 0.238 0.776 0.463 0.624 0.189-0.217-0.385-0.216-0.72 0.001-1.058 0.07-0.105-0.069-0.408-0.226-0.368zm-0.606 13.59c0.598 3.54 3.956 3.877 4.95 5.776 0.951 1.816 0.97 3.448 0.937 5.269 0.661-1.131 1.396-3.517 0.078-5.857-1.057-1.879-4.267-2.151-5.965-5.188zm2.944 6.633c0.605 2.018 0.743 3.827 0.332 5.234-0.445 1.517-0.826 2.758-3.719 6.5 2.754-1.751 5.311-5.692 5.158-7.996-0.128-1.937-0.952-2.964-1.771-3.738zm-18.457 16.461c-0.184 0.001-0.423 0.049-0.588 0.115l2.861 2.24c-0.329-0.635-1.328-1.654-2.273-2.355zm2.976 2.652v0.002c-0.142 0-0.278 0.018-0.396 0.051-1.015 0.285-1.603 1.744-0.897 2.561-0.267 0.452 0.022 1.975 1.578 1.779-1.148-0.318-1.346-1.198-1.093-1.692-0.599-0.645-0.378-2.035 0.638-2.316 0.375-0.104 0.892-0.088 1.424 0.193-0.327-0.413-0.825-0.577-1.254-0.578zm-2.492 1.565c-0.342 0-0.657 0.278-0.705 0.621-0.046 0.342 0.196 0.621 0.537 0.621s0.657-0.279 0.703-0.621c-0.351 0.005-0.64-0.266-0.535-0.621zm17.526 0.924c-0.389 0.055-0.726 0.335-0.832 0.738-0.142 0.535 0.178 1.091 0.714 1.232-0.175-0.348-0.191-0.707-0.068-1.107 0.124-0.4 0.352-0.61 0.586-0.84-0.134-0.035-0.271-0.042-0.4-0.023zm-17.051 0.798c-0.341 0-0.657 0.28-0.703 0.621-0.048 0.343 0.192 0.622 0.533 0.622 0.342 0 0.66-0.279 0.705-0.622 0.047-0.341-0.194-0.621-0.535-0.621zm83.98 0.772c-0.16 0-0.29 0.265-0.29 0.592 0 0.326 0.13 0.59 0.29 0.59s0.3-0.264 0.3-0.59c0-0.327-0.14-0.592-0.3-0.592zm-80.717 0.949c-0.262 0.334-0.574 0.53-0.939 0.643 0.67 0.212 1.314 0.269 1.619-0.043l-0.68-0.6zm81.247 0.289c-0.11 0-0.21 0.191-0.21 0.422 0 0.234 0.1 0.422 0.21 0.422 0.12 0 0.21-0.188 0.21-0.422 0-0.231-0.09-0.422-0.21-0.422zm-76.579 0.547c-0.341 0-0.658 0.276-0.705 0.617-0.046 0.343 0.195 0.623 0.537 0.623 0.343 0 0.657-0.28 0.704-0.623 0.046-0.341-0.193-0.617-0.536-0.617zm-6.152 0.836c-0.022 0.449-0.057 0.901-0.101 1.346 0.3-0.472 0.506-1.03 0.173-1.297-0.022-0.018-0.047-0.035-0.072-0.049zm6.582 0.611c-0.149 0.194-0.489 0.263-0.705 0.215 0.004 0.179 0.119 0.409 0.42 0.336 0.246-0.059 0.286-0.323 0.285-0.551z" transform="translate(0 -.00062561)"/></g></g></svg>
