<?xml version="1.0" encoding="UTF-8" standalone="no"?>
<svg xmlns:rdf="http://www.w3.org/1999/02/22-rdf-syntax-ns#" xmlns="http://www.w3.org/2000/svg" xml:space="preserve" height="36.414" viewBox="0 0 91 36.414058" width="91" version="1.1" xmlns:cc="http://creativecommons.org/ns#" xmlns:dc="http://purl.org/dc/elements/1.1/"><g transform="matrix(1.25 0 0 -1.25 -543.54 655.64)"><g transform="translate(.42723 .34178)"><path d="m448.2 510.5 9.613-5.507-1.407-3.58h23.527l-1.883 3.832v14.643l1.047 2.13 1.013-2.092-0.01-6.301v-7.928l5.433-4.31h14.041l5.434 4.311-0.012 14.227 1.835 3.789h-12.827l1.88-3.825 0.002-10.162-0.015-0.019-0.751-0.238h-5.134l-0.751 0.238-0.014 0.019 0.002 2.396v7.767l1.88 3.824h-11.172-23.93s1.526-3.099 1.896-3.849v-3.584l-12.212 6.835-0.702 0.598h-10.152l2.313-3.894v-14.575l-1.883-3.832h13.017l-1.883 3.832v4.625h1.374c0.238 0 0.431 0.193 0.431 0.431v0.199zm18.761-5.255v14.643l1.006 2.048 1.019-2.07-0.013-14.692-0.878-2.235-1.134 2.306z" fill="#9ea2a2"/><path d="m1.8945 1.0762 2.0762 3.4961v18.764l-1.7012 3.4609h12.809l-1.7012-3.4609v-9.9707l16.518 9.4609v0.55469l-1.3438 3.416h12.234l-1.7012-3.4609v-18.805l1.7012-3.4551h-12.592s1.463 2.9712 1.7168 3.4824v6.5703l-16.943-9.4844-0.65625-0.56836h-10.416zm40.16 0s1.4643 2.9724 1.7168 3.4824l-0.01563 18.822-1.3438 3.416h12.234l-1.7012-3.4609v-18.805l1.7012-3.4551h-12.592zm13.971 0 1.6523 3.4121-0.01367 8.125v9.3867l6.0898 4.832h16.799l6.0898-4.834-0.01563-17.51 1.6523-3.4121h-12.582l1.6973 3.4531 0.0039 13.328-0.45703 0.57812-1.4141 0.44726h-6.748l-1.4141-0.44726-0.45703-0.57812 0.0039-3.3691v-9.959l1.6973-3.4531h-12.584zm-41.205 14.174l-0.27734 1.4258h0.25391s0.11016-0.67976 0.12891-0.88476l0.29297 0.88476h0.20898c0.06875-0.155 0.26805-0.84766 0.2793-0.87891l0.14258 0.87891h0.25586l-0.2793-1.4258h-0.1582l-0.34375 1.0098-0.34375-1.0098h-0.16016zm-1.0977 0.0078v0.23242h0.31836v1.1855h0.24805v-1.1855h0.31641v-0.23242h-0.88281zm-4.918 15.396 0.33984 0.54492v3.6836l-0.33984 0.53125h3.3398l-0.4082-0.59766v-1.2285l0.13672-0.06836h0.88476l1.0234 0.16211v-1.4297l-1.0234 0.17774h-0.88476l-0.13672-0.07031v-0.54492l0.13672-0.07031h2.291l1.2266 0.20703-0.85742-1.2969h-5.7285zm9.9688 0-1.7715 0.88867v3l1.7715 0.87109h4.2305l1.7715-0.87109v-3l-1.7715-0.88867h-4.2305zm10.434 0-1.7715 0.88867v3l1.7715 0.87109h4.2285l1.7734-0.87109v-3l-1.7734-0.88867h-4.2285zm8.5977 0-0.91406 1.3652 1.418-0.24414h1.0645l0.13672 0.06445v2.8652l-0.48047 0.70898h3.6152l-0.47656-0.70898v-2.8652l0.13672-0.06445h1.0625l1.4199 0.24414-0.91406-1.3652h-6.0684zm8.709 0 0.33984 0.54492v3.6855l-0.33984 0.5293h6.0684l1.6367-0.80469v-1.1973l-1.1582-0.57422 1.0215-0.51758v-0.91406l-1.5-0.75195h-6.0684zm11.545 0 0.20508 0.4375-1.9102 3.793-0.54492 0.5293h3.1367l-0.13672-0.5293 0.20703-0.41016 0.13477-0.06641h2.252l0.13672 0.06641 0.20313 0.41016-0.13672 0.5293h3.3418l-0.54492-0.5293-1.9102-3.793 0.20508-0.4375h-4.6387zm8.5039 0 0.3418 0.54688v3.6816l-0.3418 0.53125h5.5918l0.92578-1.3906-1.4043 0.24805h-1.9082l-0.20508-0.11133v-2.8887l0.41016-0.61719h-3.4102zm8.1133 0 0.3418 0.54688v3.6816l-0.3418 0.53125h5.5918l0.92773-1.3906-1.4043 0.24805h-1.9082l-0.20508-0.11133v-2.8887l0.4082-0.61719h-3.4102zm-14.406 0.95508 0.06641 0.23047 0.68164 1.4746-0.13477 0.07031h-1.2285l-0.13672-0.07031 0.68359-1.4746 0.06836-0.23047zm-10.688 0.06836h1.1602l0.4082 0.09766 0.20312 0.20312v0.13672l-0.20312 0.20508-0.4082 0.10938h-1.1602l-0.13672-0.07031v-0.61328l0.13672-0.06836zm-29.035 0.02734h0.68555l0.54688 0.13672 0.27148 0.27344v1.7734l-0.27148 0.27148-0.54688 0.13867h-0.68555l-0.547-0.137-0.27539-0.27148v-1.7734l0.275-0.273 0.547-0.137zm10.434 0h0.68164l0.55078 0.13672 0.27344 0.27344v1.7734l-0.27344 0.27148-0.55078 0.13867h-0.68164l-0.54883-0.13867-0.27148-0.27148v-1.7734l0.27148-0.27344 0.54883-0.13672zm18.602 1.7461h1.0918l0.54492 0.13672 0.20508 0.20312v0.23242l-0.20508 0.20508-0.54492 0.13672h-1.0234l-0.20508-0.0957v-0.75l0.13672-0.06836z" transform="matrix(.8 0 0 -.8 434.83 523.72)"/><path d="m58.184 2.4336 0.8457 1.7461-0.01367 17.168 5.209 4.1309h15.857l5.209-4.1309-0.01367-17.168 0.8457-1.7461h-8.2559l0.87891 1.7812 0.002 14.111-1.002 1.2715-2.0098 0.63672h-7.168l-2.0078-0.63672-1.0039-1.2715 0.0039-14.111 0.87695-1.7812h-8.2539zm-53.9 0.00195 1.0449 1.7676v19.449l-0.87891 1.7871h8.4473l-0.87695-1.7871v-12.631l19.232 11.018v1.5977l-0.70703 1.8027h8.0605l-0.87891-1.7871v-19.436l0.87891-1.7812h-8.2324l0.89648 1.7441v9.2363l-19.32-10.98h-7.666zm39.953 0 0.89258 1.7441-0.01563 19.457-0.70703 1.8027h8.0605l-0.87891-1.7871v-19.436l0.87891-1.7812h-8.2305z" transform="matrix(.8 0 0 -.8 434.83 523.72)" fill="#ba0c2f"/><path d="m31.736 3.2773 0.38086 0.65234v9.8242l0.90625 0.51172v-10.988h-1.2871zm13.861 0 0.38086 0.65234-0.01563 19.869-0.31055 0.79102h5.4512l-0.53516-0.90625h-3.6152l-0.002-20.406h-1.3535zm14.014 0 0.38086 0.65234-0.01953 16.879 5.043 3.6777h13.357l1.4609-0.95508-14.197 0.09375-4.5547-3.2363 0.01758-17.111h-1.4883zm19.789 0 0.38086 0.65234-0.0039 14.705-0.97852 1.2676 0.94531-0.29883 1.3008-1.4336 0.0039-14.893h-1.6484zm-73.627 0.00977 0.4043 0.68359v19.879l-0.36523 0.74024h5.7207l-0.533-0.906h-3.875l-0.043-20.387-1.3086-0.0099zm6.2207 5.5332v1.1875l20.107 11.652v2.1387l-0.31055 0.79102h5.4512l-0.53516-0.90625h-3.7051l0.0039-2.8047-21.011-12.059z" transform="matrix(.8 0 0 -.8 434.83 523.72)" fill="#fff"/></g></g></svg>
