<?xml version="1.0" encoding="UTF-8" standalone="no"?>
<svg xmlns:rdf="http://www.w3.org/1999/02/22-rdf-syntax-ns#" xmlns="http://www.w3.org/2000/svg" xml:space="preserve" height="48.606" width="107.08" version="1.1" xmlns:cc="http://creativecommons.org/ns#" xmlns:dc="http://purl.org/dc/elements/1.1/" viewBox="0 0 107.0755 48.605767"><g transform="translate(-.41432 -.71033)"><path fill="#a1d1f1" d="m104.11 37.001c0.0775-8.4588 0.285-20.355 0.32625-22.715l1.5725-11.291c-10.578 0.6225-21.185 0.9975-31.786 0.83625-1.7588-0.02625-13.776-1.6962-13.776-1.6962l0.965 3.4175 0.11875 0.43125c-6.0362-2.3712-12.359-2.2612-18.734-2.4012-2.4512-0.05375-9.3838-1.7275-12.23-2.375l0.31625 2.8225c-2.195-0.6825-4.395-1.0338-6.4425-1.0338-12.881 0.06875-23.52 11.646-23.52 23.63 0 10.908 8.9225 22.081 21.821 22.186 4.11 0.0325 7.9762-0.97125 11.368-2.7575l-0.5775 2.505c5.865-0.33625 11.785-0.80875 17.66-0.48 6.9812 0.38875 12.526-0.18625 17.936-5.5462 3.0212 4.185 8.6625 6.1412 13.681 5.8325 0.9625 0.0013 10.119 0.01625 11.981 0.03125 1.8362 0.01375 12.208-0.01 12.208-0.01-0.49375-3.8825-0.73375-7.9575-2.8875-11.386"/><path fill="#00325b" d="m33.24 4.1966s7.2847 1.6564 9.5059 1.7051c7.694 0.17 14.664-0.1276 21.75 4.1211 0.20375 0.1225 0.40531 0.24625 0.60156 0.375-0.56503-1.8425-0.9637-3.7496-1.4512-5.4746 0 0 8.7368 1.201 10.543 1.2285 0.171 0.0025 16.606-0.19469 18.064-0.17969 4.8059 0.05125 6.9105-0.25039 11.068-0.49414l-1.2012 8.627c-0.0362 2.042-0.26223 14.92-0.33593 23.594 1.78 2.4712 2.1988 5.3738 2.5801 8.375 0 0-7.7222 0.017-9.5547 0.002-1.969-0.015-12.078-0.03125-12.078-0.03125s-10.106 0.8298-13.156-7.6152c-2.8374 3.9988-7.1845 6.8972-12.787 7.4297-4.806 0.45625-3.005-0.78227-20.299 0.20898 0.2563-1.1113 0.34-2.515 1.3125-5.0938-0.06375 0.05125-0.13031 0.09305-0.19531 0.12305-3.947 3.525-9.143 5.6692-14.848 5.623-11.611-0.094-19.746-10.191-19.746-20.092 0-10.882 9.753-21.477 21.434-21.541 2.9188 0 6.1325 0.779 9.1387 2.2402-0.12375-1.0075-0.22445-2.0509-0.3457-3.1309z"/><path fill="#fff" d="m24.458 8.9238c-9.4859 0.051-17.609 8.845-17.609 17.705 0 0.2675 0.00844 0.53594 0.023437 0.80468 0.005 0.0875 0.013281 0.17617 0.019531 0.26367 0.01375 0.18125 0.028125 0.36101 0.046875 0.54101 0.011251 0.10375 0.025313 0.2068 0.039063 0.31054 0.02125 0.165 0.044062 0.32969 0.070312 0.49219 0.01875 0.11 0.038594 0.21742 0.058594 0.32617 0.02875 0.15875 0.06 0.31711 0.09375 0.47461 0.02375 0.11 0.049922 0.21937 0.076172 0.32812 0.037499 0.1575 0.07664 0.3164 0.11914 0.47265 0.02875 0.10625 0.058594 0.21086 0.089844 0.31836 0.0475 0.16125 0.09789 0.32242 0.15039 0.48242 0.0325 0.09876 0.063906 0.19937 0.097656 0.29687 0.06125 0.1775 0.12656 0.35234 0.19531 0.52734 0.03 0.08 0.060547 0.15953 0.091797 0.23828 0.1025 0.25375 0.20922 0.50515 0.32422 0.7539 0.0075 0.01749 0.016591 0.03523 0.025391 0.05273 0.1075 0.23125 0.21914 0.46125 0.33789 0.6875 0.04125 0.07876 0.084453 0.15562 0.12695 0.23437 0.08875 0.16375 0.17969 0.32703 0.27344 0.48828 0.0525 0.08875 0.10836 0.17883 0.16211 0.26758 0.09 0.1475 0.17969 0.29445 0.27344 0.43945 0.06 0.09125 0.12234 0.18023 0.18359 0.27148 0.095001 0.14 0.19031 0.27976 0.28906 0.41601 0.06374 0.09 0.13102 0.17883 0.19727 0.26758 0.1025 0.13625 0.20695 0.27054 0.31445 0.40429 0.06625 0.08375 0.13242 0.1675 0.20117 0.25 0.115 0.13875 0.23351 0.27515 0.35351 0.41016 0.065 0.07375 0.12711 0.1475 0.19336 0.21875 0.14 0.15374 0.28734 0.30312 0.43359 0.45312 0.04875 0.04875 0.09453 0.10094 0.14453 0.14844 0.2 0.2 0.40593 0.39328 0.61718 0.58203l0.002 0.002 0.0078 0.0078c0.25 0.2225 0.50968 0.43508 0.77343 0.64258 0.0375 0.03 0.07383 0.05914 0.11133 0.08789 0.225 0.17375 0.45445 0.34336 0.68945 0.50586 0.03625 0.025 0.07117 0.05383 0.10742 0.08008l0.002-0.0039c2.4388 1.6625 5.37 2.6854 8.625 2.7129 10.235 0.083 18.567-8.425 18.517-18.664-0.0225-3.7737-1.6413-7.0507-4.0625-9.5957l0.0038-0.002c-0.04875-0.05125-0.09844-0.09914-0.14844-0.15039-0.13-0.1325-0.26273-0.26187-0.39648-0.39062-0.08-0.0775-0.16094-0.15422-0.24218-0.23047-0.135-0.12375-0.2714-0.24594-0.41016-0.36719-0.08125-0.07125-0.16164-0.14219-0.24414-0.21094-0.15125-0.12625-0.30328-0.24789-0.45703-0.36914-0.07375-0.0575-0.14766-0.11758-0.22266-0.17383-0.20875-0.16-0.42242-0.31484-0.63867-0.46484-0.02125-0.015-0.04125-0.02992-0.0625-0.04492-0.2375-0.165-0.47961-0.32281-0.72461-0.47656-0.0725-0.045-0.14695-0.08906-0.2207-0.13281-0.1725-0.10625-0.34718-0.20859-0.52344-0.30859-0.09125-0.0525-0.18554-0.10234-0.27929-0.15234-0.16-0.0875-0.31992-0.17336-0.48242-0.25586-0.09875-0.05-0.19883-0.09969-0.29883-0.14844-0.1625-0.07875-0.32453-0.15476-0.48828-0.22852-0.09875-0.045-0.19422-0.08836-0.29297-0.13086-0.17625-0.07625-0.35375-0.14875-0.53125-0.21875-0.085-0.03375-0.16961-0.07102-0.25586-0.10352-0.25-0.094999-0.5007-0.18383-0.75195-0.26758l-0.04102-0.015625c-0.265-0.0875-0.53062-0.16719-0.79687-0.24219-0.08375-0.0225-0.1682-0.043906-0.25195-0.066406-0.184-0.0469-0.366-0.0924-0.549-0.1349-0.101-0.0237-0.2-0.0432-0.3-0.0644-0.169-0.0363-0.337-0.0684-0.504-0.0996-0.104-0.0188-0.209-0.0365-0.313-0.0528-0.166-0.0262-0.334-0.051-0.5-0.0722-0.1-0.0125-0.199-0.0259-0.299-0.0371-0.178-0.0188-0.357-0.0344-0.535-0.0469-0.084-0.0063-0.168-0.0138-0.252-0.0176-0.261-0.015-0.52-0.0234-0.777-0.0234zm13.176 0.24414 0.002 0.011719c0.0312 0.2112 0.56923 3.5233 3.873 5.7246 0.8937 0.59624 2.0488 0.94726 2.0488 0.94726l1.4609 21.986s-1.0857 0.47437-2.2207 1.6719c-0.0625 0.06625-0.12414 0.13508-0.18164 0.20508-0.02 0.02375-0.03789 0.04852-0.05664 0.07227-0.03751 0.04625-0.07437 0.09313-0.10938 0.14062-0.0225 0.02875-0.04516 0.05984-0.06641 0.08984-0.03 0.0425-0.05984 0.08516-0.08984 0.12891-0.02125 0.0325-0.04125 0.0632-0.0625 0.0957-0.0275 0.04125-0.05578 0.08375-0.08203 0.125-0.02 0.03375-0.03859 0.06781-0.05859 0.10156-0.025 0.04125-0.04852 0.0818-0.07227 0.12305-0.01875 0.03375-0.03594 0.06711-0.05469 0.09961-0.02125 0.04125-0.04516 0.08109-0.06641 0.12109-0.0175 0.03375-0.03258 0.06711-0.04883 0.09961-0.02 0.04-0.03984 0.07844-0.05859 0.11719-0.01625 0.0325-0.03117 0.0632-0.04492 0.0957-0.01875 0.0375-0.03453 0.07578-0.05078 0.11328-0.01375 0.03-0.02726 0.05984-0.04102 0.08984-0.015 0.03625-0.03117 0.07242-0.04492 0.10742-0.0125 0.0275-0.02391 0.05453-0.03516 0.08203-0.01375 0.035-0.02656 0.06781-0.03906 0.10156-0.01 0.025-0.0206 0.04922-0.0293 0.07422-0.0125 0.0325-0.02391 0.0625-0.03516 0.09375-0.0075 0.02-0.01594 0.0418-0.02344 0.06055-0.01125 0.0325-0.02125 0.06039-0.03125 0.08789-0.005 0.01624-0.01062 0.03312-0.01563 0.04687-0.01 0.03125-0.01864 0.05969-0.02734 0.08594-0.0025 0.0075-0.0053 0.01519-0.0078 0.02148-0.02 0.065-0.03667 0.11367-0.04297 0.13867-0.0038 0.01248-0.0059 0.01758-0.0059 0.01758l0.32617-0.05273c0.005-0.0012 5.2814-0.5482 8.6914-0.25195 2.0287 0.175 4.0881 0.34344 6.0781 0.14844 5.5077-0.5312 10.135-4.0712 11.801-9.6562 1.4225-4.7691 1.4115-8.5356 0.49023-11.516h0.0039c-0.0063-0.02-0.01528-0.04055-0.02148-0.06055-0.085-0.2725-0.17805-0.53617-0.2793-0.79492-0.02-0.0525-0.04125-0.10305-0.0625-0.1543-0.09126-0.2275-0.18726-0.45047-0.29102-0.66797-0.02-0.0425-0.0393-0.08641-0.06055-0.12891-0.11875-0.24375-0.24375-0.48164-0.375-0.71289-0.03-0.05125-0.05789-0.10039-0.08789-0.15039-0.1225-0.2075-0.24836-0.41187-0.38086-0.60937-0.01875-0.0275-0.03789-0.05648-0.05664-0.08398-0.1475-0.21625-0.30094-0.42586-0.46094-0.63086-0.03625-0.0475-0.07383-0.09508-0.11133-0.14258-0.155-0.195-0.31351-0.38656-0.47851-0.57031-0.0087-0.01-0.01854-0.0206-0.02734-0.0293-0.17375-0.19375-0.35336-0.37929-0.53711-0.56054-0.0425-0.0425-0.08445-0.08375-0.12695-0.125-0.18625-0.17875-0.37461-0.35203-0.56836-0.51953-0.0087-0.0075-0.01864-0.01398-0.02734-0.02148-0.1875-0.1625-0.37922-0.3175-0.57422-0.46875-0.04625-0.03625-0.09242-0.07242-0.13867-0.10742-0.2025-0.15375-0.40648-0.30351-0.61523-0.44726-0.02625-0.0175-0.05383-0.03524-0.08008-0.05274-0.19-0.13-0.38382-0.25445-0.58008-0.37695-0.0475-0.02875-0.09508-0.05914-0.14258-0.08789-0.215-0.13125-0.43234-0.2564-0.65234-0.3789-0.03875-0.02125-0.07648-0.04125-0.11523-0.0625-0.19625-0.1075-0.3957-0.21125-0.5957-0.3125-0.045-0.0225-0.08781-0.04516-0.13281-0.06641-0.225-0.11125-0.45093-0.21656-0.67968-0.32031-0.04625-0.02-0.09313-0.04125-0.14062-0.0625-0.20375-0.09-0.41094-0.17602-0.61719-0.25976-0.0375-0.015-0.07258-0.03187-0.11133-0.04687-0.23124-0.0925-0.46351-0.18062-0.69726-0.26562-0.05125-0.01875-0.105-0.03789-0.15625-0.05664-0.21624-0.07625-0.43023-0.1514-0.64648-0.22266-0.025-0.0075-0.05047-0.01669-0.07422-0.02539-0.23625-0.07625-0.47203-0.14805-0.70703-0.2168-0.05375-0.01625-0.1064-0.03383-0.16016-0.04883-0.23375-0.0675-0.46601-0.13211-0.69726-0.19336-0.0025-0.0013-0.0053-0.000753-0.0078-0.002-0.23625-0.06125-0.47203-0.11953-0.70703-0.17578-0.0525-0.0125-0.10375-0.02461-0.15625-0.03711-0.23125-0.05375-0.46-0.10484-0.6875-0.15234l-0.03908-0.0078c-0.21875-0.04625-0.43539-0.08891-0.65039-0.1289-0.0475-0.0087-0.09578-0.01864-0.14453-0.02734-0.22-0.04-0.44-0.07828-0.65625-0.11328-0.0275-0.005-0.05648-0.0087-0.08398-0.01367-0.19625-0.03125-0.39078-0.06039-0.58203-0.08789-0.0425-0.0062-0.08375-0.01333-0.125-0.01953-0.20875-0.03-0.41468-0.05703-0.61718-0.08203-0.0325-0.0038-0.06391-0.0087-0.09766-0.01367-0.18125-0.021249-0.36016-0.041796-0.53516-0.060546-0.0325-0.0038-0.06516-0.00727-0.09766-0.00977-0.1925-0.02125-0.3807-0.039141-0.56445-0.056641-0.03625-0.0025-0.06922-0.00401-0.10547-0.00781-0.16375-0.01375-0.32351-0.027812-0.47851-0.039062-0.025-0.0013-0.05047-0.00336-0.07422-0.00586-0.1725-0.01125-0.33875-0.023203-0.5-0.033203-0.03375-0.0013-0.06516-0.00456-0.09766-0.00586-0.15-0.0078-0.296-0.0143-0.435-0.0205-0.01125 0-0.02391-0.00195-0.03516-0.00195-0.1475-0.00623-0.28492-0.011825-0.41992-0.015625-0.03-0.0013-0.0618-0.0006531-0.0918-0.00195-0.13-0.0037-0.2568-0.00651-0.37304-0.00781-1.6888-0.0275-3.8357 0.062344-5.4218 0.027344-2.625-0.0575-5.0195-0.60547-5.0195-0.60547h-0.002zm31.289 0.3457s0.49921 1.7663 1.043 2.7851c0.465 0.87 1.916 2.1484 1.916 2.1484-0.0888 5.813 0.4571 19.796 1.2246 22.486 0.5388 1.8825 2.2425 4.0986 4.375 4.7012 0.36623 0.10375 0.73351 0.19625 1.1035 0.28125 0.015 0.0025 0.03187 0.008 0.04687 0.01172v-0.002c4.4653 1.0075 9.1148 0.54374 13.264-2.8301 0.0038 0.0125 0.0061 0.02461 0.0098 0.03711 0.0012 0.005 0.0027 0.0093 0.0039 0.01563 0.0025 0.01125 0.0053 0.02266 0.0078 0.03516 0.0025 0.0063 0.0027 0.01323 0.0039 0.01953 0.0012 0.01125 0.0034 0.02195 0.0059 0.0332 0.0012 0.0075 0.0027 0.01594 0.0039 0.02344 0.0013 0.01 0.0066 0.01864 0.0078 0.02734 0.0025 0.01 0.0034 0.0206 0.0059 0.0293 0 0.0062 0.000754 0.0093 0.002 0.01563 0.0025 0.01 0.0047 0.02125 0.0059 0.03125 0 0.005 0.0026 0.008 0.0039 0.01172 0.0063 0.0375 0.0098 0.0625 0.0098 0.0625s-0.85382 0.7471-1.2676 1.2871c-0.70254 0.91375-1.1309 1.7168-1.1309 1.7168s3.1368-0.20836 5.2168-0.19336c1.8963 0.015 4.9883 0.17383 4.9883 0.17383s-0.24554-0.94429-0.56054-1.5293c-0.58128-1.08-1.0485-1.5275-1.3223-1.7812 0.06375-9.35 0.35352-25.351 0.35352-25.351l0.6289-3.8418 0.01172-0.064453c-0.0188 0.00375-2.7541 0.28781-4.9629 0.32031-0.10125 0.0013-0.20625 0.002-0.3125 0.002-0.02125 0-0.0432-0.002-0.06445-0.002-0.11 0-0.2289-0.0014-0.34765-0.0039-1.2225-0.02375-2.8198-0.1232-3.7773-0.18945-0.50124-0.035-0.82812-0.060547-0.82812-0.060547s0.40632 1.6961 0.98632 2.4961c0.49003 0.67499 1.4512 1.5078 1.4512 1.5078s0.71898 15.206 0.58398 17.662c-0.4762 3.5225-3.1246 5.6265-7.5996 5.834-0.2 0.0088-0.39117 0.0083-0.57617 0.002-0.06125-0.0025-0.11898-0.0079-0.17773-0.01172-0.1225-0.0075-0.24242-0.01555-0.35742-0.0293-0.06625-0.0087-0.12766-0.0193-0.1914-0.0293-0.10375-0.015-0.20594-0.03344-0.30469-0.05469-0.06125-0.0125-0.12359-0.02797-0.18359-0.04297-2.0812-0.53-2.9508-2.2105-3.2871-3.7793-0.49625-6.671 0.02734-23.785 0.02734-23.785s-0.0086 0.0007531-0.0098 0.00195c0.0025-0.00625 0.0061-0.012578 0.0098-0.017578 0 0-2.7143 0.34109-4.8281 0.30859-1.9788-0.03-5.209-0.46875-5.209-0.46875h-0.002zm-48.342 6.0044c0.28434-0.0071 0.5753-0.0021 0.87304 0.01758 0.5198 0.0067 1.0413 0.04922 1.5586 0.12305 3.6207 0.5168 7.0913 2.6319 9.2285 5.7031 0.76644 1.1016 1.3615 2.3252 1.7305 3.6426 0.0738 0.26348 0.14003 0.53008 0.19531 0.80078 0.11057 0.5414 0.18164 1.0966 0.21289 1.6641 0.075 1.3632-0.0025 2.6018-0.23633 3.6933-0.11692 0.54576-0.27411 1.056-0.46875 1.5254-0.29199 0.7041-0.6709 1.3176-1.1387 1.834-0.15592 0.17214-0.32055 0.3345-0.49609 0.48437-0.5266 0.4496-1.1417 0.79665-1.8457 1.0332-0.4693 0.1577-0.9788 0.26632-1.5273 0.32226-0.27427 0.02798-0.55937 0.04342-0.85351 0.04492-0.75 0.0041-1.4896-0.0392-2.2168-0.125-0.36361-0.0429-0.72425-0.09555-1.0801-0.16016-0.35583-0.06461-0.708-0.14074-1.0547-0.22656-0.34664-0.08582-0.68726-0.18253-1.0234-0.28906-1.0085-0.31962-1.9682-0.72968-2.8574-1.2266-0.7212-0.40261-1.3964-0.86198-2.0176-1.373-0.41407-0.34071-0.80363-0.70555-1.166-1.0918-0.36242-0.38629-0.69708-0.79298-1.0019-1.2227-0.4573-0.6445-0.84658-1.3379-1.1582-2.0742-0.20775-0.4908-0.38182-1.0003-0.51758-1.5293-0.06787-0.26448-0.12699-0.53497-0.17578-0.80859-0.14638-0.8209-0.20446-1.6817-0.16602-2.5801 0.04243-0.9973 0.18615-1.919 0.42187-2.7558 0.15715-0.55783 0.35452-1.0765 0.5918-1.5566 0.11864-0.24007 0.24695-0.47174 0.38476-0.6914 0.689-1.0983 1.6153-1.9364 2.7402-2.4766 0.22498-0.10802 0.45657-0.2053 0.69726-0.28906 0.24069-0.08377 0.49027-0.15402 0.74609-0.21289 0.5116-0.11773 1.0524-0.18494 1.6211-0.19922zm30.674 1.6367h0.002c0.4937 0.06 1.348 0.10133 1.668 0.17383 3.9687 1.0112 7.4045 3.1048 8.5507 6.9023 0.1525 0.5038 0.27594 1.0587 0.36719 1.6387 0.01125 0.07375 0.0232 0.145 0.0332 0.21875 0.01875 0.14126 0.03578 0.28398 0.05078 0.42773 0.0075 0.06 0.01333 0.11773 0.01953 0.17773 0.01875 0.20375 0.03427 0.41039 0.04297 0.61914 0.0013 0.0375 0.000753 0.07578 0.002 0.11328 0.0063 0.17125 0.0098 0.34383 0.0098 0.51758-0.0013 0.0725-0.0047 0.145-0.0059 0.21875-0.0037 0.14-0.0081 0.28062-0.01563 0.42187-0.005 0.08125-0.01138 0.16164-0.01758 0.24414-0.01 0.135-0.02406 0.27125-0.03906 0.40625-0.01 0.08375-0.01805 0.16554-0.0293 0.24805-0.01875 0.14-0.04141 0.27797-0.06641 0.41797-0.01376 0.07625-0.02602 0.15226-0.04102 0.22851-0.03375 0.16875-0.07273 0.33711-0.11523 0.50586-0.01 0.04375-0.01805 0.08906-0.0293 0.13281-0.05625 0.21125-0.1182 0.41945-0.18945 0.62695-0.01875 0.0575-0.0425 0.11367-0.0625 0.16992-0.055 0.15-0.11062 0.29906-0.17188 0.44531-0.03125 0.075-0.06586 0.14695-0.09961 0.2207-0.05875 0.12875-0.11984 0.25656-0.18359 0.38281-0.04 0.07625-0.07984 0.15352-0.12109 0.22852-0.0675 0.1225-0.13984 0.24328-0.21484 0.36328-0.045 0.07125-0.09117 0.14289-0.13867 0.21289-0.085 0.1275-0.17508 0.25054-0.26758 0.37304-0.045 0.05876-0.08656 0.11898-0.13281 0.17773-0.1425 0.1775-0.29383 0.35203-0.45508 0.51953-2.5388 2.5712-4.4375 3.5326-8.4687 3.3613-0.10625-6.966 0.10914-13.918 0.11914-20.695z"/><path fill="#969c9e" d="m37.636 9.1777c0.03125 0.21125 0.56933 3.5252 3.873 5.7265 0.89375 0.59625 2.0488 0.94726 2.0488 0.94726l1.9141-1.373 1.2773 24.629s-1.1835 0.34651-2.8848 1.2402c-0.64375 0.3375-1.748 1.2164-2.543 1.8789-0.0037 0.0125-0.0059 0.02148-0.0059 0.02148l0.32617-0.05469c0.005 0 5.2814-0.5482 8.6914-0.25195 2.0288 0.17625 4.0881 0.34148 6.0781 0.14648 5.5075-0.53125 10.133-4.068 11.799-9.6543 1.4225-4.7675 1.4115-8.5359 0.49023-11.518l-2.2695-0.28516s-2.1416-6.2703-12.043-8.2578c-7.0925-1.4238-9.9301-0.15554-12.584-0.90428-2.2588-0.63875-3.5016-1.5698-4.168-2.291zm41.312 0.5117c-0.42125 0.7875-1.186 1.2848-2.1348 1.8398-0.87375 0.51125-1.6258 0.71296-2.4258 0.91796 0 9.1038 0.02672 19.251 0.44922 22.822 0.44625 3.7775 3.6484 4.6738 3.6484 4.6738l0.14648 1.9805c4.4638 1.0075 9.1127 0.54371 13.262-2.8301 0.0012 0.0036 0.0029 0.0079 0.0039 0.01172l2.0215-1.5976v3.0723c-0.895 0.2325-1.3922 0.40453-2.2422 0.76953-0.86 0.37125-1.4845 0.68663-2.1133 1.0879 0 0 3.1374-0.2064 5.2187-0.1914 1.8962 0.015 4.9883 0.17383 4.9883 0.17383s-0.24484-0.94434-0.55859-1.5293c-0.58125-1.08-1.0485-1.5275-1.3223-1.7812 0.0637-9.3488 0.34961-25.351 0.34961-25.351l0.63086-3.8418c-0.47625 0.3525-1.6977 1.2253-2.6465 1.6328-0.86375 0.37125-2.3066 0.70508-2.3066 0.70508l0.06641 14.56c0.025 5.8812-0.5104 10.685-7.4941 12.037-4.13 0.80125-6.0195-0.25586-6.0195-0.25586l1.6328-1.3711c0.03875 0.01125 0.0818 0.0193 0.12304 0.0293-2.0812-0.53-2.9488-2.2105-3.2851-3.7793-0.4975-6.6712 0.02344-23.785 0.02344-23.785s-0.0073-0.0012-0.0098 0h-0.0059zm-54.363 1.5469c-3.7008-0.10078-7.4775 1.1969-10.631 4.3476-9.4625 9.4588-2.2432 19.748 0.49804 21.617l-0.28711 2.9726c2.4388 1.6625 5.37 2.6854 8.625 2.7129 10.236 0.0825 18.568-8.4253 18.517-18.664-0.02125-3.7738-1.6412-7.0507-4.0625-9.5957l-2.4824 0.64453c-2.8525-2.4362-6.4767-3.9343-10.178-4.0351zm-4.0039 4.2793v0.002c0.28434-0.0071 0.5753-0.0021 0.87304 0.01758 4.1587 0.05375 8.3453 2.3161 10.789 5.8261l0.6914-2.8906c3.8938 3.9125 5.7468 12.909 0.65429 17.777-3.9712 3.7975-11.983 2.5428-16.523-0.92968l2.5156-0.93945c-3.8462-2.1475-6.4081-5.89-6.2031-10.682 0.21211-4.9863 2.938-8.0745 7.2031-8.1816zm30.674 1.6387c0.49375 0.06 1.3499 0.10133 1.6699 0.17383 3.9688 1.0112 7.4013 3.1048 8.5488 6.9023 0.1525 0.50375 0.27523 1.0587 0.36523 1.6387-0.01125-0.075-0.0207-0.15156-0.0332-0.22656l1.5332-2.2148s3.0802 10.874-6.1211 14.971c-2.695 1.2-7.498 0.85351-7.498 0.85351l1.416-1.418c-0.10569-6.961 0.10915-13.907 0.11914-20.68z"/></g></svg>
