<?xml version="1.0" encoding="UTF-8" standalone="no"?>
<svg xmlns:rdf="http://www.w3.org/1999/02/22-rdf-syntax-ns#" xmlns="http://www.w3.org/2000/svg" xml:space="preserve" height="101.32" width="193.58" version="1.0" xmlns:cc="http://creativecommons.org/ns#" xmlns:dc="http://purl.org/dc/elements/1.1/" viewBox="0 0 193.58039 101.32313"><g transform="matrix(.5 0 0 .5 .39072 .53380)"><path d="m284.16 30.648c0.77125-2.1488 1.7712-4.9275 1.7712-4.9275l-34.1-25.22h-3.4175-51.412c-23.465 0-41.371 17.501-50.064 30.211h-63.471c-10.316-0.2075-39.628 4.5362-48.724 28.66-4.95 13.104-13.326 39.922-17.87 54.744 0 0-0.21125 0.6675-0.2625 0.83625h-0.0075l-15.925 50.985s73.148 0.0162 94.76 0.0162c-0.845 2.1338-2.005 5.0638-2.005 5.0638l36.099 28.13 51.68-0.0525c26.852 0 45.115-17.72 54.796-36.594 2.3425 1.6025 7.9138 5.4063 7.9138 5.4063h57.04c12.832 0.715 36.089-4.7075 45.279-29.69 0.0113-0.0213 14.364-40.489 14.364-40.489 0.0738-0.22 6.27-17.841 6.27-17.841-0.007-0.0525 12.209-35.465 12.209-35.465l4.755-13.774h-99.679"/><path fill="#ff6600" d="m278.65 27.929-28.82-21.319h-1.4162-51.411c-22.725 0-39.695 18.629-46.7 30.206h-66.836c-8.6138-0.17125-35.195 4-43.01 24.71-4.885 12.949-18.672 57.412-18.672 57.412l-12.794 40.89s84.458 0.0163 95.453 0.0163c-1.2275 3.0838-3.64 9.1625-3.64 9.1625l30.836 24.022 49.566-0.0488c27.056 0 44.481-20.275 52.255-39.616 4.6112 3.1475 12.356 8.4225 12.356 8.4225h55.196c11.045 0.725 31.474-3.8562 39.5-25.688 0-0.005 14.332-40.409 14.332-40.409 0.0713-0.21 6.2662-17.834 6.2662-17.834-0.0175-0.0175 12.202-35.432 12.202-35.432l1.955-5.67h-99.77c1.0425-2.9212 3.1525-8.8288 3.1525-8.8288"/><path d="m273.55 29.471-25.13-18.598h-51.411c-23.161 0-39.595 21.459-44.308 30.209h-69.229c-9.4338-0.18875-32.421 4.4638-39.004 21.944-4.9588 13.12-13.644 41.039-17.668 54.121l12.405 8.3488-14.982-0.11-9.415 30.158 95.934 0.0213-4.7775 12.031 27.14 21.149 48.101-0.0425c29.47 0 44.998-25.665 50.125-41.974l15.806 10.775h53.908c9.58 0.725 28.19-3.1262 35.459-22.886 2.9962-8.1813 13.914-39.238 14.381-40.568l6.2-17.62h-0.0362l12.226-35.402h-99.839l4.12-11.556"/><path fill="#ff6600" d="m195.1 22.217-2.9726 0.76172c-11.569 2.964-22.001 12.846-29.639 28.076-2.7864 5.556-3.7612 8.034-9.3262 23.709-4.8029 13.529-4.948 14.023-4.3281 14.625 0.353 0.343 10.985 8.6264 23.629 18.406 12.644 9.7802 23.026 17.964 23.072 18.189 0.0459 0.225-1.9496 6.0165-4.4356 12.869l-4.5215 12.459-15.129 0.0918c-8.3218 0.0503-15.13 0.0503-15.129 0s1.3585-3.7244 3.0156-8.1641c1.6572-4.4397 3.0958-8.3497 3.1973-8.6875 0.175-0.58298-2.4854-0.61328-52.443-0.61328-28.946 0-58.544-0.10337-65.771-0.23047l-13.141-0.23242-1.6562 5.584c-0.91162 3.0708-1.6587 5.7016-1.6582 5.8457 0 0.14411 22.473 0.30071 49.939 0.34961l49.939 0.0898-3.4375 9.3008c-1.8898 5.1153-3.3963 9.5137-3.3477 9.7734s3.7205 3.1353 8.1602 6.3906l0.002-0.002 8.0723 5.9199 24.744-0.0937c24.275-0.0905 24.797-0.10617 27.688-0.86915 3.3828-0.89309 7.856-2.902 10.811-4.8555 2.66-1.7588 7.0601-5.9522 9.6465-9.1914 3.8969-4.881 8.1599-13.174 10.148-19.748 0.4313-1.426 3.1248-9.369 5.9863-17.652 3.2893-9.5212 5.0861-15.202 4.8848-15.443-0.175-0.211-10.512-8.6727-22.967-18.807s-22.653-18.589-22.664-18.787c-0.0106-0.198 1.8391-5.4103 4.1094-11.582l4.127-11.221 15.176-0.0918c8.3461-0.05031 15.174-0.03828 15.174 0.02734 0 0.195-3.6904 10.02-4.873 12.973-0.60122 1.5011-1.0938 2.803-1.0938 2.8945 0 0.09149 29.259 0.16326 65.018 0.16016l65.016-0.0059 2.1406-5.3457 2.1406-5.3457-12.67-0.2168c-6.968-0.1183-29.449-0.23525-49.959-0.26172-20.509-0.02646-37.291-0.14563-37.291-0.26367-0.00001-0.118 1.5246-4.4795 3.3887-9.6934 2.7471-7.6835 3.2967-9.5354 2.8965-9.7715-0.2716-0.1602-3.65-2.5903-7.5078-5.3984l-7.0137-5.1055-2.6387 0.0098c-1.451 0.0045-12.508-0.17925-24.572-0.4082l-21.936-0.41797zm-63.527 31.354-27.902 0.0918-27.902 0.08984-2.457 0.82031c-8.1214 2.708-14.369 8.5037-17.662 16.385-1.298 3.108-15.283 43.67-15.107 43.818 0.0723 0.0611 3.6769 2.5878 8.0117 5.6152l7.8809 5.5039 25.637-0.12109c27.996-0.1325 26.927-0.0586 32.434-2.25 5.2168-2.0763 10.169-6.0241 12.613-10.057 0.6732-1.111 4.6565-11.571 9.5293-25.025 4.605-12.715 8.5393-23.549 8.7441-24.076 0.3693-0.9503 0.31454-0.99905-6.7227-5.877l-7.0957-4.918zm-48.904 11.578h18.221c14.93-0.000001 18.223 0.08423 18.223 0.4668 0 0.257-3.8531 11.273-8.5625 24.48h-0.002l-8.5625 24.012-17.936 0.0918c-9.9553 0.0505-17.934-0.044-17.934-0.21289 0-0.292 14.863-44.267 16.002-47.346l0.55078-1.4922zm174.81 8.0684-3.0879 8.6855c-1.698 4.778-6.6076 18.559-10.91 30.623-6.0569 16.984-7.7263 22.025-7.3984 22.338 0.2329 0.222 3.6877 2.6292 7.6777 5.3496l7.2539 4.9473 25.211 0.0898c13.866 0.0495 26.317 0.0351 27.668-0.0312 6.878-0.3374 13.264-3.4084 17.41-8.373 3.097-3.708 2.777-2.8822 17.373-44.783 3.5505-10.193 6.4551-18.605 6.4551-18.693 0-0.08849-5.865-0.11897-13.031-0.06836l-13.029 0.0918-2.7305 7.8965c-1.5021 4.343-5.4906 15.884-8.8633 25.645s-6.5832 18.669-7.1348 19.795c-1.3108 2.6771-3.5319 4.9192-6.0254 6.0879l-2.0078 0.9414-15.004 0.10547c-8.2523 0.0579-15.004 0.0353-15.004-0.0508 0-0.131 20.452-58.817 20.965-60.158 0.132-0.34608-2.5706-0.4375-12.809-0.4375h-12.979z"/></g></svg>
