<?xml version="1.0" encoding="UTF-8" standalone="no"?>
<svg xmlns:rdf="http://www.w3.org/1999/02/22-rdf-syntax-ns#" xmlns="http://www.w3.org/2000/svg" height="103.95pt" width="183.5pt" version="1.1" xmlns:cc="http://creativecommons.org/ns#" xmlns:dc="http://purl.org/dc/elements/1.1/" viewBox="0 0 183.49922 103.94627">
 <g>
  <path d="m72.191 1.1602c-2.224-0.0258-4.482 0.0544-6.773 0.2421-22.642 1.7872-39.009 8.0794-51.504 19.803l-0.078 0.078-0.117 0.113c-5.7926 5.738-12.359 12.239-12.623 21.545l-0.0198 0.58 0.1406 0.563c0.4834 1.938 1.9434 7.729 7.2949 9.643 3.8963 2.045 8.6443 0.962 11.633-0.678l0.322-0.176 0.283-0.23c3.027-2.427 5.093-5.307 7.09-8.09 1.382-1.914 2.699-3.756 4.252-5.299-0.117 0.83-0.196 1.612-0.254 2.281l-0.029 0.322 0.019 0.323c0.914 13.889 1.548 27.966 2.158 41.58l0.996 21.34 0.02 0.13c0.137 1.19 0.171 2.48 0.205 3.85 0.117 4.41 0.259 9.9 4.561 13.97l0.312 0.3 0.367 0.23c7.622 4.7 19.63 6.47 27.828 0.75l0.424-0.29 0.338-0.39c2.188-2.5 3.334-5.48 3.412-8.86l-0.004 0.18c0.23-3.43 0.317-6.73 0.317-9.97 0-4.92-0.205-9.697-0.41-14.639 0.136-0.019 0.264-0.028 0.406-0.052-0.088 0.01-0.176 0.029-0.264 0.039l0.274-0.039c11.708-1.407 21.902-5.504 30.382-12.198-0.01 0.542-0.02 1.079-0.02 1.621 0 1.563 0.05 3.115 0.1 4.653 0.05 1.474 0.1 2.921 0.1 4.322 0 2.71-0.19 5.244-0.92 7.481-0.32 0.6-0.86 1.601-0.86 1.601-1.31 2.541-2.204 4.101-3.532 4.281l-0.772 0.11-0.684 0.37c-0.654 0.37-1.343 0.27-3.365-0.22-1.645-0.41-3.696-0.92-6.025-0.66l-0.141 0.02-0.142 0.02c-2.134 0.4-5.776 1.97-6.196 8.05l-0.054 0.73 1.406 4.92 0.439 0.6c3.716 5.08 9.311 8.65 16.631 10.59l0.28 0.08 0.283 0.03c6.022 0.75 11.752-1 16.782-5 4.97 4.32 10.64 6.64 16.9 6.86 7.71 0.37 13.1-3.82 16.47-7.01l-0.21 0.2c0.2-0.16 0.34-0.34 0.51-0.51 2.95 2.67 6.56 4.58 10.54 5.48 0 0 0.01 0.01 0.02 0.01h0.02c8.19 1.97 16.05-0.48 22.97-7.04 0.02 0.01 0.02 0.02 0.03 0.03 8.81 6.92 18.82 8.85 26.94 5.22 8.25-2.52 14.14-10.65 16.69-16.91l0.21-0.52 0.17-1.39c0.1-0.85 0.23-1.92 0.23-3.1 0-2.7-0.7-5.899-4.09-7.96l-0.05-0.002-0.11-0.064-0.11-0.059c-3.45-1.821-7.69-1.582-10.8 0.616l-0.39 0.279-0.26 0.287-1.98 2.223c-1.34 1.543-2.61 2.99-4.01 4.03-0.16-0.03-0.41-0.13-0.76-0.31-0.05-0.14-0.11-0.29-0.16-0.44 0 0-0.2-0.47-0.41-0.95-0.53-3.263-0.71-6.683-0.71-10.145 0-2.978 0.13-5.991 0.25-8.955 0.04-0.893 0.07-1.802 0.1-2.715 1.4 0.825 2.94 1.651 4.72 2.168l0.34 0.098 0.35 0.045c1.6 0.18 5.84 0.664 8.29-3.067 2.13-3.125 3.27-7.006 3.27-10.937 0-1.524-0.17-3.052-0.52-4.551l-0.2-0.875-0.54-0.713c-3.83-5.078-8.97-8.172-13.49-10.896 0 0-0.06-0.039-0.07-0.039 0.14-1.91 0.33-4.346 0.33-4.346l-0.03-0.342c-0.01-0.181-0.02-0.372-0.02-0.572 0-0.772 0.1-1.679 0.21-2.631 0.12-1.064 0.25-2.266 0.25-3.525 0-2.383-0.48-4.972-2.46-7.233l-0.09-0.097c-2.6-2.793-5.91-3.316-8.11-3.663l-0.39-0.062-0.39 0.014c-5.72 0.175-11.14 2.398-16.56 6.793l-1.31 1.068-0.36 2.93 0.01 0.263 0.22 4.381c0.08 1.358 0.15 2.665 0.19 3.949-2.83 0.435-5.72 1.086-8.77 1.936 0.03-1.069 0.07-2.463 0.07-2.463 0.01-0.898 0.12-1.82 0.23-2.807 0.14-1.167 0.29-2.456 0.29-3.814 0-1.782-0.26-3.671-1.13-5.551l-0.12-0.254-0.14-0.23c-2.66-4.165-7.23-4.55-10.25-4.799l-0.75-0.064-0.65 0.156c-4.52 1.069-11.14 3.169-16.46 8.994l-1.36 1.5 0.32 2.006c0.49 3.003 0.66 6.232 0.85 9.65 0.08 1.455 0.16 2.935 0.27 4.414-0.53-0.303-1.07-0.655-1.64-1.109l-1.04-0.834-1.35-0.078c-2.09-0.117-5.26 0.508-8.4 4.17l-0.87 1.009-0.13 1.329c-0.09 1.049-0.17 2.252-0.18 3.521-2.3-0.913-4.77-0.963-6.71-0.982-0.88-0.005-1.71-0.01-2.44-0.079l-0.45-0.048-0.58 0.074-0.54 0.062c2.88-5.014 4.93-10.776 4.98-17.349v-0.088c0.02-0.583 0.05-1.17 0.05-1.752 0-14.614-8.33-28.274-22.095-35.988l-0.082-0.0375-0.087-0.0429c-8.125-4.0801-17.103-6.1929-26.739-6.3047l-0.006-0.0117zm-8.822 26.065h0.002c5.18 0.11 11.17 1.054 16.238 4.039l0.092 0.052c5.347 2.969 7.305 9.213 8.613 15.541 0.137 0.918 0.211 1.812 0.211 2.686 0 4.258-1.661 7.95-4.791 10.605-3.203 2.066-7.161 2.941-11.351 3.854 0 0-0.284 0.059-0.494 0.107-0.327 0.035-0.732 0.078-1.049 0.112-0.352-4.956-1.045-14.659-1.045-14.659 0-0.034-0.156-2.128-0.156-2.128-0.254-3.58-0.494-6.958-1.471-10.561-1.201-4.287-4.676-7.65-9.686-9.516 0.015-0.004 0.031-0.009 0.045-0.009 1.482-0.104 3.116-0.16 4.842-0.123zm115.68 45.191c0.1 1.196 0.15 2.441 0.15 3.721 0 1.679-0.07 3.409-0.13 5.113 0 0-0.09 2.627-0.11 3.174-0.8 4.888-1.74 9.565-3.94 13.314-1.09 0.899-1.74 1.244-2.3 1.205l-0.24-0.013-0.24 0.009c-0.67 0.03-1.27-0.566-1.56-1.181-1.75-4.058-1.81-9.004-1.87-14.238 0 0-0.07-3.448-0.08-3.741 0-0.107 0.08-3.232 0.15-5.781 2.94-0.947 6.29-1.455 10.17-1.582zm-46.52 4.197c2.93 1.719 6.34 1.851 9.06 1.934 0.11 0 0.21 0.005 0.32 0.01 0.09 1.333 0.13 2.67 0.13 4.007 0 6.802-1.07 13.575-3.09 19.356-0.97 1.76-1.57 2.22-1.75 2.32h-0.02-0.12c-1-0.02-2.21-0.48-2.67-1.43-1.47-5.699-1.79-12.048-2-18.601v-0.068l-0.01-0.069c-0.04-0.619-0.05-1.224-0.05-1.824 0-1.24 0.07-2.472 0.13-3.746 0.04-0.615 0.05-1.259 0.07-1.889z" fill="#b3a369" transform="matrix(0.8 0 0 0.8 0 -.0016418)"/>
  <path d="m72.076 5.3574c-2.082-0.0221-4.203 0.0548-6.359 0.2305-18.184 1.4357-35.536 6.0781-48.969 18.682-5.469 5.414-11.268 11.11-11.492 18.791 0.6639 2.656 1.8192 5.859 4.861 6.796 2.324 1.441 5.747 0.722 7.959-0.494 5.308-4.257 7.573-10.722 13.1-14.925 7.959-6.187 17.022-9.728 26.861-11.276 8.291-0.605 16.855 0.445 23.711 4.479 6.963 3.872 9.282 11.497 10.723 18.513 1.049 6.743-1.049 13.155-6.244 17.414-4.092 2.706-8.845 3.648-13.655 4.698-1.992 0.166-3.7 0.55-5.638 0.277l-1.329-18.686c-0.327-4.199-0.44-8.013-1.49-11.88-1.162-4.146-5.415-6.411-9.228-7.348-5.254-0.503-11.134-0.465-15.313 2.982-2.851 2.036-3.315 5.138-3.594 8.287 1.387 21.06 2.105 42.007 3.155 62.842 0.62 5.34-0.61 11.39 3.482 15.25 6.358 3.93 16.637 5.48 23.213 0.89 1.548-1.77 2.319-3.82 2.377-6.19 0.664-9.89 0.108-18.568-0.277-28.465 1.162 0.097 2.544 0.225 4.033-0.053 11.885-1.382 22.606-5.695 31.557-13.928 7.41-7.793 13.38-16.304 13.43-26.973h0.01c0.72-14.256-7.58-27.138-19.905-34.046-7.632-3.817-15.957-5.7701-24.979-5.8656v-0.002zm123.98 26.481c-5.42 0.166-9.95 2.544-14.04 5.859l-0.11 0.885c0.11 4.204 0.67 8.183 0.33 12.162-5.19 0.493-10.05 1.656-14.81 3.151-0.83 0.107-1.6 0.716-2.43 0.218l0.22-7.738c0.06-3.482 1.27-7.075-0.22-10.277-1.55-2.432-4.47-2.651-7.13-2.875-5.36 1.274-10.33 3.373-14.32 7.738 1 6.138 0.78 12.988 1.66 19.346l-0.27 0.55c-3.32 0.332-6.19-0.993-8.68-2.98-1.94-0.112-3.65 1.155-4.97 2.703-0.33 3.486-0.34 7.521 1.37 10.559 2.83 4.145 8.52 2.762 12.89 3.48l0.27 0.279c1.11 9.673 0.11 20.01-2.98 28.682-1.11 2.1-2.99 5.09-5.86 4.87-2.76-0.06-5.53-1.55-6.58-4.21-1.66-6.243-1.99-13.04-2.21-19.89-0.33-5.142 0.77-9.4-0.16-14.317-2.1-3.979-6.69-2.818-10.67-3.209-3.32 0.498-7.74 0.226-8.95 3.981-2.66 8.569 0.71 18.74-2.11 26.972-1.88 3.213-3.31 7.843-7.732 8.453-3.701 2.05-7.074-0.82-10.941-0.38-2.105 0.39-2.627 2.23-2.764 4.2l0.992 3.48c3.594 4.92 8.9 7.57 14.315 9.01 6.25 0.78 11.72-1.83 16.03-6.25l0.55-0.11c4.59 4.98 10.11 7.96 16.75 8.19 5.36 0.27 9.61-2.27 13.43-5.86 1.21-1 1.88-2.66 3.26-3.43 2.82 3.98 7.02 6.57 11.44 7.57 8.9 2.15 16.42-2.32 22.11-9.12 0.94 0.78 1.27 1.99 2.37 2.76 6.25 4.98 15.15 8.46 23.1 4.7 6.47-1.87 11.78-8.56 14.21-14.53 0.28-2.6 1.05-6.09-1.77-7.8-1.99-1.05-4.53-0.991-6.41 0.332-2.32 2.488-4.25 5.198-6.96 7.078-1.61 1.1-3.77 0.38-5.25-0.5-1.5-0.82-1.55-2.49-2.27-3.81-1.61-9.286-0.39-19.238-0.33-28.52l0.33-0.941c3.48 0.942 6.19 3.701 9.62 4.697 1.44 0.166 3.31 0.331 4.31-1.217 2.32-3.369 3.14-7.899 2.15-12.211-3.92-5.2-9.5-8.071-14.59-11.22l0.5-6.577c-0.34-3.872 1.71-8.456-1-11.552-1.54-1.656-3.59-2.047-5.69-2.379v-0.002zm-16.25 36.308c0.77-0.012 1.54-0.01 2.32 0.004l0.5 0.166c1.22 5.083 0.61 11.168 0.5 16.53-0.89 5.415-1.94 10.996-4.87 15.644-1.71 1.49-3.48 2.81-5.86 2.65-2.48 0.11-4.58-1.5-5.58-3.65-2.59-5.967-2.1-13.044-2.32-19.732l0.22-8.731c4.7-2.033 9.72-2.795 15.09-2.879v-0.002z" fill="#0c2340" transform="matrix(0.8 0 0 0.8 0 -.0016418)"/>
 </g>
</svg>
