<?xml version="1.0" encoding="UTF-8" standalone="no"?>
<svg xmlns:rdf="http://www.w3.org/1999/02/22-rdf-syntax-ns#" xmlns="http://www.w3.org/2000/svg" xml:space="preserve" height="199.84" viewBox="0 0 252 199.84375" width="252" version="1.1" xmlns:cc="http://creativecommons.org/ns#" xmlns:dc="http://purl.org/dc/elements/1.1/"><g transform="matrix(1.25 0 0 -1.25 -189.9 800.56)"><g transform="matrix(3.8226 0 0 3.8226 -710.49 -1579.2)"><path d="m23.975 1.9297c-9.3825 3.7325-15.667 10.895-15.451 18.951 0.225 8.33 7.3386 15.332 17.434 18.408-8.7425-3.58-14.734-10.466-14.951-18.527-0.20875-7.7538 4.975-14.713 12.969-18.832zm-17.965 36.84c-0.565 0-0.97516 0.0257-1.2227 0.0957-0.41375 0.11-0.70125 0.35922-0.84375 0.73047l-1.0918 2.8691c-0.205 0.5375 0.27281 0.80078 1.4453 0.80078h2.1094l-1.0918 2.8672h-2.8164l-1.459 0.82813h4.209c1.1575 0 1.8408-0.27688 2.0508-0.82813l1.0938-2.8672c0.205-0.5375-0.27484-0.80078-1.4336-0.80078h-2.123l1.0938-2.8691h2.9062l1.291-0.82617h-4.1172zm5.1797 2.1406c-0.4175 0-0.71156 0.02031-0.88281 0.07031-0.32125 0.0925-0.52977 0.26602-0.63477 0.54102l-1.8418 4.8301c-0.15625 0.40875 0.19453 0.61328 1.0508 0.61328h1.7422c0.3875 0 0.67172-0.02102 0.85547-0.07227 0.35-0.09125 0.56883-0.26476 0.67383-0.54102l1.8398-4.8301c0.1025-0.26625 0.04617-0.43805-0.17383-0.5293-0.13375-0.05125-0.42797-0.08203-0.88672-0.08203h-1.7422zm3.5781 0-2.0762 5.4414c-0.04375 0.1125 0.01766 0.22492 0.16016 0.35742 0.19 0.17375 0.49484 0.25586 0.90234 0.25586h1.7422c0.85625 0 1.3613-0.20453 1.5176-0.61328l2.0742-5.4414h-1.4688l-2.0742 5.4414h-1.3848l2.0723-5.4414h-1.4648zm4.748 0-0.23242 0.61133 1.0293-0.0039-2.084 5.4473h1.4668l2.0977-5.4473 0.98438 0.0039 0.23438-0.61133h-3.4961zm4.0566 0-2.3086 6.0547h1.4688l1.041-2.7324h1.3848l-1.041 2.7324h1.4688l2.3066-6.0547h-1.4668l-1.041 2.7324h-1.3848l1.0391-2.7324h-1.4668zm-12.427 0.589l1.3789 0.02148-1.8418 4.8301h-1.3867l1.8496-4.852zm32.783 6.3906c-0.50625 0-0.95641 0.12078-1.3477 0.36328-0.39125 0.24125-0.69516 0.58008-0.91016 1.0176-0.215 0.4375-0.32227 0.91766-0.32227 1.4414 0 0.6275 0.17031 1.1147 0.50781 1.4609 0.33875 0.34625 0.79484 0.51953 1.3711 0.51953 0.64 0 1.2862-0.17836 1.9375-0.53711l0.41992-2.1836h-1.9531l-0.18945 0.96875h0.79102l-0.09375 0.49805c-0.20125 0.1525-0.43562 0.22852-0.70312 0.22852h-0.01172c-0.23375 0-0.42688-0.08672-0.57812-0.26172-0.15125-0.17375-0.22656-0.39094-0.22656-0.64844 0-0.44625 0.10094-0.86266 0.30469-1.2539 0.20375-0.39125 0.48133-0.58594 0.83008-0.58594 0.35625 0 0.59274 0.18328 0.70898 0.55078l1.274-0.158c-0.215-0.94875-0.81734-1.4219-1.8086-1.4219zm18.131 0c-0.3575 0-0.66367 0.06039-0.91992 0.18164s-0.45219 0.29172-0.58594 0.51172c-0.135 0.22-0.20117 0.46227-0.20117 0.72852 0 0.29125 0.08164 0.5418 0.24414 0.74805 0.16375 0.2075 0.55297 0.43273 1.168 0.67773 0.2675 0.1075 0.43516 0.20195 0.50391 0.2832 0.06875 0.08 0.10352 0.16867 0.10352 0.26367 0 0.12625-0.05461 0.23914-0.16211 0.33789-0.1075 0.1-0.2625 0.14844-0.46875 0.14844-0.20375 0-0.36352-0.05773-0.47852-0.17773-0.11625-0.11875-0.17383-0.32453-0.17383-0.61328l-1.2168 0.0918v0.10742c0 0.44375 0.14047 0.80734 0.41797 1.0898 0.27875 0.28375 0.74906 0.42383 1.4141 0.42383 0.47125 0 0.83555-0.07461 1.0918-0.22461 0.25625-0.15125 0.45359-0.34438 0.58984-0.57812 0.135-0.2325 0.20312-0.48586 0.20312-0.75586 0-0.2875-0.0632-0.52625-0.18945-0.71875-0.125-0.19125-0.28688-0.34875-0.48438-0.46875-0.19875-0.12-0.45648-0.24781-0.77148-0.38281-0.25-0.10375-0.40711-0.18836-0.47461-0.25586-0.06625-0.06625-0.09961-0.13719-0.09961-0.21094 0-0.10125 0.04125-0.18922 0.125-0.26172 0.0825-0.07375 0.20172-0.10938 0.35547-0.10938 0.37875 0 0.58117 0.20297 0.60742 0.60547l1.2109-0.07227c-0.0725-0.9125-0.67484-1.3691-1.8086-1.3691zm-26.312 0.07422-0.55078 2.8359c-0.03625 0.19375-0.07297 0.34492-0.10547 0.45117-0.03375 0.105-0.08359 0.19031-0.15234 0.25781-0.0675 0.06875-0.16391 0.10352-0.28516 0.10352-0.25375 0-0.38086-0.12976-0.38086-0.38476v-0.09766c0-0.06 0.0042-0.12094 0.01172-0.17969v-0.05469l-1.2227 0.1543c-0.01875 0.13125-0.0293 0.23992-0.0293 0.32617 0 0.30375 0.05672 0.54867 0.16797 0.73242 0.11125 0.1825 0.25328 0.31398 0.42578 0.39648 0.1725 0.08125 0.34367 0.13234 0.51367 0.15234 0.16875 0.02 0.35484 0.03125 0.55859 0.03125 0.5075 0 0.89391-0.11148 1.1602-0.33398 0.2675-0.2225 0.46219-0.65492 0.58594-1.2949 0.005-0.04875 0.01149-0.08227 0.02148-0.10352l0.58008-2.9922h-1.2988zm3.207 0-2.3652 4.6465h1.3945l0.32617-0.75977h1.3652l0.05664 0.75977h1.2676l-0.66406-4.6465h-1.3809zm7.8926 0-0.43164 2.25c-0.05125 0.26375-0.07813 0.54008-0.07813 0.83008 0 0.22875 0.03336 0.44188 0.09961 0.64062 0.06625 0.2 0.17406 0.37891 0.32031 0.53516 0.14625 0.155 0.32727 0.27281 0.54102 0.35156 0.21375 0.0775 0.50062 0.11719 0.85938 0.11719 0.645 0 1.1327-0.15695 1.459-0.4707 0.32875-0.31375 0.55609-0.79812 0.68359-1.4531l0.54297-2.8008h-1.3047l-0.478 2.535c-0.07625 0.40125-0.18703 0.67055-0.33203 0.81055-0.14625 0.14-0.3218 0.20898-0.5293 0.20898-0.3925 0-0.58984-0.18328-0.58984-0.55078 0-0.1375 0.0107-0.26812 0.0332-0.39062l0.50391-2.6133h-1.2988zm5.8008 0-2.3633 4.6465h1.3926l0.32617-0.75977h1.3652l0.05664 0.75977h1.2695l-0.66602-4.6465h-1.3809zm3.4062 0-0.88672 4.6445h1.2988l0.35742-1.8867h0.06836c0.11 0 0.2057 0.03195 0.2832 0.0957 0.07875 0.06375 0.19461 0.29266 0.34961 0.69141 0.15625 0.3975 0.2893 0.76461 0.4043 1.0996h1.3672c-0.365-1.0638-0.67891-1.7149-0.94141-1.9512 0.44375-0.07625 0.76625-0.25023 0.96875-0.52148s0.30273-0.58742 0.30273-0.95117c0-0.335-0.09516-0.62258-0.28516-0.86133-0.19-0.24-0.491-0.36-0.903-0.36h-2.3828zm1.1172 0.94141h0.6582c0.23625 0 0.38898 0.03406 0.45898 0.10156 0.07125 0.0675 0.10547 0.1618 0.10547 0.2793 0 0.09375-0.02789 0.18906-0.08789 0.28906-0.05875 0.10125-0.14828 0.17164-0.26953 0.21289-0.12 0.0425-0.38758 0.06445-0.79883 0.06445h-0.24609l0.17969-0.94727zm-17.719 0.26562h0.01172l0.12891 1.6934h-0.86133l0.7207-1.6934zm13.693 0h0.01172l0.12891 1.6934h-0.86133l0.7207-1.6934z" transform="matrix(.8 0 0 -.8 225.08 581.2)" stroke="#bf0d3e" stroke-width="0.1" fill="#bf0d3e"/><path d="m35.305 1.0898c-1.6397-0.028-5.5875 0.12225-9.7285 1.666-1.8435-0.58054-1.991 0.46387-1.9902 0.83203-4.2323 2.0704-8.3188 5.8246-10.023 12.613 0 0-3.7402 16.702 14.496 22.227 0 0-0.89102-1.7299-0.82227-3.7637 0.07-2.035 1.5042-4.1961 1.8242-4.0586 1.4538 0.6225 2.7905 1.4591 3.668 1.9629 0.87625 0.505 4.542 3.1341 8.957 3.8691 1.94 0.32375 1.1312 0.26609 3.0938 0.43359 1.61 0.1375 3.8007 0.17226 5.5332-1.1777 0.79375-0.62 2.0932-3.2775 2.5332-4.3125 0 0-0.21422-5.5279 3.457-10.869 0 0 3.4932-1.6395 3.2207-4.332 0 0 0.97734-1.323 1.4023-2.4043 0 0-2.5008-2.218-5.2383-4.123 0 0 0.08763-0.35617 0.19141-0.82617 0 0-1.882-1.8705-6.4258-4.293 0 0-5.7778-3.3527-13.352-3.4102 0 0-0.2863-0.024453-0.79687-0.033203zm-3.887 37.68c-1.1725 0-1.8464 0.24789-2.0352 0.74414l-2.8398 7.4473h1.9863l1.4082-3.6973h1.875l-1.4082 3.6973h1.9863l2.8379-7.4473c0.18875-0.49625-0.29555-0.74414-1.4668-0.74414h-2.3438zm-0.05664 0.75781h1.875l-1.1035 2.8965h-1.875l1.1035-2.8965zm12.967 1.3711-2.3105 6.0664h3.0059c0.8775 0 1.3938-0.20453 1.5488-0.61328l0.73-1.914c0.05125-0.1325 0.04687-0.25617-0.01563-0.35742-0.0575-0.0925-0.16047-0.14258-0.29297-0.14258 0.1325 0 0.25992-0.04078 0.38867-0.11328 0.13-0.07125 0.21547-0.16266 0.26172-0.28516l0.77344-2.0273c0.15625-0.40875-0.19648-0.61328-1.0527-0.61328h-3.0371zm-3.8809 0.0078c-0.8675 0-1.3639 0.18133-1.5039 0.54883l-2.0996 5.5059h1.4688l1.041-2.7324h1.3867l-1.041 2.7324h1.4668l2.0996-5.5059c0.13875-0.3675-0.21969-0.54883-1.0859-0.54883h-1.7324zm-5.0508 0.0039-2.3066 6.0547h3.3535l0.23242-0.61328h-1.875l2.0742-5.4414h-1.4785zm18.887 0-2.3086 6.0527h1.4668l1.6426-4.0723-0.28516 4.0723h1.5391l2.5898-3.7383-1.2461 3.7383h1.4688l2.3086-6.0527h-2.3555l-2.707 3.752 0.10742-3.752h-2.2207zm-3.8379 0.0039c-0.8675 0-1.3639 0.18328-1.5039 0.55078l-2.0996 5.5039h1.4688l1.0391-2.7324h1.3887l-1.041 2.7324h1.4668l2.0977-5.5039c0.14-0.3675-0.21774-0.55078-1.084-0.55078h-1.7324zm12.859 0c-0.8675 0-1.3639 0.18328-1.5039 0.55078l-2.0996 5.5039h1.4688l1.041-2.7324h1.3867l-1.041 2.7324h1.4668l2.0977-5.5039c0.14-0.3675-0.21774-0.55078-1.084-0.55078h-1.7324zm-22.898 0.55078h1.3867l-0.81641 2.1426h-1.3867l0.81641-2.1426zm9.998 0.0098h1.3867l-0.81641 2.1406h-1.3867l0.81641-2.1406zm12.859 0h1.3867l-0.81641 2.1406h-1.3867l0.81641-2.1406zm-17.699 0.03711h1.3848l-0.80859 2.1191h-1.3848l0.80859-2.1191zm-1.0059 2.6406h1.3848l-0.83789 2.1992h-1.3867l0.83984-2.1992zm-43.128 4.145 1.8183 1.076h30.283l0.0078-1.0762h-32.109z" transform="matrix(.8 0 0 -.8 225.08 581.2)" stroke="#00205b" stroke-width="0.2" fill="#00205b"/><path d="m34.84 1.916s-3.8586 0.018281-7.1211 1.0508c0 0 5.5462 0.7782 5.7637 0.81445 0 0-4.8559-0.1618-5.3809-0.2168 0 0-3.2452-0.43438-3.5352-0.45312 0 0-0.74406-0.1443-0.50781 0.68945 0 0 0.68906 2.0117 2.6641 4.5117 0 0 1.0512 1.613 1.2324 2.0293 0 0-0.19852 0.19898-0.41602-0.07227 0 0-3.1541-3.9869-3.8066-5.6719 0 0-7.5186 3.3526-9.3398 12.893 0 0-1.842 12.61 9.5293 18.387 0 0-9.6781-6.7973-0.48438-15.527 0 0-3.0322 5.1252 1.4766 7.3164 0 0 4.1648 1.1404 7.0098 3.0254 0 0 5.3443 3.5322 8.498 4.4922 0 0 2.9349 1.0327 4.6387 1.1602 0 0 2.4471 0.47141 4.3496-0.65234 0 0 2.0009-1.3742 2.6309-4.6367 0 0-5.6394 2.7339-13.141 0.16016 0 0-3.5418-1.045-3.3105-4.2188 0 0 0.82633-5.4374 9.7051-6.6699 0 0 0.99914-0.16281 2.5566 0.05469 0 0 4.9277 0.50664 6.7402-0.03711 0 0 0.52594-0.05383 0.96094-0.36133 0 0 2.0474-1.8304 2.4824-4.4941l-1.9727-1.6836 3.4082 0.25-1.2402 1.3984s0.09289 2.598-1.8184 4.2793c0 0 2.4343-0.89328 2.6543-3.7383 0 0 1.1912-1.6834 1.3125-2.0371 0 0-5.1023-3.9891-5.3086-4.1016 0 0 0.17336-0.93211 0.31836-0.97461 0 0-6.2308-3.9084-7.3008-4.3496 0 0-5.7468-2.6327-13.248-2.6152zm-8.561 2.3965c0.5275 0.03625 5.5781 1.5352 5.5781 1.5352-4.5588-1.6062-0.12836 7.4455-2.9121 3.9043-2.783-3.5438-2.996-5.462-2.666-5.4395zm16.551 2.8652 2.957 1.6094-0.38672 0.94922 1.8203-0.19141 3.0781 1.6699l-8.403-1.59 0.935-2.4473zm-24.76 7.7263c0.16108-0.00082 0.23898 0.14203 0.34961 0.55078 0.145 0.54375-0.16797 0.93359-0.16797 0.93359-0.03125 0.4025-0.59102 0.73797-0.82226 0.48047-0.23125-0.255-0.35719-0.64219-0.27344-0.92969 0.08625-0.28875 0.4132-0.88094 0.7207-0.99219 0.07656-0.0275 0.13967-0.0427 0.19336-0.04297zm29.199 0.99414c4.5005 0.06394 7.6328 0.64648 7.6328 0.64648-0.3375 0.3675-0.9375 1.0273-0.9375 1.0273-13.691-3.3162-27.086 3.0039-27.086 3.0039 6.5566-3.9839 14.604-4.7599 20.391-4.6777zm-1.0723 1.7969c3.8155-0.06922 6.5352 0.45117 6.5352 0.45117l-0.80273 0.625c-8.6825-2.1562-18.84 2.0117-18.84 2.0117 4.3806-2.3594 9.292-3.0187 13.107-3.0879zm-27.012 0.5c0.08938 0.02906 0.19211 0.1332 0.34961 0.33008 0.31625 0.39375 0.20312 0.83984 0.20312 0.83984 0.12 0.345-0.20953 0.8393-0.48828 0.7168-0.27875-0.12125-0.52234-0.39281-0.55859-0.66406-0.035-0.27125 0.01586-0.88836 0.22461-1.0996 0.10375-0.10562 0.18016-0.15211 0.26953-0.12305zm-2.8633 0.39844c0.09766 0.03016 0.21312 0.12953 0.39062 0.31641 0.355 0.37375 0.25586 0.77734 0.25586 0.77734 0.14375 0.32-0.19109 0.75852-0.49609 0.63477s-0.5782-0.38086-0.62695-0.63086c-0.05-0.25-0.02039-0.81109 0.19336-0.99609 0.10688-0.09125 0.18555-0.13172 0.2832-0.10156zm29.127 2.0195 4.2012 1.5312 0.04102 3.1602 2.1562-3.5176 0.28125 0.84375 0.55274-0.91797 0.28516 0.79102 0.60352-0.86328-0.12891 2.1289 2.0449-3.084c-3.2975 1.1038-10.037-0.07227-10.037-0.07227zm-26.73 0.724c0.11408-0.0012 0.1925 0.09023 0.33594 0.35742 0.1925 0.355 0.0332 0.61133 0.0332 0.61133 0.0425 0.2625-0.30281 0.48391-0.50781 0.31641-0.205-0.16625-0.3568-0.41867-0.3418-0.60742 0.01375-0.18875 0.15156-0.57719 0.35156-0.64844 0.05-0.01813 0.09088-0.02889 0.12891-0.0293zm-2.1426 0.74023c0.10156 0.03266 0.21844 0.14773 0.39844 0.36523 0.36125 0.4325 0.24024 0.91992 0.24024 0.91992 0.13875 0.37875-0.22938 0.9168-0.54688 0.7793-0.31625-0.13625-0.59422-0.43492-0.63672-0.73242-0.04375-0.2975 0.0077-0.97047 0.24023-1.1992 0.11625-0.11438 0.20312-0.16547 0.30469-0.13281zm22.537 4.0645c-0.201-0.011-0.363 0.046-0.363 0.046-1.5262 0.4425-0.24609 1.6289-0.24609 1.6289-1.7038-0.5875-2.2148-1.1738-2.2148-1.1738 0.145 5.035 7.2832 3.7383 7.2832 3.7383-3.5725-1.0925-3.8633-3.8691-3.8633-3.8691-0.15375-0.2775-0.39476-0.35758-0.5957-0.36914zm9.9688 1.3477-1.1543 3.1875c0 0.0012-0.55969 0.37609-1.4297 0.49609-0.88375 0.12125-2.0781-0.0098-2.0781-0.0098l-4.842-0.109s7.9855 2.0455 12.262-0.55078l0.30273-2.6465-1.2676 1.9355-0.14258-0.36914-0.43359 0.45117-0.39648-0.53516-0.39062 0.7168-0.42969-2.5664zm-25.045 0.80274c-0.55875-0.03703-1.2332 0.16734-1.6895 1.1367 0 0-1.0695 2.2288 0.48047 4.0312 0 0 1.901 2.1193 3.2598 2.8105 0 0-2.6633-3.5185 2.0117-6.291l-3.0605-1.3711s-0.4432-0.27938-1.002-0.31641z" transform="matrix(.8 0 0 -.8 225.08 581.2)" fill="#fff"/></g></g></svg>
