<svg xmlns="http://www.w3.org/2000/svg" height="121.57" viewBox="0 0 250 121.5681" width="250"><g transform="matrix(1.25 0 0 -1.25 -372.73 108.43)"><g><path d="m122.16 1.1191c-7.65 0-13.56 0.4667-14.79 0.5625l-0.39 0.0313-1.26 0.0781-0.89 0.9082-18.107 18.621-0.918 0.942v1.328 51.402 1.305l0.894 0.928 17.071 18.06 1.07 1.151 1.58-0.133 0.54-0.051c0.67-0.059 6.85-0.557 14.88-0.557 5.33 0 10.22 0.224 14.52 0.666l0.49 0.065 1.63 0.205 19.84-20.315v-18.869l-24.48-2.752v3.647 7.252c-1.33 1.333-3.67 3.665-5.03 4.998-2.14-0.078-4.36-0.11-6.63-0.11-3.01 0-5.66 0.074-7.67 0.147-1.12-1.182-2.82-2.972-3.88-4.076v-34.104c0.57-0.589 1.33-1.37 2.14-2.205 1.39-1.442 2.93-3.035 3.9-4.025 1.87-0.06 3.74-0.082 5.56-0.082 1.79 0 3.57 0.022 5.29 0.082 1.57 1.552 4.71 4.677 6.32 6.252v6.271 2.967l2.94 0.289 17.94 1.797 3.6 0.357v-3.607-16.955-1.315l-0.92-0.941-17.73-18.488-0.89-0.928-1.27-0.0821-0.34-0.0214c-4.56-0.461-9.59-0.6954-15.01-0.6954zm-41.359 1.9668l-3.684 0.4883-1.287 0.1719c-39.412 5.2671-71.025 19.148-72.344 19.719l-0.6969 0.318-1.9082 0.873-0.00004 2.086v34.342 5.107l4.6464-2.168 1.6153-0.763c2.0128-0.95 7.5534-3.482 15.732-6.617l0.703-0.247 2.151-0.777v-2.281-11.434c1.232-0.433 2.413-0.858 3.554-1.256v47.301c-2.779 1.132-10.342 4.44-10.342 4.44v28.301l4.688-2.3 1.605-0.78c11.685-5.58 23.785-10.42 35.93-14.35l0.75-0.23 2.342-0.69v-26.217s-8.865 2.62-10.504 3.117v-45.888c1.305-0.315 2.525-0.626 3.707-0.909v9.27 4.09l3.988-0.905 1.393-0.334c5.043-1.145 9.855-2.099 14.301-2.83l0.949-0.154 2.711-0.461v-2.752-31.566-3.7151zm81.929 0.3457v3.793 18.865 2.848l2.82 0.392 0.99 0.123 0.05 0.014h0.02c0.59 0.068 1.66 0.215 3.17 0.471v49.425 0.918l0.47 0.776 13.49 22.333 0.67 1.1 1.26 0.36 0.42 0.12c2.18 0.6 13.74 3.99 25.68 9.98l0.68 0.34 1.93 0.97 1.64-1.43 22.79-19.66 1.14-0.973v-1.502-41.474c0.84 0.424 8.93 4.476 8.93 4.476v-5.267-20.471-2.035l-1.84-0.899-0.64-0.3c-8.96-4.455-19.66-8.55-31.77-12.188l-1.48-0.437-4.18-1.205v4.326 19.535 2.355l2.24 0.727c1.27 0.443 2.91 0.962 4.21 1.4v41.604c-1.28 1.104-3.31 2.861-4.72 4.094-2.84-1.064-8.06-3.031-10.32-3.862-1.25-2.072-4.12-6.874-5.24-8.722v-39.098c1.95 0.497 3.88 0.973 4.03 1l4.05 1.027v-4.172-19.228-2.594l-2.55-0.57-0.8-0.196c-14.97-3.7011-27.44-5.6469-32.11-6.3179l-1.27-0.1914-3.76-0.5801z" transform="matrix(.8 0 0 -.8 298.18 86.74)" fill="#4d1979"/><path d="m122.16 3.5215c-7.64 0-13.52 0.4738-14.6 0.5605l-0.77 0.045-18.579 19.111v52.102l17.589 18.59 0.95-0.082c0.68-0.055 6.93-0.563 15.08-0.563 5.45 0 10.42 0.244 14.79 0.682l0.97 0.127 18.31-18.75v-15.746l-19.65-2.209v9.209c-1.14 1.132-5.31 5.278-6.5 6.451-2.41-0.105-4.95-0.17-7.56-0.17-3.55 0-6.62 0.097-8.67 0.211l-0.95-1.01c-1.41-1.488-3.57-3.747-4.34-4.568v-36.039c0.45-0.475 1.42-1.465 2.52-2.602 1.86-1.917 4.09-4.227 4.87-5.025 4.45-0.151 8.84-0.151 12.92 0 1.24 1.218 6.43 6.362 7.71 7.644v8.047l19.65 1.953v-18.252l-18.21-18.978-0.71-0.0452c-4.48-0.4655-9.46-0.6933-14.82-0.6933zm0 1.7012c5.3 0 10.22 0.2375 14.68 0.6894h0.08l17.28 18.012v15.691l-16.25-1.629v-7.213l-0.25-0.25c-0.58-0.584-7.64-7.591-8.2-8.125l-0.22-0.228-0.34-0.008c-4.32-0.173-8.99-0.173-13.73 0l-0.35 0.008-0.24 0.252c-0.33 0.351-2.96 3.052-5.09 5.262-1.38 1.419-2.55 2.611-2.77 2.853l-0.24 0.242v37.422l0.24 0.256c0.39 0.402 2.97 3.112 4.58 4.801l1.48 1.566 0.4-0.013c2.03-0.11 5.22-0.219 8.97-0.219 2.71 0 5.37 0.058 7.87 0.168l0.36 0.037 0.28-0.27c0.63-0.616 6.46-6.427 7-6.984l0.25-0.24v-8.012l16.25 1.822v13.537l-17.24 17.651-0.13-0.033c-4.46-0.452-9.5-0.68-15-0.68-8.21 0-14.52 0.521-15.22 0.58h-0.12l-16.562-17.504v-50.74l17.632-18.129 0.11-0.0138c1.09-0.0867 6.91-0.5585 14.49-0.5585zm-43.765 0.6054l-2.254 0.293c-39.07 5.2259-70.369 18.973-71.688 19.557l-1.1718 0.529v36.209l2.8301-1.332c2.0403-0.954 7.6537-3.524 15.92-6.688l1.297-0.464v-13.721c3.054-1.105 5.8-2.063 8.365-2.926v52.297c-3.332 1.337-6.338 2.602-9.164 3.834l-1.187 0.525v22.889l2.84-1.37c11.812-5.65 24.012-10.53 36.254-14.49l1.404-0.42v-21.204l-2.528 0.752c-2.601 0.739-5.285 1.561-7.964 2.423v-51.037c3.227-0.83 5.982-1.493 8.515-2.054v13.351l2.448-0.552c5.098-1.169 9.954-2.122 14.431-2.862l1.653-0.275v-33.264zm86.755 0.416v20.594l1.74 0.246c0.85 0.105 2.66 0.362 5.3 0.818v51.717l13.79 22.831 0.74 0.2c2.24 0.62 13.98 4.05 26.14 10.15l1.16 0.58 23.52-20.282v-45.684c2.07 0.949 4.07 1.922 6.05 2.953l2.88 1.447v-22.384l-1.11-0.537c-8.87-4.423-19.44-8.464-31.43-12.051l-2.55-0.748v21.273l0.58 0.192s4.27 1.415 5.85 1.945v44.437c-1.21 1.05-5.21 4.532-6.61 5.747-2.28-0.872-10.73-4.021-12.44-4.651-0.91-1.515-5.24-8.708-6.02-10.027v-42.836c2.27 0.561 7.02 1.762 7.02 1.762l1.06 0.269v-21.01l-1.5-0.328c-14.91-3.6969-27.27-5.6192-31.89-6.2811l-2.28-0.3418zm-88.457 1.5235v29.886l-0.224 0.024c-4.519 0.744-9.398 1.721-14.537 2.894l-0.362 0.076v-13.336l-1.031 0.219c-2.999 0.653-6.261 1.443-10.26 2.475l-0.644 0.164v54.687l1.133-0.359c3.021-0.981 6.061-1.917 9.033-2.762l0.342-0.123v17.668l-0.205 0.065c-12.342 3.984-24.615 8.894-36.5 14.574l-0.385 0.18v-19.045l0.17-0.073c2.966-1.31 6.106-2.638 9.634-4.048l0.534-0.215v-55.785l-1.114 0.357c-3.049 1.018-6.348 2.168-10.095 3.523l-0.575 0.206v13.724l-0.173 0.059c-8.33 3.176-13.989 5.779-16.043 6.742l-0.3988 0.191v-32.427l0.1699-0.088c1.2963-0.58 32.373-14.227 71.201-19.403l0.33-0.0504zm90.157 0.4551l0.34 0.041c4.59 0.6664 16.89 2.5883 31.72 6.2573l0.2 0.041v17.463c-2.01-0.515-6.26-1.602-7.01-1.785l-1.06-0.273v45.492l0.1 0.209c0.3 0.507 5.9 9.823 6.31 10.508l0.16 0.246 0.27 0.105c0.63 0.233 12.05 4.486 13.19 4.924l0.47 0.184 0.4-0.33c0.83-0.735 6.64-5.77 7.29-6.34l0.29-0.25v-46.438l-0.58-0.191c-0.13-0.059-4.29-1.432-5.85-1.943v-17.78l0.37 0.096c11.87 3.569 22.35 7.586 31.14 11.959l0.17 0.078v18.559l-0.41-0.215c-2.39-1.223-4.79-2.379-7.31-3.52l-1.21-0.552v47.546l-22.06 19.056-0.16-0.1c-12.28-6.16-24.17-9.64-26.44-10.26l-0.09-0.03-13.21-21.834v-52.685l-0.69-0.119c-3.06-0.552-5.15-0.84-6.08-0.949l-0.26-0.038v-17.132z" transform="matrix(.8 0 0 -.8 298.18 86.74)" fill="#fff"/></g></g></svg>
