<?xml version="1.0" encoding="UTF-8" standalone="no"?>
<svg xmlns:rdf="http://www.w3.org/1999/02/22-rdf-syntax-ns#" xmlns="http://www.w3.org/2000/svg" xml:space="preserve" height="179.84" viewBox="0 0 250.4719 179.83984" width="250.47" version="1.1" xmlns:cc="http://creativecommons.org/ns#" xmlns:xlink="http://www.w3.org/1999/xlink" xmlns:dc="http://purl.org/dc/elements/1.1/"><g transform="matrix(1.25 0 0 -1.25 -370.76 539.12)"><g><path d="m437.94 430.48c-12.318 0-24.724-2.9072-34.934-8.1844-19.38-10.017-30.311-30.196-34.111-38.408l-3.7812-8.175-4.2203-4.3609c-3.6772-3.8012-6.1472-8.104-7.3328-12.652l-7.075-11.298s-12.332 12.271-12.62 12.548c-0.1784 1.4488-0.56237 2.8856-1.2344 4.1312-1.0776 1.9476-2.7604 3.1954-4.8688 3.6078-0.8896 0.1744-1.7947 0.2625-2.6875 0.2625-5.9912 0-11.844-3.7546-18.977-12.177-2.528-2.9848-4.8709-6.7793-6.4281-10.411-1.964-4.5816-2.6732-8.8385-2.0516-12.311 0.6028-3.3656 2.1361-5.2426 5.6141-6.975 1.272-0.6332 4.2874-0.50168 7.5422-1.6469 2.2604-0.796 3.9922-1.8547 3.9922-1.8547-2.0392-0.952-3.7744-2.7593-4.5828-5.1281-1.2872-3.7744-1.1922-9.7172-1.1922-9.7172-0.2036-4.8204 2.4395-14.491 13.903-16.594 1.188-0.2184 2.4011-0.32969 3.6047-0.32969 8.3064 0 15.261 5.2028 20.85 9.3828 1.6264 1.2164 3.1628 2.3652 4.5844 3.2828l1.6703 1.075 21.866-10.15 1.1688-0.54062c0.2656-1.794 1.1128-3.3212 2.4484-4.3484 1.1064-0.8512 2.4765-1.3016 3.9609-1.3016 3.018 0 6.2099 1.8091 8.5375 4.8375 3.5616 4.6316 3.6515 10.336 0.20468 12.986-1.1076 0.8508-2.4769 1.3016-3.9609 1.3016-0.3968 0-0.79687-0.0314-1.1969-0.0922l-1.0516 1.0531c-0.9056 0.9064-2.2187 2.2199-3.8359 3.8391 1.2496 0.1736 3.4095 0.39374 6.3391 0.39374 5.8536 0 15.314-0.88031 27.134-5.0703 8.0804-2.864 14.476-4.1798 19.733-6.3766 5.2564-2.196 11.291-4.5109 11.291-4.5109 2.5156-0.9632 5.2707-1.4531 8.1891-1.4531 6.962 0 13.489 2.7401 16.631 6.9781 2.0688 2.7908 2.9548 6.3692 2.4312 9.8188-0.482 3.1716-2.116 5.9203-4.6016 7.7375-2.1976 1.6068-4.8641 2.4562-7.7109 2.4562-3.7448 0-7.5075-1.5323-9.5891-3.9031-0.288-0.3276-0.5488-0.6624-0.7828-1-1.3228 1.6512-3.0362 3.5766-5.175 5.5922 7.9812-1.0864 21.3 3.5969 21.3 3.5969 4.7856 1.7196 12.957 7.4913 9.6281 17.028-1.2916 3.7-3.8158 6.2357-7.1578 7.3125l-0.825 1.8281c-0.6656 1.476-2.7191 3.9734-6.1875 3.9734-1.0944 0-3.3049-0.0346-4.8281-2.2438-0.9948-1.442-1.0873-3.8544 0.47188-5.7656-1.5672-1.418-2.7816-3.3158-3.3188-5.5078-1.7132 0.9-3.571 2.6893-4.2078 6.2469-1.1712 6.5352 2.5855 11.096 5.9891 14.341 0.5236 0.4984 1.1268 0.96882 1.7672 1.4656 2.8152 2.1888 6.32 4.9142 8.1516 13.323 0.3384 1.5532 1.1549 3.6224 4.3297 3.6188h0.0656c3.2988-0.0388 5.3387-3.7139 3.7219-6.5891-0.606-1.0772-1.351-2.1155-2.6438-3.2719 0 0 1.0867-1.2538 2.6547-2.2422 1.958-1.2344 5.0304-1.717 6.9156-1.4938 2.652 0.3132 6.0378 1.1646 8.8422 3.7938 2.996 2.808 5.2374 7.3095 5.7594 12.289 0.64083 6.1116-1.1737 15.771-11.112 26.884-11.011 12.314-27.706 19.097-47.009 19.097zm-112.82-111.88 5.3125-2.5797c-0.3052-0.4056-0.72178-0.92083-1.1594-1.4484-1.53-1.8452-4.1836-2.4269-6.2688-1.2453-0.2516 0.142-0.44378 0.2854-0.54218 0.425-0.3604 0.4748-0.29048 0.89691-0.14688 1.2453 0.574 1.3932 3.5891 0.22969 3.5891 0.22969s-0.27757 2.0306-0.78437 3.3734z" fill="#231f20"/><path d="m175.52 4.959c-14.5 0.1732-28.88 3.6575-40.73 9.783-23.3 12.043-36.494 36.716-40.868 46.168 4.593-6.206 16.448-19.516 36.808-24.947 4.87-1.299 9.87-1.957 14.85-1.957 22.67 0 38.35 13.334 39.01 13.902l2.03 1.76-0.9 2.533c-2.71 7.61 3.16 10.348 4.36 10.819 0.92 0.361 1.79 0.535 2.65 0.535 3.72 0 6.84-3.461 8.8-6.366 2.37-3.519 6.78-10.068 14.26-10.068 1.55 0 3.13 0.294 4.7 0.875 5.67 2.095 7.16 6.823 7.69 10.422 1.31 9.027-4.02 15.027-4.02 15.027 4.03 2.43 11.03 2.057 15.38-2.472 4.3-4.463 13.25-20.763-7.05-43.463-14.3-15.985-35.77-22.804-56.97-22.551zm-139.98 78.152c-6.197 0.019-12.667 4.371-20.68 13.832-5.405 6.387-11.14 17.287-9.728 25.167 0.6225 3.47 2.6708 5.03 4.5273 5.73-0.1365-0.23-0.2768-0.44-0.4023-0.69-1.8115-3.59-1.7593-8.14 0.1562-13.54 4.1778-11.78 14.583-23.712 23.69-27.159 1.786-0.676 3.415-1.017 4.982-1.045 1.313-0.021 2.471 0.186 3.51 0.535-0.697-1.27-1.771-2.252-3.412-2.574-0.878-0.172-1.758-0.258-2.643-0.256zm3.006 6.233c-1.139-0.042-2.463 0.184-4.051 0.785-7.335 2.776-17.316 13.351-21.375 24.791-4.0648 11.47 3.104 13.64 3.104 13.64l84.001 38.99c0.5-2.25 1.57-4.53 3.12-6.55 1.47-1.91 3.22-3.43 5.08-4.47-7.88-7.89-60.354-60.428-62.385-62.337-2.311-2.173-4.076-4.724-7.494-4.849zm168.49 8.043c-0.71 0.027-1.52 0.208-2.44 0.611 0 0-1.02 1.782 0.47 3.232 0 0 2.47-0.93 6.31-1.19 0 0-1.25-2.77-4.34-2.653zm3.71 6.533c-0.58 0.01-1.14 0.07-1.69 0.15-4.3 0.66-8.48 5.19-7.79 10.62 0.21 1.61 0.54 2.47 1.21 3.55 1.61 2.55 4.94 1.99 6.43 0.31 2.02-2.31 4.94-3.32 5.16 1.75 0.14 3.26-2.49 7.13-2.49 7.13s13.62-4.9 9.65-16.29c-1.99-5.7-6.45-7.35-10.48-7.22zm-121.14 4.56c-0.213 0-0.422 0-0.627 0.02-0.986 0.07-1.874 0.33-2.582 0.62 0.584 0.37 1.164 0.76 1.734 1.19 2.99 2.3 4.926 5.15 5.783 8.21 0.572-0.81 3.296-5.03 0.397-7.93-1.557-1.55-3.215-2.08-4.705-2.11zm-16.973 2.52h-0.021c-0.652 0.24-1.057 0.46-1.12 0.5-0.532 0.3-0.832 0.82-0.894 1.39l-0.028 0.19c0.444 0.45 0.876 0.88 1.323 1.32l0.523 0.53c0.3 0 0.602-0.07 0.881-0.22 0.044-0.02 0.317-0.16 0.76-0.32l0.14-0.04c-0.572-1.06-1.09-2.19-1.564-3.35zm12.807 2.23c0.08 0.42 0.159 0.83 0.226 1.18 0.018 0.15 0.026 0.31 0.063 0.45 0.066 0.24 0.12 0.47 0.179 0.71 0.049 0.2 0.097 0.39 0.139 0.56 0.565 2.42 0.721 4.25 0.719 5.54 0.052 0.69-0.017 1.35-0.16 1.97-0.029 0.15-0.057 0.28-0.077 0.35h-0.013c-0.343 1.21-0.944 2.22-1.404 2.87-0.116 0.16-0.193 0.33-0.25 0.52 0.772 0.77 1.538 1.54 2.3 2.3 0.368-0.12 0.704-0.34 0.946-0.68 3.859-5.38 2.927-11.49-2.375-15.57-0.099-0.07-0.195-0.13-0.293-0.2zm-58.707 25.68c-0.25 0.01-0.512 0.03-0.786 0.07-5.082 0.74-7.752 8.11-4.238 12.18 3.1 3.59 7.867 4.49 12.549 1.2 0 0-4.99-1.22-6.012-4.65-0.724-2.44-0.17-5.59 3.434-6.02 0 0-1.197-2.94-4.947-2.78zm179.44 1.52c-3.91-0.13-7.64 1.43-9.48 3.53-2.95 3.36-2.71 7.75-2.71 7.75 4.75-2.01 6.92-1.39 8.43-0.39 1.73 1.14 3.29 5.07 0.08 8.61-3.23 3.58-14.04 4.8-14.04 4.8 9.63 3.69 22.02 0.42 26.46-5.57 3.73-5.03 3.27-12.67-1.88-16.43-2.11-1.54-4.52-2.23-6.86-2.3zm-92.44 18.46c-2.36 0.13-5.15 1.77-7.26 4.5-3.06 3.99-3.5 8.78-0.97 10.72 2.52 1.94 7.04 0.29 10.1-3.69 3.07-3.98 3.5-8.78 0.98-10.72-0.79-0.61-1.77-0.86-2.85-0.81z" transform="matrix(.8 0 0 -.8 296.61 431.29)" fill="#fff"/><path d="m412.36 400.94c-3.2589-0.0607-6.6989-0.49837-10.273-1.4516-20.118-5.3648-29.311-21.114-29.311-21.114s15.235 5.2834 22.906-3.1078c0 0-19.904 6.8728-32.453-6.0984l-0.0688-0.075-0.008 0.075c-13.981-14.452-4.1165-30.96-0.51094-32.402l-0.0156 0.0469 0.0922-0.0469s-3.3836 9.8179 2.0188 17.519c5.5076 7.8528 16.116 6.8494 19.525 3.3094 0 0-16.551 3.9417-19.1-10.203 1.1004 0.1568 2.1542 0.26874 3.0094 0.26874 2.2832 0 4.3946-0.90258 6.1062-2.6094 3.1116-3.104 2.1147-7.6712-0.12812-10.602l-2.1938-2.8844c-0.3256-1.796-1.0819-3.5948-2.3047-5.3-0.1752-0.2444-0.37699-0.46323-0.59219-0.66563 1.696-1.86 8.1058-8.816 10.741-10.6 0 0 14.328 3.2753 36.467-4.5719 12.622-4.4732 21.037-6.7964 27.156-7.6188 5.9476-0.6896 11.425 1.187 12.72 2.5422 0.3692 0.386 0.82389 1.2162 0.50469 1.7938-0.3196 0.578-0.97083 0.68846-1.2656 0.66406-0.3448-0.0292-0.84791-0.13584-2.3703-0.77344l-3.4828-1.4672c-0.2968 1.1792-1.2374 4.6459-0.175 8.3719-4.0916 5.5012-12.62 14.408-27.384 19.17 0 0 4.3933 2.2301 13.244-3.5391 7.1308-4.6476 19.079-5.424 25.995-0.73125 1.6708 1.1332 2.7069 2.6051 3.3641 4.2703 0 0-1.6545-0.89534-3.4641-0.94374-2.1476-0.0568-4.0372 1.0448-5.1828 2.8672-0.8156 1.2976-1.2165 2.4521-1.4281 4.1141-0.0228 0.1836-0.0266 0.36256-0.0406 0.54376-2.3524 0.8972-6.008 3.2047-7.05 9.0219-1.5728 8.7848 4.196 14.581 6.9156 17.173 3.0504 2.9068 7.0068 3.9569 9.0156 13.181 1.906 8.7492 11.907 6.0265 12.622 4.2625 0 0 1.0488 4.7667-3.9688 6.6203-5.8592 2.1636-9.4399-3.1469-11.472-6.1625-2.032-3.0156-6.5564-8.3267-12.916-5.8359-6.7332 2.638-6.5455 9.1499-5.3047 12.639 0 0-12.341 10.676-29.939 10.348zm-59.595-49.375c-1.3304-2.1024-2.6499-4.2248-3.9891-6.45 0.5988-0.598 1.223-1.2206 1.8438-1.8406 0.3936 0.6328 0.94434 1.1791 1.6359 1.5703 0.1752 0.0988 0.68662 0.36233 1.4406 0.63593-0.1324 0.4804-0.26435 0.96128-0.36875 1.4469-0.332 1.5524-0.5133 3.0999-0.5625 4.6375zm-19.82-37.42c-0.9128-1.2644-1.9255-2.5354-3.0375-3.7406-4.8996-5.3116-11.528-8.4816-17.767-2.8 0 0-0.47424-11.203 11.327-13.367 10.87-1.994 19.629 7.2816 26.764 11.884l-17.286 8.0234z" fill="#005d41"/><path d="m410.41 396.02s5.573-2.9294 7.1594-7.5062c0 0-6.3676-1.8846-7.8672-7.6562-1.384-5.3324 2.064-9.9512 4.45-11.716 2.1016-1.554 4.5281-2.57 7.5797-2.3016 0 0 0.58008-0.0241 1.4297-0.9625 0.3076-0.34 0.98979-0.90053 1.8422-0.82813 0 0 0.37849 11.005-2.0203 19.306-3.38 11.696-12.573 11.664-12.573 11.664zm37.494-21.948c-2.8228-0.037-5.6237-0.90178-7.9109-1.8922-4.8312-2.092-12.273-9.2188-12.273-9.2188 0.206-0.004 0.56154-0.0529 1.3859-0.24688 0.8232-0.1948 1.5594 0 1.5594 0s1.1887-1.4628 4.4875-2.4812c3.3436-1.0324 6.9096-0.36312 9.3656 0.99688 3.5528 1.9672 4.2871 5.25 4.8875 7.2688 0.5996 2.0184 1.2 3.1094 1.2 3.1094 0.9272-0.1088 1.1106-0.4061 3.1078-0.9125 1.696-0.4308 2.2375 0.30625 2.2375 0.30625-2.3786 2.317-5.2241 3.1074-8.0469 3.0703zm-39.538-10.189c-6.3622 0.0921-11.198-1.8829-13.677-4.975-4.4312-5.5304 0.00034-11.683 6.8859-11.353 5.2692 0.2524 8.8999 3.4797 13.222 4.2125 4.4448 0.7532 8.0575 0.40181 12.086-1.9422 4.0288-2.3444 5.2737-3.37 5.8969-4.6516 0.6224-1.282 0.91615-2.3804 2.3438-2.7828 0 0 0.51298 5.0543-5.0906 9.5219 0 0-1.0998 7.325-12.123 10.475-3.4449 0.9845-6.6518 1.4535-9.5438 1.4953zm-83.441-10.83-3.0953-3.9906 2.3141-1.9641-7.8734-11.009 3.7609-2.6 7.9875 10.4 2.1562-1.6938 2.9828 3.2531-8.2328 7.6047zm93.692-5.2344c-0.10841 0.003-0.21782-0.004-0.32657-0.003 0.10876-0.0008 0.21816 0.004 0.32657 0.002 0.8039-0.021 1.5977-0.0974 2.3609-0.24531 0.79289-0.15369 1.5124-0.31305 2.1719-0.48125-0.65941 0.16826-1.379 0.32907-2.1719 0.48281-0.76325 0.14791-1.557 0.22427-2.3609 0.24532zm4.5328-0.72812c0.98918-0.25231 1.8422-0.52459 2.6016-0.82656-0.75938 0.30205-1.6125 0.57417-2.6016 0.82656zm-4.8594 0.725c-0.26844 0.002-0.53674 0.003-0.80624-0.006 0.26952 0.009 0.53778 0.008 0.80624 0.006zm-0.80624-0.006c-0.15444-0.006-0.30809-0.0163-0.4625-0.025 0.15414 0.009 0.30834 0.0198 0.4625 0.025zm-0.4625-0.025c-0.22324-0.0126-0.44626-0.0246-0.66875-0.0438 0.22249 0.0192 0.44552 0.0312 0.66875 0.0438zm-0.66875-0.0438c-0.18382-0.0158-0.36563-0.0363-0.54844-0.0562 0.18254 0.0198 0.36489 0.0405 0.54844 0.0562zm-0.54844-0.0562c-0.19675-0.0214-0.39247-0.043-0.5875-0.0687 0.19469 0.0257 0.39109 0.0474 0.5875 0.0687zm-0.5875-0.0687c-0.16735-0.0221-0.33275-0.0454-0.49844-0.0703 0.1655 0.0249 0.33129 0.0482 0.49844 0.0703zm-0.49844-0.0703c-0.16832-0.0254-0.33221-0.0533-0.49844-0.0812 0.16544 0.0278 0.33094 0.056 0.49844 0.0812zm-0.49844-0.0812c-0.35024-0.059-0.67728-0.12979-1.0156-0.19844 0.33649 0.0682 0.66737 0.13981 1.0156 0.19844zm-1.0156-0.19844c-0.43386-0.0879-0.85328-0.17489-1.2609-0.27344 0.4045 0.0978 0.83067 0.18614 1.2609 0.27344zm-1.2609-0.27344c-0.27949-0.0675-0.53575-0.13293-0.8-0.20312 0.25986 0.069 0.52542 0.13673 0.8 0.20312zm-0.8-0.20312c-0.38238-0.10145-0.73688-0.19788-1.0812-0.3 0.33988 0.10076 0.70442 0.19989 1.0812 0.3zm-1.0812-0.3c-0.23515-0.0698-0.451-0.13379-0.66562-0.20157 0.20909 0.0659 0.43713 0.13381 0.66562 0.20157zm-0.66562-0.20157c-0.35852-0.11304-0.66483-0.21316-0.95782-0.31406 0.2861 0.0984 0.60978 0.20416 0.95782 0.31406zm-0.95782-0.31406c-0.13667-0.047-0.21975-0.0741-0.34062-0.11719 0.10168 0.0361 0.2282 0.0785 0.34062 0.11719zm-0.34062-0.11719c-0.77412-0.27455-1.2562-0.47187-1.2562-0.47187s0.51263 0.2068 1.2562 0.47187zm7.4953-0.30937c-0.71869-0.045-1.4073-0.14364-2.1141-0.23594-1.4134-0.1842-2.4637-0.24653-3.4656-0.22187 1.0018-0.0248 2.052 0.0363 3.4656 0.22031 0.7067 0.0923 1.3953 0.19243 2.1141 0.2375zm3.6031-0.37969c0.22989-0.0652 0.46735-0.14025 0.71094-0.225-0.24422 0.085-0.4805 0.15965-0.71094 0.225zm-84.684-0.89687s-5.758-7.0471-6.9016-8.5719c-1.144-1.5248-3.1624-5.1341 0.66719-7.8625 3.7808-2.6932 7.1489 0.57207 7.5781 1.0969 0.4284 0.5236 6.7656 8.1484 6.7656 8.1484l-2.8688 2.5984s-5.825-7.3416-7.6422-8.2328c-1.4604-0.7164-1.6261 1.1562-0.96094 2.0422 0.5216 0.694 6.1953 8.2531 6.1953 8.2531l-2.8328 2.5281zm96.686-1.8093c0.38517-0.38253 0.78374-0.7918 1.2109-1.2312h0.002c-0.42725 0.4395-0.82729 0.8487-1.2125 1.2312zm-86.306-7.0516-8.7516-11.752 6.1953-3.6391 1.8188 2.8031-2.2609 1.8188 6.3906 8.2609-3.3922 2.5078zm9.0469-7.5234-10.866-8.2109 2.95-2.1641 2.1625 1.3281 2.0656-1.5734-0.44218-1.7703 3.0984-1.8188 5.0141 10.767-3.9828 3.4422zm0.14844-4.425-1.4266-3.6875-1.9672 1.6219 3.3938 2.0656zm6.8344-1.525-7.1297-8.9 2.95-1.6703 2.2125 2.4078 0.19687-4.1297 2.2125-1.2281 6.2938 7.6703-2.3609 2.0641-1.7688-1.0812-0.34531 3.1469-2.2609 1.7203zm8.5062-7.425-5.7531-7.325 4.425-2.8031 1.3766 1.6719-1.9656 1.475 0.58906 0.68906 1.2297-0.7875 1.475 1.6719-1.2297 0.88595 0.64063 0.78593 2.2609-1.5234 1.4266 1.9172-4.475 3.3422zm20.184-12.63c-0.956 0.0104-2.2651-0.4855-3.2359-1.1875-0.7148-0.4344-1.4848-1.0945-2.1656-1.9797-1.5888-2.0656-1.6736-3.8623-1.5016-4.4391 0.1696-0.9756 0.65115-1.6625 0.86875-1.8125 0 0-0.0755 0.93948 0.14531 1.7219 0.93 0.2952 2.1572 1.1238 3.1828 2.4578 1.3648 1.7748 1.6202 3.351 1.5562 4.1266 0.586 0.7052 1.15 1.1125 1.15 1.1125z" fill="#231f20"/><path d="m418.68 383.76c-1.2174 0.0337-3.0863-0.34981-4.3953-2.6328-2.114-3.6876-0.19687-7.3578-0.19687-7.3578 3.376 2.5564 7.3609 1.3594 7.3609 1.3594-0.5672 5.8592-1.5422 8.4406-1.5422 8.4406s-0.4961 0.17042-1.2266 0.19063zm26.798-13.064c-9.886-2.566-11.845-7.4406-11.845-7.4406 0.1572 0.007 0.4076-0.082 0.9172-0.24844 0.5088-0.1664 1.1719-0.0469 1.1719-0.0469 2.9256 5.9248 9.2891 2.9 9.2891 2.9 1.7204 2.532 0.46719 4.8359 0.46719 4.8359zm-37.93-10.339c-0.49851-0.003-1.0457-0.0483-1.6172-0.16406-2.7108-0.548-2.0266-2.925-2.0266-2.925 0.2588 0.0372 1.2495 0.12032 1.7859 0.12032 0.5372 0 3.5266 0.23124 3.5266 0.23124 0.574 0.8428 0.88906 2.3703 0.88906 2.3703s-1.0623 0.37506-2.5578 0.36718zm6.7531-0.28906c-0.247 0.007-0.50216-0.005-0.76251-0.0422-2.0824-0.2956-1.9516-2.35-1.9516-2.35 0.6016 0.046 1.4529-0.15753 1.8141-0.20313 0.3608-0.0468 2.2107-0.49192 3.2375-0.10312 1.028 0.3884 0.88907 1.4266 0.88907 1.4266-0.154 0.21035-1.4976 1.2209-3.2266 1.2719zm-11.948-1.2797c-4.1628-0.3936-3.8688-3.2938-3.8688-3.2938 0.9372 0.3196 1.4719 0.29784 2.5531 0.77344 1.7056 0.7488 1.3156 2.5203 1.3156 2.5203zm17.739-0.6875c-0.8512-0.009-1.0453-0.79532-1.0453-0.79532s0.51742-0.2865 1.3406-0.7125c0.8244-0.426 1.9172-0.47187 1.9172-0.47187-0.2308 1.0364-1.3605 1.9887-2.2125 1.9797zm-6.4453-1.8844c-0.97285 0.0522-1.9541-0.10444-2.7641-0.54844-1.6196-0.8892-1.0828-2.8328-1.0828-2.8328s0.60274 0.22266 2.2687 0.38906c1.666 0.1668 2.6362 0.53574 3.3578 0.96094 0.7228 0.426 0.93593 1.325 0.93593 1.325-0.7774 0.3932-1.7428 0.65405-2.7156 0.70625zm-6.1828-0.33906c-2.0319 0.0332-4.2078-0.65469-4.2078-0.65469-0.6208-1.1932-1.4891-4.1734-1.4891-4.1734 1.6012-0.5372 3.7288-0.41752 5.3672 1.1469 1.6384 1.564 1.186 3.6188 1.186 3.6188-0.27767 0.0383-0.56598 0.0577-0.85626 0.0625zm12.164-0.59219c-0.0985 0.006-0.20412 0.005-0.31407-0.006-0.878-0.0932-0.87031-0.66719-0.87031-0.66719 0.4356-0.3328 0.95431-0.29501 1.1703-0.30781 0.1752-0.01 0.90469 0.0203 0.90469 0.0203 0.1862 0.462-0.20146 0.91621-0.89062 0.96094zm-18.795-0.74687c-0.1792-0.006-1.5552-0.18489-2.3828-0.62969-0.7476-0.4016-0.84844-1.0734-0.84844-1.0734 0.62-1.3944 2.3781-1.1938 2.3781-1.1938 0.5244 1.0576 0.85312 2.8969 0.85312 2.8969z" fill="#fff"/></g></g></svg>
