<?xml version="1.0" encoding="UTF-8" standalone="no"?>
<svg xmlns:rdf="http://www.w3.org/1999/02/22-rdf-syntax-ns#" xmlns="http://www.w3.org/2000/svg" xml:space="preserve" height="38.206" viewBox="0 0 191.88486 38.205589" width="191.88" version="1.1" xmlns:cc="http://creativecommons.org/ns#" xmlns:dc="http://purl.org/dc/elements/1.1/"><g transform="matrix(1.25 0 0 -1.25 -285.22 514.97)"><g><path d="m62.879 0.99805c-6.181 0.09445-12.05 2.0678-15.201 5.1622-1.972 1.9388-2.963 4.2368-2.942 6.8338 0.023 1.341 0.289 2.601 0.782 3.76h-6.852v-14.69l-0.828 0.0005v-0.9415h-12.442l-24.531 17.731 0.00023 6.324h0.83007v0.941h23.489v0.104c-0.175 2.249-5.791 3.463-8.637 3.589h-1.332v6.487h0.832v0.941h39.277s0.787-0.658 1.168-0.976c1.349 0.455 3.69 0.939 6.75 0.97h126.58v-5.716h-0.83v-0.94h-7.28c0.46-0.135 0.93-0.284 1.4-0.447 6.59-2.272 7.74-5.718 7.74-7.848 0-3.162-1.86-5.883-5.28-7.554h4.25v-9.4692h-0.83v-0.9434h-8.65l-1.18 0.9941c-2.82-0.5737-12.96-2.2492-21.76 1.0977-2.25 0.8079-4.03 2.0818-5.16 3.6038-0.7-1.4346-1.76-2.352-1.93-2.5218-3.21-3.1869-9.78-3.1768-13.41-3.1718h-60.42c-3.318-2.051-7.542-3.1889-12.361-3.3125-0.414-0.01065-0.828-0.01415-1.24-0.00785zm2.236 8.1386c1.55 0.0314 4.809 0.7957 4.809 2.9473 0 1.893-0.58 4.41-5.592 4.41-2.079 0-4.762-0.78-4.762-3.469 0-0.954 0.34-1.772 1.016-2.431 0.996-0.9779 2.605-1.4936 4.529-1.4573zm104.92 1.9003c2.28 0.001 5.5 0.338 9.12 1.715-2.84-0.397-5.32-0.476-9.28-0.602l-4.01-0.134c-0.15-0.005-0.3-0.016-0.42-0.028 0.31-0.308 0.85-0.619 1.6-0.738l0.02-0.004c0.57-0.089 1.6-0.209 2.97-0.209zm-65.11 0.182h0.87c0.03 0 0.07 0.005 0.11 0.011 0.49 1.122 0.76 3.016 0.77 4.477l0.01 0.857h0.82v0.942h5.58v-6.287l2.98 0.002v12.916c0 0.379-0.19 0.379-0.33 0.379h-2.65v-5.309h-0.83v-0.941h-5.59l0.01 0.877v0.169c0 1.527-0.3 4.077-1.16 4.944-0.18 0.18-0.35 0.26-0.57 0.26h-0.02v-13.297zm-13.016 0.002h6.852c-0.137 0.821-0.459 1.473-0.969 1.943-1.149 1.065-2.623 0.969-3.482 0.969h-2.401v-2.912zm37.346 0h3.93c3.35 0 6.17 0.4 6.17 1.117 0 0.854-2.9 1.795-5.95 1.795h-4.15v-2.912zm-104.06 2.718v2.815h-3.9c1.38-0.996 2.787-2.01 3.9-2.815zm126.42 2.749c0.29 0.525 0.68 1.013 1.15 1.455 0.28 0.382 0.6 0.74 0.98 1.072h-2.47v5.301c-0.01 0-0.02-0.002-0.03-0.002-0.06-0.22-0.1-0.482-0.11-0.795v-0.018c-0.01-0.466-0.03-0.993-0.08-1.603-0.1-1.347-0.67-2.514-1.63-3.448 0.65-0.329 1.04-0.73 1.52-1.203 0.25-0.236 0.47-0.491 0.67-0.759zm-104.95 2.056c0.295 0.399 0.621 0.778 0.981 1.143 0.687 0.88 1.54 1.676 2.55 2.377 2.938 2.034 7.138 3.16 12.145 3.254 3.124 0.034 5.401-0.517 7.666-1.53-1.161 4.872-5.328 5.512-8.584 5.512-3.815 0-5.953-1.572-8.355-4.279l-0.03-0.033-0.593-0.547h-5.78v-5.897zm45.246 2.627h4.584c0.683 0 1.373 0.245 1.729 1.01 0.415 0.893 0.564 1.82 0.605 2.137h-6.918v-3.147zm37.346 0h3.85c1.29 0 2.99 0.027 3.98 0.234 0.01 0.03 0.01 0.063 0.01 0.096 0.19 2.981 0.76 4.777 1.95 6.223 0.64 0.773 2.14 1.889 3.74 2.654h-8.67v-5.121h-0.83v-0.941h-4.03v-3.145zm31.19 0.49c4.48 0.868 8.63 1.007 14.04 1.188l0.38 0.012c1.44 0.044 3.21-0.006 3.26 0.355-1.59 0.655-4.83 1.06-8.87 0.676-3.37-0.32-6.41-1.102-8.81-2.231zm-121.77 4.383h6.299v3.565l-0.909-0.086c-2.799-0.263-5.39-1.291-5.39-2.707v-0.772z" transform="matrix(.8 0 0 -.8 228.18 411.98)" fill="#100f0d"/><path d="m64.098 1.8672c-6.406-0.1649-12.615 1.7608-15.815 4.9082-1.8 1.7674-2.705 3.8566-2.685 6.2126 0.112 6.221 5.917 10.541 15.922 10.727 4.029 0.046 6.507-0.892 9.656-2.653 0 8.933-6.776 9.299-9.76 9.299-4.227 0-6.568-1.824-8.998-4.566l-0.316-0.291h-6.27v9.934h8.352l1.304-1.088c1.143 0.425 3.717 1.205 7.239 1.205 6.705 0 12.456-2.195 16.189-6.178 3.124-3.335 4.682-7.722 4.379-12.363-0.294-4.29-2.176-7.9793-5.447-10.668-3.388-2.7899-8.145-4.3354-13.75-4.4788zm-38.418 0.1152c0.001 0-23.953 17.311-23.953 17.311l-0.0004 5.021h24.326v0.733c0-0.007-0.008 0.999-0.008 1.224-0.221 3.224-7.065 4.297-9.477 4.403h-0.49v4.764h28.893v-4.764l-0.987-0.092c-6.748-0.636-6.99-3.893-6.99-4.076l-0.014-1.197v-0.866h7.989v-6.828h-7.992v-15.633l-11.297 0.0004zm52.072 3.1973c0.219 0.1615 0.433 0.3285 0.643 0.5 0.86 0.7073 1.632 1.4818 2.308 2.3144 2.547 2.6739 4.017 6.0609 4.279 9.9039v0.002c0.281 4.317-0.967 8.43-3.541 11.752h29.949v-10.523h-3.86s0.11 6.25-2.58 6.25h-14.737v-5.811h5.445c3.578 0 4.033 4.985 4.033 4.985 0 0.001 3.539 0 3.539 0v-14.291h-3.539c0 4.628-3.633 4.732-4.248 4.732h-5.23v-5.578h14.747c2.54 0 2.57 6.289 2.57 6.289h3.86v-10.525l-33.638-0.0003zm34.498 0v4.2363l3.48 0.002c0.96 0 1.19 1.02 1.19 1.295v13.424c0 0.473-0.23 1.242-1.19 1.242h-3.48v4.273h20.17v-4.273h-3.47c-1.1 0-1.4-0.687-1.39-1.486v-4.325h4.71c5.55 0 5.59 0.582 5.68 2.082 0.17 2.78 0.68 4.437 1.75 5.723 1.11 1.324 3.2 2.279 5.33 2.279h6.24v-4.273c-0.35 0-1.74-0.19-1.82-2.574-0.02-0.462-0.04-0.985-0.08-1.582h-0.01c-0.14-1.842-1.22-3.014-2.51-3.756 1.02-0.299 1.71-0.785 2.52-1.578 1.09-1.065 1.65-2.504 1.65-4.28 0-1.366-0.49-2.5482-1.46-3.5094-3.07-3.0468-9.7-2.9199-13.04-2.9199h-24.27zm68.41 0l-1.26 1.0586c-2.13-0.4633-12.65-2.4706-21.71 0.9785-3.76 1.3503-6.1 4.0872-5.95 6.9612 0.13 2.517 2.22 4.519 5.59 5.355 5.42 1.349 10.01 1.504 16.35 1.715l0.37 0.01c1.81 0.056 3.27 0.12 4.24 0.379 1.18 0.311 1.55 0.777 1.62 1.086 0.06 0.252-0.06 0.554-0.44 0.892-2.78 2.444-17.01 2.22-22.99-3.308l-0.25-0.231h-4.1v9.576h3.63c0.07-0.016 1.43-0.35 2.63-1.867 1.62 0.552 14.49 3.746 23.61 0.592 6.55-2.262 7.29-5.633 7.14-7.443-0.26-3.296-3.84-6.253-8.35-7.051-4.52-0.798-7.43-0.726-14.96-1.006-1.52-0.058-2.41-0.502-2.41-1.273 0-0.906 1.1-1.9049 2.66-2.1489 0.72-0.1105 8.13-1.3026 16.4 3.3629l0.2 0.108h5.45v-7.7463h-7.47zm-116.36 2.1523c3.751 0.0742 6.482 1.8338 6.482 4.752 0 3.907-2.651 5.27-6.451 5.27s-6.451-1.363-6.451-5.27c0-2.9182 2.669-4.8245 6.42-4.752zm63.259 2.086h4.79c3.92 0 7.75 0.422 7.85 2.855 0.02 0.409-0.12 0.752-0.42 1.069-0.94 0.974-3.32 1.652-6.38 1.652h-5.84v-5.576zm-101.51 1.297v6.9h-9.559l9.559-6.9zm53.779 20.742c-1.734 1.69-3.834 3.022-6.213 3.977h114.51v-3.977h-108.3z" fill-opacity=".94118" transform="matrix(.8 0 0 -.8 228.18 411.98)" fill="#b3995d"/><path d="m64.076 2.7266c-6.184-0.1566-12.146 1.6713-15.191 4.6621-1.626 1.5976-2.443 3.4803-2.428 5.5843 0.109 5.923 5.888 9.711 15.074 9.882 3.85 0.045 6.211-0.859 9.225-2.544l1.279-0.713v1.464c0 4.178-1.407 7.12-4.185 8.743-2.173 1.271-4.713 1.418-6.434 1.418-4.425 0-6.965-1.845-9.613-4.821-0.005-0.006-0.024-0.025-0.037-0.037h-5.073v8.213h7.176c0.32-0.265 1.449-1.211 1.449-1.211l0.469 0.176c1.156 0.43 3.591 1.152 6.94 1.152 6.464 0 11.992-2.097 15.56-5.906 2.719-2.902 4.184-6.648 4.184-10.646 0-0.357-0.014-0.713-0.035-1.071-0.279-4.049-2.054-7.5279-5.135-10.06-3.24-2.6646-7.814-4.1469-13.225-4.2854zm-38.121 0.1191l-23.367 16.888-0.0001 3.721h24.328v1.604l-0.01 1.246-0.002 0.025c-0.122 1.777-1.636 3.166-4.502 4.129-2.026 0.681-4.248 0.972-5.464 1.055v3.064h27.173v-3.119c-0.122-0.011-0.207-0.021-0.207-0.021-3.017-0.284-5.224-1.12-6.558-2.485h-0.002c-1.092-1.118-1.199-2.196-1.209-2.402l-0.002-0.02s-0.012-1.214-0.012-1.222v-1.725h7.984v-5.107h-7.988v-15.631l-10.162-0.0003zm52.859 3.1934c0.693 0.6083 1.323 1.2629 1.887 1.957 2.547 2.6739 4.019 6.0609 4.281 9.9039 0.259 3.951-0.767 7.732-2.916 10.893h28.464v-8.805h-2.15c-0.07 1.431-0.36 4.171-1.64 5.475-0.5 0.508-1.12 0.775-1.79 0.775h-15.598v-7.529h6.306c3.04 0 4.372 2.923 4.782 4.984h1.93v-12.57h-1.87c0 4.151-3.525 4.732-5.16 4.732h-5.988v-7.2984h15.608c1.04 0 2.42 0.6662 3.08 3.8304 0.19 0.916 0.28 1.822 0.32 2.457h2.17v-8.8049h-31.716zm34.296 0v2.5175h2.62c1.4 0 2.05 1.2874 2.05 2.1564v13.424c0 1.012-0.64 2.101-2.05 2.101h-2.62v2.555h18.45v-2.555h-2.61c-0.69 0-1.24-0.203-1.64-0.603-0.41-0.414-0.62-1.002-0.61-1.742v-5.184h5.57c2.91 0 4.38 0.154 5.25 0.557 1.18 0.55 1.24 1.535 1.29 2.33 0.16 2.58 0.61 4.093 1.55 5.224 0.98 1.166 2.86 1.973 4.67 1.973h5.38v-2.732c-0.76-0.296-1.75-1.087-1.83-3.225v-0.016c-0.01-0.448-0.03-0.957-0.07-1.529-0.11-1.319-0.79-2.327-2.09-3.08l-1.75-1.008 1.94-0.564c1.02-0.299 1.54-0.757 2.16-1.366 0.92-0.896 1.39-2.129 1.39-3.664 0-1.144-0.4-2.0915-1.21-2.8961-2.7-2.6858-8.91-2.6788-12.05-2.6738h-23.79zm67.86 0l-1.34 1.1308-0.42-0.0918c-1.99-0.4352-12.36-2.4266-21.21 0.9434l-0.02 0.0058c-3.4 1.2217-5.51 3.6217-5.38 6.1077 0.11 2.12 1.95 3.826 4.94 4.566 5.33 1.327 9.88 1.478 16.17 1.686l0.37 0.011c1.87 0.058 3.38 0.127 4.43 0.409 1.63 0.43 2.12 1.18 2.24 1.736 0.09 0.419 0.04 1.056-0.71 1.721-1.83 1.609-6.82 1.935-10.95 1.545-5.62-0.535-10.43-2.309-13.2-4.871h-2.9v7.804 0.053h2.65c0.31-0.097 1.23-0.473 2.08-1.545l0.38-0.475 0.57 0.196c1.84 0.629 14.29 3.624 23.05 0.595 6-2.074 6.69-5.001 6.57-6.562-0.24-2.844-3.53-5.543-7.66-6.274-3.55-0.628-6.13-0.71-10.82-0.857l-4.01-0.135c-2.92-0.109-3.24-1.531-3.24-2.134 0-1.408 1.46-2.6965 3.39-2.9966l0.01-0.0019c1.99-0.31 9.07-0.9761 16.94 3.4585v0.002l4.37-0.002v-6.0249h-6.3zm-116.65 0.4336c2.055 0.0396 3.828 0.5487 5.129 1.4687 1.44 1.0156 2.201 2.4476 2.201 4.1426 0 2.796-1.27 6.131-7.314 6.131s-7.312-3.335-7.312-6.131c0-1.413 0.53-2.6792 1.531-3.6602 1.33-1.3058 3.376-1.9973 5.765-1.9511zm62.384 2.0839h5.65c2.48 0 4.26 0.1746 5.59 0.5489 2.5 0.7007 3.08 2.0885 3.12 3.1305v0.006c0.03 0.643-0.2 1.213-0.66 1.697-1.16 1.201-3.77 1.915-7 1.915h-6.7v-7.2974zm-99.786 0.4766v9.4438h-13.084l11.719-8.459 1.365-0.9848z" transform="matrix(.8 0 0 -.8 228.18 411.98)" fill="#a00"/></g></g></svg>
